<?xml version="1.0" standalone="no"?>
<!DOCTYPE svg PUBLIC "-//W3C//DTD SVG 1.1//EN" "http://www.w3.org/Graphics/SVG/1.1/DTD/svg11.dtd" >
<svg xmlns="http://www.w3.org/2000/svg" xmlns:xlink="http://www.w3.org/1999/xlink" version="1.1">
<metadata></metadata>
<defs>
<font id="tt_autonomous_trial_variablRg" horiz-adv-x="1820" >
<font-face units-per-em="2048" ascent="1638" descent="-410" />
<missing-glyph horiz-adv-x="634" />
<glyph unicode="&#xfb00;" horiz-adv-x="2627" d="M39 770l61 262h394l18 80q31 135 92.5 215t172 118t288.5 38q115 0 273.5 -8.5t297.5 -22.5l-51 -274q-209 27 -372.5 39t-329.5 12l-45 -197h862l18 80q31 133 92.5 214t173 119t289.5 38q121 0 298 -8.5t323 -22.5l-51 -274q-209 29 -387.5 40t-366.5 11l-45 -197h735 l-61 -262h-736l-176 -770h-344l178 780h-862l-178 -780h-344l176 770h-393z" />
<glyph unicode="&#xfb01;" horiz-adv-x="2551" d="M39 770l61 262h394l18 80q31 135 92.5 215t172 118t288.5 38q127 0 294 -7.5t314 -23.5l-51 -274q-217 29 -388 40t-351 11l-45 -197h1720l-59 -252h-385l-121 -528h385l-58 -252h-1103l57 252h387l121 528h-1004l-178 -780h-344l176 770h-393zM1815 1225l38 174h476 l-39 -174h-475z" />
<glyph unicode="&#xfb03;" horiz-adv-x="3758" d="M39 770l61 262h394l18 80q31 135 92.5 215t172 118t288.5 38q115 0 273.5 -8.5t297.5 -22.5l-51 -274q-209 27 -372.5 39t-329.5 12l-45 -197h862l18 80q31 133 92.5 214t173 119t289.5 38q127 0 293 -7.5t313 -23.5l-51 -274q-217 29 -388 40t-351 11l-45 -197h1720 l-59 -252h-385l-121 -528h385l-57 -252h-1102l57 252h385l121 528h-1003l-179 -780h-344l178 780h-862l-178 -780h-344l176 770h-393zM3021 1225l39 174h475l-39 -174h-475z" />
<glyph horiz-adv-x="0" />
<glyph unicode="&#xd;" horiz-adv-x="1198" />
<glyph unicode=" "  horiz-adv-x="634" />
<glyph unicode="&#x09;" horiz-adv-x="634" />
<glyph unicode="&#xa0;" horiz-adv-x="634" />
<glyph unicode="!" horiz-adv-x="849" d="M119 0l59 264h377l-59 -264h-377zM299 459l33 399l143 617h344l-143 -617l-152 -399h-225z" />
<glyph unicode="&#x22;" horiz-adv-x="952" d="M250 823l33 340l71 312h242l-72 -312l-127 -340h-147zM694 823l33 340l71 312h242l-72 -312l-127 -340h-147z" />
<glyph unicode="#" horiz-adv-x="1931" d="M72 340l53 231h1573l-53 -231h-1573zM199 0l2 10l684 1413h252l-2 -10l-684 -1413h-252zM324 852l51 229h1573l-52 -229h-1572zM885 0l2 10l682 1413h252l-2 -10l-684 -1413h-250z" />
<glyph unicode="$" horiz-adv-x="1855" d="M35 12l63 332q371 -47 654 -65q207 -14 563 -21l59 262l-749 55q-164 12 -262.5 64.5t-132 145t-3.5 227.5q35 150 119 238.5t232.5 130.5t377.5 42q221 0 426 -9t484 -30l-66 -331q-346 45 -702 65q-236 14 -453 17l-57 -256l712 -56q180 -14 287 -64t142.5 -143.5 t3.5 -236.5q-33 -145 -116 -234.5t-238.5 -132.5t-405.5 -43q-274 0 -509 11.5t-429 31.5zM678 -264l74 325h198l-73 -325h-199zM1051 1352l67 297h199l-68 -297h-198z" />
<glyph unicode="%" horiz-adv-x="2320" d="M161 801q-34 94 5 254q37 154 103.5 238.5t167 117.5t251.5 33q158 0 252 -40t128 -134t-5 -254q-37 -154 -103.5 -238t-166.5 -116.5t-252 -32.5q-158 0 -252 39t-128 133zM387 870q47 -4 95 -7t91 -3t94.5 3t100.5 7l76 332q-47 4 -96.5 7t-92.5 3t-93 -3t-99 -7z M481 0l2 10l1147 1383h295l-2 -11l-1147 -1382h-295zM1336.5 123q-33.5 94 4.5 254q37 154 103.5 238.5t167 117.5t252.5 33q158 0 252 -40t127.5 -134t-5.5 -254q-37 -154 -103.5 -238t-166.5 -116.5t-252 -32.5q-158 0 -252 39t-127.5 133zM1563 193q47 -4 95 -7.5 t91 -3.5t94 3t101 8l75 331q-47 4 -96 7.5t-92 3.5t-93 -3.5t-100 -7.5z" />
<glyph unicode="&#x26;" horiz-adv-x="2273" d="M133 387q29 123 102.5 200t197.5 113.5t308 36.5l80 -69q-295 0 -418.5 98t-76.5 303q29 125 102.5 203t202.5 114.5t325 36.5q152 0 285 -8t352 -29l-61 -321q-158 27 -282 44t-244 26q-147 10 -273 10l-67 -293h688l-68 -287h-723l-74 -317q109 0 220.5 3t228.5 7 q39 2 79 3t81 3q229 10 418 29l184 801h334l-246 -1059q-305 -33 -560 -49.5t-468 -16.5q-248 0 -397.5 46t-206 138.5t-23.5 233.5zM1706 565l82 287h543l-68 -287h-557z" />
<glyph unicode="'" horiz-adv-x="507" d="M250 823l33 340l71 312h242l-72 -312l-127 -340h-147z" />
<glyph unicode="(" horiz-adv-x="937" d="M131 68l219 948q41 172 118 277.5t201 153.5t308 48h94l-61 -270h-297l-326 -1405h297l-61 -271h-95q-256 0 -357 127t-40 392z" />
<glyph unicode=")" horiz-adv-x="940" d="M-129 -451l61 271h297l326 1405h-297l61 270h95q256 0 357 -127t40 -391l-219 -948q-41 -172 -118 -277.5t-200.5 -154t-308.5 -48.5h-94z" />
<glyph unicode="*" horiz-adv-x="1054" d="M211 963l276 135l-276 137l78 147l276 -145l-6 264h174l-6 -264l277 145l77 -147l-276 -137l276 -135l-77 -148l-277 146l6 -265h-174l6 265l-276 -146z" />
<glyph unicode="+" d="M319 539v256h1250v-256h-1250zM815 84v1143h258v-1143h-258z" />
<glyph unicode="," horiz-adv-x="776" d="M-23 -342l35 154h246l43 188h-244l60 264h428l-99 -422q-23 -92 -85 -138t-168 -46h-216z" />
<glyph unicode="-" horiz-adv-x="983" d="M113 428l57 252h717l-58 -252h-716z" />
<glyph unicode="." horiz-adv-x="757" d="M57 0l60 264h407l-59 -264h-408z" />
<glyph unicode="/" horiz-adv-x="1150" d="M-213 -451l2 11l1231 1925h344l-2 -10l-1231 -1926h-344z" />
<glyph unicode="0" horiz-adv-x="1980" d="M174 272.5q-51 161.5 14 442.5q66 287 177.5 437.5t301 210.5t513.5 60q315 0 486 -70.5t222 -232.5t-14 -442q-66 -287 -177.5 -437.5t-299.5 -211t-512 -60.5q-315 0 -487.5 71t-223.5 232.5zM322 317l1292 881l115 -127l-1291 -881zM477 305q113 -4 227.5 -6t235.5 -2 q117 0 233.5 4t235.5 12l178 774q-113 4 -227.5 6.5t-235.5 2.5q-117 0 -233.5 -4.5t-235.5 -12.5z" />
<glyph unicode="1" horiz-adv-x="1544" d="M-57 0l71 311h598l248 1082h361l-248 -1082h534l-71 -311h-1493zM287 877l69 301h586l-70 -301h-585z" />
<glyph unicode="2" horiz-adv-x="1830" d="M25 0l98 418q31 131 98.5 215t180 128t280.5 58l729 58l59 258q-102 -2 -200.5 -5.5t-194.5 -7.5q-33 -2 -65.5 -4t-65.5 -4q-352 -27 -579 -59l90 331q258 20 444 28.5t367 8.5q227 0 362 -48t184.5 -146.5t12.5 -253.5q-29 -125 -92.5 -207t-170 -128t-266.5 -58 l-759 -60l-45 -200h1136l-74 -322h-1529z" />
<glyph unicode="3" horiz-adv-x="1775" d="M-12 6l63 330q135 -18 261 -30.5t259 -22.5q29 -2 57.5 -3t57.5 -4q223 -12 508 -16l68 295h-773l66 287h739l68 293q-188 -2 -475 -15q-276 -14 -619 -53l86 319q492 37 791 37q229 0 368.5 -43t192.5 -132t20 -228q-31 -129 -100.5 -208t-187 -114.5t-299.5 -35.5 l32 71q264 0 371 -93t62 -290q-31 -135 -113 -217t-238.5 -123t-412.5 -41q-432 0 -852 37z" />
<glyph unicode="4" horiz-adv-x="1818" d="M35 313l69 303l805 777h445l-2 -11l-789 -747l-2 -10h1251l-71 -312h-1706zM997 0l242 1053h352l-241 -1053h-353z" />
<glyph unicode="5" horiz-adv-x="1779" d="M27 6l65 332q240 -37 531 -57q203 -14 596 -23l67 299l-1075 31l184 805h1403l-67 -301h-1037l-53 -228l625 -18q160 -4 254 -58.5t123.5 -151.5t-3.5 -235q-37 -160 -120.5 -254t-229.5 -136t-375 -42q-203 0 -405.5 8.5t-482.5 28.5z" />
<glyph unicode="6" horiz-adv-x="1837" d="M129 449l111 481q37 160 107.5 261t189 151.5t299.5 50.5h987l-72 -312h-1112l-178 -778q72 -8 191.5 -12t217.5 -4q94 0 219 5t199 11l66 291h-905l67 287h698q225 0 343 -47.5t151 -148.5t-8 -273q-43 -180 -129 -273.5t-257.5 -131.5t-486.5 -38q-305 0 -469.5 46 t-217 149.5t-11.5 284.5z" />
<glyph unicode="7" horiz-adv-x="1568" d="M94 0l2 10l1069 1041l2 10h-1030l76 332h1505l-73 -326l-1076 -1067h-475z" />
<glyph unicode="8" horiz-adv-x="1964" d="M106 401q33 139 127.5 221.5t283 121t507.5 38.5q311 0 491.5 -46t246 -138t32.5 -238q-33 -143 -123 -226t-278 -124t-516 -41q-322 0 -502 47t-241.5 141.5t-27.5 243.5zM303 1028q33 143 122 228t266 126t480 41q297 0 465 -47t226.5 -143t25.5 -246 q-31 -135 -122 -216t-268 -120t-472 -39q-289 0 -459 46.5t-233.5 137.5t-30.5 232zM481 303q117 -8 231 -12t218 -4t221 4t235 12l58 250h-905zM655 840h803l58 250q-100 8 -202 12t-196 4t-198.5 -4t-206.5 -12z" />
<glyph unicode="9" horiz-adv-x="1835" d="M96 0l72 311h1112l178 779q-72 8 -191.5 12t-217.5 4q-94 0 -219 -5t-199 -11l-66 -291h905l-67 -287h-698q-225 0 -343 47t-151 148.5t8 273.5q43 180 129 273.5t257 131t487 37.5q305 0 469.5 -46t217 -149.5t11.5 -283.5l-111 -481q-37 -160 -107.5 -261.5 t-189 -151.5t-299.5 -50h-987z" />
<glyph unicode=":" horiz-adv-x="757" d="M57 0l60 264h407l-59 -264h-408zM233 768l60 264h407l-59 -264h-408z" />
<glyph unicode=";" horiz-adv-x="776" d="M-23 -342l35 154h246l43 188h-244l60 264h428l-99 -422q-23 -92 -85 -138t-168 -46h-216zM243 768l60 264h407l-59 -264h-408z" />
<glyph unicode="&#x3c;" d="M301 565v180l1153 523h10v-279l-764 -334l764 -333v-279h-10z" />
<glyph unicode="=" d="M317 315v232h1250v-232h-1250zM317 764v231h1250v-231h-1250z" />
<glyph unicode="&#x3e;" d="M401 43v279l764 333l-764 334v279h11l1153 -523v-180l-1153 -522h-11z" />
<glyph unicode="?" horiz-adv-x="1456" d="M172 1124l86 320q438 31 817 31q193 0 303.5 -48.5t146.5 -142.5t3 -233q-43 -190 -163 -280.5t-335 -108.5l-342 -31l137 55l-53 -227h-313l96 413l705 56l-146 -137l92 405q-182 0 -468.5 -19.5t-565.5 -52.5zM324 0l59 264h377l-60 -264h-376z" />
<glyph unicode="@" horiz-adv-x="2357" d="M195 512q70 301 217 489.5t386.5 278.5t590.5 90q311 0 515.5 -93t283.5 -266t26 -405q-61 -264 -214 -393t-386 -129h-205l-109 147l162 459h-454l-134 -379q49 0 98.5 2t100.5 9q23 2 47.5 5t48.5 5q82 10 185.5 31.5t187.5 46.5l-63 -209q-111 -45 -287 -81t-291 -36 q-174 0 -240.5 88t-23.5 258q10 39 37 113q51 143 117.5 222t164 113.5t250.5 34.5h594l-221 -626h88q129 0 208 74.5t118 244.5q43 190 -10.5 314t-210 184.5t-424.5 60.5q-281 0 -466.5 -67.5t-298 -215t-169.5 -390.5q-55 -236 -6 -383.5t206.5 -219t432.5 -71.5 q127 0 246.5 14t234.5 45h6l-61 -213q-127 -27 -246 -39t-230 -12q-330 0 -531.5 104.5t-269 305t-1.5 489.5z" />
<glyph unicode="A" horiz-adv-x="1910" d="M-109 0l3 10l999 1383h541l370 -1383l-2 -10h-375l-286 1151h-11l-819 -1151h-420zM352 281l234 301h790l97 -301h-1121z" />
<glyph unicode="B" horiz-adv-x="2101" d="M119 0l319 1393h1121q197 0 315.5 -42t160.5 -130q24 -51 24 -118q0 -50 -13 -108q-29 -121 -96.5 -194.5t-193.5 -108.5t-326 -35l20 86q205 0 323.5 -39.5t159.5 -123.5q24 -49 24 -113q0 -47 -13 -102q-31 -131 -101.5 -211t-193.5 -117t-312 -37h-1218zM438 557 l68 287h1116l57 248h-940l-184 -791h983l59 256h-1159z" />
<glyph unicode="C" horiz-adv-x="1900" d="M184 272q-14 60 -14 137q0 130 41 308q66 287 165 436.5t273 209.5t486 60q209 0 412.5 -7t428.5 -23l-63 -332q-442 49 -817 63q-193 8 -385 11l-201 -877q172 2 389 10q457 18 856 64l-88 -332q-223 -16 -437 -23.5t-390 -7.5q-305 0 -461 70.5t-195 232.5z" />
<glyph unicode="D" horiz-adv-x="2187" d="M119 0l319 1393h979q301 0 460 -68q159 -67 202 -223q18 -64 18 -147q0 -120 -37 -279q-63 -274 -162.5 -417.5t-274.5 -201t-484 -57.5h-1020zM561 322h1014l172 749h-1014z" />
<glyph unicode="E" horiz-adv-x="1943" d="M119 0l319 1393h1557l-72 -312h-1188l-55 -241h872l-65 -287h-873l-55 -242h1215l-72 -311h-1583z" />
<glyph unicode="F" horiz-adv-x="1800" d="M119 0l319 1393h1555l-74 -322h-1186l-67 -293h866l-72 -311h-866l-107 -467h-368z" />
<glyph unicode="G" horiz-adv-x="2129" d="M200 278q-23 74 -23 171q0 120 36 276q66 285 164 432.5t275 206.5t493 59q565 0 966 -30l-63 -332q-395 37 -866 59q-209 10 -471 15l-187 -813q117 -12 247 -18.5t273 -6.5q141 0 278.5 6t260.5 19l82 356l98 -117h-813l66 287h1057l-62 -268q-55 -240 -163.5 -370 t-311.5 -185.5t-553 -55.5q-354 0 -541.5 73t-241.5 236z" />
<glyph unicode="H" horiz-adv-x="2177" d="M119 0l319 1393h369l-320 -1393h-368zM387 547l74 321h1411l-74 -321h-1411zM1454 0l320 1393h368l-319 -1393h-369z" />
<glyph unicode="I" horiz-adv-x="1632" d="M27 0l67 301h498l184 791h-497l67 301h1344l-68 -301h-498l-184 -791h498l-68 -301h-1343z" />
<glyph unicode="J" horiz-adv-x="1622" d="M-45 6l65 332q297 -37 496 -53q27 -2 54.5 -4t54.5 -5q125 -10 362 -18l189 823h-801l71 312h1174l-203 -871q-51 -221 -139 -338.5t-237.5 -166t-403.5 -48.5q-164 0 -343 10.5t-339 26.5z" />
<glyph unicode="K" horiz-adv-x="1896" d="M119 0l319 1393h369l-320 -1393h-368zM426 297l37 403l1026 693h555l-2 -11zM784 690l340 144l635 -824l-2 -10h-457z" />
<glyph unicode="L" horiz-adv-x="1654" d="M119 0l319 1393h369l-246 -1071h1018l-74 -322h-1386z" />
<glyph unicode="M" horiz-adv-x="2510" d="M119 0l319 1393h580l223 -807h10l607 807h618l-319 -1393h-369l264 1151h-10l-641 -856h-404l-235 856h-10l-265 -1151h-368z" />
<glyph unicode="N" horiz-adv-x="2179" d="M119 0l319 1393h604l467 -1172h11l268 1172h356l-319 -1393h-604l-469 1174h-9l-270 -1174h-354z" />
<glyph unicode="O" horiz-adv-x="2230" d="M200 270q-25 73 -25 171q0 119 36 276q66 289 179.5 438.5t323.5 208.5t591 59q371 0 563 -69.5t246 -229.5q25 -73 25 -172q0 -119 -36 -276q-66 -289 -179.5 -438.5t-323 -209t-590.5 -59.5q-371 0 -563.5 70.5t-246.5 230.5zM524 319q137 -10 270.5 -16t270.5 -6 t273.5 6t279.5 16l172 754q-137 10 -270.5 16.5t-270.5 6.5t-273 -6.5t-280 -16.5z" />
<glyph unicode="P" horiz-adv-x="1964" d="M119 0l319 1393h1073q199 0 316 -55.5t153 -165.5q18 -53 18 -121q0 -71 -20 -158q-39 -164 -115.5 -264.5t-205.5 -147.5t-326 -47h-745l-99 -434h-368zM655 735h889l84 357h-889z" />
<glyph unicode="Q" horiz-adv-x="2250" d="M192 284q-18 63 -18 148q0 121 37 285q66 291 179.5 439.5t322.5 207.5t592 59q369 0 562 -70.5t249 -228.5q25 -73 25 -171q0 -116 -36 -269q-59 -258 -166.5 -395t-310.5 -191l-35 121l197 854q-137 10 -269 16.5t-272 6.5q-137 0 -272 -6.5t-281 -16.5l-176 -764 q360 -12 846.5 -39.5t787.5 -62.5l-61 -322q-365 43 -629 63.5t-651 39.5q-279 12 -427 77.5t-194 218.5z" />
<glyph unicode="R" horiz-adv-x="2048" d="M119 0l319 1393h1094q197 0 312.5 -52.5t153.5 -156.5q19 -53 19 -120q0 -65 -18 -144q-35 -156 -111 -251.5t-202.5 -140.5t-321.5 -45h-766l-111 -483h-368zM666 774h913l76 328h-914zM842 625l448 4l518 -619l-2 -10h-456z" />
<glyph unicode="S" horiz-adv-x="1855" d="M35 12l63 332q397 -49 654 -65q211 -14 563 -21l59 262l-749 55q-164 12 -262.5 64.5t-132.5 144.5q-18 49 -17 110q0 54 14 118q35 150 119 238.5t232.5 130.5t377.5 42q221 0 426 -9t484 -30l-66 -331q-346 45 -702 65q-236 14 -453 17l-57 -256l712 -56 q180 -14 287 -64q107 -49 143 -143q19 -49 18 -113q0 -57 -15 -124q-33 -145 -116 -234.5t-238.5 -132.5t-405.5 -43q-274 0 -509 11.5t-429 31.5z" />
<glyph unicode="T" horiz-adv-x="1789" d="M150 1071l73 322h1749l-74 -322h-690l-245 -1071h-369l246 1071h-690z" />
<glyph unicode="U" horiz-adv-x="2125" d="M230 250q-22 68 -23 160q0 110 33 254l168 729h368l-246 -1071q127 -12 247 -18.5t237 -6.5q115 0 237.5 6t255.5 19l246 1071h367l-174 -768q-61 -268 -165 -406.5t-293.5 -194t-529.5 -55.5q-332 0 -505 65.5t-223 215.5z" />
<glyph unicode="V" horiz-adv-x="1843" d="M190 1382l3 11h374l252 -1151h10l791 1151h416l-2 -11l-967 -1382h-559z" />
<glyph unicode="W" horiz-adv-x="2490" d="M201 1382l2 11h360l88 -1151h11l477 880h432l63 -880h11l636 1151h392l-2 -11l-785 -1382h-540l-56 768h-8l-414 -768h-546z" />
<glyph unicode="X" horiz-adv-x="1853" d="M-78 0l2 10l774 709l-401 663l2 11h424l272 -486h11l518 486h483l-2 -11l-739 -671l430 -701l-2 -10h-424l-299 518h-10l-555 -518h-484z" />
<glyph unicode="Y" horiz-adv-x="1728" d="M170 1382l2 11h414l303 -600h10l580 600h463l-3 -11l-909 -911l-108 -471h-369l109 473z" />
<glyph unicode="Z" horiz-adv-x="1925" d="M35 0l104 453l1303 608l2 10h-1133l74 322h1577l-104 -453l-1303 -608l-2 -10h1173l-73 -322h-1618z" />
<glyph unicode="[" horiz-adv-x="937" d="M23 -451l448 1946h600l-59 -256h-307l-330 -1434h307l-59 -256h-600z" />
<glyph unicode="\" horiz-adv-x="1122" d="M242 1475l2 10h295l342 -1925l-2 -11h-295z" />
<glyph unicode="]" horiz-adv-x="937" d="M-131 -451l59 256h308l329 1434h-307l59 256h601l-449 -1946h-600z" />
<glyph unicode="^" horiz-adv-x="997" d="M184 920v10l336 463h162l336 -463v-10h-266l-154 225l-154 -225h-260z" />
<glyph unicode="_" horiz-adv-x="1105" d="M-264 -451l53 230h1188l-53 -230h-1188z" />
<glyph unicode="`" horiz-adv-x="804" d="M256 1362l82 158l584 -230l-82 -157z" />
<glyph unicode="a" horiz-adv-x="1736" d="M43 307q33 135 134.5 203t299.5 88l826 80l-27 -203l-975 -92l117 123l-60 -436l-77 127l962 112l39 -211l-817 -114q-95 -15 -148 -15q-175 0 -245 85q-44 53 -44 140q0 51 15 113zM293 741l76 279q242 20 454.5 31.5t343.5 11.5q195 0 301 -41q108 -41 140 -130 q16 -43 15 -101q0 -60 -17 -136l-152 -655h-270l-49 113l159 692q-170 0 -458.5 -19.5t-542.5 -44.5z" />
<glyph unicode="b" horiz-adv-x="1777" d="M66 0l340 1475h344l-279 -1203h774l119 512q-240 0 -499 -44t-507 -119l-28 231q266 90 542.5 150.5t456.5 60.5q168 0 256 -57q89 -58 107 -180q5 -34 5 -74q0 -103 -34 -246q-47 -197 -115.5 -304.5t-187.5 -154.5t-320 -47h-974z" />
<glyph unicode="c" horiz-adv-x="1536" d="M102 198q-14 50 -14 116q0 94 29 221q49 215 128 326.5t221 156.5t394 45q170 0 333 -9.5t341 -27.5l-53 -285q-236 33 -444 45.5t-494 12.5l-131 -566q299 0 514 14.5t467 49.5l-78 -285q-217 -23 -368 -33t-298 -10q-250 0 -381.5 53.5t-165.5 175.5z" />
<glyph unicode="d" horiz-adv-x="1779" d="M86 204q-5 34 -5 74q0 104 34 248q45 195 114.5 303.5t188.5 155.5t319 47h824l-62 -272h-967l-118 -512q242 0 499.5 44t505.5 120l29 -232q-266 -90 -542.5 -150.5t-456.5 -60.5q-168 0 -256.5 56.5t-106.5 178.5zM1161 131l312 1344h344l-340 -1475h-260z" />
<glyph unicode="e" horiz-adv-x="1703" d="M102 188q-17 52 -17 123q0 86 26 199q53 227 142 344t254 163t466 46q295 0 449.5 -54.5t199.5 -176.5q22 -58 22 -137q0 -87 -26 -199q-10 -45 -27 -78h-1177l47 205h833l35 155q-98 6 -197.5 9.5t-199.5 3.5q-98 0 -198.5 -3.5t-201.5 -9.5l-124 -545q326 0 554 11.5 t513 40.5l-78 -285q-154 -12 -360 -21.5t-345 -9.5q-270 0 -410.5 51.5t-179.5 167.5z" />
<glyph unicode="f" horiz-adv-x="1421" d="M39 770l61 262h1473l-62 -262h-1472zM262 0l250 1112q31 135 92.5 215t171 118t289.5 38q123 0 300 -8.5t323 -22.5l-52 -274q-209 29 -387 40t-366 11l-283 -1229h-338z" />
<glyph unicode="g" horiz-adv-x="1775" d="M0 -416l53 291q336 -35 531.5 -45t505.5 -10l217 940h-775l-106 -459q248 0 507 45t501 125l30 -240q-270 -90 -547.5 -149t-455.5 -59q-164 0 -253 55t-110 171q-8 39 -8 85q0 92 29 213q43 186 111.5 289.5t188.5 149.5t320 46h981l-258 -1091q-33 -135 -88 -217 t-175 -128.5t-329 -46.5q-145 0 -420.5 9.5t-449.5 25.5z" />
<glyph unicode="h" horiz-adv-x="1779" d="M66 0l340 1475h344l-340 -1475h-344zM489 868q242 84 471.5 139.5t397.5 55.5q192 0 268 -88q48 -56 49 -152q0 -54 -16 -121l-162 -702h-344l178 778q-135 0 -366.5 -49t-438.5 -121z" />
<glyph unicode="i" horiz-adv-x="1329" d="M-4 0l57 252h385l121 528h-385l59 252h1102l-59 -252h-385l-121 -528h385l-57 -252h-1102zM592 1225l39 174h475l-39 -174h-475z" />
<glyph unicode="j" horiz-adv-x="1138" d="M-242 -420l52 285q180 -25 338.5 -38t308.5 -13l221 956h-557l61 262h901l-256 -1110q-31 -131 -93 -212t-169.5 -121t-273.5 -40q-104 0 -248.5 8.5t-284.5 22.5zM657 1225l39 174h475l-39 -174h-475z" />
<glyph unicode="k" horiz-adv-x="1570" d="M66 0l340 1475h344l-340 -1475h-344zM219 385l940 647h494l-2 -10l-1319 -889zM621 514l305 123l528 -627l-2 -10h-422z" />
<glyph unicode="l" horiz-adv-x="1243" d="M142 152q-15 45 -14 102q0 57 15 125l254 1096h344l-286 -1242q283 0 735 54l-78 -285q-158 -14 -323.5 -23.5t-276.5 -9.5q-158 0 -249 45.5t-121 137.5z" />
<glyph unicode="m" horiz-adv-x="2521" d="M55 0l238 1032h266l43 -153l-203 -879h-344zM434 848q180 88 391 151.5t367 63.5q184 0 258 -89q47 -56 47 -151q0 -55 -16 -123l-162 -700h-344l178 778q-147 0 -324.5 -51t-355.5 -129zM1354 848q180 88 391 151.5t366 63.5q184 0 258 -89q47 -56 47 -151 q0 -55 -16 -123l-162 -700h-344l179 778q-147 0 -324.5 -51t-355.5 -129z" />
<glyph unicode="n" horiz-adv-x="1769" d="M55 0l238 1032h266l43 -153l-203 -879h-344zM479 868q242 84 471.5 139.5t397.5 55.5q192 0 268 -88q48 -56 49 -152q0 -54 -16 -121l-162 -702h-344l178 778q-135 0 -366.5 -49t-438.5 -121z" />
<glyph unicode="o" horiz-adv-x="1783" d="M114 198q-23 59 -23 140q0 86 26 197q51 215 142 326.5t262 156.5t478 45q303 0 463 -53.5t208 -175.5q23 -59 23 -139q0 -86 -26 -197q-51 -215 -142 -327t-262.5 -157t-478.5 -45q-303 0 -462.5 53.5t-207.5 175.5zM418 266q57 -6 178.5 -10t232.5 -4t236 4t184 10 l115 500q-57 6 -180 10t-234 4t-234.5 -4t-183.5 -10z" />
<glyph unicode="p" horiz-adv-x="1767" d="M-49 -451l342 1483h260l53 -131l-311 -1352h-344zM207 0l61 272h967l119 512q-240 0 -499 -44t-507 -119l-29 231q266 90 543 150.5t457 60.5q168 0 256 -57.5t107 -179.5q5 -34 5 -74q0 -103 -34 -246q-47 -197 -116 -304.5t-187.5 -154.5t-319.5 -47h-823z" />
<glyph unicode="q" horiz-adv-x="1769" d="M86 204q-5 34 -5 74q0 103 34 248q45 195 114.5 303.5t188.5 155.5t319 47h977l-342 -1483h-344l279 1211h-775l-118 -512q242 0 499.5 44t505.5 120l29 -232q-266 -90 -542.5 -150.5t-456.5 -60.5q-168 0 -256.5 56.5t-106.5 178.5z" />
<glyph unicode="r" horiz-adv-x="1595" d="M-4 0l59 262h344l117 508h-344l61 262h590l41 -217l-26 -143l-95 -410h631l-59 -262h-1319zM762 803q246 125 459 192.5t376 67.5q59 0 93 -4l-66 -287q-23 2 -82 2q-121 0 -234.5 -27.5t-224 -74.5t-295.5 -137z" />
<glyph unicode="s" horiz-adv-x="1542" d="M14 2l52 285q297 -31 532.5 -42t458.5 -12l30 140l-583 51q-143 12 -227 49t-114 105q-16 37 -16 87q0 41 11 89q27 119 94 184.5t198.5 94t358.5 28.5q143 0 331.5 -7t364.5 -20l-51 -284q-209 20 -468 33.5t-470 13.5l-31 -144l557 -49q156 -14 245 -51t120 -105 q17 -38 17 -89q0 -41 -11 -89q-27 -117 -93.5 -181t-199.5 -92t-366 -28q-385 0 -740 33z" />
<glyph unicode="t" horiz-adv-x="1548" d="M39 770l61 262h1518l-62 -262h-1517zM330 126q-12 37 -13 86q0 57 17 128l221 963h344l-246 -1070q195 0 397.5 16.5t426.5 45.5l-78 -285q-137 -16 -354.5 -28.5t-350.5 -12.5q-160 0 -249 38t-115 119z" />
<glyph unicode="u" horiz-adv-x="1751" d="M121 330l164 702h344l-180 -778q137 0 369.5 48t434.5 122l37 -260q-242 -84 -471 -139.5t-397 -55.5q-192 0 -268 88q-48 56 -49 152q0 54 16 121zM1149 154l203 878h344l-238 -1032h-266z" />
<glyph unicode="v" horiz-adv-x="1464" d="M96 1022l2 10h346l166 -805h11l575 805h387l-2 -10l-762 -1022h-483z" />
<glyph unicode="w" horiz-adv-x="2029" d="M117 1022l2 10h323l70 -805h10l361 633h356l70 -633h10l455 805h354l-2 -10l-598 -1022h-457l-59 547h-11l-309 -547h-469z" />
<glyph unicode="x" horiz-adv-x="1501" d="M-109 0l3 10l612 520l-318 492l2 10h377l205 -346h10l379 346h430l-2 -10l-559 -502l344 -510l-2 -10h-379l-235 365h-10l-420 -365h-437z" />
<glyph unicode="y" horiz-adv-x="1464" d="M-133 -432l53 285q156 -18 270.5 -28.5t229.5 -10.5l788 1218h371l2 -12l-770 -1147q-90 -133 -153.5 -196.5t-158.5 -95.5t-257 -32q-78 0 -178.5 5.5t-196.5 13.5zM96 1022l2 10h355l213 -823h100l-27 -209h-350z" />
<glyph unicode="z" horiz-adv-x="1548" d="M6 0l84 371l973 389l2 10h-862l61 262h1270l-86 -370l-973 -390l-2 -10h903l-59 -262h-1311z" />
<glyph unicode="{" horiz-adv-x="948" d="M53 391l60 262h39q61 0 100 29t53 94l55 242q39 172 116 276.5t201 152.5t310 48h94l-61 -270h-295l-107 -455q-33 -141 -133 -207.5t-272 -66.5l-29 53q186 0 266 -80t44 -236l-97 -413h297l-61 -271h-53q-285 0 -391.5 125t-45.5 394l37 161q18 86 -12.5 124t-110.5 38 h-4z" />
<glyph unicode="|" horiz-adv-x="856" d="M289 -451v1946h282v-1946h-282z" />
<glyph unicode="}" horiz-adv-x="950" d="M-129 -451l61 271h295l107 454q33 141 133 208t272 67l29 -53q-186 0 -266 79.5t-43 235.5l96 414h-297l61 270h54q285 0 391 -125t45 -393l-37 -162q-18 -86 12.5 -124t110.5 -38h4l-59 -262h-39q-61 0 -100 -28.5t-54 -94.5l-55 -241q-39 -172 -116 -276.5t-200.5 -153 t-310.5 -48.5h-94z" />
<glyph unicode="~" d="M319 444v232q0 100 48.5 153.5t142.5 53.5q63 0 134 -14.5t169 -43.5l444 -127h52v185h239v-232q0 -100 -48 -153.5t-142 -53.5q-63 0 -134 14.5t-169 43.5l-445 127h-51v-185h-240z" />
<glyph unicode="&#xa1;" horiz-adv-x="847" d="M29 -451l143 625l152 399h225l-33 -399l-143 -625h-344zM293 768l61 264h377l-61 -264h-377z" />
<glyph unicode="&#xa2;" horiz-adv-x="1536" d="M102.5 197.5q-34.5 121.5 14.5 337.5q49 215 128 326.5t221 156.5t394 45q170 0 333 -9.5t341 -27.5l-53 -285q-236 33 -444 45.5t-494 12.5l-131 -566q299 0 514 14.5t467 49.5l-78 -285q-217 -23 -368 -33t-298 -10q-250 0 -381 53.5t-165.5 175zM610 -231l68 292h199 l-68 -292h-199zM881 934l75 330h199l-76 -330h-198z" />
<glyph unicode="&#xa3;" horiz-adv-x="1724" d="M-88 0l72 311h1652l-71 -311h-1653zM57 635l41 178h1323l-41 -178h-1323zM283 209l180 807q33 143 111.5 233t200.5 132t288 42q150 0 340 -7t366 -19l-63 -332q-502 63 -848 70l-213 -926h-362z" />
<glyph unicode="&#xa4;" horiz-adv-x="1509" d="M158 322l227 227l121 -119l-225 -229zM158 1040l123 121l225 -229l-121 -119zM238 682q0 131 52 213t170 122t318 40q201 0 318.5 -40t169 -122t51.5 -213t-51.5 -213t-169 -123t-318.5 -41t-318.5 41t-169.5 123t-52 213zM522 532h510v297h-510v-297zM1049 430l120 119 l228 -227l-123 -121zM1049 932l225 229l123 -121l-228 -227z" />
<glyph unicode="&#xa5;" horiz-adv-x="1708" d="M170 1382l2 11h356l355 -607h10l633 607h416l-3 -11l-892 -833l-125 -549h-369l125 549zM199 231l41 179h1185l-41 -179h-1185zM270 549l41 178h1186l-41 -178h-1186z" />
<glyph unicode="&#xa6;" horiz-adv-x="856" d="M287 358h282v-809h-282v809zM287 686v809h282v-809h-282z" />
<glyph unicode="&#xa7;" horiz-adv-x="1605" d="M0 -412l51 277q238 -33 454 -51.5t437 -18.5l-86 -119l105 449l139 -129l-637 115q-129 25 -207 73.5t-104.5 127.5t-1.5 190q25 115 92 189.5t176.5 113.5t265.5 47l-29 -184l-118 22l-93 -403l-47 121l537 -103q203 -39 280.5 -133t38.5 -266q-31 -131 -95 -208 t-179 -113t-301 -36q-147 0 -341 10.5t-337 28.5zM338 1065q31 133 94.5 211t179 112.5t303.5 34.5q133 0 300 -8t294 -22l-49 -277q-215 31 -409.5 46.5t-388.5 15.5l73 118l-104 -448l-137 127l632 -113q133 -25 211 -74t103.5 -126.5t1.5 -188.5q-27 -117 -93.5 -192.5 t-175 -114.5t-266.5 -47l27 186l119 -22l94 403l47 -121l-539 103q-205 39 -281.5 132t-35.5 265z" />
<glyph unicode="&#xa8;" horiz-adv-x="1159" d="M225 1217l39 174h440l-39 -174h-440zM819 1217l39 174h440l-39 -174h-440z" />
<glyph unicode="&#xa9;" horiz-adv-x="2166" d="M236 696q0 270 96 434t290.5 237t501.5 73t502 -73t291 -236.5t96 -434.5q0 -270 -96 -433t-291 -236.5t-502 -73.5t-501.5 73.5t-290.5 236.5t-96 433zM440 696q0 -215 71 -335.5t218 -171t395 -50.5t395.5 50.5t218 171t70.5 335.5t-70.5 336t-218 171t-395.5 50 t-395 -50t-218 -171t-71 -336zM682 696q0 150 35 227.5t119 109.5t243 32q223 0 418 -25l10 -211q-158 18 -293 27.5t-286 9.5v-340q170 0 305 8.5t278 28.5l-10 -211q-129 -14 -223.5 -19t-198.5 -5q-160 0 -243.5 31.5t-118.5 109.5t-35 227z" />
<glyph unicode="&#xaa;" horiz-adv-x="1099" d="M117 891q25 102 94.5 151.5t204.5 61.5l573 55l-24 -168l-670 -63l88 108l-43 -321l-53 102l657 76l23 -160l-518 -76q-97 -14 -134 -14q-127 0 -177 61.5t-21 186.5zM295 1192l55 209q131 14 263 22.5t212 8.5q143 0 220 -32t97.5 -95.5t-1.5 -165.5l-109 -469h-190 l-41 90l135 581l51 -98q-121 0 -327.5 -14.5t-364.5 -36.5z" />
<glyph unicode="&#xab;" horiz-adv-x="1626" d="M92 516l553 516h371l-2 -10l-635 -571l-10 131l370 -572l-2 -10h-329zM698 516l553 516h371l-2 -10l-635 -571l-10 131l371 -572l-3 -10h-329z" />
<glyph unicode="&#xac;" d="M317 612v256h1229v-481h-246v225h-983z" />
<glyph unicode="&#xad;" horiz-adv-x="983" d="M113 428l57 252h717l-58 -252h-716z" />
<glyph unicode="&#xae;" horiz-adv-x="1593" d="M199 952q0 301 175 434.5t498 133.5q324 0 499 -133.5t175 -434.5t-175 -434t-499 -133t-498.5 133t-174.5 434zM365 952q0 -233 128.5 -327.5t378.5 -94.5t379 94.5t129 327.5t-129 327.5t-379 94.5t-378.5 -94t-128.5 -328zM563 686v533h438q109 0 160 -42t51 -135 q0 -96 -51 -140t-160 -44h-344v133h371v94h-291v-399h-174zM772 918h209l238 -222v-10h-209z" />
<glyph unicode="&#xaf;" horiz-adv-x="1005" d="M226 1217l39 174h880l-39 -174h-880z" />
<glyph unicode="&#xb0;" horiz-adv-x="1101" d="M209 1114q0 133 53 213t156.5 114t259.5 34t259 -34t156.5 -114t53.5 -213q0 -139 -53.5 -221t-155.5 -117t-260 -35t-260.5 35t-155.5 117t-53 221zM467 963h422v290h-422v-290z" />
<glyph unicode="&#xb1;" d="M315 0v225h1250v-225h-1250zM315 692v236h1250v-236h-1250zM817 340v1001h246v-1001h-246z" />
<glyph unicode="&#xb2;" horiz-adv-x="1009" d="M152 819l61 264q23 98 94.5 148.5t206.5 66.5l492 54l-152 -107l57 252l35 -70q-152 -4 -304.5 -15t-301.5 -28l57 215q221 23 422 23q195 0 275 -64.5t49 -195.5q-23 -100 -94.5 -149.5t-208.5 -65.5l-486 -53l133 63l-32 -137h594l-45 -201h-852z" />
<glyph unicode="&#xb3;" horiz-adv-x="935" d="M121 829l41 209q158 -20 316.5 -29.5t338.5 -9.5l-110 -114l55 235h-391l43 185h495l-135 -39l66 282l45 -121q-152 0 -306.5 -9t-316.5 -27l57 208q106 10 221 16.5t183 6.5q203 0 280.5 -58.5t49.5 -179.5q-25 -100 -103 -144t-227 -44l-2 37q164 0 228.5 -53.5 t37.5 -171.5q-23 -104 -115 -153.5t-278 -49.5q-111 0 -234.5 6t-238.5 18z" />
<glyph unicode="&#xb4;" horiz-adv-x="841" d="M240 1290l690 230l43 -174l-690 -230z" />
<glyph unicode="&#xb5;" horiz-adv-x="1759" d="M-49 -451l342 1483h344l-170 -739q27 -14 89 -26.5t149 -12.5q152 0 290 49t271 129l39 -270q-166 -94 -322 -143.5t-334 -49.5q-82 0 -148.5 9.5t-103.5 19.5l-102 -449h-344zM1157 154l203 878h344l-238 -1032h-264z" />
<glyph unicode="&#xb6;" horiz-adv-x="1544" d="M164 918q0 176 54 281.5t156.5 149.5t256.5 44h698v-1450q0 -137 -47 -223.5t-155.5 -128.5t-292.5 -42q-94 0 -266.5 9.5t-319.5 25.5l-12 240q223 -33 410.5 -46.5t426.5 -13.5v1414h-291v-1471h-256v873l105 -138q-154 0 -256.5 44t-156.5 149.5t-54 282.5z" />
<glyph unicode="&#xb7;" horiz-adv-x="634" d="M86 385l60 264h407l-59 -264h-408z" />
<glyph unicode="&#xb8;" horiz-adv-x="821" d="M-154 -451l29 158q324 -31 510 -31l22 95h-417l18 84l123 145l90 10l90 -10l-84 -94h156q121 0 168 -48t22 -149q-14 -63 -48 -99t-105.5 -53.5t-198.5 -17.5q-219 0 -375 10z" />
<glyph unicode="&#xb9;" horiz-adv-x="903" d="M121 819l49 211h313l133 578h252l-133 -578h266l-49 -211h-831zM299 1260l47 200h262l-47 -200h-262z" />
<glyph unicode="&#xba;" horiz-adv-x="1155" d="M196.5 815q-36.5 90 0.5 246q35 147 103.5 227t179 112t288.5 32q180 0 286.5 -38t144.5 -128t1 -246q-35 -147 -103.5 -227t-180 -112t-287.5 -32q-182 0 -289 38t-143.5 128zM420 891q57 -4 123 -7t119 -3t118.5 3t126.5 7l70 299q-59 4 -125 7t-117 3q-53 0 -119.5 -3 t-126.5 -7z" />
<glyph unicode="&#xbb;" horiz-adv-x="1626" d="M4 0l2 10l635 572l10 -131l-370 571l2 10h329l316 -516l-553 -516h-371zM610 0l2 10l635 572l10 -131l-370 571l2 10h330l315 -516l-553 -516h-371z" />
<glyph unicode="&#xbc;" horiz-adv-x="2236" d="M72 604l49 211h313l133 578h252l-133 -578h266l-49 -211h-831zM250 1045l47 200h262l-47 -200h-262zM477 0l2 10l1147 1383h295l-2 -11l-1147 -1382h-295zM1206 162l43 182l435 445h282l-2 -11l-407 -405l-2 -10h606l-47 -201h-908zM1723 0l139 604h231l-139 -604h-231z " />
<glyph unicode="&#xbd;" horiz-adv-x="2338" d="M72 604l49 211h313l133 578h252l-133 -578h266l-49 -211h-831zM250 1045l47 200h262l-47 -200h-262zM477 0l2 10l1147 1383h295l-2 -11l-1147 -1382h-295zM1293 0l61 264q23 98 94.5 148.5t206.5 66.5l492 54l-152 -107l57 252l35 -70q-152 -4 -304.5 -15t-301.5 -28 l57 215q221 23 422 23q195 0 275 -64.5t49 -195.5q-23 -100 -94.5 -149.5t-208.5 -65.5l-486 -53l133 63l-32 -137h594l-45 -201h-852z" />
<glyph unicode="&#xbe;" horiz-adv-x="2187" d="M72 614l41 209q158 -20 316.5 -29.5t338.5 -9.5l-110 -114l55 235h-391l43 185h495l-135 -39l66 282l45 -121q-152 0 -306.5 -9t-316.5 -27l57 208q106 10 221 16.5t183 6.5q203 0 280.5 -58.5t49.5 -179.5q-25 -100 -103 -144t-227 -44l-2 37q164 0 228.5 -53.5 t37.5 -171.5q-23 -104 -115 -153.5t-278 -49.5q-111 0 -234.5 6t-238.5 18zM428 0l2 10l1147 1383h295l-2 -11l-1147 -1382h-295zM1157 162l43 182l435 445h282l-2 -11l-407 -405l-2 -10h606l-47 -201h-908zM1674 0l139 604h231l-139 -604h-231z" />
<glyph unicode="&#xbf;" horiz-adv-x="1341" d="M-94 -29q45 193 164.5 283t335.5 108l202 19l45 190h314l-97 -419l-577 -46l-66 -278q184 0 456.5 19.5t547.5 52.5l-86 -320q-244 -18 -421 -24.5t-374 -6.5q-279 0 -386 106.5t-58 315.5zM666 766l61 264h377l-62 -264h-376z" />
<glyph unicode="&#xc0;" horiz-adv-x="1910" d="M-109 0l3 10l999 1383h541l370 -1383l-2 -10h-375l-286 1151h-11l-819 -1151h-420zM352 281l234 301h790l97 -301h-1121zM797 1722l78 166l688 -196l-80 -166z" />
<glyph unicode="&#xc1;" horiz-adv-x="1910" d="M-109 0l3 10l999 1383h541l370 -1383l-2 -10h-375l-286 1151h-11l-819 -1151h-420zM352 281l234 301h790l97 -301h-1121zM891 1692l778 196l23 -186l-780 -197z" />
<glyph unicode="&#xc2;" horiz-adv-x="1910" d="M-109 0l3 10l999 1383h541l370 -1383l-2 -10h-375l-286 1151h-11l-819 -1151h-420zM352 281l234 301h790l97 -301h-1121zM676 1704l518 143h90l453 -143l-76 -176l-438 143l-504 -143z" />
<glyph unicode="&#xc3;" horiz-adv-x="1910" d="M-109 0l3 10l999 1383h541l370 -1383l-2 -10h-375l-286 1151h-11l-819 -1151h-420zM352 281l234 301h790l97 -301h-1121zM714 1536l29 125q20 84 64.5 125t111.5 41q59 0 111.5 -8.5t112.5 -22.5l10 -2l350 -86h14l27 119h203l-29 -125q-20 -84 -64.5 -125t-111.5 -41 q-55 0 -103.5 7t-109.5 20q-4 2 -10.5 3t-10.5 3l-350 86h-14l-27 -119h-203z" />
<glyph unicode="&#xc4;" horiz-adv-x="1910" d="M-109 0l3 10l999 1383h541l370 -1383l-2 -10h-375l-286 1151h-11l-819 -1151h-420zM352 281l234 301h790l97 -301h-1121zM694 1599l41 183h440l-41 -183h-440zM1288 1599l41 183h440l-41 -183h-440z" />
<glyph unicode="&#xc5;" horiz-adv-x="1910" d="M-109 0l3 10l999 1383h541l370 -1383l-2 -10h-375l-286 1151h-11l-819 -1151h-420zM352 281l234 301h790l97 -301h-1121zM774 1712q16 74 60 114t141.5 57.5t277.5 17.5q186 0 283.5 -21.5t128 -70t12.5 -134.5q-16 -76 -60.5 -115.5t-141.5 -57t-277 -17.5 q-188 0 -284.5 21.5t-127.5 70.5t-12 135zM927 1636h570l26 113h-569z" />
<glyph unicode="&#xc6;" horiz-adv-x="2627" d="M-139 0l2 10l1138 1383h1680l-72 -312h-1065l37 -770h877l-72 -311h-1141l-41 1124h-10l-915 -1124h-418zM344 281l234 301h778l-23 -301h-989zM1458 553v287h778l-65 -287h-713z" />
<glyph unicode="&#xc7;" horiz-adv-x="1900" d="M184 272.5q-39 161.5 27 444.5q66 287 165 436.5t273 209.5t486 60q209 0 412.5 -7t428.5 -23l-63 -332q-442 49 -817 63q-193 8 -385 11l-201 -877q172 2 389 10q457 18 856 64l-88 -332q-223 -16 -437 -23.5t-390 -7.5q-305 0 -461 71t-195 232.5zM530 -451l29 158 q324 -31 510 -31l22 95h-417l18 84l123 145l90 10l90 -10l-84 -94h156q121 0 168 -48t22 -149q-14 -63 -48 -99t-105.5 -53.5t-198.5 -17.5q-219 0 -375 10z" />
<glyph unicode="&#xc8;" horiz-adv-x="1943" d="M119 0l319 1393h1557l-72 -312h-1188l-55 -241h872l-65 -287h-873l-55 -242h1215l-72 -311h-1583zM850 1722l78 166l688 -196l-80 -166z" />
<glyph unicode="&#xc9;" horiz-adv-x="1943" d="M119 0l319 1393h1557l-72 -312h-1188l-55 -241h872l-65 -287h-873l-55 -242h1215l-72 -311h-1583zM944 1692l778 196l23 -186l-780 -197z" />
<glyph unicode="&#xca;" horiz-adv-x="1943" d="M119 0l319 1393h1557l-72 -312h-1188l-55 -241h872l-65 -287h-873l-55 -242h1215l-72 -311h-1583zM729 1704l518 143h90l453 -143l-76 -176l-438 143l-504 -143z" />
<glyph unicode="&#xcb;" horiz-adv-x="1943" d="M119 0l319 1393h1557l-72 -312h-1188l-55 -241h872l-65 -287h-873l-55 -242h1215l-72 -311h-1583zM747 1599l41 183h440l-41 -183h-440zM1341 1599l41 183h440l-41 -183h-440z" />
<glyph unicode="&#xcc;" horiz-adv-x="1632" d="M27 0l67 301h498l184 791h-497l67 301h1344l-68 -301h-498l-184 -791h498l-68 -301h-1343zM651 1722l78 166l688 -196l-80 -166z" />
<glyph unicode="&#xcd;" horiz-adv-x="1632" d="M27 0l67 301h498l184 791h-497l67 301h1344l-68 -301h-498l-184 -791h498l-68 -301h-1343zM745 1692l778 196l23 -186l-780 -197z" />
<glyph unicode="&#xce;" horiz-adv-x="1632" d="M27 0l67 301h498l184 791h-497l67 301h1344l-68 -301h-498l-184 -791h498l-68 -301h-1343zM530 1704l518 143h90l453 -143l-76 -176l-438 143l-504 -143z" />
<glyph unicode="&#xcf;" horiz-adv-x="1632" d="M27 0l67 301h498l184 791h-497l67 301h1344l-68 -301h-498l-184 -791h498l-68 -301h-1343zM549 1599l41 183h440l-41 -183h-440zM1143 1599l41 183h440l-41 -183h-440z" />
<glyph unicode="&#xd0;" horiz-adv-x="2226" d="M43 616l41 179h1317l-41 -179h-1317zM158 0l319 1393h979q301 0 460 -68t202 -223.5t-19 -425.5q-63 -274 -162.5 -417.5t-274.5 -201t-484 -57.5h-1020zM600 322h1014l172 749h-1014z" />
<glyph unicode="&#xd1;" horiz-adv-x="2179" d="M119 0l319 1393h604l467 -1172h11l268 1172h356l-319 -1393h-604l-469 1174h-9l-270 -1174h-354zM841 1536l29 125q20 84 64.5 125t111.5 41q59 0 111.5 -8.5t112.5 -22.5l10 -2l350 -86h14l27 119h203l-29 -125q-20 -84 -64.5 -125t-111.5 -41q-55 0 -103.5 7t-109.5 20 q-4 2 -10.5 3t-10.5 3l-350 86h-14l-27 -119h-203z" />
<glyph unicode="&#xd2;" horiz-adv-x="2230" d="M199.5 269.5q-54.5 160.5 11.5 447.5q66 289 179.5 438.5t323.5 208.5t591 59q371 0 563 -69.5t246.5 -230t-11.5 -447.5q-66 -289 -179.5 -438.5t-323 -209t-590.5 -59.5q-371 0 -563.5 70t-247 230.5zM524 319q137 -10 270.5 -16t270.5 -6t273.5 6t279.5 16l172 754 q-137 10 -270.5 16.5t-270.5 6.5t-273 -6.5t-280 -16.5zM930 1722l78 166l688 -196l-80 -166z" />
<glyph unicode="&#xd3;" horiz-adv-x="2230" d="M199.5 269.5q-54.5 160.5 11.5 447.5q66 289 179.5 438.5t323.5 208.5t591 59q371 0 563 -69.5t246.5 -230t-11.5 -447.5q-66 -289 -179.5 -438.5t-323 -209t-590.5 -59.5q-371 0 -563.5 70t-247 230.5zM524 319q137 -10 270.5 -16t270.5 -6t273.5 6t279.5 16l172 754 q-137 10 -270.5 16.5t-270.5 6.5t-273 -6.5t-280 -16.5zM1024 1692l778 196l23 -186l-780 -197z" />
<glyph unicode="&#xd4;" horiz-adv-x="2230" d="M199.5 269.5q-54.5 160.5 11.5 447.5q66 289 179.5 438.5t323.5 208.5t591 59q371 0 563 -69.5t246.5 -230t-11.5 -447.5q-66 -289 -179.5 -438.5t-323 -209t-590.5 -59.5q-371 0 -563.5 70t-247 230.5zM524 319q137 -10 270.5 -16t270.5 -6t273.5 6t279.5 16l172 754 q-137 10 -270.5 16.5t-270.5 6.5t-273 -6.5t-280 -16.5zM809 1704l518 143h90l453 -143l-76 -176l-438 143l-504 -143z" />
<glyph unicode="&#xd5;" horiz-adv-x="2230" d="M199.5 269.5q-54.5 160.5 11.5 447.5q66 289 179.5 438.5t323.5 208.5t591 59q371 0 563 -69.5t246.5 -230t-11.5 -447.5q-66 -289 -179.5 -438.5t-323 -209t-590.5 -59.5q-371 0 -563.5 70t-247 230.5zM524 319q137 -10 270.5 -16t270.5 -6t273.5 6t279.5 16l172 754 q-137 10 -270.5 16.5t-270.5 6.5t-273 -6.5t-280 -16.5zM847 1536l29 125q20 84 64.5 125t111.5 41q59 0 111.5 -8.5t112.5 -22.5l10 -2l350 -86h14l27 119h203l-29 -125q-20 -84 -64.5 -125t-111.5 -41q-55 0 -103.5 7t-109.5 20q-4 2 -10.5 3t-10.5 3l-350 86h-14 l-27 -119h-203z" />
<glyph unicode="&#xd6;" horiz-adv-x="2230" d="M199.5 269.5q-54.5 160.5 11.5 447.5q66 289 179.5 438.5t323.5 208.5t591 59q371 0 563 -69.5t246.5 -230t-11.5 -447.5q-66 -289 -179.5 -438.5t-323 -209t-590.5 -59.5q-371 0 -563.5 70t-247 230.5zM524 319q137 -10 270.5 -16t270.5 -6t273.5 6t279.5 16l172 754 q-137 10 -270.5 16.5t-270.5 6.5t-273 -6.5t-280 -16.5zM827 1599l41 183h440l-41 -183h-440zM1421 1599l41 183h440l-41 -183h-440z" />
<glyph unicode="&#xd7;" d="M344 291l420 364l-420 365l170 168l428 -377l428 377l170 -168l-420 -365l420 -364l-170 -170l-428 379l-428 -379z" />
<glyph unicode="&#xd8;" horiz-adv-x="2230" d="M123 -123l2 10l328 287l73 88l1127 981l49 72l227 201h262l-2 -11l-327 -286l-74 -89l-1126 -980l-50 -72l-227 -201h-262zM199.5 269.5q-54.5 160.5 11.5 447.5q66 289 179.5 438.5t323.5 208.5t591 59q371 0 563 -69.5t246.5 -230t-11.5 -447.5q-66 -289 -179.5 -438.5 t-323 -209t-590.5 -59.5q-371 0 -563.5 70t-247 230.5zM524 319q137 -10 270.5 -16t270.5 -6t273.5 6t279.5 16l172 754q-137 10 -270.5 16.5t-270.5 6.5t-273 -6.5t-280 -16.5z" />
<glyph unicode="&#xd9;" horiz-adv-x="2125" d="M229.5 250.5q-49.5 150.5 10.5 413.5l168 729h368l-246 -1071q127 -12 247 -18.5t237 -6.5q115 0 237.5 6t255.5 19l246 1071h367l-174 -768q-61 -268 -165 -406.5t-293.5 -194t-529.5 -55.5q-332 0 -505.5 65.5t-223 216zM899 1722l78 166l688 -196l-80 -166z" />
<glyph unicode="&#xda;" horiz-adv-x="2125" d="M229.5 250.5q-49.5 150.5 10.5 413.5l168 729h368l-246 -1071q127 -12 247 -18.5t237 -6.5q115 0 237.5 6t255.5 19l246 1071h367l-174 -768q-61 -268 -165 -406.5t-293.5 -194t-529.5 -55.5q-332 0 -505.5 65.5t-223 216zM993 1692l778 196l23 -186l-780 -197z" />
<glyph unicode="&#xdb;" horiz-adv-x="2125" d="M229.5 250.5q-49.5 150.5 10.5 413.5l168 729h368l-246 -1071q127 -12 247 -18.5t237 -6.5q115 0 237.5 6t255.5 19l246 1071h367l-174 -768q-61 -268 -165 -406.5t-293.5 -194t-529.5 -55.5q-332 0 -505.5 65.5t-223 216zM778 1704l518 143h90l453 -143l-76 -176 l-438 143l-504 -143z" />
<glyph unicode="&#xdc;" horiz-adv-x="2125" d="M229.5 250.5q-49.5 150.5 10.5 413.5l168 729h368l-246 -1071q127 -12 247 -18.5t237 -6.5q115 0 237.5 6t255.5 19l246 1071h367l-174 -768q-61 -268 -165 -406.5t-293.5 -194t-529.5 -55.5q-332 0 -505.5 65.5t-223 216zM796 1599l41 183h440l-41 -183h-440zM1390 1599 l41 183h440l-41 -183h-440z" />
<glyph unicode="&#xdd;" horiz-adv-x="1728" d="M170 1382l2 11h414l303 -600h10l580 600h463l-3 -11l-909 -911l-108 -471h-369l109 473zM772 1692l778 196l23 -186l-780 -197z" />
<glyph unicode="&#xde;" horiz-adv-x="1996" d="M119 0l319 1393h369l-53 -234h753q193 0 306.5 -55t150.5 -157.5t4 -248.5q-31 -141 -105.5 -234t-201.5 -141.5t-318 -48.5h-794l-62 -274h-368zM618 575h926l66 283h-926z" />
<glyph unicode="&#xdf;" horiz-adv-x="1714" d="M66 0l235 1024q41 176 123 272.5t229.5 137.5t395.5 41q246 0 384 -45.5t183 -131.5t16 -215q-39 -166 -180 -247.5t-430 -81.5l94 92q195 0 309.5 -42t156.5 -141.5t1 -273.5q-37 -160 -109.5 -251t-187 -130t-282.5 -39q-88 0 -206 7.5t-198 15.5l53 284 q123 -18 270.5 -30.5t278.5 -12.5l94 408h-491l59 256h381l64 281q-63 6 -136 10t-174 4q-78 0 -170 -4t-149 -10l-270 -1178h-344z" />
<glyph unicode="&#xe0;" horiz-adv-x="1736" d="M43 307q33 135 134.5 203t299.5 88l826 80l-27 -203l-975 -92l117 123l-60 -436l-77 127l962 112l39 -211l-817 -114q-95 -15 -148 -15q-176 0 -245.5 85t-28.5 253zM293 741l76 279q242 20 454.5 31.5t343.5 11.5q195 0 301.5 -41t139 -130t-1.5 -237l-152 -655h-270 l-49 113l159 692q-170 0 -458.5 -19.5t-542.5 -44.5zM696 1370l82 158l584 -230l-82 -157z" />
<glyph unicode="&#xe1;" horiz-adv-x="1736" d="M43 307q33 135 134.5 203t299.5 88l826 80l-27 -203l-975 -92l117 123l-60 -436l-77 127l962 112l39 -211l-817 -114q-95 -15 -148 -15q-176 0 -245.5 85t-28.5 253zM293 741l76 279q242 20 454.5 31.5t343.5 11.5q195 0 301.5 -41t139 -130t-1.5 -237l-152 -655h-270 l-49 113l159 692q-170 0 -458.5 -19.5t-542.5 -44.5zM784 1298l690 230l43 -174l-690 -230z" />
<glyph unicode="&#xe2;" horiz-adv-x="1736" d="M43 307q33 135 134.5 203t299.5 88l826 80l-27 -203l-975 -92l117 123l-60 -436l-77 127l962 112l39 -211l-817 -114q-95 -15 -148 -15q-176 0 -245.5 85t-28.5 253zM293 741l76 279q242 20 454.5 31.5t343.5 11.5q195 0 301.5 -41t139 -130t-1.5 -237l-152 -655h-270 l-49 113l159 692q-170 0 -458.5 -19.5t-542.5 -44.5zM587 1315l476 176h90l393 -176l-72 -162l-373 170l-450 -170z" />
<glyph unicode="&#xe3;" horiz-adv-x="1736" d="M43 307q33 135 134.5 203t299.5 88l826 80l-27 -203l-975 -92l117 123l-60 -436l-77 127l962 112l39 -211l-817 -114q-95 -15 -148 -15q-176 0 -245.5 85t-28.5 253zM293 741l76 279q242 20 454.5 31.5t343.5 11.5q195 0 301.5 -41t139 -130t-1.5 -237l-152 -655h-270 l-49 113l159 692q-170 0 -458.5 -19.5t-542.5 -44.5zM600 1165l29 125q18 82 64.5 124t117.5 42q57 0 107.5 -9t109.5 -28q4 -2 8.5 -3t8.5 -3l268 -90h16l31 133h193l-29 -125q-18 -82 -64.5 -124t-117.5 -42q-61 0 -115.5 11.5t-118.5 31.5l-268 90h-16l-31 -133h-193z " />
<glyph unicode="&#xe4;" horiz-adv-x="1736" d="M43 307q33 135 134.5 203t299.5 88l826 80l-27 -203l-975 -92l117 123l-60 -436l-77 127l962 112l39 -211l-817 -114q-95 -15 -148 -15q-176 0 -245.5 85t-28.5 253zM293 741l76 279q242 20 454.5 31.5t343.5 11.5q195 0 301.5 -41t139 -130t-1.5 -237l-152 -655h-270 l-49 113l159 692q-170 0 -458.5 -19.5t-542.5 -44.5zM539 1225l39 174h440l-39 -174h-440zM1133 1225l39 174h440l-39 -174h-440z" />
<glyph unicode="&#xe5;" horiz-adv-x="1736" d="M43 307q33 135 134.5 203t299.5 88l826 80l-27 -203l-975 -92l117 123l-60 -436l-77 127l962 112l39 -211l-817 -114q-95 -15 -148 -15q-176 0 -245.5 85t-28.5 253zM293 741l76 279q242 20 454.5 31.5t343.5 11.5q195 0 301.5 -41t139 -130t-1.5 -237l-152 -655h-270 l-49 113l159 692q-170 0 -458.5 -19.5t-542.5 -44.5zM649 1360q16 74 59 113.5t134.5 57t259.5 17.5q176 0 268 -21.5t120.5 -69.5t8.5 -134q-16 -74 -59.5 -114t-134.5 -57.5t-259 -17.5q-176 0 -268 21.5t-121 70t-8 134.5zM805 1286h516l24 111h-516z" />
<glyph unicode="&#xe6;" horiz-adv-x="2717" d="M45 309q31 135 133.5 204t300.5 87l826 78l-27 -203l-975 -92l117 123l-60 -436l-77 127l962 112l39 -211l-815 -114q-99 -15 -150 -15q-176 0 -244.5 86t-29.5 254zM274 741l76 279q240 18 442.5 30.5t297.5 12.5q152 0 243.5 -19.5t139.5 -60.5q92 41 218 60.5 t296 19.5q291 0 446.5 -55.5t200.5 -178t-2 -333.5q-10 -45 -27 -78h-1173l47 205h829l35 155q-98 6 -197.5 9.5t-199.5 3.5q-98 0 -198.5 -3.5t-201.5 -9.5l-125 -545q326 0 554.5 11.5t512.5 40.5l-78 -285q-150 -12 -362.5 -21.5t-341.5 -9.5q-186 0 -300 17.5 t-176.5 56.5t-90.5 107l-80 -21l155 676q-158 0 -436 -19.5t-504 -44.5z" />
<glyph unicode="&#xe7;" horiz-adv-x="1536" d="M102.5 197.5q-34.5 121.5 14.5 337.5q49 215 128 326.5t221 156.5t394 45q170 0 333 -9.5t341 -27.5l-53 -285q-236 33 -444 45.5t-494 12.5l-131 -566q299 0 514 14.5t467 49.5l-78 -285q-217 -23 -368 -33t-298 -10q-250 0 -381 53.5t-165.5 175zM295 -451l29 158 q324 -31 510 -31l22 95h-417l18 84l123 145l90 10l90 -10l-84 -94h156q121 0 168 -48t22 -149q-14 -63 -48 -99t-105.5 -53.5t-198.5 -17.5q-219 0 -375 10z" />
<glyph unicode="&#xe8;" horiz-adv-x="1703" d="M102 188.5q-39 116.5 9 321.5q53 227 142 344t254 163t466 46q295 0 449.5 -54.5t199.5 -176t-4 -336.5q-10 -45 -27 -78h-1177l47 205h833l35 155q-98 6 -197.5 9.5t-199.5 3.5q-98 0 -198.5 -3.5t-201.5 -9.5l-124 -545q326 0 554 11.5t513 40.5l-78 -285 q-154 -12 -360 -21.5t-345 -9.5q-270 0 -410.5 51.5t-179.5 168zM653 1370l82 158l584 -230l-82 -157z" />
<glyph unicode="&#xe9;" horiz-adv-x="1703" d="M102 188.5q-39 116.5 9 321.5q53 227 142 344t254 163t466 46q295 0 449.5 -54.5t199.5 -176t-4 -336.5q-10 -45 -27 -78h-1177l47 205h833l35 155q-98 6 -197.5 9.5t-199.5 3.5q-98 0 -198.5 -3.5t-201.5 -9.5l-124 -545q326 0 554 11.5t513 40.5l-78 -285 q-154 -12 -360 -21.5t-345 -9.5q-270 0 -410.5 51.5t-179.5 168zM741 1298l690 230l43 -174l-690 -230z" />
<glyph unicode="&#xea;" horiz-adv-x="1703" d="M102 188.5q-39 116.5 9 321.5q53 227 142 344t254 163t466 46q295 0 449.5 -54.5t199.5 -176t-4 -336.5q-10 -45 -27 -78h-1177l47 205h833l35 155q-98 6 -197.5 9.5t-199.5 3.5q-98 0 -198.5 -3.5t-201.5 -9.5l-124 -545q326 0 554 11.5t513 40.5l-78 -285 q-154 -12 -360 -21.5t-345 -9.5q-270 0 -410.5 51.5t-179.5 168zM544 1315l476 176h90l393 -176l-72 -162l-373 170l-450 -170z" />
<glyph unicode="&#xeb;" horiz-adv-x="1703" d="M102 188.5q-39 116.5 9 321.5q53 227 142 344t254 163t466 46q295 0 449.5 -54.5t199.5 -176t-4 -336.5q-10 -45 -27 -78h-1177l47 205h833l35 155q-98 6 -197.5 9.5t-199.5 3.5q-98 0 -198.5 -3.5t-201.5 -9.5l-124 -545q326 0 554 11.5t513 40.5l-78 -285 q-154 -12 -360 -21.5t-345 -9.5q-270 0 -410.5 51.5t-179.5 168zM496 1225l39 174h440l-39 -174h-440zM1090 1225l39 174h440l-39 -174h-440z" />
<glyph unicode="&#xec;" horiz-adv-x="1329" d="M-4 0l57 252h385l121 528h-385l59 252h1102l-59 -252h-385l-121 -528h385l-57 -252h-1102zM469 1370l82 158l584 -230l-82 -157z" />
<glyph unicode="&#xed;" horiz-adv-x="1329" d="M-4 0l57 252h385l121 528h-385l59 252h1102l-59 -252h-385l-121 -528h385l-57 -252h-1102zM557 1298l690 230l43 -174l-690 -230z" />
<glyph unicode="&#xee;" horiz-adv-x="1329" d="M-4 0l57 252h385l121 528h-385l59 252h1102l-59 -252h-385l-121 -528h385l-57 -252h-1102zM360 1315l476 176h90l393 -176l-72 -162l-373 170l-450 -170z" />
<glyph unicode="&#xef;" horiz-adv-x="1329" d="M-4 0l57 252h385l121 528h-385l59 252h1102l-59 -252h-385l-121 -528h385l-57 -252h-1102zM311 1225l39 174h440l-39 -174h-440zM905 1225l39 174h440l-39 -174h-440z" />
<glyph unicode="&#xf0;" horiz-adv-x="1701" d="M88 453q39 166 111.5 263t185.5 140t279 43h538l-18 -43q-297 328 -578 608l2 11h387q133 -139 394 -431q113 -125 161.5 -219t52 -184t-25.5 -219q-43 -180 -127 -276.5t-248 -136.5t-457 -40q-291 0 -446.5 47t-204.5 151.5t-6 285.5zM401 266q76 -6 185 -10t205 -4 q92 0 205.5 4t191.5 10l82 361h-787zM463 1128l469 132l78 36l510 142l26 -146l-446 -125l-74 -34l-537 -150z" />
<glyph unicode="&#xf1;" horiz-adv-x="1769" d="M55 0l238 1032h266l43 -153l-203 -879h-344zM479 868q242 84 471.5 139.5t397.5 55.5q193 0 268.5 -88t32.5 -273l-162 -702h-344l178 778q-135 0 -366.5 -49t-438.5 -121zM604 1165l29 125q18 82 64.5 124t117.5 42q57 0 107.5 -9t109.5 -28q4 -2 8.5 -3t8.5 -3l268 -90 h16l31 133h193l-29 -125q-18 -82 -64.5 -124t-117.5 -42q-61 0 -115.5 11.5t-118.5 31.5l-268 90h-16l-31 -133h-193z" />
<glyph unicode="&#xf2;" horiz-adv-x="1783" d="M114 197.5q-48 121.5 3 337.5q51 215 142 326.5t262 156.5t478 45q303 0 463 -53.5t208 -175t-3 -336.5t-142 -327t-262.5 -157t-478.5 -45q-303 0 -462.5 53.5t-207.5 175zM418 266q57 -6 178.5 -10t232.5 -4t236 4t184 10l115 500q-57 6 -180 10t-234 4t-234.5 -4 t-183.5 -10zM674 1370l82 158l584 -230l-82 -157z" />
<glyph unicode="&#xf3;" horiz-adv-x="1783" d="M114 197.5q-48 121.5 3 337.5q51 215 142 326.5t262 156.5t478 45q303 0 463 -53.5t208 -175t-3 -336.5t-142 -327t-262.5 -157t-478.5 -45q-303 0 -462.5 53.5t-207.5 175zM418 266q57 -6 178.5 -10t232.5 -4t236 4t184 10l115 500q-57 6 -180 10t-234 4t-234.5 -4 t-183.5 -10zM762 1298l690 230l43 -174l-690 -230z" />
<glyph unicode="&#xf4;" horiz-adv-x="1783" d="M114 197.5q-48 121.5 3 337.5q51 215 142 326.5t262 156.5t478 45q303 0 463 -53.5t208 -175t-3 -336.5t-142 -327t-262.5 -157t-478.5 -45q-303 0 -462.5 53.5t-207.5 175zM418 266q57 -6 178.5 -10t232.5 -4t236 4t184 10l115 500q-57 6 -180 10t-234 4t-234.5 -4 t-183.5 -10zM565 1315l476 176h90l393 -176l-72 -162l-373 170l-450 -170z" />
<glyph unicode="&#xf5;" horiz-adv-x="1783" d="M114 197.5q-48 121.5 3 337.5q51 215 142 326.5t262 156.5t478 45q303 0 463 -53.5t208 -175t-3 -336.5t-142 -327t-262.5 -157t-478.5 -45q-303 0 -462.5 53.5t-207.5 175zM418 266q57 -6 178.5 -10t232.5 -4t236 4t184 10l115 500q-57 6 -180 10t-234 4t-234.5 -4 t-183.5 -10zM577 1165l29 125q18 82 64.5 124t117.5 42q57 0 107.5 -9t109.5 -28q4 -2 8.5 -3t8.5 -3l268 -90h16l31 133h193l-29 -125q-18 -82 -64.5 -124t-117.5 -42q-61 0 -115.5 11.5t-118.5 31.5l-268 90h-16l-31 -133h-193z" />
<glyph unicode="&#xf6;" horiz-adv-x="1783" d="M114 197.5q-48 121.5 3 337.5q51 215 142 326.5t262 156.5t478 45q303 0 463 -53.5t208 -175t-3 -336.5t-142 -327t-262.5 -157t-478.5 -45q-303 0 -462.5 53.5t-207.5 175zM418 266q57 -6 178.5 -10t232.5 -4t236 4t184 10l115 500q-57 6 -180 10t-234 4t-234.5 -4 t-183.5 -10zM516 1225l39 174h440l-39 -174h-440zM1110 1225l39 174h440l-39 -174h-440z" />
<glyph unicode="&#xf7;" d="M317 541v231h1250v-231h-1250zM764 104v232h352v-232h-352zM764 977v229h352v-229h-352z" />
<glyph unicode="&#xf8;" horiz-adv-x="1783" d="M72 -123l2 10l252 217l32 56l926 801l21 47l172 147h233l-2 -10l-190 -164l-35 -57l-951 -824l-10 -37l-217 -186h-233zM114 197.5q-48 121.5 3 337.5q51 215 142 326.5t262 156.5t478 45q303 0 463 -53.5t208 -175t-3 -336.5t-142 -327t-262.5 -157t-478.5 -45 q-303 0 -462.5 53.5t-207.5 175zM418 266q57 -6 178.5 -10t232.5 -4t236 4t184 10l115 500q-57 6 -180 10t-234 4t-234.5 -4t-183.5 -10z" />
<glyph unicode="&#xf9;" horiz-adv-x="1751" d="M121 330l164 702h344l-180 -778q137 0 369.5 48t434.5 122l37 -260q-242 -84 -471 -139.5t-397 -55.5q-193 0 -268.5 88t-32.5 273zM676 1370l82 158l584 -230l-82 -157zM1149 154l203 878h344l-238 -1032h-266z" />
<glyph unicode="&#xfa;" horiz-adv-x="1751" d="M121 330l164 702h344l-180 -778q137 0 369.5 48t434.5 122l37 -260q-242 -84 -471 -139.5t-397 -55.5q-193 0 -268.5 88t-32.5 273zM764 1298l690 230l43 -174l-690 -230zM1149 154l203 878h344l-238 -1032h-266z" />
<glyph unicode="&#xfb;" horiz-adv-x="1751" d="M121 330l164 702h344l-180 -778q137 0 369.5 48t434.5 122l37 -260q-242 -84 -471 -139.5t-397 -55.5q-193 0 -268.5 88t-32.5 273zM567 1315l476 176h90l393 -176l-72 -162l-373 170l-450 -170zM1149 154l203 878h344l-238 -1032h-266z" />
<glyph unicode="&#xfc;" horiz-adv-x="1751" d="M121 330l164 702h344l-180 -778q137 0 369.5 48t434.5 122l37 -260q-242 -84 -471 -139.5t-397 -55.5q-193 0 -268.5 88t-32.5 273zM518 1225l39 174h440l-39 -174h-440zM1112 1225l39 174h440l-39 -174h-440zM1149 154l203 878h344l-238 -1032h-266z" />
<glyph unicode="&#xfd;" horiz-adv-x="1464" d="M-133 -432l53 285q156 -18 270.5 -28.5t229.5 -10.5l788 1218h371l2 -12l-770 -1147q-90 -133 -153.5 -196.5t-158.5 -95.5t-257 -32q-78 0 -178.5 5.5t-196.5 13.5zM96 1022l2 10h355l213 -823h100l-27 -209h-350zM610 1298l690 230l43 -174l-690 -230z" />
<glyph unicode="&#xfe;" horiz-adv-x="1777" d="M-39 -451l445 1926h344l-445 -1926h-344zM217 0l62 272h966l119 512q-240 0 -499 -44t-507 -119l-28 231q266 90 542.5 150.5t456.5 60.5q168 0 256 -57.5t106.5 -179t-28.5 -320.5q-47 -197 -115.5 -304.5t-187.5 -154.5t-320 -47h-823z" />
<glyph unicode="&#xff;" horiz-adv-x="1464" d="M-133 -432l53 285q156 -18 270.5 -28.5t229.5 -10.5l788 1218h371l2 -12l-770 -1147q-90 -133 -153.5 -196.5t-158.5 -95.5t-257 -32q-78 0 -178.5 5.5t-196.5 13.5zM96 1022l2 10h355l213 -823h100l-27 -209h-350zM364 1225l39 174h440l-39 -174h-440zM958 1225l39 174 h440l-39 -174h-440z" />
<glyph unicode="&#x131;" horiz-adv-x="1329" d="M-4 0l57 252h385l121 528h-385l59 252h1102l-59 -252h-385l-121 -528h385l-57 -252h-1102z" />
<glyph unicode="&#x132;" horiz-adv-x="3164" d="M27 0l67 301h484l184 791h-483l67 301h1315l-68 -301h-483l-184 -791h483l-68 -301h-1314zM1546 2l64 332q330 -39 495 -53q219 -16 424 -23l189 823h-834l72 312h1206l-203 -869q-51 -221 -140 -339.5t-238.5 -167t-403.5 -48.5q-145 0 -311 9.5t-320 23.5z" />
<glyph unicode="&#x133;" horiz-adv-x="2467" d="M-4 0l57 252h385l121 528h-385l59 252h1102l-59 -252h-385l-121 -528h385l-57 -252h-1102zM592 1225l39 174h475l-39 -174h-475zM1087 -420l52 285q180 -25 338.5 -38t308.5 -13l221 956h-557l61 262h901l-256 -1110q-31 -131 -93 -212t-169.5 -121t-273.5 -40 q-104 0 -248.5 8.5t-284.5 22.5zM1986 1225l39 174h475l-39 -174h-475z" />
<glyph unicode="&#x13f;" horiz-adv-x="1654" d="M119 0l319 1393h369l-246 -1071h1018l-74 -322h-1386zM1081 672l60 264h407l-59 -264h-408z" />
<glyph unicode="&#x140;" horiz-adv-x="1243" d="M142.5 152.5q-29.5 91.5 0.5 226.5l254 1096h344l-286 -1242q283 0 735 54l-78 -285q-158 -14 -323.5 -23.5t-276.5 -9.5q-158 0 -249 46t-120.5 137.5zM795 651l60 264h407l-59 -264h-408z" />
<glyph unicode="&#x152;" horiz-adv-x="2957" d="M191.5 290.5q-41.5 155.5 19.5 426.5q63 274 162.5 417.5t274.5 201t482 57.5h1879l-68 -301h-1049l-59 -252h733l-65 -287h-734l-59 -252h1075l-67 -301h-1864q-301 0 -460 67.5t-200.5 223zM518 301h830l184 791h-830z" />
<glyph unicode="&#x153;" horiz-adv-x="2762" d="M117 535q49 213 142 325.5t258 157.5t450 45q260 0 404.5 -45t194.5 -141.5t21 -260.5l-278 21q47 152 139 245t242.5 137t373.5 44q268 0 417 -55.5t196 -179t0 -332.5q-10 -43 -25 -78h-1120l47 205h774l35 155q-96 6 -185 9.5t-180 3.5q-88 0 -181 -3.5t-191 -9.5 l-125 -545q295 0 509 11.5t498 40.5l-77 -285q-152 -12 -334.5 -21.5t-278.5 -9.5q-217 0 -355 51.5t-196.5 155t-34.5 260.5l283 -41q-47 -154 -140 -246t-248.5 -136t-395.5 -44q-281 0 -434.5 53.5t-203.5 176.5t-1 336zM420 266q57 -6 170 -10t211 -4q100 0 217 4 t178 10l115 500q-59 6 -174 10t-215 4q-98 0 -211 -4t-176 -10z" />
<glyph unicode="&#x178;" horiz-adv-x="1728" d="M170 1382l2 11h414l303 -600h10l580 600h463l-3 -11l-909 -911l-108 -471h-369l109 473zM575 1599l41 183h440l-41 -183h-440zM1169 1599l41 183h440l-41 -183h-440z" />
<glyph unicode="&#x192;" horiz-adv-x="1449" d="M-268 -432l53 282q272 -33 559 -32l-102 -80l456 1388q45 135 112 211t165 107t250 31q172 0 370 -19l-55 -282q-272 33 -549 32l96 80l-456 -1388q-45 -137 -111.5 -213t-165 -106t-252.5 -30q-176 0 -370 19zM166 662l41 178h1182l-41 -178h-1182z" />
<glyph unicode="&#x237;" horiz-adv-x="1138" d="M-242 -420l52 285q180 -25 338.5 -38t308.5 -13l221 956h-557l61 262h901l-256 -1110q-31 -131 -93 -212t-169.5 -121t-273.5 -40q-104 0 -248.5 8.5t-284.5 22.5z" />
<glyph unicode="&#x2c6;" horiz-adv-x="1081" d="M243 1307l476 176h90l393 -176l-72 -162l-373 170l-450 -170z" />
<glyph unicode="&#x2c7;" horiz-adv-x="1081" d="M247 1321l72 162l373 -170l450 170l64 -162l-475 -176h-90z" />
<glyph unicode="&#x2d8;" horiz-adv-x="1021" d="M264 1393l19 77h192l-31 -131h512l31 131h193l-27 -116q-20 -84 -83.5 -136.5t-147.5 -52.5h-480q-104 0 -152 62.5t-26 165.5z" />
<glyph unicode="&#x2d9;" horiz-adv-x="600" d="M225 1217l39 174h475l-39 -174h-475z" />
<glyph unicode="&#x2da;" horiz-adv-x="980" d="M254 1352q16 74 59 113.5t134.5 57t259.5 17.5q176 0 268 -21.5t120.5 -69.5t8.5 -134q-16 -74 -59.5 -114t-134.5 -57.5t-259 -17.5q-176 0 -268 21.5t-121 70t-8 134.5zM410 1278h516l24 111h-516z" />
<glyph unicode="&#x2db;" horiz-adv-x="716" d="M-117 -260q14 59 61.5 102t156.5 101l215 110l221 -53l-549 -281l125 158l-72 -307l-67 133q111 0 241.5 9t212.5 20l-47 -170q-70 -8 -153.5 -15.5t-126.5 -7.5q-141 0 -190.5 52.5t-27.5 148.5z" />
<glyph unicode="&#x2dc;" horiz-adv-x="1007" d="M209 1157l29 125q18 82 64.5 124t117.5 42q57 0 107.5 -9t109.5 -28q4 -2 8.5 -3t8.5 -3l268 -90h16l31 133h193l-29 -125q-18 -82 -64.5 -124t-117.5 -42q-61 0 -115.5 11.5t-118.5 31.5l-268 90h-16l-31 -133h-193z" />
<glyph unicode="&#x2dd;" horiz-adv-x="1185" d="M236 1272l504 235l57 -139l-506 -235zM731 1282l545 213l41 -145l-545 -213z" />
<glyph unicode="&#x400;" horiz-adv-x="1943" d="M119 0l319 1393h1557l-72 -312h-1188l-55 -241h872l-65 -287h-873l-55 -242h1215l-72 -311h-1583zM850 1722l78 166l688 -196l-80 -166z" />
<glyph unicode="&#x401;" horiz-adv-x="1943" d="M119 0l319 1393h1557l-72 -312h-1188l-55 -241h872l-65 -287h-873l-55 -242h1215l-72 -311h-1583zM747 1599l41 183h440l-41 -183h-440zM1341 1599l41 183h440l-41 -183h-440z" />
<glyph unicode="&#x402;" horiz-adv-x="2056" d="M135 1092l68 301h1562l-67 -301h-756l-51 -222h655q174 0 277.5 -56t136.5 -160.5t-2 -250.5q-51 -215 -191.5 -324.5t-394.5 -109.5q-90 0 -205.5 6.5t-197.5 16.5l55 307q94 -18 254 -33q14 0 27.5 -1t27.5 -3q137 -10 221 -10l72 307h-807l-129 -559h-368l251 1092 h-438z" />
<glyph unicode="&#x403;" horiz-adv-x="1622" d="M119 0l319 1393h1366l-73 -322h-998l-246 -1071h-368zM876 1692l778 196l23 -186l-780 -197z" />
<glyph unicode="&#x404;" horiz-adv-x="1957" d="M184 272.5q-39 161.5 27 444.5q66 287 165 436.5t273 209.5t486 60q215 0 433 -8t445 -24l-63 -332q-430 45 -760 61q-182 10 -479 15l-201 -877q100 2 199.5 4t197.5 6q27 0 53.5 1t53.5 3q367 18 778 60l-90 -332q-211 -14 -436 -22.5t-426 -8.5q-305 0 -461 71 t-195 232.5zM389 553l66 287h1018l-66 -287h-1018z" />
<glyph unicode="&#x405;" horiz-adv-x="1855" d="M35 12l63 332q397 -49 654 -65q211 -14 563 -21l59 262l-749 55q-164 12 -262.5 64.5t-132 145t-3.5 227.5q35 150 119 238.5t232.5 130.5t377.5 42q221 0 426 -9t484 -30l-66 -331q-346 45 -702 65q-236 14 -453 17l-57 -256l712 -56q180 -14 287 -64t142.5 -143.5 t3.5 -236.5q-33 -145 -116 -234.5t-238.5 -132.5t-405.5 -43q-274 0 -509 11.5t-429 31.5z" />
<glyph unicode="&#x406;" horiz-adv-x="1632" d="M27 0l67 301h498l184 791h-497l67 301h1344l-68 -301h-498l-184 -791h498l-68 -301h-1343z" />
<glyph unicode="&#x407;" horiz-adv-x="1632" d="M27 0l67 301h498l184 791h-497l67 301h1344l-68 -301h-498l-184 -791h498l-68 -301h-1343zM549 1599l41 183h440l-41 -183h-440zM1143 1599l41 183h440l-41 -183h-440z" />
<glyph unicode="&#x408;" horiz-adv-x="1622" d="M-45 6l65 332q297 -37 496 -53q27 -2 54.5 -4t54.5 -5q125 -10 362 -18l189 823h-801l71 312h1174l-203 -871q-51 -221 -139 -338.5t-237.5 -166t-403.5 -48.5q-164 0 -343 10.5t-339 26.5z" />
<glyph unicode="&#x409;" horiz-adv-x="3080" d="M-68 -14l70 358q123 -14 224.5 -22.5t201.5 -8.5l-111 -233l422 1313h1276l-252 -1092h787l69 297h-860l70 301h688q193 0 306.5 -57.5t150.5 -163t4 -248.5q-31 -137 -105.5 -232.5t-203.5 -146.5t-318 -51h-1016l246 1071h-569l-197 -610q-86 -264 -234.5 -378 t-396.5 -114q-57 0 -126.5 4t-125.5 13z" />
<glyph unicode="&#x40a;" horiz-adv-x="3041" d="M119 0l319 1393h369l-320 -1393h-368zM379 598l70 301h1253l-70 -301h-1253zM1296 0l320 1393h360l-252 -1092h787l69 297h-843l69 301h670q193 0 307.5 -57.5t151.5 -163t4 -248.5q-31 -137 -105.5 -232.5t-204.5 -146.5t-319 -51h-1014z" />
<glyph unicode="&#x40b;" horiz-adv-x="2076" d="M135 1092l68 301h1562l-67 -301h-758l-51 -222h620q186 0 291 -55t135.5 -164.5t-6.5 -277.5l-84 -373h-368l129 559h-789l-129 -559h-369l252 1092h-436z" />
<glyph unicode="&#x40c;" horiz-adv-x="1855" d="M117 0l321 1393h369l-322 -1393h-368zM500 543l75 321h277l653 529h500l-2 -11l-858 -680l573 -692l-2 -10h-463l-428 543h-325zM823 1692l778 196l23 -186l-780 -197z" />
<glyph unicode="&#x40d;" horiz-adv-x="2170" d="M119 0l319 1393h369l-254 -1104h10l975 1104h598l-319 -1393h-369l254 1104h-10l-975 -1104h-598zM922 1722l78 166l688 -196l-80 -166z" />
<glyph unicode="&#x40e;" horiz-adv-x="1710" d="M135 -10l62 307q133 -16 271 -24.5t247 -8.5l-170 -117l934 1246h424l-2 -11l-842 -1077q-100 -129 -184 -199.5t-185 -103.5t-244 -33q-76 0 -155.5 5.5t-155.5 15.5zM201 1382l2 11h389l303 -764h111l-9 -191h-397zM625 1753l18 86h213l-30 -129h569l31 129h213 l-29 -123q-20 -84 -84.5 -137t-146.5 -53h-578q-106 0 -152.5 60.5t-23.5 166.5z" />
<glyph unicode="&#x40f;" horiz-adv-x="2115" d="M119 0l319 1393h369l-246 -1071h905l246 1071h369l-320 -1393h-1642zM674 -389l94 409h352l-94 -409h-352z" />
<glyph unicode="&#x410;" horiz-adv-x="1910" d="M-109 0l3 10l999 1383h541l370 -1383l-2 -10h-375l-286 1151h-11l-819 -1151h-420zM352 281l234 301h790l97 -301h-1121z" />
<glyph unicode="&#x411;" horiz-adv-x="1986" d="M119 0l319 1393h1536l-67 -301h-1168l-51 -222h701q199 0 314.5 -51t153 -152.5t3.5 -252.5q-33 -143 -107 -233.5t-202 -135.5t-322 -45h-1110zM555 301h889l65 283h-888z" />
<glyph unicode="&#x412;" horiz-adv-x="2101" d="M119 0l319 1393h1121q197 0 315.5 -42t160.5 -130t11 -226q-29 -121 -96.5 -194.5t-193.5 -108.5t-326 -35l20 86q205 0 323.5 -39.5t159.5 -123.5t11 -215q-31 -131 -101.5 -211t-193.5 -117t-312 -37h-1218zM438 557l68 287h1116l57 248h-940l-184 -791h983l59 256 h-1159z" />
<glyph unicode="&#x413;" horiz-adv-x="1622" d="M119 0l319 1393h1366l-73 -322h-998l-246 -1071h-368z" />
<glyph unicode="&#x414;" horiz-adv-x="2195" d="M-158 -389l162 700h2093l-162 -700h-352l90 389h-1388l-90 -389h-353zM104 143q94 70 184.5 193t166.5 326l268 731h1311l-262 -1139h-363l190 827h-618l-158 -428q-76 -203 -162 -324.5t-169 -185.5h-388z" />
<glyph unicode="&#x415;" horiz-adv-x="1943" d="M119 0l319 1393h1557l-72 -312h-1188l-55 -241h872l-65 -287h-873l-55 -242h1215l-72 -311h-1583z" />
<glyph unicode="&#x416;" horiz-adv-x="2535" d="M-98 0l2 10l829 725l-481 647l2 11h401l387 -535h228l-70 -311h-203l-596 -547h-499zM975 0l321 1393h346l-319 -1393h-348zM1350 547l71 311h205l608 535h451l-2 -11l-793 -684l508 -688l-2 -10h-428l-379 547h-239z" />
<glyph unicode="&#x417;" horiz-adv-x="1886" d="M-14 2l63 330q358 -41 692 -58q360 -16 574 -16l67 297h-882l65 287h850l68 293q-268 0 -545 -11q-330 -14 -678 -53l86 320q502 33 920 32q231 0 369.5 -44t190.5 -135t19 -232q-43 -186 -180 -268t-399 -82l32 71q262 0 368 -91t60 -286q-33 -141 -117.5 -226 t-240 -123t-407.5 -38q-573 0 -975 33z" />
<glyph unicode="&#x418;" horiz-adv-x="2170" d="M119 0l319 1393h369l-254 -1104h10l975 1104h598l-319 -1393h-369l254 1104h-10l-975 -1104h-598z" />
<glyph unicode="&#x419;" horiz-adv-x="2170" d="M119 0l319 1393h369l-254 -1104h10l975 1104h598l-319 -1393h-369l254 1104h-10l-975 -1104h-598zM877 1753l18 86h213l-30 -129h569l31 129h213l-29 -123q-20 -84 -84.5 -137t-146.5 -53h-578q-106 0 -152.5 60.5t-23.5 166.5z" />
<glyph unicode="&#x41a;" horiz-adv-x="1855" d="M117 0l321 1393h369l-322 -1393h-368zM500 543l75 321h277l653 529h500l-2 -11l-858 -680l573 -692l-2 -10h-463l-428 543h-325z" />
<glyph unicode="&#x41b;" horiz-adv-x="2127" d="M-68 -14l70 358q123 -14 224.5 -22.5t201.5 -8.5l-111 -233l422 1313h1354l-319 -1393h-369l246 1071h-637l-199 -610q-59 -182 -142 -288.5t-201 -155t-288 -48.5q-57 0 -126.5 4t-125.5 13z" />
<glyph unicode="&#x41c;" horiz-adv-x="2510" d="M119 0l319 1393h580l223 -807h10l607 807h618l-319 -1393h-369l264 1151h-10l-641 -856h-404l-235 856h-10l-265 -1151h-368z" />
<glyph unicode="&#x41d;" horiz-adv-x="2177" d="M119 0l319 1393h369l-320 -1393h-368zM387 547l74 321h1411l-74 -321h-1411zM1454 0l320 1393h368l-319 -1393h-369z" />
<glyph unicode="&#x41e;" horiz-adv-x="2230" d="M199.5 269.5q-54.5 160.5 11.5 447.5q66 289 179.5 438.5t323.5 208.5t591 59q371 0 563 -69.5t246.5 -230t-11.5 -447.5q-66 -289 -179.5 -438.5t-323 -209t-590.5 -59.5q-371 0 -563.5 70t-247 230.5zM524 319q137 -10 270.5 -16t270.5 -6t273.5 6t279.5 16l172 754 q-137 10 -270.5 16.5t-270.5 6.5t-273 -6.5t-280 -16.5z" />
<glyph unicode="&#x41f;" horiz-adv-x="2136" d="M119 0l319 1393h1663l-319 -1393h-369l246 1071h-926l-246 -1071h-368z" />
<glyph unicode="&#x420;" horiz-adv-x="1964" d="M119 0l319 1393h1073q199 0 316 -55.5t153.5 -166t-2.5 -278.5q-39 -164 -115.5 -264.5t-205.5 -147.5t-326 -47h-745l-99 -434h-368zM655 735h889l84 357h-889z" />
<glyph unicode="&#x421;" horiz-adv-x="1900" d="M184 272.5q-39 161.5 27 444.5q66 287 165 436.5t273 209.5t486 60q209 0 412.5 -7t428.5 -23l-63 -332q-442 49 -817 63q-193 8 -385 11l-201 -877q172 2 389 10q457 18 856 64l-88 -332q-223 -16 -437 -23.5t-390 -7.5q-305 0 -461 71t-195 232.5z" />
<glyph unicode="&#x422;" horiz-adv-x="1789" d="M150 1071l73 322h1749l-74 -322h-690l-245 -1071h-369l246 1071h-690z" />
<glyph unicode="&#x423;" horiz-adv-x="1710" d="M135 -10l62 307q133 -16 271 -24.5t247 -8.5l-170 -117l934 1246h424l-2 -11l-842 -1077q-100 -129 -184 -199.5t-185 -103.5t-244 -33q-76 0 -155.5 5.5t-155.5 15.5zM201 1382l2 11h389l303 -764h111l-9 -191h-397z" />
<glyph unicode="&#x424;" horiz-adv-x="2611" d="M178 323.5q-45 143.5 12 393.5q57 252 154.5 383t268.5 183t470 52h303l-69 -301h-670l-155 -676h659l-70 -301h-252q-293 0 -449.5 61.5t-201.5 205zM973 -172l401 1737h348l-401 -1737h-348zM1309 57l69 301h670l156 676h-660l70 301h252q293 0 449.5 -61.5 t201.5 -204.5t-12 -393q-57 -252 -154.5 -383t-268.5 -183.5t-470 -52.5h-303z" />
<glyph unicode="&#x425;" horiz-adv-x="1853" d="M-78 0l2 10l774 709l-401 663l2 11h424l272 -486h11l518 486h483l-2 -11l-739 -671l430 -701l-2 -10h-424l-299 518h-10l-555 -518h-484z" />
<glyph unicode="&#x426;" horiz-adv-x="2222" d="M119 0l319 1393h369l-246 -1071h885l246 1071h368l-245 -1071h290l-163 -711h-353l90 389h-1560z" />
<glyph unicode="&#x427;" horiz-adv-x="1884" d="M220 677.5q-32 110.5 5 274.5l101 441h368l-141 -617h786l142 617h368l-319 -1393h-369l105 455h-619q-182 0 -288.5 56t-138.5 166.5z" />
<glyph unicode="&#x428;" horiz-adv-x="2877" d="M119 0l319 1393h369l-246 -1071h649l246 1071h369l-246 -1071h649l246 1071h369l-320 -1393h-2404z" />
<glyph unicode="&#x429;" horiz-adv-x="3004" d="M119 0l319 1393h369l-246 -1071h649l246 1071h369l-246 -1071h649l246 1071h369l-246 -1071h291l-164 -711h-352l90 389h-2343z" />
<glyph unicode="&#x42a;" horiz-adv-x="2136" d="M125 1092l68 301h806l-251 -1092h860l84 356h-893l69 301h709q199 0 314.5 -54t152.5 -164.5t-2 -278.5q-39 -166 -116 -266.5t-205 -147.5t-324 -47h-1086l252 1092h-438z" />
<glyph unicode="&#x42b;" horiz-adv-x="2635" d="M119 0l319 1393h369l-252 -1092h788l84 356h-821l70 301h637q199 0 314.5 -54t152.5 -164.5t-2 -278.5q-39 -166 -116 -266.5t-205 -147.5t-324 -47h-1014zM1913 0l319 1393h369l-320 -1393h-368z" />
<glyph unicode="&#x42c;" horiz-adv-x="1968" d="M119 0l319 1393h369l-252 -1092h885l84 356h-918l70 301h733q199 0 314.5 -54t152.5 -164.5t-2 -278.5q-39 -166 -116 -266.5t-205 -147.5t-324 -47h-1110z" />
<glyph unicode="&#x42d;" horiz-adv-x="1927" d="M-14 0l63 332q176 -20 364.5 -34.5t352.5 -23.5q39 -2 77 -3t75 -3q102 -4 197 -6t185 -4l201 877q-281 0 -532 -13q-254 -10 -709 -49l86 320q217 14 426 22t399 8q303 0 460 -71.5t196 -232.5t-27 -443q-66 -287 -165 -436.5t-273 -210t-485 -60.5q-229 0 -458 8.5 t-433 22.5zM539 553l65 287h1018l-66 -287h-1017z" />
<glyph unicode="&#x42e;" horiz-adv-x="2758" d="M119 0l319 1393h369l-320 -1393h-368zM379 535l74 321h739l-74 -321h-739zM913.5 272.5q-49.5 161.5 16.5 444.5q66 287 174 436.5t298.5 209.5t524.5 60q326 0 499 -70.5t222 -232.5t-16 -444q-66 -287 -174.5 -436.5t-299 -210t-526.5 -60.5q-324 0 -496.5 71 t-222 232.5zM1233 322q135 -14 242 -19.5t213 -5.5t216.5 5t252.5 20l172 749q-135 14 -243 19.5t-214 5.5t-216 -5.5t-251 -19.5z" />
<glyph unicode="&#x42f;" horiz-adv-x="2050" d="M4 0l2 10l760 649h477l-751 -659h-488zM262 677.5q-35 106.5 2 268.5q37 160 111 257t202 143.5t324 46.5h1114l-319 -1393h-369l107 463h-705q-203 0 -317.5 54t-149.5 160.5zM614 754h885l82 348h-885z" />
<glyph unicode="&#x430;" horiz-adv-x="1736" d="M43 307q33 135 134.5 203t299.5 88l826 80l-27 -203l-975 -92l117 123l-60 -436l-77 127l962 112l39 -211l-817 -114q-95 -15 -148 -15q-176 0 -245.5 85t-28.5 253zM293 741l76 279q242 20 454.5 31.5t343.5 11.5q195 0 301.5 -41t139 -130t-1.5 -237l-152 -655h-270 l-49 113l159 692q-170 0 -458.5 -19.5t-542.5 -44.5z" />
<glyph unicode="&#x431;" horiz-adv-x="1728" d="M123 475l115 496q37 162 104.5 260t180 146t288.5 57l950 41l-80 -289l-1058 -33l-203 -887q66 -6 181.5 -10t219.5 -4q102 0 216 4t180 10l92 408q-244 0 -503 -34t-501 -93l-31 239q262 72 535.5 119t450.5 47q174 0 263 -55t108.5 -167t-21.5 -286q-45 -195 -130 -295 t-247 -140t-459 -40q-295 0 -449.5 47t-200.5 156t-1 303z" />
<glyph unicode="&#x432;" horiz-adv-x="1677" d="M55 0l238 1032h932q227 0 319 -72.5t58 -222.5q-27 -123 -125.5 -184t-262.5 -61l-12 53q190 0 273.5 -72t50.5 -213q-33 -137 -141.5 -198.5t-321.5 -61.5h-1008zM399 420l47 205h785l39 166h-699l-127 -549h734l41 178h-820z" />
<glyph unicode="&#x433;" horiz-adv-x="1253" d="M55 0l238 1032h1059l-66 -282h-715l-172 -750h-344z" />
<glyph unicode="&#x434;" horiz-adv-x="1800" d="M-160 -311l135 583h1739l-135 -583h-328l74 311h-1083l-74 -311h-328zM104 190q68 47 130.5 134.5t132.5 267.5l168 440h1105l-188 -811h-334l125 539h-465l-69 -189q-61 -162 -124 -250t-124 -131h-357z" />
<glyph unicode="&#x435;" horiz-adv-x="1703" d="M102 188.5q-39 116.5 9 321.5q53 227 142 344t254 163t466 46q295 0 449.5 -54.5t199.5 -176t-4 -336.5q-10 -45 -27 -78h-1177l47 205h833l35 155q-98 6 -197.5 9.5t-199.5 3.5q-98 0 -198.5 -3.5t-201.5 -9.5l-124 -545q326 0 554 11.5t513 40.5l-78 -285 q-154 -12 -360 -21.5t-345 -9.5q-270 0 -410.5 51.5t-179.5 168z" />
<glyph unicode="&#x436;" horiz-adv-x="2158" d="M-119 0l2 10l629 533l-358 479l2 10h368l273 -383h233l-63 -272h-209l-424 -377h-453zM799 0l237 1032h322l-236 -1032h-323zM1126 377l64 272h207l426 383h415l-2 -10l-581 -504l387 -508l-2 -10h-393l-271 377h-250z" />
<glyph unicode="&#x437;" horiz-adv-x="1529" d="M-25 2l54 285q246 -29 470 -41.5t529 -12.5l39 175h-676l53 225h662l37 164q-268 0 -496.5 -10.5t-468.5 -28.5l76 274q190 14 386 21.5t357 7.5q283 0 394.5 -78t74.5 -233q-29 -125 -119 -188.5t-235 -63.5l-25 47q174 0 248 -75t41 -218q-23 -98 -89 -159.5 t-194 -92.5t-337 -31q-188 0 -392 8.5t-389 24.5z" />
<glyph unicode="&#x438;" horiz-adv-x="1769" d="M55 0l238 1032h338l-176 -764h10l719 764h530l-237 -1032h-338l174 762h-10l-717 -762h-531z" />
<glyph unicode="&#x439;" horiz-adv-x="1769" d="M55 0l238 1032h338l-176 -764h10l719 764h530l-237 -1032h-338l174 762h-10l-717 -762h-531zM639 1401l19 77h202l-30 -131h491l31 131h203l-27 -116q-20 -84 -83.5 -136.5t-147.5 -52.5h-480q-106 0 -154 61.5t-24 166.5z" />
<glyph unicode="&#x43a;" horiz-adv-x="1552" d="M55 0l238 1032h344l-238 -1032h-344zM412 377l59 272h234l473 383h456l-2 -10l-653 -502l457 -510l-2 -10h-435l-313 377h-274z" />
<glyph unicode="&#x43b;" horiz-adv-x="1742" d="M-104 -18l61 303q203 -23 328 -23l264 770h1139l-238 -1032h-344l172 750h-477l-150 -439q-61 -178 -184 -260t-328 -82q-59 0 -132 3t-111 10z" />
<glyph unicode="&#x43c;" horiz-adv-x="2025" d="M55 0l238 1032h506l170 -581h10l440 581h551l-237 -1032h-338l186 809h-10l-477 -631h-318l-186 631h-10l-187 -809h-338z" />
<glyph unicode="&#x43d;" horiz-adv-x="1759" d="M55 0l238 1032h344l-238 -1032h-344zM313 389l66 283h1065l-66 -283h-1065zM1122 0l238 1032h344l-238 -1032h-344z" />
<glyph unicode="&#x43e;" horiz-adv-x="1783" d="M114 197.5q-48 121.5 3 337.5q51 215 142 326.5t262 156.5t478 45q303 0 463 -53.5t208 -175t-3 -336.5t-142 -327t-262.5 -157t-478.5 -45q-303 0 -462.5 53.5t-207.5 175zM418 266q57 -6 178.5 -10t232.5 -4t236 4t184 10l115 500q-57 6 -180 10t-234 4t-234.5 -4 t-183.5 -10z" />
<glyph unicode="&#x43f;" horiz-adv-x="1728" d="M55 0l238 1032h1380l-237 -1032h-344l172 750h-693l-172 -750h-344z" />
<glyph unicode="&#x440;" horiz-adv-x="1767" d="M-49 -451l342 1483h260l53 -131l-311 -1352h-344zM207 0l61 272h967l119 512q-240 0 -499 -44t-507 -119l-29 231q266 90 543 150.5t457 60.5q168 0 256 -57.5t106.5 -179t-28.5 -320.5q-47 -197 -116 -304.5t-187.5 -154.5t-319.5 -47h-823z" />
<glyph unicode="&#x441;" horiz-adv-x="1536" d="M102.5 197.5q-34.5 121.5 14.5 337.5q49 215 128 326.5t221 156.5t394 45q170 0 333 -9.5t341 -27.5l-53 -285q-236 33 -444 45.5t-494 12.5l-131 -566q299 0 514 14.5t467 49.5l-78 -285q-217 -23 -368 -33t-298 -10q-250 0 -381 53.5t-165.5 175z" />
<glyph unicode="&#x442;" horiz-adv-x="1363" d="M43 750l66 282h1384l-66 -282h-520l-172 -750h-344l172 750h-520z" />
<glyph unicode="&#x443;" horiz-adv-x="1464" d="M-133 -432l53 285q156 -18 270.5 -28.5t229.5 -10.5l788 1218h371l2 -12l-770 -1147q-90 -133 -153.5 -196.5t-158.5 -95.5t-257 -32q-78 0 -178.5 5.5t-196.5 13.5zM96 1022l2 10h355l213 -823h100l-27 -209h-350z" />
<glyph unicode="&#x444;" horiz-adv-x="2082" d="M114 196.5q-48 122.5 3 338.5q51 215 143 327.5t253 156.5t443 44h129l-63 -272h-104q-102 0 -220 -4.5t-180 -10.5l-121 -520q59 -6 175 -10t219 -4h104l-61 -273h-89q-279 0 -431 52.5t-200 175zM657 -451l445 1926h323l-444 -1926h-324zM997 -31l64 273h104 q102 0 220 4t180 10l121 520q-59 6 -175 10.5t-219 4.5h-104l61 272h88q279 0 431.5 -52.5t200.5 -175t-3 -337.5t-143 -328t-253 -157t-444 -44h-129z" />
<glyph unicode="&#x445;" horiz-adv-x="1501" d="M-109 0l3 10l612 520l-318 492l2 10h377l205 -346h10l379 346h430l-2 -10l-559 -502l344 -510l-2 -10h-379l-235 365h-10l-420 -365h-437z" />
<glyph unicode="&#x446;" horiz-adv-x="1812" d="M55 0l238 1032h344l-174 -749h661l174 749h344l-174 -749h250l-137 -594h-328l74 311h-1272z" />
<glyph unicode="&#x447;" horiz-adv-x="1581" d="M139 717l72 315h344l-102 -446h833l-65 -283h-699q-152 0 -248 47t-130.5 140.5t-4.5 226.5zM944 0l238 1032h344l-238 -1032h-344z" />
<glyph unicode="&#x448;" horiz-adv-x="2361" d="M55 0l238 1032h344l-174 -749h491l174 749h345l-175 -749h490l174 749h344l-238 -1032h-2013z" />
<glyph unicode="&#x449;" horiz-adv-x="2476" d="M55 0l238 1032h344l-174 -749h491l174 749h345l-175 -749h490l174 749h344l-174 -749h250l-137 -594h-328l74 311h-1936z" />
<glyph unicode="&#x44a;" horiz-adv-x="1789" d="M45 760l64 272h725l-177 -760h650l49 209h-682l61 273h551q238 0 339 -99.5t56 -298.5q-43 -184 -171 -270t-355 -86h-903l174 760h-381z" />
<glyph unicode="&#x44b;" horiz-adv-x="2181" d="M55 0l238 1032h344l-176 -760h592l49 209h-645l61 273h514q238 0 339.5 -99.5t55.5 -298.5q-43 -184 -171 -270t-355 -86h-846zM1544 0l238 1032h344l-238 -1032h-344z" />
<glyph unicode="&#x44c;" horiz-adv-x="1613" d="M55 0l238 1032h344l-176 -760h669l50 209h-723l61 273h592q238 0 339 -99.5t56 -298.5q-43 -184 -171 -270t-355 -86h-924z" />
<glyph unicode="&#x44d;" horiz-adv-x="1542" d="M-25 2l52 274q240 -23 456.5 -33t515.5 -10l129 564q-289 0 -499.5 -8.5t-450.5 -30.5l78 274q193 14 353.5 21.5t322.5 7.5q233 0 355 -53.5t155 -175t-17 -334.5q-49 -213 -128.5 -326t-222 -158t-394.5 -45q-170 0 -322.5 7.5t-382.5 25.5zM397 410l52 225h753 l-51 -225h-754z" />
<glyph unicode="&#x44e;" horiz-adv-x="2304" d="M55 0l238 1032h344l-238 -1032h-344zM373 399l61 273h580l-62 -273h-579zM757 197.5q-44 121.5 5 337.5q49 215 136 326.5t244.5 155.5t436.5 44q274 0 421.5 -52.5t191.5 -174t-5 -336.5t-137 -327t-245.5 -157t-436.5 -45q-274 0 -420.5 53.5t-190.5 175zM1065 266 q53 -6 151.5 -10t196.5 -4t199.5 4t156.5 10l115 498q-53 6 -152.5 10t-197.5 4t-198.5 -4t-155.5 -10z" />
<glyph unicode="&#x44f;" horiz-adv-x="1662" d="M-27 0l2 10l461 393l125 -79q-231 4 -335.5 97t-61.5 277q39 168 169 251t351 83h924l-238 -1032h-344l74 328h-309l-367 -328h-451zM496 553h657l49 217h-657z" />
<glyph unicode="&#x450;" horiz-adv-x="1703" d="M102 188.5q-39 116.5 9 321.5q53 227 142 344t254 163t466 46q295 0 449.5 -54.5t199.5 -176t-4 -336.5q-10 -45 -27 -78h-1177l47 205h833l35 155q-98 6 -197.5 9.5t-199.5 3.5q-98 0 -198.5 -3.5t-201.5 -9.5l-124 -545q326 0 554 11.5t513 40.5l-78 -285 q-154 -12 -360 -21.5t-345 -9.5q-270 0 -410.5 51.5t-179.5 168zM653 1370l82 158l584 -230l-82 -157z" />
<glyph unicode="&#x451;" horiz-adv-x="1703" d="M102 188.5q-39 116.5 9 321.5q53 227 142 344t254 163t466 46q295 0 449.5 -54.5t199.5 -176t-4 -336.5q-10 -45 -27 -78h-1177l47 205h833l35 155q-98 6 -197.5 9.5t-199.5 3.5q-98 0 -198.5 -3.5t-201.5 -9.5l-124 -545q326 0 554 11.5t513 40.5l-78 -285 q-154 -12 -360 -21.5t-345 -9.5q-270 0 -410.5 51.5t-179.5 168zM496 1225l39 174h440l-39 -174h-440zM1090 1225l39 174h440l-39 -174h-440z" />
<glyph unicode="&#x452;" horiz-adv-x="1789" d="M76 0l340 1475h344l-340 -1475h-344zM131 1133l39 167h1284l-39 -167h-1284zM487 807q236 82 467.5 137t397.5 55q193 0 269.5 -89t33.5 -273l-166 -715q-31 -131 -92.5 -212t-169 -121t-275.5 -40q-76 0 -191.5 7.5t-207.5 15.5l51 285q137 -18 273.5 -30.5t240.5 -12.5 l209 899q-137 0 -368.5 -48.5t-436.5 -119.5z" />
<glyph unicode="&#x453;" horiz-adv-x="1253" d="M55 0l238 1032h1059l-66 -282h-715l-172 -750h-344zM596 1298l690 230l43 -174l-690 -230z" />
<glyph unicode="&#x454;" horiz-adv-x="1556" d="M103.5 200q-35.5 122 13.5 335t128 324.5t221 156.5t394 45q299 0 692 -31l-53 -276q-242 23 -460 33t-498 10l-129 -564q301 0 523 10.5t474 35.5l-76 -277q-242 -18 -391.5 -25.5t-292.5 -7.5q-250 0 -380 54.5t-165.5 176.5zM342 410l51 225h754l-51 -225h-754z" />
<glyph unicode="&#x455;" horiz-adv-x="1542" d="M14 2l52 285q297 -31 532.5 -42.5t458.5 -11.5l30 140l-583 51q-143 12 -227 49t-114 105.5t-5 175.5q27 119 94 184.5t198.5 94t358.5 28.5q143 0 331.5 -7t364.5 -20l-51 -284q-209 20 -468 33.5t-470 13.5l-31 -144l557 -49q156 -14 245 -51t120 -105.5t6 -177.5 q-27 -117 -93.5 -181t-199.5 -92t-366 -28q-385 0 -740 33z" />
<glyph unicode="&#x456;" horiz-adv-x="1329" d="M-4 0l57 252h385l121 528h-385l59 252h1102l-59 -252h-385l-121 -528h385l-57 -252h-1102zM592 1225l39 174h475l-39 -174h-475z" />
<glyph unicode="&#x457;" horiz-adv-x="1329" d="M-4 0l57 252h385l121 528h-385l59 252h1102l-59 -252h-385l-121 -528h385l-57 -252h-1102zM311 1225l39 174h440l-39 -174h-440zM905 1225l39 174h440l-39 -174h-440z" />
<glyph unicode="&#x458;" horiz-adv-x="1138" d="M-242 -420l52 285q180 -25 338.5 -38t308.5 -13l221 956h-557l61 262h901l-256 -1110q-31 -131 -93 -212t-169.5 -121t-273.5 -40q-104 0 -248.5 8.5t-284.5 22.5zM657 1225l39 174h475l-39 -174h-475z" />
<glyph unicode="&#x459;" horiz-adv-x="2533" d="M-104 -18l61 303q203 -23 328 -23l264 770h1069l-178 -770h618l43 184h-651l59 263h521q156 0 255 -43t136 -127t10 -201q-41 -170 -169 -254t-353 -84h-862l172 750h-418l-150 -439q-61 -178 -184 -260t-328 -82q-59 0 -132 3t-111 10z" />
<glyph unicode="&#x45a;" horiz-adv-x="2523" d="M55 0l238 1032h344l-238 -1032h-344zM377 436l61 273h871l-62 -273h-870zM1036 0l238 1032h334l-178 -770h618l43 184h-651l59 263h520q156 0 255.5 -43t136 -127t10.5 -201q-41 -170 -169 -254t-354 -84h-862z" />
<glyph unicode="&#x45b;" horiz-adv-x="1789" d="M76 0l340 1475h344l-340 -1475h-344zM131 1133l39 167h1284l-39 -167h-1284zM487 807q236 82 467.5 137t397.5 55q193 0 269.5 -89t33.5 -273l-148 -637h-344l164 713q-137 0 -368.5 -48.5t-436.5 -119.5z" />
<glyph unicode="&#x45c;" horiz-adv-x="1552" d="M55 0l238 1032h344l-238 -1032h-344zM412 377l59 272h234l473 383h456l-2 -10l-653 -502l457 -510l-2 -10h-435l-313 377h-274zM672 1298l690 230l43 -174l-690 -230z" />
<glyph unicode="&#x45d;" horiz-adv-x="1769" d="M55 0l238 1032h338l-176 -764h10l719 764h530l-237 -1032h-338l174 762h-10l-717 -762h-531zM688 1370l82 158l584 -230l-82 -157z" />
<glyph unicode="&#x45e;" horiz-adv-x="1464" d="M-133 -432l53 285q156 -18 270.5 -28.5t229.5 -10.5l788 1218h371l2 -12l-770 -1147q-90 -133 -153.5 -196.5t-158.5 -95.5t-257 -32q-78 0 -178.5 5.5t-196.5 13.5zM96 1022l2 10h355l213 -823h100l-27 -209h-350zM473 1401l19 77h202l-30 -131h491l31 131h203l-27 -116 q-20 -84 -83.5 -136.5t-147.5 -52.5h-480q-106 0 -154 61.5t-24 166.5z" />
<glyph unicode="&#x45f;" horiz-adv-x="1718" d="M55 0l238 1032h344l-174 -749h682l174 749h344l-238 -1032h-1370zM504 -311l86 372h328l-87 -372h-327z" />
<glyph unicode="&#x490;" horiz-adv-x="1622" d="M119 0l319 1393h1014l90 389h352l-163 -711h-998l-246 -1071h-368z" />
<glyph unicode="&#x491;" horiz-adv-x="1253" d="M55 0l238 1032h747l74 320h311l-139 -602h-715l-172 -750h-344z" />
<glyph unicode="&#x1e9e;" horiz-adv-x="2174" d="M117 0l211 915q37 164 113.5 268.5t201.5 157t307 52.5h1164l-76 -334l-574 -262l-2 -11h88q276 0 395 -107.5t72 -309.5q-33 -143 -107.5 -230.5t-206.5 -128.5t-339 -41q-135 0 -325.5 9.5t-356.5 25.5l61 320q301 -39 492 -54q203 -14 367 -18l61 264h-743l63 281 l623 284l4 11h-873l-252 -1092h-368z" />
<glyph unicode="&#x2000;" horiz-adv-x="950" />
<glyph unicode="&#x2001;" horiz-adv-x="1901" />
<glyph unicode="&#x2002;" horiz-adv-x="950" />
<glyph unicode="&#x2003;" horiz-adv-x="1901" />
<glyph unicode="&#x2004;" horiz-adv-x="633" />
<glyph unicode="&#x2005;" horiz-adv-x="475" />
<glyph unicode="&#x2006;" horiz-adv-x="316" />
<glyph unicode="&#x2007;" horiz-adv-x="316" />
<glyph unicode="&#x2008;" horiz-adv-x="237" />
<glyph unicode="&#x2009;" horiz-adv-x="380" />
<glyph unicode="&#x200a;" horiz-adv-x="105" />
<glyph unicode="&#x2010;" horiz-adv-x="983" d="M113 428l57 252h717l-58 -252h-716z" />
<glyph unicode="&#x2011;" horiz-adv-x="983" d="M113 428l57 252h717l-58 -252h-716z" />
<glyph unicode="&#x2012;" horiz-adv-x="983" d="M113 428l57 252h717l-58 -252h-716z" />
<glyph unicode="&#x2013;" horiz-adv-x="1413" d="M94 436l56 240h1187l-55 -240h-1188z" />
<glyph unicode="&#x2014;" horiz-adv-x="1914" d="M94 436l56 240h1689l-55 -240h-1690z" />
<glyph unicode="&#x2018;" horiz-adv-x="759" d="M262 889l84 371q27 117 94.5 166t196.5 49h170l-35 -152h-229l-39 -170h225l-59 -264h-408z" />
<glyph unicode="&#x2019;" horiz-adv-x="759" d="M260 889l35 151h229l39 170h-225l59 265h408l-84 -371q-27 -117 -94.5 -166t-196.5 -49h-170z" />
<glyph unicode="&#x201a;" horiz-adv-x="759" d="M-18 -322l34 152h230l39 170h-226l60 264h407l-84 -370q-27 -117 -94 -166.5t-196 -49.5h-170z" />
<glyph unicode="&#x201c;" horiz-adv-x="1310" d="M262 889l84 371q27 117 94.5 166t196.5 49h170l-35 -152h-229l-39 -170h225l-59 -264h-408zM813 889l84 371q27 117 94.5 166t196.5 49h170l-35 -152h-229l-39 -170h225l-59 -264h-408z" />
<glyph unicode="&#x201d;" horiz-adv-x="1310" d="M260 889l35 151h229l39 170h-225l59 265h408l-84 -371q-27 -117 -94.5 -166t-196.5 -49h-170zM811 889l35 151h229l39 170h-225l59 265h408l-84 -371q-27 -117 -94.5 -166t-196.5 -49h-170z" />
<glyph unicode="&#x201e;" horiz-adv-x="1310" d="M-18 -322l34 152h230l39 170h-226l60 264h407l-84 -370q-27 -117 -94 -166.5t-196 -49.5h-170zM533 -322l34 152h230l39 170h-226l60 264h407l-84 -370q-27 -117 -94 -166.5t-196 -49.5h-170z" />
<glyph unicode="&#x2020;" horiz-adv-x="1331" d="M168 758l61 266h1106l-61 -266h-1106zM348 -143l357 1536h327l-356 -1536h-328z" />
<glyph unicode="&#x2021;" horiz-adv-x="1331" d="M31 164l61 266h1106l-61 -266h-1106zM182 819l62 266h1106l-62 -266h-1106zM348 -143l357 1536h327l-356 -1536h-328z" />
<glyph unicode="&#x2022;" horiz-adv-x="849" d="M156 346l75 332h461l-76 -332h-460z" />
<glyph unicode="&#x2026;" horiz-adv-x="2113" d="M57 0l60 264h407l-59 -264h-408zM735 0l60 264h407l-59 -264h-408zM1413 0l60 264h407l-59 -264h-408z" />
<glyph unicode="&#x202f;" horiz-adv-x="380" />
<glyph unicode="&#x2030;" horiz-adv-x="3356" d="M161 801q-34 94 5 254q37 154 103.5 238.5t167 117.5t251.5 33q158 0 252 -40t128 -134t-5 -254q-37 -154 -103.5 -238t-166.5 -116.5t-252 -32.5q-158 0 -252 39t-128 133zM387 870q47 -4 95 -7t91 -3t94.5 3t100.5 7l76 332q-47 4 -96.5 7t-92.5 3t-93 -3t-99 -7z M481 0l2 10l1147 1383h295l-2 -11l-1147 -1382h-295zM1336.5 123q-33.5 94 4.5 254q37 154 103.5 238.5t167 117.5t252.5 33q158 0 252 -40t127.5 -134t-5.5 -254q-37 -154 -103.5 -238t-166.5 -116.5t-252 -32.5q-158 0 -252 39t-127.5 133zM1563 193q47 -4 95 -7.5 t91 -3.5t94 3t101 8l75 331q-47 4 -96 7.5t-92 3.5t-93 -3.5t-100 -7.5zM2372.5 123q-33.5 94 5.5 254q37 154 103.5 238.5t166.5 117.5t252 33q158 0 252 -40t128 -134t-5 -254q-37 -154 -103.5 -238t-166.5 -116.5t-252 -32.5q-158 0 -252.5 39t-128 133zM2599 193 q47 -4 95 -7.5t91 -3.5t94.5 3t100.5 8l76 331q-47 4 -96.5 7.5t-92.5 3.5t-93 -3.5t-99 -7.5z" />
<glyph unicode="&#x2039;" horiz-adv-x="1187" d="M92 516l696 547h402l-2 -10l-787 -602l-10 131l508 -602l-2 -11h-360z" />
<glyph unicode="&#x203a;" horiz-adv-x="1187" d="M-2 -31l2 11l786 602l11 -131l-508 602l2 10h360l445 -547l-697 -547h-401z" />
<glyph unicode="&#x2044;" horiz-adv-x="344" d="M-508 0l2 10l1147 1383h295l-2 -11l-1147 -1382h-295z" />
<glyph unicode="&#x205f;" horiz-adv-x="475" />
<glyph unicode="&#x2070;" horiz-adv-x="1107" d="M234.5 976q-35.5 93 3.5 257q37 156 105.5 241t175 116.5t269.5 31.5q170 0 270.5 -39t136.5 -133t-3 -258q-37 -156 -105.5 -240t-175 -115.5t-270.5 -31.5q-170 0 -270.5 39t-136 132zM457 1047q55 -4 112.5 -7.5t104.5 -3.5q49 0 107.5 3t113.5 8l78 333 q-45 6 -107.5 8.5t-109.5 2.5t-110.5 -2.5t-110.5 -8.5z" />
<glyph unicode="&#x2074;" horiz-adv-x="989" d="M147 981l43 182l435 445h282l-2 -11l-407 -405l-2 -10h606l-47 -201h-908zM664 819l139 604h231l-139 -604h-231z" />
<glyph unicode="&#x2075;" horiz-adv-x="952" d="M152 827l41 215q141 -18 292.5 -27t331.5 -14l-104 -98l71 305l119 -94l-655 25l108 469h734l-48 -199h-497l-43 -188l-109 100l393 -14q139 -4 191.5 -70t23.5 -197q-20 -88 -64 -139t-121 -73.5t-198 -22.5q-227 0 -466 22z" />
<glyph unicode="&#x2076;" horiz-adv-x="993" d="M200.5 923.5q-22.5 57.5 0.5 151.5l65 281q29 129 103.5 190.5t208.5 61.5h546l-47 -201h-567l-113 -485l-35 92q43 -4 111 -6t139 -2q76 0 150 2t119 6l-97 -92l50 211h-476l41 174h426q141 0 200.5 -61.5t29.5 -201.5q-20 -94 -66.5 -145t-139.5 -72.5t-259 -21.5 q-184 0 -275.5 30.5t-114 88z" />
<glyph unicode="&#x2077;" horiz-adv-x="825" d="M164 819l2 10l512 557l2 11h-467l49 211h785l-46 -197l-534 -592h-303z" />
<glyph unicode="&#x2078;" horiz-adv-x="1042" d="M184 1053q18 76 67.5 121t150 67.5t270.5 22.5q176 0 275.5 -27t134 -81t14.5 -140q-16 -76 -65.5 -121t-151 -67.5t-273.5 -22.5q-180 0 -278.5 26.5t-131 80t-12.5 141.5zM297 1415q16 72 63.5 117t142.5 67.5t251 22.5q164 0 257 -26.5t124.5 -80t13.5 -137.5 q-25 -109 -129.5 -159t-329.5 -50q-238 0 -330 60.5t-63 185.5zM328 1004q76 -4 154.5 -6.5t148.5 -2.5t148.5 2t158.5 7l-109 -99l68 299l98 -76h-667l131 76l-68 -299zM397 1303h607l-132 -76l72 311l53 -115q-66 4 -134 6.5t-132 2.5q-63 0 -133 -2.5t-137 -6.5l106 115 l-71 -311z" />
<glyph unicode="&#x2079;" horiz-adv-x="995" d="M195 819l45 201h567l113 485l36 -92q-43 4 -110.5 6t-138.5 2q-76 0 -150 -2t-119 -6l94 92l-49 -211h475l-38 -174h-426q-141 0 -203 61.5t-29 200.5q20 94 66.5 144.5t139.5 73t259 22.5q184 0 274.5 -30.5t112 -89t0.5 -152.5l-63 -281q-29 -129 -103 -189.5 t-207 -60.5h-546z" />
<glyph unicode="&#x2080;" horiz-adv-x="1107" d="M-3.5 -56q-35.5 93 3.5 257q37 156 105.5 241t175 116.5t269.5 31.5q170 0 270.5 -39t136.5 -133t-3 -258q-37 -156 -105.5 -240t-175 -115.5t-270.5 -31.5q-170 0 -270.5 39t-136 132zM219 15q55 -4 112.5 -7.5t104.5 -3.5q49 0 107.5 3t113.5 8l78 333 q-45 6 -107.5 8.5t-109.5 2.5t-110.5 -2.5t-110.5 -8.5z" />
<glyph unicode="&#x2081;" horiz-adv-x="903" d="M-117 -213l49 211h313l133 578h252l-133 -578h266l-49 -211h-831zM61 228l47 200h262l-47 -200h-262z" />
<glyph unicode="&#x2082;" horiz-adv-x="1009" d="M-86 -213l61 264q23 98 94.5 148.5t206.5 66.5l492 54l-152 -107l57 252l35 -70q-152 -4 -304.5 -15t-301.5 -28l57 215q221 23 422 23q195 0 275 -64.5t49 -195.5q-23 -100 -94.5 -149.5t-208.5 -65.5l-486 -53l133 63l-32 -137h594l-45 -201h-852z" />
<glyph unicode="&#x2083;" horiz-adv-x="935" d="M-117 -203l41 209q158 -20 316.5 -29.5t338.5 -9.5l-110 -114l55 235h-391l43 185h495l-135 -39l66 282l45 -121q-152 0 -306.5 -9t-316.5 -27l57 208q106 10 221 16.5t183 6.5q203 0 280.5 -58.5t49.5 -179.5q-25 -100 -103 -144t-227 -44l-2 37q164 0 228.5 -53.5 t37.5 -171.5q-23 -104 -115 -153.5t-278 -49.5q-111 0 -234.5 6t-238.5 18z" />
<glyph unicode="&#x2084;" horiz-adv-x="989" d="M-91 -51l43 182l435 445h282l-2 -11l-407 -405l-2 -10h606l-47 -201h-908zM426 -213l139 604h231l-139 -604h-231z" />
<glyph unicode="&#x2085;" horiz-adv-x="952" d="M-86 -205l41 215q141 -18 292.5 -27t331.5 -14l-104 -98l71 305l119 -94l-655 25l108 469h734l-48 -199h-497l-43 -188l-109 100l393 -14q139 -4 191.5 -70t23.5 -197q-20 -88 -64 -139t-121 -73.5t-198 -22.5q-227 0 -466 22z" />
<glyph unicode="&#x2086;" horiz-adv-x="993" d="M-37.5 -108.5q-22.5 57.5 0.5 151.5l65 281q29 129 103.5 190.5t208.5 61.5h546l-47 -201h-567l-113 -485l-35 92q43 -4 111 -6t139 -2q76 0 150 2t119 6l-97 -92l50 211h-476l41 174h426q141 0 200.5 -61.5t29.5 -201.5q-20 -94 -66.5 -145t-139.5 -72.5t-259 -21.5 q-184 0 -275.5 30.5t-114 88z" />
<glyph unicode="&#x2087;" horiz-adv-x="825" d="M-74 -213l2 10l512 557l2 11h-467l49 211h785l-46 -197l-534 -592h-303z" />
<glyph unicode="&#x2088;" horiz-adv-x="1042" d="M-54 21q18 76 67.5 121t150 67.5t270.5 22.5q176 0 275.5 -27t134 -81t14.5 -140q-16 -76 -65.5 -121t-151 -67.5t-273.5 -22.5q-180 0 -278.5 26.5t-131 80t-12.5 141.5zM59 383q16 72 63.5 117t142.5 67.5t251 22.5q164 0 257 -26.5t124.5 -80t13.5 -137.5 q-25 -109 -129.5 -159t-329.5 -50q-238 0 -330 60.5t-63 185.5zM90 -28q76 -4 154.5 -6.5t148.5 -2.5t148.5 2t158.5 7l-109 -99l68 299l98 -76h-667l131 76l-68 -299zM159 271h607l-132 -76l72 311l53 -115q-66 4 -134 6.5t-132 2.5q-63 0 -133 -2.5t-137 -6.5l106 115 l-71 -311z" />
<glyph unicode="&#x2089;" horiz-adv-x="995" d="M-43 -213l45 201h567l113 485l36 -92q-43 4 -110.5 6t-138.5 2q-76 0 -150 -2t-119 -6l94 92l-49 -211h475l-38 -174h-426q-141 0 -203 61.5t-29 200.5q20 94 66.5 144.5t139.5 73t259 22.5q184 0 274.5 -30.5t112 -89t0.5 -152.5l-63 -281q-29 -129 -103 -189.5 t-207 -60.5h-546z" />
<glyph unicode="&#x20ac;" horiz-adv-x="1943" d="M-6 440l41 178h1210l-41 -178h-1210zM72 774l41 178h1210l-41 -178h-1210zM264 271.5q-39 160.5 27 443.5q68 289 166 438.5t272 209.5t485 60q197 0 388.5 -6t422.5 -20l-63 -320q-233 23 -590 43q-205 10 -581 15l-201 -877q117 2 230.5 4t223.5 6q39 2 76 3t74 3 q303 12 602 43l-84 -319q-215 -16 -413.5 -22.5t-378.5 -6.5q-305 0 -461 71t-195 231.5z" />
<glyph unicode="&#x2116;" horiz-adv-x="3311" d="M119 0l319 1393h604l467 -1172h11l268 1172h356l-319 -1393h-604l-469 1174h-9l-270 -1174h-354zM2038 0l49 217h1032l-49 -217h-1032zM2206 733q31 135 97.5 212t181 111t298.5 34q190 0 299 -40t144.5 -127t3.5 -231q-31 -135 -97.5 -212t-181.5 -110.5t-299 -33.5 q-190 0 -298.5 40t-144.5 127t-3 230zM2439 561h488l69 303h-487z" />
<glyph unicode="&#x2122;" horiz-adv-x="2205" d="M154 1229v194h850v-194h-314v-494h-223v494h-313zM1106 735v688h332l170 -424h10l172 424h324v-688h-213v469h-11l-161 -383h-236l-164 383h-10v-469h-213z" />
<glyph unicode="&#x2248;" d="M317 270v152q0 94 46.5 143t140.5 49q57 0 130 -9t163 -25q6 -2 13 -3.5t13 -3.5l477 -96h31v137h215v-151q0 -94 -46 -143.5t-140 -49.5q-119 0 -289 35q-8 2 -15 3t-16 3l-477 97h-31v-138h-215zM317 709v151q0 94 46.5 143.5t140.5 49.5q57 0 130 -9.5t163 -25.5 q6 -2 13 -3t13 -3l477 -97h31v138h215v-152q0 -94 -46 -143t-140 -49q-119 0 -289 34q-8 2 -15 3.5t-16 3.5l-477 96h-31v-137h-215z" />
<glyph unicode="&#x2260;" d="M317 315v232h1250v-232h-1250zM317 764v231h1250v-231h-1250zM565 100v11l582 1097h172v-10l-582 -1098h-172z" />
<glyph unicode="&#x2264;" d="M344 0v215h1159v-215h-1159zM354 723v184l1119 379h10v-239l-727 -232l727 -231v-240h-10z" />
<glyph unicode="&#x2265;" d="M326 0v215h1159v-215h-1159zM346 344v240l727 231l-727 232v239h10l1119 -379v-184l-1119 -379h-10z" />
<glyph unicode="&#x2460;" horiz-adv-x="2256" d="M236 696q0 301 108.5 482.5t313 260.5t511.5 79t512 -79t313.5 -260.5t108.5 -482.5t-108.5 -482t-313.5 -260t-512 -79t-511.5 79t-313 260t-108.5 482zM444 696q0 -246 81 -384t238.5 -193.5t405.5 -55.5t406 55.5t238.5 194t80.5 383.5q0 246 -80.5 384.5 t-238.5 193.5t-406 55t-405.5 -55t-238.5 -193.5t-81 -384.5zM768 307v211h313v230h-235v200h235v148h252v-578h266v-211h-831z" />
<glyph unicode="&#x2461;" horiz-adv-x="2256" d="M236 696q0 301 108.5 482.5t313 260.5t511.5 79t512 -79t313.5 -260.5t108.5 -482.5t-108.5 -482t-313.5 -260t-512 -79t-511.5 79t-313 260t-108.5 482zM444 696q0 -246 81 -384t238.5 -193.5t405.5 -55.5t406 55.5t238.5 194t80.5 383.5q0 246 -80.5 384.5 t-238.5 193.5t-406 55t-405.5 -55t-238.5 -193.5t-81 -384.5zM741 307v246q0 106 65.5 161.5t207.5 71.5l459 52l-127 -105v252l51 -70q-152 -4 -301.5 -15t-296.5 -28l8 215q215 23 438 23q186 0 274.5 -59.5t88.5 -182.5q0 -109 -64.5 -163t-210.5 -70l-452 -51l118 61 v-137h594v-201h-852z" />
<glyph unicode="&#x2462;" horiz-adv-x="2256" d="M236 696q0 301 108.5 482.5t313 260.5t511.5 79t512 -79t313.5 -260.5t108.5 -482.5t-108.5 -482t-313.5 -260t-512 -79t-511.5 79t-313 260t-108.5 482zM444 696q0 -246 81 -384t238.5 -193.5t405.5 -55.5t406 55.5t238.5 194t80.5 383.5q0 246 -80.5 384.5 t-238.5 193.5t-406 55t-405.5 -55t-238.5 -193.5t-81 -384.5zM768 526q162 -20 323.5 -29.5t342.5 -9.5l-84 -114v235h-392v185h496l-125 -39v282l74 -121q-152 0 -304.5 -9t-310.5 -27l9 208q106 12 222 17.5t198 5.5q193 0 278.5 -53t85.5 -166q0 -109 -74.5 -158 t-232.5 -49l31 37q152 0 224.5 -49t72.5 -158q0 -115 -86 -168t-281 -53q-96 0 -219 6t-240 18z" />
<glyph unicode="&#x2463;" horiz-adv-x="2256" d="M236 696q0 301 108.5 482.5t313 260.5t511.5 79t512 -79t313.5 -260.5t108.5 -482.5t-108.5 -482t-313.5 -260t-512 -79t-511.5 79t-313 260t-108.5 482zM444 696q0 -246 81 -384t238.5 -193.5t405.5 -55.5t406 55.5t238.5 194t80.5 383.5q0 246 -80.5 384.5 t-238.5 193.5t-406 55t-405.5 -55t-238.5 -193.5t-81 -384.5zM698 469v182l332 445h264v-11l-313 -405v-10h625v-201h-908zM1251 307v604h232v-604h-232z" />
<glyph unicode="&#x2464;" horiz-adv-x="2256" d="M236 696q0 301 108.5 482.5t313 260.5t511.5 79t512 -79t313.5 -260.5t108.5 -482.5t-108.5 -482t-313.5 -260t-512 -79t-511.5 79t-313 260t-108.5 482zM444 696q0 -246 81 -384t238.5 -193.5t405.5 -55.5t406 55.5t238.5 194t80.5 383.5q0 246 -80.5 384.5 t-238.5 193.5t-406 55t-405.5 -55t-238.5 -193.5t-81 -384.5zM768 530q145 -18 300 -27t335 -14l-82 -98v305l141 -94l-661 25v469h733v-199h-498v-188l-131 100l416 -16q133 -4 194.5 -63.5t61.5 -182.5q0 -94 -35 -149.5t-110.5 -80t-202.5 -24.5q-207 0 -453 22z" />
<glyph unicode="&#x2465;" horiz-adv-x="2256" d="M236 696q0 301 108.5 482.5t313 260.5t511.5 79t512 -79t313.5 -260.5t108.5 -482.5t-108.5 -482t-313.5 -260t-512 -79t-511.5 79t-313 260t-108.5 482zM444 696q0 -246 81 -384t238.5 -193.5t405.5 -55.5t406 55.5t238.5 194t80.5 383.5q0 246 -80.5 384.5 t-238.5 193.5t-406 55t-405.5 -55t-238.5 -193.5t-81 -384.5zM727 545v280q0 137 65.5 204t206.5 67h527v-201h-568v-485l-57 92q43 -4 111.5 -6t140.5 -2q76 0 148.5 2t117.5 6l-73 -92v211h-476v174h447q133 0 201.5 -56.5t68.5 -187.5q0 -98 -38 -153.5t-130 -80 t-262 -24.5q-180 0 -273 28.5t-125 82t-32 141.5z" />
<glyph unicode="&#x2466;" horiz-adv-x="2256" d="M236 696q0 301 108.5 482.5t313 260.5t511.5 79t512 -79t313.5 -260.5t108.5 -482.5t-108.5 -482t-313.5 -260t-512 -79t-511.5 79t-313 260t-108.5 482zM444 696q0 -246 81 -384t238.5 -193.5t405.5 -55.5t406 55.5t238.5 194t80.5 383.5q0 246 -80.5 384.5 t-238.5 193.5t-406 55t-405.5 -55t-238.5 -193.5t-81 -384.5zM772 885v211h784v-197l-397 -592h-278v10l383 557v11h-492z" />
<glyph unicode="&#x2467;" horiz-adv-x="2256" d="M236 696q0 301 108.5 482.5t313 260.5t511.5 79t512 -79t313.5 -260.5t108.5 -482.5t-108.5 -482t-313.5 -260t-512 -79t-511.5 79t-313 260t-108.5 482zM444 696q0 -246 81 -384t238.5 -193.5t405.5 -55.5t406 55.5t238.5 194t80.5 383.5q0 246 -80.5 384.5 t-238.5 193.5t-406 55t-405.5 -55t-238.5 -193.5t-81 -384.5zM709 522q0 80 43 130t143 75t274 25t274.5 -25t143.5 -75t43 -130q0 -82 -42 -131t-142.5 -73.5t-276.5 -24.5t-276 24.5t-142 73.5t-42 131zM739 885q0 78 41 127t135.5 73.5t253.5 24.5q160 0 254.5 -24.5 t135 -73.5t40.5 -127q0 -119 -99.5 -173.5t-330.5 -54.5t-330.5 54.5t-99.5 173.5zM836 616l114 76v-299l-86 99q78 -4 157 -6.5t148 -2.5q70 0 149 2t157 7l-86 -99v299l114 -76h-667zM866 791h607l-115 -76v311l80 -115q-66 4 -135.5 6.5t-133.5 2.5q-63 0 -132.5 -2.5 t-135.5 -6.5l80 115v-311z" />
<glyph unicode="&#x2468;" horiz-adv-x="2256" d="M236 696q0 301 108.5 482.5t313 260.5t511.5 79t512 -79t313.5 -260.5t108.5 -482.5t-108.5 -482t-313.5 -260t-512 -79t-511.5 79t-313 260t-108.5 482zM444 696q0 -246 81 -384t238.5 -193.5t405.5 -55.5t406 55.5t238.5 194t80.5 383.5q0 246 -80.5 384.5 t-238.5 193.5t-406 55t-405.5 -55t-238.5 -193.5t-81 -384.5zM741 852q0 98 38 153.5t130 80t262 24.5q180 0 273.5 -28.5t125.5 -82t32 -141.5v-280q0 -137 -64.5 -204t-208.5 -67h-526v201h567v485l57 -92q-43 4 -111.5 6t-139.5 2q-76 0 -149 -2t-118 -6l74 92v-211h475 v-174h-446q-133 0 -202 56.5t-69 187.5z" />
<glyph unicode="&#x24ea;" horiz-adv-x="2256" d="M236 696q0 301 108.5 482.5t313 260.5t511.5 79t512 -79t313.5 -260.5t108.5 -482.5t-108.5 -482t-313.5 -260t-512 -79t-511.5 79t-313 260t-108.5 482zM444 696q0 -246 81 -384t238.5 -193.5t405.5 -55.5t406 55.5t238.5 194t80.5 383.5q0 246 -80.5 384.5 t-238.5 193.5t-406 55t-405.5 -55t-238.5 -193.5t-81 -384.5zM688 700q0 160 53.5 249t158 125t269.5 36q168 0 271.5 -36t157 -125t53.5 -249t-53.5 -249t-158 -123.5t-270.5 -34.5t-270 34.5t-157.5 124t-53.5 248.5zM950 535q55 -4 113.5 -7.5t105.5 -3.5t105.5 3 t114.5 8v333q-45 6 -108.5 8.5t-111.5 2.5q-47 0 -110.5 -2.5t-108.5 -8.5v-333z" />
<glyph unicode="&#x24ff;" horiz-adv-x="2256" d="M236 696q0 301 108.5 482.5t313 260.5t511.5 79t512 -79t313.5 -260.5t108.5 -482.5t-108.5 -482t-313.5 -260t-512 -79t-511.5 79t-313 260t-108.5 482zM688 700q0 -160 53.5 -249t157.5 -123.5t270 -34.5t270.5 34.5t158 124t53.5 248.5q0 160 -53.5 249t-158 125 t-270.5 36q-168 0 -271 -36t-156.5 -125t-53.5 -249zM950 535v333q45 6 108.5 8.5t110.5 2.5t110.5 -2.5t109.5 -8.5v-333q-55 -4 -114 -7.5t-106 -3.5t-105 3t-114 8z" />
<glyph unicode="&#x25fc;" horiz-adv-x="1034" d="M0 0v1034h1034v-1034h-1034z" />
<glyph unicode="&#x2776;" horiz-adv-x="2256" d="M236 696q0 301 108.5 482.5t313 260.5t511.5 79t512 -79t313.5 -260.5t108.5 -482.5t-108.5 -482t-313.5 -260t-512 -79t-511.5 79t-313 260t-108.5 482zM768 307h831v211h-266v578h-252v-148h-235v-200h235v-230h-313v-211z" />
<glyph unicode="&#x2777;" horiz-adv-x="2256" d="M236 696q0 301 108.5 482.5t313 260.5t511.5 79t512 -79t313.5 -260.5t108.5 -482.5t-108.5 -482t-313.5 -260t-512 -79t-511.5 79t-313 260t-108.5 482zM741 307h852v201h-594v90l334 37q145 16 210 69.5t65 163.5q0 123 -88 182.5t-275 59.5q-223 0 -438 -23l-8 -215 q139 16 275 26.5t272 14.5v-90l-332 -37q-141 -16 -207 -71.5t-66 -161.5v-246z" />
<glyph unicode="&#x2778;" horiz-adv-x="2256" d="M236 696q0 301 108.5 482.5t313 260.5t511.5 79t512 -79t313.5 -260.5t108.5 -482.5t-108.5 -482t-313.5 -260t-512 -79t-511.5 79t-313 260t-108.5 482zM768 526l8 -209q117 -12 240 -18t219 -6q195 0 281 53t86 168q0 78 -38 125t-116 68q133 43 133 184q0 113 -86 166 t-278 53q-82 0 -198 -5t-222 -18l-9 -208q131 16 265.5 24t275.5 12v-122h-371v-185h392v-121q-156 4 -297.5 13.5t-284.5 25.5z" />
<glyph unicode="&#x2779;" horiz-adv-x="2256" d="M236 696q0 301 108.5 482.5t313 260.5t511.5 79t512 -79t313.5 -260.5t108.5 -482.5t-108.5 -482t-313.5 -260t-512 -79t-511.5 79t-313 260t-108.5 482zM698 469h553v-162h232v162h123v201h-123v241h-232v-241h-270v10l313 405v11h-264l-332 -445v-182z" />
<glyph unicode="&#x277a;" horiz-adv-x="2256" d="M236 696q0 301 108.5 482.5t313 260.5t511.5 79t512 -79t313.5 -260.5t108.5 -482.5t-108.5 -482t-313.5 -260t-512 -79t-511.5 79t-313 260t-108.5 482zM768 530l8 -215q246 -22 453 -22q127 0 202.5 24.5t110.5 80t35 149.5q0 123 -61.5 182t-194.5 64l-285 10v94h498 v199h-733v-469l520 -19v-116q-152 4 -287 13t-266 25z" />
<glyph unicode="&#x277b;" horiz-adv-x="2256" d="M236 696q0 301 108.5 482.5t313 260.5t511.5 79t512 -79t313.5 -260.5t108.5 -482.5t-108.5 -482t-313.5 -260t-512 -79t-511.5 79t-313 260t-108.5 482zM727 545q0 -88 32 -141.5t125 -82t273 -28.5q170 0 262 24.5t130 80t38 153.5q0 131 -68.5 187.5t-201.5 56.5h-359 v100h568v201h-527q-141 0 -206.5 -66.5t-65.5 -204.5v-280zM958 498v123h388v-123q-23 0 -46.5 -1t-48.5 -1q-27 -2 -51 -2h-47h-50.5t-51.5 2q-25 0 -48.5 1t-44.5 1z" />
<glyph unicode="&#x277c;" horiz-adv-x="2256" d="M236 696q0 301 108.5 482.5t313 260.5t511.5 79t512 -79t313.5 -260.5t108.5 -482.5t-108.5 -482t-313.5 -260t-512 -79t-511.5 79t-313 260t-108.5 482zM772 885h492v-11l-383 -555v-10h278l397 590v197h-784v-211z" />
<glyph unicode="&#x277d;" horiz-adv-x="2256" d="M236 696q0 301 108.5 482.5t313 260.5t511.5 79t512 -79t313.5 -260.5t108.5 -482.5t-108.5 -482t-313.5 -260t-512 -79t-511.5 79t-313 260t-108.5 482zM709 522q0 -82 42 -131t142 -73.5t276 -24.5t276.5 24.5t142.5 73.5t42 131q0 70 -31.5 116t-101.5 73 q53 27 77.5 70.5t24.5 103.5q0 78 -40.5 127t-135 73.5t-254.5 24.5t-254 -24.5t-135 -73.5t-41 -127q0 -59 24.5 -103.5t78.5 -70.5q-70 -27 -101.5 -73t-31.5 -116zM950 487v129h439v-129q-59 -2 -115 -3t-105 -1t-104 1t-115 3zM981 791v124q49 2 97 3.5t91 1.5t91.5 -1 t97.5 -4v-124h-377z" />
<glyph unicode="&#x277e;" horiz-adv-x="2256" d="M236 696q0 301 108.5 482.5t313 260.5t511.5 79t512 -79t313.5 -260.5t108.5 -482.5t-108.5 -482t-313.5 -260t-512 -79t-511.5 79t-313 260t-108.5 482zM741 852q0 -131 69 -187.5t202 -56.5h358v-100h-567v-201h526q143 0 208 66.5t65 204.5v280q0 88 -32 141.5 t-125 82t-274 28.5q-170 0 -262 -24.5t-130 -80t-38 -153.5zM983 782v123q23 2 47.5 2h50.5q25 2 48.5 2h46.5h50t52 -2q25 0 48.5 -1t43.5 -1v-123h-387z" />
<glyph horiz-adv-x="3164" d="M27 0l67 301h484l184 791h-483l67 301h1315l-68 -301h-483l-184 -791h483l-68 -301h-1314zM733 1692l778 196l23 -186l-780 -197zM1546 2l64 332q330 -39 495 -53q219 -16 424 -23l189 823h-834l72 312h1206l-203 -869q-51 -221 -140 -339.5t-238.5 -167t-403.5 -48.5 q-145 0 -311 9.5t-320 23.5zM2279 1692l778 196l23 -186l-780 -197z" />
<glyph horiz-adv-x="1329" d="M-4 0l57 252h385l121 528h-385l59 252h1102l-59 -252h-385l-121 -528h385l-57 -252h-1102zM592 1225l39 174h475l-39 -174h-475z" />
<glyph horiz-adv-x="2467" d="M-4 0l57 252h385l121 528h-385l59 252h1102l-59 -252h-385l-121 -528h385l-57 -252h-1102zM557 1298l690 230l43 -174l-690 -230zM1087 -420l52 285q180 -25 338.5 -38t308.5 -13l221 956h-557l61 262h901l-256 -1110q-31 -131 -93 -212t-169.5 -121t-273.5 -40 q-104 0 -248.5 8.5t-284.5 22.5zM1778 1298l690 230l43 -174l-690 -230z" />
<glyph horiz-adv-x="2136" d="M39 770l61 262h394l18 80q31 135 92.5 215t172 118t288.5 38q111 0 249 -8.5t255 -24.5l-49 -272q-178 29 -324.5 39t-312.5 10l-45 -195h1243l-256 -1110q-31 -131 -93.5 -212t-170 -121t-273.5 -40q-227 0 -538 29l51 285q184 -23 344 -35t311 -12l221 964h-899 l-178 -780h-344l176 770h-393zM1655 1225l39 174h475l-39 -174h-475z" />
<glyph horiz-adv-x="2795" d="M39 770l61 262h394l18 80q31 135 92.5 215t172 118t288.5 38q123 0 300 -8.5t323 -22.5l-52 -274q-209 29 -387 40t-366 11l-45 -197h1185l41 -217l-26 -143l-94 -410h628l-59 -262h-1317l59 262h344l119 518h-940l-178 -780h-344l176 770h-393zM1962 803 q246 125 459 192.5t377 67.5q59 0 92 -4l-66 -287q-23 2 -82 2q-121 0 -232.5 -26.5t-221 -72.5t-289.5 -134l-6 -4z" />
<glyph horiz-adv-x="2719" d="M39 770l61 262h394l18 80q31 135 92.5 215t172 118t288.5 38q117 0 269.5 -8.5t279.5 -20.5l-51 -274q-160 25 -334 37t-346 12l-45 -197h827l61 271h345l-62 -271h780l-61 -262h-780l-123 -537q195 0 397.5 16.5t425.5 45.5l-78 -285q-135 -16 -361.5 -28.5 t-353.5 -12.5q-156 0 -242.5 38t-113 120t3.5 213l103 440h-828l-178 -780h-344l176 770h-393z" />
<glyph horiz-adv-x="2672" d="M-4 0l57 252h385l121 528h-385l59 252h1512l18 80q31 135 92.5 215t172 118t290.5 38q121 0 298 -8.5t323 -22.5l-51 -274q-209 29 -387.5 40t-366.5 11l-45 -197h735l-61 -262h-735l-177 -770h-344l179 780h-795l-121 -528h385l-57 -252h-1102zM592 1225l39 174h475 l-39 -174h-475z" />
<glyph horiz-adv-x="2779" d="M-4 0l57 252h385l121 528h-385l59 252h1491l62 271h344l-62 -271h781l-62 -262h-780l-123 -537q195 0 397.5 16.5t425.5 45.5l-77 -285q-135 -16 -354.5 -28.5t-344.5 -12.5q-164 0 -254 38t-117.5 119t3.5 214l102 440h-774l-121 -528h385l-57 -252h-1102zM592 1225 l39 174h475l-39 -174h-475z" />
<glyph horiz-adv-x="2852" d="M-4 0l59 262h344l117 508h-344l61 262h590l41 -217l-26 -143l-95 -410h631l-59 -262h-1319zM739 784q158 88 298.5 141.5t282.5 80t302 26.5h303l19 80q31 135 92 215t171.5 118t289.5 38q123 0 300 -8.5t322 -22.5l-51 -274q-209 29 -387 40t-367 11l-45 -197h735 l-61 -262h-735l-176 -770h-344l178 780h-275q-145 0 -273 -27.5t-252 -79.5t-288 -141z" />
<glyph horiz-adv-x="2938" d="M-4 0l59 262h344l117 508h-344l61 262h590l41 -217l-26 -143l-95 -410h631l-59 -262h-1319zM739 784q160 88 299.5 142.5t280.5 80t303 25.5h262l62 271h344l-62 -271h781l-62 -262h-780l-123 -537q195 0 397.5 16.5t425.5 45.5l-78 -285q-135 -16 -361 -28.5t-353 -12.5 q-156 0 -243 38t-113.5 120t3.5 213l103 440h-234q-147 0 -274 -27.5t-250 -79.5t-289 -141z" />
<glyph horiz-adv-x="2852" d="M39 770l61 262h394l61 271h344l-61 -271h960l62 271h344l-62 -271h780l-61 -262h-780l-123 -537q195 0 397.5 16.5t425.5 45.5l-78 -285q-135 -16 -361 -28.5t-353 -12.5q-156 0 -243 38t-113.5 120t3.5 213l103 440h-961l-125 -547q199 0 388.5 15.5t385.5 42.5 l-77 -283q-131 -16 -332 -27.5t-334 -11.5q-156 0 -243 38t-113.5 120t4.5 213l100 430h-393z" />
<glyph horiz-adv-x="3342" d="M39 770l61 262h394l18 80q31 135 92.5 215t172 118t288.5 38q117 0 274.5 -8.5t296.5 -24.5l-51 -272q-205 27 -368.5 38t-333.5 11l-45 -195h862l18 80q31 133 92.5 214t173 119t289.5 38q104 0 234.5 -8.5t269.5 -24.5l-51 -272q-199 29 -337 39t-300 10l-45 -195h1243 l-256 -1110q-31 -131 -92.5 -212t-169 -121t-275.5 -40q-227 0 -538 29l53 285q188 -25 346 -37t305 -12l224 966h-899l-179 -780h-344l178 780h-862l-178 -780h-344l176 770h-393zM2861 1225l39 174h475l-39 -174h-475z" />
<glyph horiz-adv-x="2054" d="M39 770l61 262h394l18 80q31 135 92.5 215t172 118t288.5 38q152 0 384 -8.5t413 -22.5l-52 -274q-252 29 -461.5 40t-465.5 11l-45 -197h1161l-238 -1032h-344l178 780h-817l-178 -780h-344l176 770h-393z" />
<glyph horiz-adv-x="2054" d="M39 770l61 262h394l18 80q31 135 92.5 215t172 118t288.5 38q152 0 384 -8.5t413 -22.5l-52 -274q-252 29 -461.5 40t-465.5 11l-45 -197h1161l-256 -1110q-31 -131 -93.5 -212t-170 -121t-273.5 -40q-88 0 -202.5 9.5t-217.5 23.5l52 285q152 -25 283.5 -39t250.5 -14 l223 966h-817l-178 -780h-344l176 770h-393z" />
<glyph horiz-adv-x="3260" d="M39 770l61 262h394l18 80q31 135 92.5 215t172 118t288.5 38q115 0 273.5 -8.5t297.5 -22.5l-51 -274q-209 27 -372.5 39t-329.5 12l-45 -197h862l18 80q31 135 92.5 215t172 118t290.5 38q152 0 383.5 -8.5t411.5 -22.5l-51 -274q-252 29 -462 40t-466 11l-45 -197h1161 l-237 -1032h-345l179 780h-817l-179 -780h-344l178 780h-862l-178 -780h-344l176 770h-393z" />
<glyph horiz-adv-x="3260" d="M39 770l61 262h394l18 80q31 135 92.5 215t172 118t288.5 38q115 0 273.5 -8.5t297.5 -22.5l-51 -274q-209 27 -372.5 39t-329.5 12l-45 -197h862l18 80q31 135 92.5 215t172 118t290.5 38q152 0 383.5 -8.5t411.5 -22.5l-51 -274q-252 29 -462 40t-466 11l-45 -197h1161 l-256 -1110q-31 -131 -92 -212t-168.5 -121t-275.5 -40q-88 0 -204 9.5t-216 23.5l51 285q305 -53 534 -53l224 966h-817l-179 -780h-344l178 780h-862l-178 -780h-344l176 770h-393z" />
<glyph horiz-adv-x="1875" d="M92 387q29 125 102.5 202t197.5 112.5t308 35.5l80 -69q-295 0 -418.5 98t-76.5 303q29 125 108.5 203t223 114.5t364.5 36.5q496 0 979 -45l-66 -331q-420 57 -788 75q-188 10 -418 13l-63 -283h880l-67 -287h-916l-69 -307q248 2 467 12q440 20 856 76l-93 -332 q-507 -45 -964 -45q-248 0 -397.5 46t-206 138.5t-23.5 233.5z" />
<glyph horiz-adv-x="1875" d="M92 387q29 125 102.5 202t197.5 112.5t308 35.5l80 -69q-295 0 -418.5 98t-76.5 303q29 125 108.5 203t223 114.5t364.5 36.5q496 0 979 -45l-66 -331q-420 57 -788 75q-188 10 -418 13l-63 -283h880l-67 -287h-916l-69 -307q248 2 467 12q440 20 856 76l-93 -332 q-507 -45 -964 -45q-248 0 -397.5 46t-206 138.5t-23.5 233.5zM938 1692l778 196l23 -186l-780 -197z" />
<glyph horiz-adv-x="1875" d="M92 387q29 125 102.5 202t197.5 112.5t308 35.5l80 -69q-295 0 -418.5 98t-76.5 303q29 125 108.5 203t223 114.5t364.5 36.5q496 0 979 -45l-66 -331q-420 57 -788 75q-188 10 -418 13l-63 -283h880l-67 -287h-916l-69 -307q248 2 467 12q440 20 856 76l-93 -332 q-507 -45 -964 -45q-248 0 -397.5 46t-206 138.5t-23.5 233.5zM723 1704l518 143h90l453 -143l-76 -176l-438 143l-504 -143z" />
<glyph horiz-adv-x="1875" d="M92 387q29 125 102.5 202t197.5 112.5t308 35.5l80 -69q-295 0 -418.5 98t-76.5 303q29 125 108.5 203t223 114.5t364.5 36.5q496 0 979 -45l-66 -331q-420 57 -788 75q-188 10 -418 13l-63 -283h880l-67 -287h-916l-69 -307q248 2 467 12q440 20 856 76l-93 -332 q-507 -45 -964 -45q-248 0 -397.5 46t-206 138.5t-23.5 233.5zM741 1599l41 183h440l-41 -183h-440zM1335 1599l41 183h440l-41 -183h-440z" />
<glyph horiz-adv-x="1875" d="M92 387q29 125 102.5 202t197.5 112.5t308 35.5l80 -69q-295 0 -418.5 98t-76.5 303q29 125 108.5 203t223 114.5t364.5 36.5q496 0 979 -45l-66 -331q-420 57 -788 75q-188 10 -418 13l-63 -283h880l-67 -287h-916l-69 -307q248 2 467 12q440 20 856 76l-93 -332 q-507 -45 -964 -45q-248 0 -397.5 46t-206 138.5t-23.5 233.5zM844 1722l78 166l688 -196l-80 -166z" />
<glyph horiz-adv-x="1763" d="M121 -2l63 324q168 -25 396 -46q248 -23 401 -22l-41 -72l-770 1200l2 11l410 -7l524 -817q74 -113 95.5 -191.5t0.5 -162.5q-23 -92 -82 -146.5t-156 -77t-247 -22.5q-115 0 -300.5 8.5t-295.5 20.5zM768 829h184l574 564h471l-2 -11l-971 -915z" />
<glyph horiz-adv-x="1763" d="M121 -2l63 324q168 -25 396 -46q248 -23 401 -22l-41 -72l-770 1200l2 11l410 -7l524 -817q74 -113 95.5 -191.5t0.5 -162.5q-23 -92 -82 -146.5t-156 -77t-247 -22.5q-115 0 -300.5 8.5t-295.5 20.5zM768 829h184l574 564h471l-2 -11l-971 -915zM798 1692l778 196 l23 -186l-780 -197z" />
<glyph horiz-adv-x="1763" d="M121 -2l63 324q168 -25 396 -46q248 -23 401 -22l-41 -72l-770 1200l2 11l410 -7l524 -817q74 -113 95.5 -191.5t0.5 -162.5q-23 -92 -82 -146.5t-156 -77t-247 -22.5q-115 0 -300.5 8.5t-295.5 20.5zM602 1599l41 183h440l-41 -183h-440zM768 829h184l574 564h471 l-2 -11l-971 -915zM1196 1599l41 183h440l-41 -183h-440z" />
<glyph horiz-adv-x="1773" d="M133 0l66 287h442l49 211l-500 884l3 11h397l319 -602h11l593 602h453l-2 -11l-905 -884l-49 -211h440l-66 -287h-1251z" />
<glyph horiz-adv-x="1773" d="M133 0l66 287h442l49 211l-500 884l3 11h397l319 -602h11l593 602h453l-2 -11l-905 -884l-49 -211h440l-66 -287h-1251zM790 1692l778 196l23 -186l-780 -197z" />
<glyph horiz-adv-x="1773" d="M133 0l66 287h442l49 211l-500 884l3 11h397l319 -602h11l593 602h453l-2 -11l-905 -884l-49 -211h440l-66 -287h-1251zM594 1599l41 183h440l-41 -183h-440zM1188 1599l41 183h440l-41 -183h-440z" />
<glyph horiz-adv-x="841" d="M119 0l319 1393h369l-320 -1393h-368z" />
<glyph horiz-adv-x="841" d="M119 0l319 1393h369l-320 -1393h-368zM350 1692l778 196l23 -186l-780 -197z" />
<glyph horiz-adv-x="841" d="M119 0l319 1393h369l-320 -1393h-368zM135 1704l518 143h90l453 -143l-76 -176l-438 143l-504 -143z" />
<glyph horiz-adv-x="841" d="M119 0l319 1393h369l-320 -1393h-368zM153 1599l41 183h440l-41 -183h-440zM747 1599l41 183h440l-41 -183h-440z" />
<glyph horiz-adv-x="841" d="M119 0l319 1393h369l-320 -1393h-368zM256 1722l78 166l688 -196l-80 -166z" />
<glyph horiz-adv-x="2383" d="M119 0l319 1393h369l-320 -1393h-368zM766 2l63 332q307 -37 496 -53q164 -14 424 -23l188 823h-833l72 312h1206l-203 -871q-51 -221 -140 -338.5t-238.5 -166t-403.5 -48.5q-145 0 -311 9.5t-320 23.5z" />
<glyph horiz-adv-x="2383" d="M119 0l319 1393h369l-320 -1393h-368zM350 1692l778 196l23 -186l-780 -197zM766 2l63 332q307 -37 496 -53q164 -14 424 -23l188 823h-833l72 312h1206l-203 -871q-51 -221 -140 -338.5t-238.5 -166t-403.5 -48.5q-145 0 -311 9.5t-320 23.5zM1497 1692l778 196l23 -186 l-780 -197z" />
<glyph horiz-adv-x="1138" d="M-150 -426l54 285q160 -23 286.5 -34t266.5 -11l221 956h-531l62 262h874l-256 -1110q-31 -131 -93 -212t-169.5 -121t-273.5 -40q-197 0 -441 25zM657 1225l39 174h475l-39 -174h-475z" />
<glyph horiz-adv-x="1492" d="M-76 -428l51 285q195 -23 364 -33t329 -10l-47 -72l-535 1280l2 10h365l397 -1009q37 -92 46 -159t-3 -118q-25 -100 -129.5 -148.5t-325.5 -48.5q-94 0 -241.5 6.5t-272.5 16.5zM573 391h144l502 641h393l-2 -10l-811 -1020z" />
<glyph horiz-adv-x="1492" d="M-76 -428l51 285q195 -23 364 -33t329 -10l-47 -72l-535 1280l2 10h365l397 -1009q37 -92 46 -159t-3 -118q-25 -100 -129.5 -148.5t-325.5 -48.5q-94 0 -241.5 6.5t-272.5 16.5zM573 391h144l502 641h393l-2 -10l-811 -1020zM608 1298l690 230l43 -174l-690 -230z" />
<glyph horiz-adv-x="1492" d="M-76 -428l51 285q195 -23 364 -33t329 -10l-47 -72l-535 1280l2 10h365l397 -1009q37 -92 46 -159t-3 -118q-25 -100 -129.5 -148.5t-325.5 -48.5q-94 0 -241.5 6.5t-272.5 16.5zM362 1225l39 174h440l-39 -174h-440zM573 391h144l502 641h393l-2 -10l-811 -1020z M956 1225l39 174h440l-39 -174h-440z" />
<glyph horiz-adv-x="1769" d="M86 206q-18 122 29 320q45 195 114.5 303.5t188.5 155.5t319 47h824l-62 -272h-967l-118 -512q242 0 499.5 44t505.5 120l29 -232q-266 -90 -542.5 -150.5t-456.5 -60.5q-168 0 -256.5 57.5t-106.5 179.5zM1167 154l203 878h344l-237 -1032h-267z" />
<glyph horiz-adv-x="1769" d="M86 206q-18 122 29 320q45 195 114.5 303.5t188.5 155.5t319 47h824l-62 -272h-967l-118 -512q242 0 499.5 44t505.5 120l29 -232q-266 -90 -542.5 -150.5t-456.5 -60.5q-168 0 -256.5 57.5t-106.5 179.5zM799 1298l690 230l43 -174l-690 -230zM1167 154l203 878h344 l-237 -1032h-267z" />
<glyph horiz-adv-x="1769" d="M86 206q-18 122 29 320q45 195 114.5 303.5t188.5 155.5t319 47h824l-62 -272h-967l-118 -512q242 0 499.5 44t505.5 120l29 -232q-266 -90 -542.5 -150.5t-456.5 -60.5q-168 0 -256.5 57.5t-106.5 179.5zM602 1315l476 176h90l393 -176l-72 -162l-373 170l-450 -170z M1167 154l203 878h344l-237 -1032h-267z" />
<glyph horiz-adv-x="1769" d="M86 206q-18 122 29 320q45 195 114.5 303.5t188.5 155.5t319 47h824l-62 -272h-967l-118 -512q242 0 499.5 44t505.5 120l29 -232q-266 -90 -542.5 -150.5t-456.5 -60.5q-168 0 -256.5 57.5t-106.5 179.5zM553 1225l39 174h440l-39 -174h-440zM1147 1225l39 174h440 l-39 -174h-440zM1167 154l203 878h344l-237 -1032h-267z" />
<glyph horiz-adv-x="1769" d="M86 206q-18 122 29 320q45 195 114.5 303.5t188.5 155.5t319 47h824l-62 -272h-967l-118 -512q242 0 499.5 44t505.5 120l29 -232q-266 -90 -542.5 -150.5t-456.5 -60.5q-168 0 -256.5 57.5t-106.5 179.5zM711 1370l82 158l584 -230l-82 -157zM1167 154l203 878h344 l-237 -1032h-267z" />
<glyph horiz-adv-x="1769" d="M86 206q-18 122 29 320q45 195 114.5 303.5t188.5 155.5t319 47h824l-62 -272h-967l-118 -512q242 0 499.5 44t505.5 120l29 -232q-266 -90 -542.5 -150.5t-456.5 -60.5q-168 0 -256.5 57.5t-106.5 179.5zM664 1360q16 74 59 113.5t134.5 57t259.5 17.5q176 0 268 -21.5 t120.5 -69.5t8.5 -134q-16 -74 -59.5 -114t-134.5 -57.5t-259 -17.5q-176 0 -268 21.5t-121 70t-8 134.5zM820 1286h516l24 111h-516zM1167 154l203 878h344l-237 -1032h-267z" />
<glyph horiz-adv-x="1769" d="M86 206q-18 122 29 320q45 195 114.5 303.5t188.5 155.5t319 47h824l-62 -272h-967l-118 -512q242 0 499.5 44t505.5 120l29 -232q-266 -90 -542.5 -150.5t-456.5 -60.5q-168 0 -256.5 57.5t-106.5 179.5zM614 1165l29 125q18 82 64.5 124t117.5 42q57 0 107.5 -9 t109.5 -28q4 -2 8.5 -3t8.5 -3l268 -90h16l31 133h193l-29 -125q-18 -82 -64.5 -124t-117.5 -42q-61 0 -115.5 11.5t-118.5 31.5l-268 90h-16l-31 -133h-193zM1167 154l203 878h344l-237 -1032h-267z" />
<glyph horiz-adv-x="692" d="M55 0l238 1032h344l-238 -1032h-344zM272 1225l39 174h475l-39 -174h-475z" />
<glyph horiz-adv-x="692" d="M55 0l238 1032h344l-238 -1032h-344z" />
<glyph horiz-adv-x="692" d="M55 0l238 1032h344l-238 -1032h-344zM238 1298l690 230l43 -174l-690 -230z" />
<glyph horiz-adv-x="692" d="M41 1315l476 176h90l393 -176l-72 -162l-373 170l-450 -170zM55 0l238 1032h344l-238 -1032h-344z" />
<glyph horiz-adv-x="692" d="M55 0l238 1032h344l-238 -1032h-344zM117 1225l39 174h352l-39 -174h-352zM551 1225l39 174h352l-39 -174h-352z" />
<glyph horiz-adv-x="692" d="M55 0l238 1032h344l-238 -1032h-344zM149 1370l82 158l584 -230l-82 -157z" />
<glyph horiz-adv-x="1413" d="M55 0l238 1032h344l-238 -1032h-344zM172 -422l51 285q135 -23 263 -36t245 -13l283 1218h344l-256 -1110q-31 -131 -93.5 -212t-170 -121t-275.5 -40q-82 0 -186.5 7.5t-204.5 21.5zM272 1225l39 174h475l-39 -174h-475zM991 1225l39 174h475l-39 -174h-475z" />
<glyph horiz-adv-x="1413" d="M55 0l238 1032h344l-238 -1032h-344zM172 -422l51 285q135 -23 263 -36t245 -13l283 1218h344l-256 -1110q-31 -131 -93.5 -212t-170 -121t-275.5 -40q-82 0 -186.5 7.5t-204.5 21.5zM238 1298l690 230l43 -174l-690 -230zM957 1298l690 230l43 -174l-690 -230z" />
<glyph horiz-adv-x="720" d="M-520 -422l51 285q135 -23 263 -36t245 -13l283 1218h344l-256 -1110q-31 -131 -93.5 -212t-170 -121t-275.5 -40q-82 0 -186.5 7.5t-204.5 21.5zM299 1225l39 174h475l-39 -174h-475z" />
<glyph horiz-adv-x="712" d="M66 0l340 1475h344l-340 -1475h-344z" />
<glyph horiz-adv-x="995" d="M66 0l340 1475h344l-340 -1475h-344zM670 604l60 264h407l-59 -264h-408z" />
<glyph horiz-adv-x="1310" d="M55 0l238 1032h246l41 -217l-27 -143l-154 -672h-344zM477 803q246 125 459 192.5t377 67.5q59 0 92 -4l-66 -287q-23 2 -82 2q-123 0 -234.5 -27.5t-220 -73.5t-294.5 -136z" />
<glyph horiz-adv-x="2093" d="M-199 -389l162 700h2093l-162 -700h-352l88 389h-1388l-88 -389h-353zM18 10l967 1383h559l318 -1383h-381l-248 1141h-10l-787 -1141h-418z" />
<glyph horiz-adv-x="2539" d="M-98 0l2 10l917 824l303 -144l-739 -690h-483zM250 1382l2 11h450l598 -729l-57 -424zM967 0l319 1393h348l-319 -1393h-348zM1165 231l99 424l934 738h491l-2 -11zM1513 690l328 144l561 -824l-2 -10h-442z" />
<glyph horiz-adv-x="2170" d="M119 0l319 1393h369l-254 -1104h10l975 1104h598l-319 -1393h-369l254 1104h-10l-975 -1104h-598zM877 1599l41 183h921l-41 -183h-921z" />
<glyph horiz-adv-x="1896" d="M119 0l319 1393h369l-320 -1393h-368zM426 297l37 403l1026 693h555l-2 -11zM784 690l340 144l635 -824l-2 -10h-457z" />
<glyph horiz-adv-x="1822" d="M-109 0l3 10l956 1383h559l307 -1383l-2 -10h-375l-241 1151h-11l-780 -1151h-416z" />
<glyph horiz-adv-x="2615" d="M197.5 273.5q-52.5 156.5 13.5 443.5q66 291 176.5 435t332.5 202.5t648 58.5l-51 -307q-193 0 -340.5 -5t-294.5 -18l-180 -774q139 -12 280.5 -17t321.5 -5l-51 -307q-401 0 -602 68.5t-253.5 225zM973 -223l426 1839h348l-426 -1839h-348zM1331 -20l51 307 q193 0 340.5 5t294.5 17l181 774q-139 12 -280.5 17.5t-322.5 5.5l52 307q401 0 601.5 -68.5t253 -225t-13.5 -443.5q-66 -291 -176 -435.5t-332.5 -202.5t-648.5 -58z" />
<glyph horiz-adv-x="1738" d="M66 0l237 1030q41 174 123 269.5t232.5 135.5t410.5 40q254 0 400.5 -49.5t194.5 -141.5t15 -229q-29 -121 -101.5 -197t-207.5 -110l10 38q94 -20 151.5 -67t75 -128t-9.5 -202q-33 -139 -99 -223t-191 -125t-326 -41h-915zM471 266h739l80 352h-737zM610 864h680 l76 330q-70 6 -154 10t-178 4q-86 0 -183 -4t-165 -10z" />
<glyph horiz-adv-x="1550" d="M35 309q25 98 78 156.5t148 90.5t249 46l643 55l33 140q-205 0 -464 -13.5t-472 -33.5l82 284q172 12 351 19.5t292 7.5q227 0 355 -35t172 -109.5t14 -199.5q-25 -98 -78.5 -157.5t-143.5 -91.5t-229 -44l-670 -55l-30 -136q223 0 463.5 11.5t551.5 42.5l-80 -285 q-370 -33 -714 -33q-236 0 -365 34t-173 107.5t-13 198.5z" />
<glyph horiz-adv-x="1775" d="M0 -416l53 291q336 -35 531.5 -45t505.5 -10l217 940h-775l-106 -459q248 0 507 45t501 125l30 -240q-270 -90 -547.5 -149t-455.5 -59q-164 0 -253 55t-110.5 171t21.5 298q43 186 111.5 289.5t188.5 149.5t320 46h981l-258 -1091q-33 -135 -88 -217t-175 -128.5 t-329 -46.5q-145 0 -420.5 9.5t-449.5 25.5z" />
<glyph horiz-adv-x="2158" d="M-119 0l2 10l738 647l292 -122l-583 -535h-449zM154 1022l2 10h413l600 -680l-206 -186zM784 0l340 1475h324l-340 -1475h-324zM862 352l912 680h467l-3 -10l-1202 -856zM1307 535l297 122l438 -647l-2 -10h-395z" />
<glyph horiz-adv-x="1376" d="M-193 -418l54 285q225 -29 433 -41t488 -12l82 362h-618l65 283h604l78 338q-246 0 -455.5 -10.5t-431.5 -28.5l76 274q176 14 355.5 21.5t326.5 7.5q281 0 387.5 -102.5t61.5 -303.5q-39 -172 -135.5 -257t-241.5 -85l-25 47q174 0 242 -104t23 -297 q-33 -145 -106 -234.5t-204 -132.5t-340 -43q-174 0 -361.5 8.5t-357.5 24.5z" />
<glyph horiz-adv-x="1751" d="M121 330l164 702h344l-180 -778q137 0 369.5 48t434.5 122l37 -260q-242 -84 -471 -139.5t-397 -55.5q-193 0 -268.5 88t-32.5 273zM1149 154l203 878h344l-238 -1032h-266z" />
<glyph horiz-adv-x="1751" d="M121 330l164 702h344l-180 -778q137 0 369.5 48t434.5 122l37 -260q-242 -84 -471 -139.5t-397 -55.5q-193 0 -268.5 88t-32.5 273zM596 1225l39 174h880l-39 -174h-880zM1149 154l203 878h344l-238 -1032h-266z" />
<glyph horiz-adv-x="1751" d="M121 330l164 702h344l-180 -778q137 0 369.5 48t434.5 122l37 -260q-242 -84 -471 -139.5t-397 -55.5q-193 0 -268.5 88t-32.5 273zM676 1370l82 158l584 -230l-82 -157zM1149 154l203 878h344l-238 -1032h-266z" />
<glyph horiz-adv-x="1570" d="M66 0l340 1475h344l-340 -1475h-344zM219 385l940 647h494l-2 -10l-1319 -889zM621 514l305 123l528 -627l-2 -10h-422z" />
<glyph horiz-adv-x="1443" d="M-119 0l2 10l746 1022h483l236 -1022l-2 -10h-347l-161 805h-11l-559 -805h-387z" />
<glyph horiz-adv-x="1769" d="M55 0l238 1032h266l43 -153l-203 -879h-344zM479 868q242 84 471.5 139.5t397.5 55.5q193 0 268.5 -88t32.5 -273l-162 -702h-344l178 778q-135 0 -366.5 -49t-438.5 -121z" />
<glyph horiz-adv-x="2521" d="M55 0l238 1032h266l43 -153l-203 -879h-344zM434 848q180 88 391 151.5t367 63.5q184 0 258 -89t31 -274l-162 -700h-344l178 778q-147 0 -324.5 -51t-355.5 -129zM1354 848q180 88 391 151.5t366 63.5q184 0 258 -89t31 -274l-162 -700h-344l179 778q-147 0 -324.5 -51 t-355.5 -129z" />
<glyph horiz-adv-x="1865" d="M121 330l164 702h344l-180 -778q137 0 369.5 48t434.5 122l37 -260q-242 -84 -471 -139.5t-397 -55.5q-193 0 -268.5 88t-32.5 273zM1184 309l168 723h344l-174 -749h250l-138 -594h-327l98 426l63 -115h-55q-150 0 -207 77t-22 232z" />
<glyph horiz-adv-x="1581" d="M111 596l100 436h344l-117 -512q135 0 364.5 43t432.5 107l37 -260q-242 -76 -468 -125t-392 -49q-193 0 -268.5 88t-32.5 272zM944 0l238 1032h344l-238 -1032h-344z" />
<glyph horiz-adv-x="2480" d="M121 332l162 700h344l-178 -778q143 0 315 51t344 129l39 -250q-174 -88 -379.5 -151.5t-357.5 -63.5q-184 0 -258 89t-31 274zM1020 332l162 700h344l-178 -778q143 0 315 51t344 129l39 -250q-174 -88 -379.5 -151.5t-357.5 -63.5q-184 0 -258 89t-31 274zM1878 154 l203 878h344l-238 -1032h-266z" />
<glyph horiz-adv-x="2594" d="M121 332l162 700h344l-178 -778q143 0 315 51t344 129l39 -250q-174 -88 -379.5 -151.5t-357.5 -63.5q-184 0 -258 89t-31 274zM1020 332l162 700h344l-178 -778q143 0 315 51t344 129l39 -250q-174 -88 -379.5 -151.5t-357.5 -63.5q-184 0 -258 89t-31 274zM1913 309 l168 723h344l-174 -749h250l-138 -594h-327l98 426l64 -115h-56q-150 0 -207 77t-22 232z" />
<glyph horiz-adv-x="1810" d="M45 760l64 272h725l-175 -760h660l70 306q-225 0 -462 -43t-462 -121l-27 241q236 80 494 135.5t416 55.5t245.5 -47t112.5 -140.5t-8 -234.5q-39 -166 -107.5 -258t-173 -129t-262.5 -37h-903l174 760h-381z" />
<glyph horiz-adv-x="1634" d="M55 0l238 1032h344l-174 -760h680l69 306q-229 0 -470.5 -43t-473.5 -121l-26 241q240 80 504 135.5t425 55.5q158 0 246 -47t112.5 -140.5t-7.5 -234.5q-39 -166 -107.5 -258t-173 -129t-262.5 -37h-924z" />
<glyph horiz-adv-x="2314" d="M66 0l340 1475h344l-340 -1475h-344zM383 399l61 273h580l-61 -273h-580zM767 197.5q-44 121.5 5 337.5q49 215 136 326.5t245 155.5t436 44q274 0 422 -52.5t192 -174t-5 -336.5t-137.5 -327t-246 -157t-436.5 -45q-274 0 -420.5 53.5t-190.5 175zM1075 266 q53 -6 151.5 -10t196.5 -4t199.5 4t157.5 10l114 498q-53 6 -152.5 10t-197.5 4t-198.5 -4t-155.5 -10z" />
<glyph horiz-adv-x="4151" d="M-156 -389l158 690h4047l-158 -690h-352l90 389h-1495l-90 -389h-352l90 389h-1495l-90 -389h-353zM106 143q94 70 184.5 193t166.5 326l268 731h1311l-262 -1143h-363l191 831h-617l-158 -428q-76 -203 -160.5 -323.5t-170.5 -186.5h-390zM2060 143q94 70 184.5 193 t165.5 326l269 731h1311l-263 -1143h-362l190 831h-616l-158 -428q-76 -203 -161 -323.5t-171 -186.5h-389z" />
<glyph horiz-adv-x="3426" d="M-160 -311l135 577h3363l-135 -577h-328l74 311h-1190l-73 -311h-328l74 311h-1190l-74 -311h-328zM104 190q68 47 130.5 134.5t132.5 267.5l168 440h1105l-188 -811h-334l125 539h-465l-69 -189q-61 -162 -124 -250t-124 -131h-357zM1724 190q68 47 130.5 134.5 t132.5 267.5l167 440h1106l-188 -811h-334l125 539h-465l-69 -189q-61 -162 -124 -250t-124 -131h-357z" />
<glyph horiz-adv-x="1875" d="M92 387q29 125 102.5 202t197.5 112.5t308 35.5l80 -69q-295 0 -418.5 98t-76.5 303q29 125 108.5 203t223 114.5t364.5 36.5q496 0 979 -45l-66 -331q-420 57 -788 75q-188 10 -418 13l-63 -283h880l-67 -287h-916l-69 -307q248 2 467 12q440 20 856 76l-93 -332 q-507 -45 -964 -45q-248 0 -397.5 46t-206 138.5t-23.5 233.5z" />
<glyph horiz-adv-x="1875" d="M92 387q29 125 102.5 202t197.5 112.5t308 35.5l80 -69q-295 0 -418.5 98t-76.5 303q29 125 108.5 203t223 114.5t364.5 36.5q496 0 979 -45l-66 -331q-420 57 -788 75q-188 10 -418 13l-63 -283h880l-67 -287h-916l-69 -307q248 2 467 12q440 20 856 76l-93 -332 q-507 -45 -964 -45q-248 0 -397.5 46t-206 138.5t-23.5 233.5zM844 1722l78 166l688 -196l-80 -166z" />
<glyph horiz-adv-x="1875" d="M92 387q29 125 102.5 202t197.5 112.5t308 35.5l80 -69q-295 0 -418.5 98t-76.5 303q29 125 108.5 203t223 114.5t364.5 36.5q496 0 979 -45l-66 -331q-420 57 -788 75q-188 10 -418 13l-63 -283h880l-67 -287h-916l-69 -307q248 2 467 12q440 20 856 76l-93 -332 q-507 -45 -964 -45q-248 0 -397.5 46t-206 138.5t-23.5 233.5zM741 1599l41 183h440l-41 -183h-440zM1335 1599l41 183h440l-41 -183h-440z" />
<glyph horiz-adv-x="841" d="M119 0l319 1393h369l-320 -1393h-368z" />
<glyph horiz-adv-x="841" d="M119 0l319 1393h369l-320 -1393h-368zM153 1599l41 183h440l-41 -183h-440zM747 1599l41 183h440l-41 -183h-440z" />
<glyph horiz-adv-x="1769" d="M86 206q-18 122 29 320q45 195 114.5 303.5t188.5 155.5t319 47h824l-62 -272h-967l-118 -512q242 0 499.5 44t505.5 120l29 -232q-266 -90 -542.5 -150.5t-456.5 -60.5q-168 0 -256.5 57.5t-106.5 179.5zM1167 154l203 878h344l-237 -1032h-267z" />
<glyph horiz-adv-x="692" d="M55 0l238 1032h344l-238 -1032h-344zM272 1225l39 174h475l-39 -174h-475z" />
<glyph horiz-adv-x="692" d="M55 0l238 1032h344l-238 -1032h-344zM117 1225l39 174h352l-39 -174h-352zM551 1225l39 174h352l-39 -174h-352z" />
<glyph horiz-adv-x="720" d="M-520 -422l51 285q135 -23 263 -36t245 -13l283 1218h344l-256 -1110q-31 -131 -93.5 -212t-170 -121t-275.5 -40q-82 0 -186.5 7.5t-204.5 21.5zM299 1225l39 174h475l-39 -174h-475z" />
<glyph horiz-adv-x="1138" d="M-150 -426l54 285q160 -23 286.5 -34t266.5 -11l221 956h-531l62 262h874l-256 -1110q-31 -131 -93 -212t-169.5 -121t-273.5 -40q-197 0 -441 25zM657 1225l39 174h475l-39 -174h-475z" />
<glyph horiz-adv-x="1980" d="M174 272.5q-51 161.5 14 442.5q66 287 177.5 437.5t301 210.5t513.5 60q315 0 486 -70.5t222 -232.5t-14 -442q-66 -287 -177.5 -437.5t-299.5 -211t-512 -60.5q-315 0 -487.5 71t-223.5 232.5zM498 313q113 -8 221 -12t219 -4t222.5 4t225.5 12l177 766 q-113 8 -221.5 12.5t-219.5 4.5t-222.5 -4.5t-225.5 -12.5z" />
<glyph horiz-adv-x="1683" d="M118 204q-48 128 3 351q53 223 147 341t255 163t433 45q268 0 419 -53.5t199 -181.5t-3 -351q-53 -223 -147.5 -341t-255.5 -163t-433 -45q-268 0 -418.5 53.5t-198.5 181.5zM248 305l1100 578l69 -129l-1100 -578zM383 248q76 -4 182.5 -5t212.5 -1q100 0 219 4t179 10 l133 569q-76 4 -182.5 5t-213.5 1q-100 0 -219 -4t-178 -10z" />
<glyph horiz-adv-x="1355" d="M-25 0l62 272h489l187 805h336l-187 -805h416l-61 -272h-1242zM254 621l61 262h396l-62 -262h-395z" />
<glyph horiz-adv-x="1540" d="M4 0l76 319q23 92 70 150.5t129.5 92.5t216.5 52l714 97l-102 -88l74 323l24 -96q-197 0 -447.5 -13.5t-467.5 -37.5l71 274q156 16 329 23.5t288 7.5q199 0 316.5 -36t161.5 -110.5t18 -195.5q-23 -94 -70 -155.5t-130 -97.5t-214 -54l-723 -95l104 103l-49 -207l948 10 l-61 -266h-1276z" />
<glyph horiz-adv-x="1454" d="M-102 -211l51 285q236 -31 455 -43.5t458 -12.5l68 299h-619l62 267h588l59 256q-197 -4 -427.5 -18.5t-449.5 -39.5l78 285q162 18 340 27.5t307 9.5q274 0 398.5 -98.5t83.5 -276.5q-35 -147 -162 -228t-326 -81l6 61q131 0 224.5 -40t134.5 -121.5t12 -200.5 q-31 -127 -107.5 -208t-206 -119t-317.5 -38q-182 0 -355 8.5t-355 26.5z" />
<glyph horiz-adv-x="1540" d="M-37 80l66 291l725 706h397l-2 -10l-727 -694l-4 -11h1055l-64 -282h-1446zM768 -225l215 930h320l-216 -930h-319z" />
<glyph horiz-adv-x="1536" d="M-20 -209l51 285q236 -31 463 -44.5t477 -13.5l88 381l65 -106l-970 16l178 768h1163l-65 -282h-830l-72 -308l-77 99l546 -8q221 -4 310.5 -112t40.5 -323q-33 -145 -110 -230t-202.5 -122t-318.5 -37q-199 0 -377 8.5t-360 28.5z" />
<glyph horiz-adv-x="1591" d="M115 434l116 508q43 180 168 268t326 88h829l-65 -282h-905l-45 -199h569q227 0 313 -107.5t37 -324.5q-37 -166 -117.5 -254t-229 -125t-404.5 -37q-252 0 -393.5 46t-189.5 147.5t-9 271.5zM410 262q72 -4 162 -7t178 -3q80 0 169 3t164 7l66 283h-674z" />
<glyph horiz-adv-x="1351" d="M33 -225l2 10l887 979l2 10h-824l70 303h1229l-68 -291l-897 -1011h-401z" />
<glyph horiz-adv-x="1665" d="M90 371q31 129 117 204.5t243.5 110.5t409.5 35q250 0 401.5 -41t210 -127t27.5 -223q-31 -131 -119 -210t-245.5 -115t-407.5 -36t-401.5 42t-210 130t-25.5 230zM276 956q31 133 116 212t232.5 115t372.5 36t366.5 -42t197 -132t22.5 -230q-31 -127 -115 -202.5 t-231.5 -110.5t-372.5 -35t-366.5 41t-196.5 127t-25 221zM408 252q76 -4 170 -7t192 -3t193.5 3t173.5 7l61 266h-729zM582 784h626l58 252q-72 4 -156 7.5t-156 3.5t-156.5 -3.5t-158.5 -7.5z" />
<glyph horiz-adv-x="1589" d="M45 -225l66 282h905l45 199h-569q-227 0 -313.5 107.5t-37.5 324.5q37 166 118 254t229.5 125t404.5 37q252 0 393 -46t189.5 -147.5t9.5 -271.5l-117 -508q-43 -180 -168 -268t-326 -88h-829zM451 528h673l66 283q-72 4 -162 7t-178 3q-80 0 -169 -3t-165 -7z" />
<glyph d="M133 274.5q-49 163.5 17 444.5q66 285 176 435.5t291.5 209.5t482.5 59q297 0 459.5 -70.5t212 -233.5t-16.5 -443q-66 -285 -176.5 -436.5t-290.5 -211t-483 -59.5q-295 0 -459 71t-213 234.5zM262 299l1243 915l121 -124l-1243 -916zM438 305q106 -4 207.5 -6t214.5 -2 q84 0 161 3t155 7q27 2 54 3t58 3l178 774q-106 4 -208.5 6.5t-213.5 2.5t-215 -4.5t-213 -12.5z" />
<glyph d="M66 0l71 311h639l248 1082h360l-247 -1082h575l-72 -311h-1574zM410 877l69 301h627l-70 -301h-626z" />
<glyph d="M19 0l98 418q31 131 98.5 215t180 128t280.5 58l729 58l59 258q-102 -2 -200.5 -5.5t-194.5 -7.5q-33 -2 -65.5 -4t-65.5 -4q-352 -27 -579 -59l90 331q258 20 444 28.5t367 8.5q227 0 362 -48t184.5 -146.5t12.5 -253.5q-29 -125 -92.5 -207t-170 -128t-266.5 -58 l-759 -60l-45 -200h1136l-74 -322h-1529z" />
<glyph d="M-12 6l63 330q135 -18 261 -30.5t259 -22.5q29 -2 57.5 -3t57.5 -4q223 -12 508 -16l68 295h-773l66 287h739l68 293q-188 -2 -475 -15q-276 -14 -619 -53l86 319q492 37 791 37q229 0 368.5 -43t192.5 -132t20 -228q-31 -129 -100.5 -208t-187 -114.5t-299.5 -35.5 l32 71q264 0 371 -93t62 -290q-31 -135 -113 -217t-238.5 -123t-412.5 -41q-432 0 -852 37z" />
<glyph d="M35 313l69 303l805 777h445l-2 -11l-789 -747l-2 -10h1251l-71 -312h-1706zM997 0l242 1053h352l-241 -1053h-353z" />
<glyph d="M27 6l65 332q240 -37 531 -57q203 -14 596 -23l67 299l-1075 31l184 805h1403l-67 -301h-1037l-53 -228l625 -18q160 -4 254 -58.5t123.5 -151.5t-3.5 -235q-37 -160 -120.5 -254t-229.5 -136t-375 -42q-203 0 -405.5 8.5t-482.5 28.5z" />
<glyph d="M109 449l111 481q37 160 107.5 261t189 151.5t299.5 50.5h987l-72 -312h-1112l-178 -778q72 -8 191.5 -12t217.5 -4q94 0 219 5t199 11l66 291h-905l67 287h698q225 0 343 -47.5t151 -148.5t-8 -273q-43 -180 -129 -273.5t-257.5 -131.5t-486.5 -38q-305 0 -469.5 46 t-217 149.5t-11.5 284.5z" />
<glyph d="M162 0l2 10l1145 1041l2 10h-1092l76 332h1587l-74 -326l-1149 -1067h-497z" />
<glyph d="M34 401q33 139 127.5 221.5t283 121t507.5 38.5q311 0 491.5 -46t246 -138t32.5 -238q-33 -143 -123 -226t-278 -124t-516 -41q-322 0 -502 47t-241.5 141.5t-27.5 243.5zM231 1028q33 143 122 228t266 126t480 41q297 0 465 -47t226.5 -143t25.5 -246 q-31 -135 -122 -216t-268 -120t-472 -39q-289 0 -459 46.5t-233.5 137.5t-30.5 232zM409 303q117 -8 231 -12t218 -4t221 4t235 12l58 250h-905zM583 840h803l58 250q-100 8 -202 12t-196 4t-198.5 -4t-206.5 -12z" />
<glyph d="M88 0l72 311h1112l178 779q-72 8 -191.5 12t-217.5 4q-94 0 -219 -5t-199 -11l-66 -291h905l-67 -287h-698q-225 0 -343 47t-151 148.5t8 273.5q43 180 129 273.5t257 131t487 37.5q305 0 469.5 -46t217 -149.5t11.5 -283.5l-111 -481q-37 -160 -107.5 -261.5 t-189 -151.5t-299.5 -50h-987z" />
<glyph horiz-adv-x="1107" d="M185.5 761q-35.5 93 3.5 257q37 156 105.5 241t175 116.5t269.5 31.5q170 0 270.5 -39t136.5 -133t-3 -258q-37 -156 -105.5 -240t-175 -115.5t-270.5 -31.5q-170 0 -270.5 39t-136 132zM408 832q55 -4 112.5 -7.5t104.5 -3.5q49 0 107.5 3t113.5 8l78 333 q-45 6 -107.5 8.5t-109.5 2.5t-110.5 -2.5t-110.5 -8.5z" />
<glyph horiz-adv-x="903" d="M72 604l49 211h313l133 578h252l-133 -578h266l-49 -211h-831zM250 1045l47 200h262l-47 -200h-262z" />
<glyph horiz-adv-x="1009" d="M103 604l61 264q23 98 94.5 148.5t206.5 66.5l492 54l-152 -107l57 252l35 -70q-152 -4 -304.5 -15t-301.5 -28l57 215q221 23 422 23q195 0 275 -64.5t49 -195.5q-23 -100 -94.5 -149.5t-208.5 -65.5l-486 -53l133 63l-32 -137h594l-45 -201h-852z" />
<glyph horiz-adv-x="935" d="M72 614l41 209q158 -20 316.5 -29.5t338.5 -9.5l-110 -114l55 235h-391l43 185h495l-135 -39l66 282l45 -121q-152 0 -306.5 -9t-316.5 -27l57 208q106 10 221 16.5t183 6.5q203 0 280.5 -58.5t49.5 -179.5q-25 -100 -103 -144t-227 -44l-2 37q164 0 228.5 -53.5 t37.5 -171.5q-23 -104 -115 -153.5t-278 -49.5q-111 0 -234.5 6t-238.5 18z" />
<glyph horiz-adv-x="989" d="M98 766l43 182l435 445h282l-2 -11l-407 -405l-2 -10h606l-47 -201h-908zM615 604l139 604h231l-139 -604h-231z" />
<glyph horiz-adv-x="952" d="M103 612l41 215q141 -18 292.5 -27t331.5 -14l-104 -98l71 305l119 -94l-655 25l108 469h734l-48 -199h-497l-43 -188l-109 100l393 -14q139 -4 191.5 -70t23.5 -197q-20 -88 -64 -139t-121 -73.5t-198 -22.5q-227 0 -466 22z" />
<glyph horiz-adv-x="993" d="M151.5 708.5q-22.5 57.5 0.5 151.5l65 281q29 129 103.5 190.5t208.5 61.5h546l-47 -201h-567l-113 -485l-35 92q43 -4 111 -6t139 -2q76 0 150 2t119 6l-97 -92l50 211h-476l41 174h426q141 0 200.5 -61.5t29.5 -201.5q-20 -94 -66.5 -145t-139.5 -72.5t-259 -21.5 q-184 0 -275.5 30.5t-114 88z" />
<glyph horiz-adv-x="825" d="M115 604l2 10l512 557l2 11h-467l49 211h785l-46 -197l-534 -592h-303z" />
<glyph horiz-adv-x="1042" d="M135 838q18 76 67.5 121t150 67.5t270.5 22.5q176 0 275.5 -27t134 -81t14.5 -140q-16 -76 -65.5 -121t-151 -67.5t-273.5 -22.5q-180 0 -278.5 26.5t-131 80t-12.5 141.5zM248 1200q16 72 63.5 117t142.5 67.5t251 22.5q164 0 257 -26.5t124.5 -80t13.5 -137.5 q-25 -109 -129.5 -159t-329.5 -50q-238 0 -330 60.5t-63 185.5zM279 789q76 -4 154.5 -6.5t148.5 -2.5t148.5 2t158.5 7l-109 -99l68 299l98 -76h-667l131 76l-68 -299zM348 1088h607l-132 -76l72 311l53 -115q-66 4 -134 6.5t-132 2.5q-63 0 -133 -2.5t-137 -6.5l106 115 l-71 -311z" />
<glyph horiz-adv-x="995" d="M146 604l45 201h567l113 485l36 -92q-43 4 -110.5 6t-138.5 2q-76 0 -150 -2t-119 -6l94 92l-49 -211h475l-38 -174h-426q-141 0 -203 61.5t-29 200.5q20 94 66.5 144.5t139.5 73t259 22.5q184 0 274.5 -30.5t112 -89t0.5 -152.5l-63 -281q-29 -129 -103 -189.5 t-207 -60.5h-546z" />
<glyph horiz-adv-x="1107" d="M46.5 157q-35.5 93 3.5 257q37 156 105.5 241t175 116.5t269.5 31.5q170 0 270.5 -39t136.5 -133t-3 -258q-37 -156 -105.5 -240t-175 -115.5t-270.5 -31.5q-170 0 -270.5 39t-136 132zM269 228q55 -4 112.5 -7.5t104.5 -3.5q49 0 107.5 3t113.5 8l78 333 q-45 6 -107.5 8.5t-109.5 2.5t-110.5 -2.5t-110.5 -8.5z" />
<glyph horiz-adv-x="903" d="M-67 0l49 211h313l133 578h252l-133 -578h266l-49 -211h-831zM111 441l47 200h262l-47 -200h-262z" />
<glyph horiz-adv-x="1009" d="M-36 0l61 264q23 98 94.5 148.5t206.5 66.5l492 54l-152 -107l57 252l35 -70q-152 -4 -304.5 -15t-301.5 -28l57 215q221 23 422 23q195 0 275 -64.5t49 -195.5q-23 -100 -94.5 -149.5t-208.5 -65.5l-486 -53l133 63l-32 -137h594l-45 -201h-852z" />
<glyph horiz-adv-x="935" d="M-67 10l41 209q158 -20 316.5 -29.5t338.5 -9.5l-110 -114l55 235h-391l43 185h495l-135 -39l66 282l45 -121q-152 0 -306.5 -9t-316.5 -27l57 208q106 10 221 16.5t183 6.5q203 0 280.5 -58.5t49.5 -179.5q-25 -100 -103 -144t-227 -44l-2 37q164 0 228.5 -53.5 t37.5 -171.5q-23 -104 -115 -153.5t-278 -49.5q-111 0 -234.5 6t-238.5 18z" />
<glyph horiz-adv-x="989" d="M-41 162l43 182l435 445h282l-2 -11l-407 -405l-2 -10h606l-47 -201h-908zM476 0l139 604h231l-139 -604h-231z" />
<glyph horiz-adv-x="952" d="M-36 8l41 215q141 -18 292.5 -27t331.5 -14l-104 -98l71 305l119 -94l-655 25l108 469h734l-48 -199h-497l-43 -188l-109 100l393 -14q139 -4 191.5 -70t23.5 -197q-20 -88 -64 -139t-121 -73.5t-198 -22.5q-227 0 -466 22z" />
<glyph horiz-adv-x="993" d="M12.5 104.5q-22.5 57.5 0.5 151.5l65 281q29 129 103.5 190.5t208.5 61.5h546l-47 -201h-567l-113 -485l-35 92q43 -4 111 -6t139 -2q76 0 150 2t119 6l-97 -92l50 211h-476l41 174h426q141 0 200.5 -61.5t29.5 -201.5q-20 -94 -66.5 -145t-139.5 -72.5t-259 -21.5 q-184 0 -275.5 30.5t-114 88z" />
<glyph horiz-adv-x="825" d="M-24 0l2 10l512 557l2 11h-467l49 211h785l-46 -197l-534 -592h-303z" />
<glyph horiz-adv-x="1042" d="M-4 234q18 76 67.5 121t150 67.5t270.5 22.5q176 0 275.5 -27t134 -81t14.5 -140q-16 -76 -65.5 -121t-151 -67.5t-273.5 -22.5q-180 0 -278.5 26.5t-131 80t-12.5 141.5zM109 596q16 72 63.5 117t142.5 67.5t251 22.5q164 0 257 -26.5t124.5 -80t13.5 -137.5 q-25 -109 -129.5 -159t-329.5 -50q-238 0 -330 60.5t-63 185.5zM140 185q76 -4 154.5 -6.5t148.5 -2.5t148.5 2t158.5 7l-109 -99l68 299l98 -76h-667l131 76l-68 -299zM209 484h607l-132 -76l72 311l53 -115q-66 4 -134 6.5t-132 2.5q-63 0 -133 -2.5t-137 -6.5l106 115 l-71 -311z" />
<glyph horiz-adv-x="995" d="M7 0l45 201h567l113 485l36 -92q-43 4 -110.5 6t-138.5 2q-76 0 -150 -2t-119 -6l94 92l-49 -211h475l-38 -174h-426q-141 0 -203 61.5t-29 200.5q20 94 66.5 144.5t139.5 73t259 22.5q184 0 274.5 -30.5t112 -89t0.5 -152.5l-63 -281q-29 -129 -103 -189.5t-207 -60.5 h-546z" />
<glyph horiz-adv-x="634" d="M127 565l60 264h407l-59 -264h-408z" />
<glyph horiz-adv-x="849" d="M135 0l123 535l152 399h225l-33 -399l-123 -535h-344zM379 1128l59 265h377l-59 -265h-377z" />
<glyph horiz-adv-x="1411" d="M23 393q43 188 165.5 275.5t358.5 109.5l205 19l32 137h314l-86 -367l-606 -45l-64 -274q203 0 462 17.5t531 51.5l-86 -319q-238 -18 -388 -23.5t-367 -5.5q-299 0 -410 105.5t-61 318.5zM797 1128l59 265h377l-59 -265h-377z" />
<glyph horiz-adv-x="1185" d="M129 680l696 547h402l-2 -10l-787 -602l-10 131l508 -602l-2 -11h-360z" />
<glyph horiz-adv-x="1187" d="M35 133l2 11l786 602l11 -131l-508 602l2 10h360l445 -547l-697 -547h-401z" />
<glyph horiz-adv-x="1626" d="M160 680l553 516h371l-2 -10l-635 -571l-10 131l370 -572l-2 -10h-329zM766 680l553 516h371l-2 -10l-635 -571l-10 131l371 -572l-3 -10h-329z" />
<glyph horiz-adv-x="1626" d="M10 164l2 10l635 572l10 -131l-370 571l2 10h329l316 -516l-553 -516h-371zM616 164l2 10l635 572l10 -131l-370 571l2 10h330l315 -516l-553 -516h-371z" />
<glyph horiz-adv-x="851" d="M199 526l75 332h461l-76 -332h-460z" />
<glyph horiz-adv-x="983" d="M144 561l57 252h717l-58 -252h-716z" />
<glyph horiz-adv-x="1413" d="M125 569l56 240h1187l-55 -240h-1188z" />
<glyph horiz-adv-x="1914" d="M125 569l56 240h1689l-55 -240h-1690z" />
<glyph horiz-adv-x="940" d="M170 232l219 948q41 172 118 277.5t201 153.5t308 48h94l-61 -270h-297l-326 -1405h297l-61 -271h-95q-256 0 -357 127t-40 392z" />
<glyph horiz-adv-x="940" d="M-92 -287l61 271h297l326 1405h-297l61 270h95q256 0 357 -127t40 -391l-219 -948q-41 -172 -118 -277.5t-200.5 -154t-308.5 -48.5h-94z" />
<glyph horiz-adv-x="940" d="M62 -287l448 1946h600l-59 -256h-307l-330 -1434h307l-59 -256h-600z" />
<glyph horiz-adv-x="940" d="M-92 -287l59 256h308l329 1434h-307l59 256h601l-449 -1946h-600z" />
<glyph horiz-adv-x="950" d="M92 555l60 262h39q61 0 100 29t53 94l55 242q39 172 116 276.5t201 152.5t310 48h94l-61 -270h-295l-107 -455q-33 -141 -133 -207.5t-272 -66.5l-29 53q186 0 266 -80t44 -236l-97 -413h297l-61 -271h-53q-285 0 -391.5 125t-45.5 394l37 161q18 86 -12.5 124t-110.5 38 h-4z" />
<glyph horiz-adv-x="950" d="M-92 -287l61 271h295l107 454q33 141 133 208t272 67l29 -53q-186 0 -266 79.5t-43 235.5l96 414h-297l61 270h54q285 0 391 -125t45 -393l-37 -162q-18 -86 12.5 -124t110.5 -38h4l-59 -262h-39q-61 0 -100 -28.5t-54 -94.5l-55 -241q-39 -172 -116 -276.5t-200.5 -153 t-310.5 -48.5h-94z" />
<glyph horiz-adv-x="2357" d="M230 666q70 301 217 489.5t386.5 278.5t590.5 90q311 0 515.5 -93t283.5 -266t26 -405q-61 -264 -214 -393t-386 -129h-205l-109 147l162 459h-454l-134 -379q49 0 98.5 2t100.5 9q23 2 47.5 5t48.5 5q82 10 185.5 31.5t187.5 46.5l-63 -209q-111 -45 -287 -81t-291 -36 q-174 0 -240.5 88t-23.5 258q10 39 37 113q51 143 117.5 222t164 113.5t250.5 34.5h594l-221 -626h88q129 0 208 74.5t118 244.5q43 190 -10.5 314t-210 184.5t-424.5 60.5q-281 0 -466.5 -67.5t-298 -215t-169.5 -390.5q-55 -236 -6 -383.5t206.5 -219t432.5 -71.5 q127 0 246.5 14t234.5 45h6l-61 -213q-127 -27 -246 -39t-230 -12q-330 0 -531.5 104.5t-269 305t-1.5 489.5z" />
<glyph d="M225.5 197.5q-34.5 121.5 14.5 337.5q49 215 128 326.5t221 156.5t394 45q170 0 333 -9.5t341 -27.5l-53 -285q-236 33 -444 45.5t-494 12.5l-131 -566q299 0 514 14.5t467 49.5l-78 -285q-217 -23 -368 -33t-298 -10q-250 0 -381 53.5t-165.5 175zM733 -231l68 292h199 l-68 -292h-199zM1004 934l75 330h199l-76 -330h-198z" />
<glyph d="M59 12l64 332q303 -39 555 -61q223 -18 571 -25l62 272l-686 52q-160 12 -254.5 63t-125 142.5t0.5 224.5q35 147 117.5 237t224 132t352.5 42q195 0 385.5 -9t468.5 -30l-65 -331q-358 51 -611 65q-266 16 -454 17l-60 -263l629 -51q178 -14 284.5 -65t143.5 -144.5 t6 -232.5q-33 -145 -113.5 -234.5t-228.5 -132.5t-381 -43q-252 0 -472 11.5t-413 31.5zM657 -264l74 325h191l-74 -325h-191zM1030 1352l68 297h190l-67 -297h-191z" />
<glyph d="M57 440l41 178h1180l-41 -178h-1180zM135 774l41 178h1180l-41 -178h-1180zM297 272.5q-39 161.5 27 444.5q66 287 166 435t274 209.5t483 61.5q188 0 353 -6t356 -20l-62 -320q-281 29 -544 45q-182 10 -525 15l-204 -881q111 2 214 4t201 4q31 2 62.5 3t62.5 3 q293 14 568 45l-87 -319q-328 -27 -690 -27q-305 0 -460.5 71t-194.5 232.5z" />
<glyph d="M-61 0l72 311h1652l-71 -311h-1653zM84 635l41 178h1323l-41 -178h-1323zM310 209l180 807q33 143 111.5 233t200.5 132t288 42q150 0 340 -7t366 -19l-63 -332q-502 63 -848 70l-213 -926h-362z" />
<glyph d="M215 1382l2 11h356l355 -607h10l633 607h416l-3 -11l-892 -833l-125 -549h-369l125 549zM244 231l41 179h1185l-41 -179h-1185zM315 549l41 178h1186l-41 -178h-1186z" />
<glyph d="M-114 -432l53 282q272 -33 559 -32l-102 -80l456 1388q45 135 112 211t165 107t250 31q172 0 370 -19l-55 -282q-272 33 -549 32l96 80l-456 -1388q-45 -137 -111.5 -213t-165 -106t-252.5 -30q-176 0 -370 19zM320 662l41 178h1182l-41 -178h-1182z" />
<glyph d="M318 322l227 227l121 -119l-225 -229zM318 1040l123 121l225 -229l-121 -119zM398 682q0 131 52 213t170 122t318 40q201 0 318.5 -40t169 -122t51.5 -213t-51.5 -213t-169 -123t-318.5 -41t-318.5 41t-169.5 123t-52 213zM682 532h510v297h-510v-297zM1209 430l120 119 l228 -227l-123 -121zM1209 932l225 229l123 -121l-228 -227z" />
<glyph horiz-adv-x="1544" d="M201 401v246h1142v-246h-1142zM649 0v1032h246v-1032h-246z" />
<glyph horiz-adv-x="1544" d="M240 430v172l1054 461h11v-266l-678 -281l678 -280v-267h-11z" />
<glyph horiz-adv-x="1544" d="M244 -31v267l678 280l-678 281v266h10l1055 -461v-172l-1055 -461h-10z" />
<glyph horiz-adv-x="1544" d="M240 0v197h1065v-197h-1065zM250 592v164l1024 307h10v-215l-618 -174l618 -174v-215h-10z" />
<glyph horiz-adv-x="1544" d="M252 0v197h1065v-197h-1065zM272 285v215l619 174l-619 174v215h11l1024 -307v-164l-1024 -307h-11z" />
<glyph horiz-adv-x="1544" d="M201 186v222h1142v-222h-1142zM201 625v221h1142v-221h-1142z" />
<glyph horiz-adv-x="1544" d="M201 186v222h1142v-222h-1142zM201 625v221h1142v-221h-1142zM416 -29l581 1098h172v-10l-581 -1098h-172v10z" />
<glyph horiz-adv-x="1544" d="M207 307v232q0 100 48 152t142 52q61 0 131 -17t177 -54l356 -123h51v194h225v-231q0 -98 -48 -151.5t-142 -53.5q-61 0 -131 17.5t-176 54.5l-357 123h-51v-195h-225z" />
<glyph horiz-adv-x="1544" d="M207 139v137q0 90 48 140.5t138 50.5q59 0 131 -10.5t162 -30.5l406 -90h36v131h209v-137q0 -90 -48 -140.5t-138 -50.5q-59 0 -131 10.5t-162 30.5l-405 90h-37v-131h-209zM207 575v138q0 90 48 140t138 50q59 0 131 -10t162 -31l406 -90h36v131h209v-137 q0 -90 -48 -140.5t-138 -50.5q-59 0 -131 10.5t-162 30.5l-405 91h-37v-132h-209z" />
<glyph horiz-adv-x="1544" d="M211 469v246h1122v-461h-235v215h-887z" />
<glyph horiz-adv-x="1544" d="M201 0v225h1142v-225h-1142zM201 559v225h1142v-225h-1142zM655 188v971h234v-971h-234z" />
<glyph horiz-adv-x="1544" d="M242 201l364 315l-364 315l153 156l377 -328l377 328l154 -156l-365 -315l365 -315l-154 -156l-377 328l-377 -328z" />
<glyph horiz-adv-x="1544" d="M201 401v232h1142v-232h-1142zM600 -31v228h344v-228h-344zM600 838v225h344v-225h-344z" />
<glyph horiz-adv-x="757" d="M94 160l60 264h407l-59 -264h-408zM270 928l60 264h407l-59 -264h-408z" />
</font>
</defs>
</svg>
