<?xml version="1.0" standalone="no"?>
<!DOCTYPE svg PUBLIC "-//W3C//DTD SVG 1.1//EN" "http://www.w3.org/Graphics/SVG/1.1/DTD/svg11.dtd" >
<svg xmlns="http://www.w3.org/2000/svg" xmlns:xlink="http://www.w3.org/1999/xlink" version="1.1">
<metadata>
Created by FontForge 20190801 at Sat May  8 15:57:51 2021
 By www-data
Maksym Kobuzan
</metadata>
<defs>
<font id="kobuzancygroteskgranddark" horiz-adv-x="527" >
  <font-face 
    font-family="kobuzancygroteskgranddark"
    font-weight="800"
    font-stretch="extra-expanded"
    units-per-em="1000"
    panose-1="0 0 9 7 0 0 0 0 0 0"
    ascent="800"
    descent="-200"
    x-height="530"
    cap-height="730"
    bbox="-863 -336 1800 1093"
    underline-thickness="50"
    underline-position="-100"
    unicode-range="U+0020-277E"
  />
<missing-glyph horiz-adv-x="465" 
d="M86 730h295v-930h-295v930zM310 637v31h-154v-31h61v-34h-62v-31h155v31h-62v34h62zM248 483v65h-93v-97h155v32h-62zM186 516h31v-33h-31v33zM310 395v31h-155v-31h62v-34h-62v-31h93v65h62zM310 277v93h-31v-61h-124v-32h155zM310 152v105h-93v-52h31v21h31v-44h-93v75
h-31v-105h155zM310 -9v105h-155v-105h155zM186 65h93v-44h-93v44zM310 -61v30h-155v-30h65l-65 -44v-31h155v31h-95l65 44h30z" />
    <glyph glyph-name="f_f.liga" unicode="ff" horiz-adv-x="1357" 
d="M1184 519q-54 0 -69.5 -10.5t-15.5 -42.5v-5h244v-244h-232v-217h-367v217h-215v-217h-368v217h-145v244h145v5q0 58 6 96.5t26.5 77t57.5 61t101 36t155 13.5q105 0 188 -20v-216q-65 5 -100 5q-49 0 -64 -10.5t-15 -42.5v-5h228v5q0 58 6 96.5t27.5 77.5t60 61
t105 35.5t161.5 13.5q129 0 239 -20v-217q-126 6 -159 6z" />
    <glyph glyph-name="uni04070407.liga" unicode="&#x407;&#x407;" horiz-adv-x="942" 
d="M124 890q0 59 -39 92.5t-114 33.5t-113.5 -33.5t-38.5 -92.5q0 -54 39 -86.5t113 -32.5q75 0 114 32.5t39 86.5zM457 890q0 59 -39 92.5t-114 33.5t-113.5 -33.5t-38.5 -92.5q0 -54 39 -86.5t113 -32.5q75 0 114 32.5t39 86.5zM790 890q0 59 -39 92.5t-114 33.5
t-113.5 -33.5t-38.5 -92.5q0 -54 39 -86.5t113 -32.5q75 0 114 32.5t39 86.5zM1123 890q0 59 -39 92.5t-114 33.5t-113.5 -33.5t-38.5 -92.5q0 -54 39 -86.5t113 -32.5q75 0 114 32.5t39 86.5zM431 730v-730h-391v730h391zM902 730v-730h-391v730h391z" />
    <glyph glyph-name="uni04560457.liga" unicode="&#x456;&#x457;" horiz-adv-x="892" 
d="M329 690q0 58 -39 92t-113 34q-75 0 -113.5 -33.5t-38.5 -92.5q0 -54 39 -86.5t113 -32.5t113 32.5t39 86.5zM658 690q0 58 -39 92t-113 34t-113 -34t-39 -92q0 -54 39 -86.5t113 -32.5t113 32.5t39 86.5zM986 690q0 59 -38.5 92.5t-113.5 33.5t-113.5 -33.5t-38.5 -92.5
q0 -54 39 -86.5t113 -32.5q75 0 113.5 32t38.5 87zM406 0h-368v530h368v-530zM852 0h-368v530h368v-530z" />
    <glyph glyph-name="uni04570457.liga" unicode="&#x457;&#x457;" horiz-adv-x="895" 
d="M116 690q0 58 -38.5 92t-110.5 34t-110.5 -34t-38.5 -92q0 -54 38.5 -86.5t110.5 -32.5t110.5 32.5t38.5 86.5zM436 690q0 58 -38 92t-110 34q-73 0 -111 -34t-38 -92q0 -54 38.5 -86.5t110.5 -32.5t110 32.5t38 86.5zM756 690q0 58 -38 92t-111 34q-71 0 -109.5 -34
t-38.5 -92q0 -54 38.5 -86.5t109.5 -32.5q72 0 110.5 32.5t38.5 86.5zM1077 690q0 58 -38 92t-111 34t-111 -34t-38 -92q0 -54 38.5 -86.5t110.5 -32.5t110.5 32.5t38.5 86.5zM408 0h-368v530h368v-530zM856 0h-368v530h368v-530z" />
    <glyph glyph-name=".notdef" horiz-adv-x="465" 
d="M86 730h295v-930h-295v930zM310 637v31h-154v-31h61v-34h-62v-31h155v31h-62v34h62zM248 483v65h-93v-97h155v32h-62zM186 516h31v-33h-31v33zM310 395v31h-155v-31h62v-34h-62v-31h93v65h62zM310 277v93h-31v-61h-124v-32h155zM310 152v105h-93v-52h31v21h31v-44h-93v75
h-31v-105h155zM310 -9v105h-155v-105h155zM186 65h93v-44h-93v44zM310 -61v30h-155v-30h65l-65 -44v-31h155v31h-95l65 44h30z" />
    <glyph glyph-name=".null" horiz-adv-x="0" 
 />
    <glyph glyph-name="nonmarkingreturn" horiz-adv-x="333" 
 />
    <glyph glyph-name="space" unicode=" " horiz-adv-x="364" 
 />
    <glyph glyph-name="exclam" unicode="!" horiz-adv-x="481" 
d="M437 530l-42 -266h-308l-42 266v200h392v-200zM439 108q0 127 -199 127q-198 0 -198 -127t198 -127q199 0 199 127z" />
    <glyph glyph-name="quotedbl" unicode="&#x22;" horiz-adv-x="832" 
d="M55 348h311l31 199v183h-371v-183zM464 348h311l32 199v183h-372v-183z" />
    <glyph glyph-name="numbersign" unicode="#" horiz-adv-x="1133" 
d="M1126 619v-213h-190l-38 -82h166v-213h-265l-52 -111h-274l51 111h-150l-51 -111h-275l52 111h-93v213h192l38 82h-168v213h267l51 111h273l-51 -111h153l51 111h273l-51 -111h91zM472 324h152l38 82h-151z" />
    <glyph glyph-name="dollar" unicode="$" horiz-adv-x="1030" 
d="M1016 219q0 -88 -76 -149.5t-247 -81.5v-116h-357v123q-162 25 -239 96t-84 171h401q11 -47 108 -47q99 0 99 31q0 9 -7.5 14.5t-36.5 11.5t-83 10q-141 7 -234 24.5t-142.5 48t-68 66.5t-18.5 88q0 87 71.5 148.5t232.5 82.5v118h356v-123q80 -13 140.5 -39.5
t96.5 -62.5t55 -77t23 -88h-403q-11 47 -97 47q-92 0 -92 -30q0 -9 7 -15t35.5 -12t82.5 -10q148 -8 243.5 -25.5t146 -48t69 -66.5t18.5 -89z" />
    <glyph glyph-name="percent" unicode="%" horiz-adv-x="1286" 
d="M258 309q119 0 185 60.5t66 160.5t-66 160t-185 60t-185 -60t-66 -160q0 -101 66 -161t185 -60zM898 730h315l-826 -730h-316zM258 571q47 0 47 -41q0 -42 -47 -42t-47 42q0 41 47 41zM1028 -21q119 0 185 60.5t66 160.5q0 101 -66 161t-185 60t-185 -60t-66 -161
q0 -100 66 -160.5t185 -60.5zM1028 242q47 0 47 -42q0 -41 -47 -41t-47 41q0 42 47 42z" />
    <glyph glyph-name="ampersand" unicode="&#x26;" horiz-adv-x="1123" 
d="M945 211q11 -2 38 -2q73 0 133 16v-225q-69 -20 -158 -20q-76 0 -134.5 15.5t-121.5 52.5q-153 -68 -328 -68q-191 0 -282 62.5t-91 163.5q0 146 195 207q-68 65 -68 133q0 85 88.5 144.5t263.5 59.5q165 0 252.5 -59t87.5 -139q0 -68 -55 -118.5t-150 -78.5l71 -44
q61 45 115 116h315q-69 -118 -171 -216zM479 526q-62 0 -62 -28q0 -14 38 -44q84 15 84 44q0 28 -60 28zM397 215q24 0 51 5q-17 13 -53 39t-53 38q-43 -18 -43 -43q0 -39 98 -39z" />
    <glyph glyph-name="quotesingle" unicode="'" horiz-adv-x="423" 
d="M55 348h311l31 199v183h-371v-183z" />
    <glyph glyph-name="parenleft" unicode="(" 
d="M35 239v53q0 220 114.5 329t353.5 109v-278q-61 0 -91.5 -31.5t-30.5 -102.5v-105q0 -72 30.5 -103.5t91.5 -31.5v-278q-239 0 -353.5 109t-114.5 330z" />
    <glyph glyph-name="parenright" unicode=")" 
d="M492 292v-53q0 -221 -114.5 -330t-353.5 -109v278q61 0 91.5 31.5t30.5 103.5v105q0 71 -30.5 102.5t-91.5 31.5v278q239 0 353.5 -109t114.5 -329z" />
    <glyph glyph-name="asterisk" unicode="*" horiz-adv-x="537" 
d="M412 708l102 -173l-159 -24l159 -22l-102 -173l-99 121l57 -143h-204l57 140l-98 -118l-102 173l159 22l-159 23l102 174l100 -124l-59 146h204l-57 -143z" />
    <glyph glyph-name="plus" unicode="+" horiz-adv-x="1031" 
d="M653 493h253v-255h-253v-207h-274v207h-254v255h253v207h275v-207z" />
    <glyph glyph-name="comma" unicode="," horiz-adv-x="419" 
d="M209 286q188 0 188 -157q0 -128 -122 -269h-204q72 65 110 122q-159 12 -159 154q0 150 187 150z" />
    <glyph glyph-name="hyphen" unicode="-" horiz-adv-x="614" 
d="M41 126v278h532v-278h-532z" />
    <glyph glyph-name="period" unicode="." horiz-adv-x="419" 
d="M397 136q0 151 -188 151q-187 0 -187 -151q0 -155 187 -155q188 0 188 155z" />
    <glyph glyph-name="slash" unicode="/" horiz-adv-x="655" 
d="M299 730h392l-338 -872h-389z" />
    <glyph glyph-name="zero" unicode="0" horiz-adv-x="1032" 
d="M516 -20q-246 0 -371.5 100.5t-125.5 266.5v36q0 166 125.5 266.5t371.5 100.5q247 0 372.5 -100.5t125.5 -266.5v-36q0 -166 -125.5 -266.5t-372.5 -100.5zM516 270q52 0 79 24t27 67v8q0 43 -27 67t-79 24t-79 -24t-27 -67v-8q0 -43 27 -67t79 -24z" />
    <glyph glyph-name="one" unicode="1" horiz-adv-x="598" 
d="M558 730v-730h-387v344h-157v267l84 7q63 4 93 25t58 87h309z" />
    <glyph glyph-name="two" unicode="2" horiz-adv-x="1008" 
d="M413 255h574v-255h-966v147q0 133 78.5 193.5t288.5 75.5q93 8 141 16.5t58 15.5t10 18q0 30 -84 30q-85 0 -96 -42h-389q8 131 127.5 213.5t358.5 82.5q243 0 352 -66t109 -171q0 -38 -11 -65.5t-40.5 -54t-81 -45t-134.5 -32.5t-198 -22q-60 -9 -78 -17t-19 -22z" />
    <glyph glyph-name="three" unicode="3" horiz-adv-x="1006" 
d="M12 300h382q4 -33 30 -50t87 -17q103 0 103 33q0 10 -5.5 15.5t-26 9.5t-58.5 4h-75v141h75q43 0 57.5 7t14.5 21q0 33 -90 33q-55 0 -80 -17t-30 -50h-382q23 320 505 320q124 0 216.5 -18.5t143 -50t74 -68t23.5 -77.5q0 -73 -55 -114t-146 -54v-2q97 -13 160.5 -58
t63.5 -121q0 -31 -14 -59.5t-48.5 -56t-87 -47t-136 -32t-189.5 -12.5q-135 0 -233.5 23t-157 66.5t-87.5 100t-34 130.5z" />
    <glyph glyph-name="four" unicode="4" horiz-adv-x="1008" 
d="M862 342h140v-252h-140v-90h-375v90h-482v224l434 416h423v-388zM487 482l-148 -140h148v140z" />
    <glyph glyph-name="five" unicode="5" horiz-adv-x="1018" 
d="M667 453q173 0 257.5 -61.5t84.5 -162.5q0 -53 -24.5 -95.5t-79 -78t-152 -55.5t-231.5 -20q-138 0 -235.5 19.5t-154 58.5t-83 88.5t-31.5 117.5h400q25 -32 106 -32q99 0 99 50q0 49 -94 49q-46 0 -68 -7t-41 -23h-396l59 429h874v-245h-547l-14 -100q78 68 271 68z
" />
    <glyph glyph-name="six" unicode="6" horiz-adv-x="1028" 
d="M671 441q172 0 257.5 -61t85.5 -156q0 -50 -25.5 -92t-80 -77t-154 -55t-234.5 -20q-268 0 -384.5 90.5t-116.5 270.5v41q0 175 121.5 271.5t380.5 96.5q125 0 219 -22.5t150.5 -63t86 -90t36.5 -110.5h-408q-17 36 -93 36q-58 0 -84.5 -28t-26.5 -91v-9q88 69 270 69z
M515 231q107 0 107 41q0 42 -107 42q-106 0 -106 -42q0 -41 106 -41z" />
    <glyph glyph-name="seven" unicode="7" horiz-adv-x="912" 
d="M16 451v279h877v-252q-224 -150 -281 -478h-431q28 139 99 256t178 195h-442z" />
    <glyph glyph-name="eight" unicode="8" horiz-adv-x="1017" 
d="M7 194q0 75 59.5 116.5t151.5 54.5v2q-83 12 -136 54t-53 112q0 33 14.5 62.5t49.5 58t88.5 49.5t137.5 34t190 13t190 -13t137.5 -34t88.5 -49.5t49.5 -58t14.5 -62.5q0 -70 -54.5 -112t-141.5 -54v-2q96 -13 156.5 -54.5t60.5 -116.5q0 -41 -24.5 -77t-79 -68
t-156.5 -50.5t-241 -18.5q-140 0 -242 18.5t-156.5 50.5t-79 68t-24.5 77zM406 464q0 -33 103 -33q102 0 102 33q0 35 -102 35q-103 0 -103 -35zM391 266q0 -35 118 -35q117 0 117 35q0 33 -117 33q-118 0 -118 -33z" />
    <glyph glyph-name="nine" unicode="9" horiz-adv-x="1029" 
d="M509 750q268 0 385 -90.5t117 -270.5v-41q0 -175 -122 -271.5t-381 -96.5q-101 0 -182 15t-136 41t-93 62.5t-57 78t-24 89.5h407q19 -36 94 -36q58 0 84.5 28t26.5 91v9q-88 -69 -270 -69q-172 0 -257.5 61t-85.5 156q0 50 25.5 92t80 77t154 55t234.5 20zM514 416
q107 0 107 42q-2 41 -107 41q-107 0 -107 -41q0 -42 107 -42z" />
    <glyph glyph-name="colon" unicode=":" horiz-adv-x="419" 
d="M397 424q0 126 -188 126q-187 0 -187 -126q0 -127 187 -127q188 0 188 127zM397 108q0 127 -188 127q-187 0 -187 -127t187 -127q188 0 188 127z" />
    <glyph glyph-name="semicolon" unicode=";" horiz-adv-x="419" 
d="M209 297q-187 0 -187 127q0 126 187 126q188 0 188 -126q0 -127 -188 -127zM209 234q188 0 188 -129q-1 -108 -122 -245h-204q74 66 110 122q-159 10 -159 126q0 126 187 126z" />
    <glyph glyph-name="less" unicode="&#x3c;" horiz-adv-x="1031" 
d="M126 536l779 195v-277l-463 -89l463 -89v-277l-779 194v343z" />
    <glyph glyph-name="equal" unicode="=" horiz-adv-x="1031" 
d="M126 396v259h779v-259h-779zM126 75v259h779v-259h-779z" />
    <glyph glyph-name="greater" unicode="&#x3e;" horiz-adv-x="1031" 
d="M126 454v277l779 -195v-343l-779 -194v277l463 89z" />
    <glyph glyph-name="question" unicode="?" horiz-adv-x="941" 
d="M266 346q0 33 30 53t73 26.5t86 9.5t73 10t30 21q0 32 -87 32q-91 0 -99 -42h-383q4 61 34 112.5t87 93t152.5 65t220.5 23.5q122 0 212.5 -19.5t141.5 -54t75 -76.5t24 -92t-30 -83.5t-73 -48.5t-86 -24t-73 -19t-30 -26t19 -43h-363q-34 41 -34 82zM676 108
q0 127 -199 127q-198 0 -198 -127t198 -127q199 0 199 127z" />
    <glyph glyph-name="at" unicode="@" horiz-adv-x="1345" 
d="M810 358l106 172h137v-297q0 -39 14 -54.5t48 -15.5q85 0 85 109q0 166 -129.5 264.5t-397.5 98.5q-267 0 -398 -100.5t-131 -268.5q0 -166 130.5 -266t394.5 -100q99 0 190.5 15t133.5 30l42 15l1 -122q-17 -6 -48 -15t-127 -23.5t-192 -14.5q-159 0 -282.5 36.5
t-201 101.5t-117 152t-39.5 192t40 192t117.5 152.5t202 102t284.5 36.5q318 0 480.5 -132t162.5 -352q0 -144 -71.5 -214.5t-220.5 -71.5q-205 -1 -256 149q-32 -68 -94 -108.5t-138 -40.5q-129 0 -214 80t-85 196v19q0 115 85 195t214 80q103 0 176.5 -53t97.5 -139z
M671 204q80 0 80 59q0 60 -80 60q-81 0 -81 -60q0 -59 81 -59z" />
    <glyph glyph-name="A" unicode="A" horiz-adv-x="946" 
d="M697 730l289 -730h-373l-27 77h-226l-27 -77h-373l288 730h449zM525 301l-52 164l-52 -164h104z" />
    <glyph glyph-name="B" unicode="B" horiz-adv-x="990" 
d="M750 367v-2q97 -13 164.5 -58t67.5 -118q0 -39 -19.5 -71t-63.5 -59.5t-124 -43t-191 -15.5h-544v730h544q199 0 288 -53t89 -136q0 -74 -59.5 -118t-151.5 -56zM530 502h-139v-66h140q53 0 53 34q0 32 -54 32zM391 228h152q61 0 61 32q0 34 -59 34h-154v-66z" />
    <glyph glyph-name="C" unicode="C" horiz-adv-x="1055" 
d="M17 346v38q0 164 129 265t383 101q479 0 510 -353h-399q-17 63 -112 63q-57 0 -86.5 -25t-29.5 -66v-8q0 -41 29.5 -66t86.5 -25q95 0 112 63h399q-31 -353 -510 -353q-254 0 -383 101t-129 265z" />
    <glyph glyph-name="D" unicode="D" horiz-adv-x="1038" 
d="M40 730h480q245 0 374 -99t129 -249v-34q0 -150 -129 -249t-374 -99h-480v730zM628 361v8q0 36 -31 59t-92 23h-79v-172h79q61 0 92 23t31 59z" />
    <glyph glyph-name="E" unicode="E" horiz-adv-x="900" 
d="M870 0h-830v730h824v-229h-459v-58h445v-153h-445v-59h465v-231z" />
    <glyph glyph-name="F" unicode="F" horiz-adv-x="870" 
d="M842 730v-259h-446v-59h432v-224h-432v-188h-356v730h802z" />
    <glyph glyph-name="G" unicode="G" horiz-adv-x="1083" 
d="M657 299h-150v124h545v-423h-165l-110 203q-51 -223 -350 -223q-188 0 -299 101.5t-111 258.5v38q0 169 132 270.5t400 101.5q125 0 221.5 -24t154.5 -66t89.5 -93.5t37.5 -112.5h-409q-23 39 -106 39q-127 0 -127 -124v-8q0 -62 30.5 -92t95.5 -30q56 0 85.5 17.5
t35.5 42.5z" />
    <glyph glyph-name="H" unicode="H" horiz-adv-x="1024" 
d="M597 504v226h387v-730h-387v226h-170v-226h-387v730h387v-226h170z" />
    <glyph glyph-name="I" unicode="I" horiz-adv-x="471" 
d="M431 730v-730h-391v730h391z" />
    <glyph glyph-name="J" unicode="J" horiz-adv-x="953" 
d="M1 338h385q1 -33 17.5 -48t54.5 -15q73 0 73 56v114h-486v285h871v-412q0 -161 -111 -249.5t-346 -88.5q-239 0 -346 89t-112 269z" />
    <glyph glyph-name="K" unicode="K" horiz-adv-x="1019" 
d="M1043 0h-432l-140 249l-59 -62v-187h-372v730h372v-241l186 241h438l-239 -311z" />
    <glyph glyph-name="L" unicode="L" horiz-adv-x="789" 
d="M772 0h-732v730h392v-430h340v-300z" />
    <glyph glyph-name="M" unicode="M" horiz-adv-x="1250" 
d="M625 449l132 281h453v-730h-350l1 339l-164 -339h-143l-165 340l2 -340h-351v730h453z" />
    <glyph glyph-name="N" unicode="N" horiz-adv-x="1034" 
d="M636 434v296h358v-730h-359l-237 313v-313h-358v730h380z" />
    <glyph glyph-name="O" unicode="O" horiz-adv-x="1061" 
d="M530 -20q-254 0 -383.5 101t-129.5 265v38q0 164 129.5 265t383.5 101q255 0 384.5 -101t129.5 -265v-38q0 -164 -129.5 -265t-384.5 -101zM530 270q59 0 89 25t30 66v8q0 41 -30 66t-89 25t-88.5 -24.5t-29.5 -66.5v-8q0 -42 29.5 -66.5t88.5 -24.5z" />
    <glyph glyph-name="P" unicode="P" horiz-adv-x="975" 
d="M40 730h507q117 0 199.5 -18.5t130.5 -55.5t69.5 -88t21.5 -120q0 -145 -95.5 -216t-325.5 -71h-138v-161h-369v730zM409 399h123q58 0 58 40t-58 40h-123v-80z" />
    <glyph glyph-name="Q" unicode="Q" horiz-adv-x="1080" 
d="M976 91q59 0 112 22v-244q-72 -19 -175 -19q-183 0 -258 137q-49 -7 -115 -7q-261 0 -392 101t-131 265v38q0 164 131 265t392 101t392.5 -101t131.5 -265v-38q0 -154 -113 -251q16 -4 25 -4zM405 371v-18q0 -30 24 -45q-3 8 -3 17q6 28 32 45t69 17q73 0 135 -64
q13 13 13 35v13q0 102 -135 102t-135 -102zM540 251q23 0 44 3q-13 32 -29 48.5t-43 16.5q-37 0 -37 -29q0 -39 65 -39z" />
    <glyph glyph-name="R" unicode="R" horiz-adv-x="995" 
d="M959 123v-32q0 -62 26 -91h-404q-30 30 -30 91v74q0 27 -9.5 37t-33.5 10h-102v-212h-366v730h553q202 0 293 -60.5t91 -162.5q0 -88 -61 -136t-153 -63v-2q108 -10 152 -51t44 -132zM406 402h134q60 0 60 39t-60 39h-134v-78z" />
    <glyph glyph-name="S" unicode="S" horiz-adv-x="1036" 
d="M10 262h402q9 -47 112 -47t103 31q0 8 -7 14t-37.5 12.5t-86.5 9.5q-145 7 -240.5 24.5t-145.5 48t-69 66.5t-19 88q0 51 24 92.5t77 76t149 53.5t228 19t231 -22.5t156 -62.5t85.5 -88.5t32.5 -107.5h-400q-11 46 -104 46q-96 0 -96 -30q0 -9 7.5 -15t37.5 -12.5
t86 -10.5q122 -6 208.5 -19t140.5 -31.5t85 -46t42 -57.5t11 -72q0 -40 -14.5 -74t-50.5 -65.5t-91.5 -53.5t-143 -35t-198.5 -13q-501 0 -515 282z" />
    <glyph glyph-name="T" unicode="T" horiz-adv-x="966" 
d="M289 434h-269v296h926v-296h-267v-434h-390v434z" />
    <glyph glyph-name="U" unicode="U" horiz-adv-x="1009" 
d="M35 327v403h388v-376q0 -38 19.5 -56t61.5 -18q83 0 83 74v376h387v-403q0 -161 -117 -254t-353 -93t-352.5 93t-116.5 254z" />
    <glyph glyph-name="V" unicode="V" horiz-adv-x="936" 
d="M470 378l114 352h392l-280 -730h-448l-288 730h392z" />
    <glyph glyph-name="W" unicode="W" horiz-adv-x="1391" 
d="M938 387l91 343h387l-217 -730h-404l-99 329l-100 -329h-404l-217 730h387l90 -344l116 344h255z" />
    <glyph glyph-name="X" unicode="X" horiz-adv-x="968" 
d="M771 368l223 -368h-417l-93 198l-93 -198h-417l226 368l-221 362h418l87 -190l86 190h418z" />
    <glyph glyph-name="Y" unicode="Y" horiz-adv-x="926" 
d="M561 730h416l-319 -549v-181h-388v180l-320 550h416l99 -206z" />
    <glyph glyph-name="Z" unicode="Z" horiz-adv-x="929" 
d="M899 474l-367 -206h369v-268h-873v256l370 206h-364v268h865v-256z" />
    <glyph glyph-name="bracketleft" unicode="[" horiz-adv-x="618" 
d="M594 -200h-544v930h544v-269h-184v-392h184v-269z" />
    <glyph glyph-name="backslash" unicode="\" horiz-adv-x="655" 
d="M302 -142l-338 872h392l335 -872h-389z" />
    <glyph glyph-name="bracketright" unicode="]" horiz-adv-x="618" 
d="M568 730v-930h-544v269h185v392h-185v269h544z" />
    <glyph glyph-name="asciicircum" unicode="^" horiz-adv-x="820" 
d="M621 730l187 -427h-318l-80 206l-80 -206h-318l186 427h423z" />
    <glyph glyph-name="underscore" unicode="_" horiz-adv-x="904" 
d="M0 -275v275h904v-275h-904z" />
    <glyph glyph-name="grave" unicode="`" horiz-adv-x="646" 
d="M100 804l214 -220h232l-97 220h-349z" />
    <glyph glyph-name="a" unicode="a" horiz-adv-x="930" 
d="M467 550q162 0 258 -35t135 -100.5t39 -170.5v-244h-164l-138 140q-30 -73 -113.5 -116.5t-216.5 -43.5q-253 0 -253 145q0 54 30.5 89t120.5 60.5t247 34.5l120 7q-3 21 -18.5 30t-50.5 9q-53 0 -69 -26h-372q8 45 34 82.5t75.5 70t135 50.5t200.5 18zM423 169
q55 0 84 19t29 43l-65 -5q-91 -8 -91 -35q0 -22 43 -22z" />
    <glyph glyph-name="b" unicode="b" horiz-adv-x="955" 
d="M637 550q139 0 218.5 -75.5t79.5 -201.5v-16q0 -127 -82 -202t-232 -75q-121 0 -198.5 48.5t-103.5 133.5l-118 -162h-163v730h368v-277q72 97 231 97zM487 205q80 0 80 60t-80 60q-81 0 -81 -60t81 -60z" />
    <glyph glyph-name="c" unicode="c" horiz-adv-x="920" 
d="M16 257v16q0 124 108.5 200.5t335.5 76.5q114 0 197 -18.5t134 -53.5t78 -80t36 -105h-373q-14 35 -72 35q-77 0 -77 -63t77 -63q58 0 72 35h374q-9 -60 -36.5 -105t-78 -80t-134 -53.5t-197.5 -18.5q-227 0 -335.5 76.5t-108.5 200.5z" />
    <glyph glyph-name="d" unicode="d" horiz-adv-x="955" 
d="M548 453v277h368v-730h-163l-117 162q-26 -85 -103.5 -133.5t-198.5 -48.5q-150 0 -232.5 75t-82.5 202v16q0 126 79.5 201.5t218.5 75.5q159 0 231 -97zM468 205q80 0 80 60t-80 60t-80 -60t80 -60z" />
    <glyph glyph-name="e" unicode="e" horiz-adv-x="927" 
d="M911 290q0 -30 -4 -57h-534q12 -54 80 -54q53 0 77 22h373q-40 -221 -433 -221q-234 0 -344 76t-110 200v18q0 124 110 200t344 76q227 0 334 -72.5t107 -187.5zM462 363q-71 0 -87 -47h172q-5 25 -25 36t-60 11z" />
    <glyph glyph-name="f" unicode="f" horiz-adv-x="774" 
d="M601 519q-54 0 -69.5 -10.5t-15.5 -42.5v-5h244v-244h-231v-217h-368v217h-145v244h145v5q0 58 6 96.5t27.5 77.5t60 61t105 35.5t161.5 13.5q113 0 239 -20v-217q-126 6 -159 6z" />
    <glyph glyph-name="g" unicode="g" horiz-adv-x="959" 
d="M959 -1q0 -39 -13 -70t-47.5 -59.5t-90 -48t-144 -31t-206.5 -11.5q-112 0 -193 5.5t-126.5 14.5t-72 23t-34 27.5t-7.5 32.5q0 35 35 57.5t128 29.5q-168 19 -168 121q0 46 41.5 78t146.5 45q-104 20 -145 59.5t-41 96.5v2q0 40 18.5 70t65.5 55.5t137 39t223 13.5
q62 0 113 -3q7 109 70.5 169t168.5 60q52 0 105 -10v-224q-74 9 -126 9q-74 0 -96 -16q125 -19 173.5 -60t48.5 -103v-2q0 -40 -19 -69.5t-67 -55t-141 -38.5t-230 -13h-120q-46 0 -46 -19q0 -10 9.5 -14t37.5 -4h339q273 0 273 -157zM472 401q-49 0 -66.5 -8t-17.5 -23
q0 -30 84 -30q85 0 85 30q0 15 -17.5 23t-67.5 8zM481 -74q79 0 121.5 4t51.5 9.5t9 13.5t-7.5 12.5t-42 8t-100.5 3.5q-82 0 -125 -4t-52 -9t-9 -13t8 -12.5t43.5 -8.5t102.5 -4z" />
    <glyph glyph-name="h" unicode="h" horiz-adv-x="928" 
d="M631 550q129 0 197 -74.5t68 -224.5v-251h-369v222q0 35 -13 49t-44 14q-64 0 -64 -56v-229h-368v730h368v-302q70 122 225 122z" />
    <glyph glyph-name="i" unicode="i" horiz-adv-x="444" 
d="M420 694q0 123 -197 123t-197 -123t197 -123t197 123zM406 0h-368v530h368v-530z" />
    <glyph glyph-name="j" unicode="j" horiz-adv-x="450" 
d="M425 694q0 123 -197 123t-197 -123t197 -123t197 123zM43 530h369v-465q0 -143 -82 -214t-261 -71q-90 0 -185 13v175q52 -4 81 -4q46 0 62 14.5t16 54.5v497z" />
    <glyph glyph-name="k" unicode="k" horiz-adv-x="925" 
d="M945 0h-411l-96 188l-38 -47v-141h-362v730h362v-387l120 187h421l-168 -232z" />
    <glyph glyph-name="l" unicode="l" horiz-adv-x="452" 
d="M414 730v-730h-376v730h376z" />
    <glyph glyph-name="m" unicode="m" horiz-adv-x="1363" 
d="M1073 548q124 0 191 -74.5t67 -225.5v-248h-358v224q0 33 -12.5 47t-42.5 14q-60 0 -60 -56v-229h-347v222q0 35 -13 49t-42 14q-59 0 -59 -56v-229h-359v530h164l114 -167q55 187 266 187q196 0 254 -152q31 73 93 111.5t144 38.5z" />
    <glyph glyph-name="n" unicode="n" horiz-adv-x="929" 
d="M606 550q291 0 291 -299v-251h-369v222q0 35 -13 49t-44 14q-64 0 -64 -56v-229h-369v530h163l126 -168q55 188 279 188z" />
    <glyph glyph-name="o" unicode="o" horiz-adv-x="927" 
d="M463 -20q-229 0 -338 76t-109 201v16q0 125 109 201t338 76q230 0 339 -76t109 -201v-16q0 -125 -109 -201t-339 -76zM463 202q81 0 81 64q0 62 -81 62q-80 0 -80 -62q0 -64 80 -64z" />
    <glyph glyph-name="p" unicode="p" horiz-adv-x="955" 
d="M621 550q150 0 232 -75t82 -202v-16q0 -126 -79.5 -201.5t-218.5 -75.5q-159 0 -231 97v-277h-368v730h163l118 -162q26 85 103.5 133.5t198.5 48.5zM487 205q80 0 80 60t-80 60q-81 0 -81 -60t81 -60z" />
    <glyph glyph-name="q" unicode="q" horiz-adv-x="955" 
d="M636 368l117 162h163v-730h-368v277q-72 -97 -231 -97q-139 0 -218.5 75.5t-79.5 201.5v16q0 127 82.5 202t232.5 75q121 0 198.5 -48.5t103.5 -133.5zM468 205q80 0 80 60t-80 60t-80 -60t80 -60z" />
    <glyph glyph-name="r" unicode="r" horiz-adv-x="686" 
d="M536 550q63 0 129 -11v-314q-89 7 -145 7q-65 0 -88.5 -21.5t-23.5 -79.5v-131h-370v530h164l135 -165q36 185 199 185z" />
    <glyph glyph-name="s" unicode="s" horiz-adv-x="903" 
d="M5 188h375q10 -29 79 -29q72 0 72 23q0 7 -6 11t-32 8.5t-75 6.5q-125 4 -208 16.5t-125 35.5t-57.5 48.5t-15.5 62.5q0 29 11.5 53.5t41.5 48t77 40.5t123 27t174 10q423 0 444 -207h-369q-7 28 -73 28q-68 0 -68 -22q0 -8 6 -12t31.5 -8t75.5 -6q125 -3 208.5 -16
t126 -36t59 -49.5t16.5 -63.5q0 -36 -20.5 -65.5t-67 -56t-135 -41.5t-212.5 -15q-103 0 -181.5 11t-128.5 29t-82 45.5t-46 57t-18 65.5z" />
    <glyph glyph-name="t" unicode="t" horiz-adv-x="794" 
d="M763 530v-226h-252v-27q0 -40 16 -52t73 -12q72 0 164 10v-223q-130 -20 -247 -20q-143 0 -221.5 29t-109.5 89t-31 169v37h-142v226h169l111 165h218v-165h252z" />
    <glyph glyph-name="u" unicode="u" horiz-adv-x="928" 
d="M521 302v228h369v-530h-164l-125 168q-55 -188 -279 -188q-290 0 -290 300v250h369v-222q0 -35 13 -49t45 -14q62 0 62 57z" />
    <glyph glyph-name="v" unicode="v" horiz-adv-x="852" 
d="M426 294l78 236h384l-255 -530h-415l-255 530h385z" />
    <glyph glyph-name="w" unicode="w" horiz-adv-x="1249" 
d="M844 259l49 271h375l-174 -530h-389l-80 222l-81 -222h-389l-175 530h376l49 -272l99 272h241z" />
    <glyph glyph-name="x" unicode="x" horiz-adv-x="875" 
d="M728 268l166 -268h-390l-65 140l-68 -140h-390l167 266l-165 264h390l65 -141l63 141h391z" />
    <glyph glyph-name="y" unicode="y" horiz-adv-x="865" 
d="M440 243l77 287h380l-202 -453q-45 -102 -98.5 -164t-141 -97.5t-213.5 -35.5q-115 0 -199 20v220q48 -5 88 -5q33 0 47 7t23 25l-232 483h394z" />
    <glyph glyph-name="z" unicode="z" horiz-adv-x="805" 
d="M772 334l-330 -124h331v-210h-741v197l324 123h-320v210h736v-196z" />
    <glyph glyph-name="braceleft" unicode="{" horiz-adv-x="627" 
d="M20 141v248q108 0 132.5 22.5t-9.5 78.5l-7 27q-27 59 -22 106t50 77t120 30h319v-263h-123q-42 0 -24 -41l6 -15q16 -34 14.5 -62t-34 -50.5t-94.5 -32.5v-2q62 -10 94.5 -32.5t34 -50.5t-14.5 -62l-6 -15q-18 -41 24 -41h123v-263h-319q-75 0 -120 30t-50 77t22 106
l7 27q34 56 9.5 78.5t-132.5 22.5z" />
    <glyph glyph-name="bar" unicode="|" horiz-adv-x="453" 
d="M410 -200h-367v930h367v-930z" />
    <glyph glyph-name="braceright" unicode="}" horiz-adv-x="627" 
d="M607 389v-248q-108 0 -132.5 -22.5t9.5 -78.5l7 -27q27 -59 22 -106t-50 -77t-120 -30h-319v263h124q43 0 23 41l-6 15q-16 34 -14.5 62t34 50.5t94.5 32.5v2q-62 10 -94.5 32.5t-34 50.5t14.5 62l6 15q20 41 -23 41h-124v263h319q75 0 120 -30t50 -77t-22 -106l-7 -27
q-34 -56 -9.5 -78.5t132.5 -22.5z" />
    <glyph glyph-name="asciitilde" unicode="~" horiz-adv-x="1031" 
d="M104 207h271q0 45 7.5 59.5t27.5 14.5q14 0 50 -20.5t94.5 -41t128.5 -20.5q124 0 184 73.5t60 246.5h-271q0 -43 -7.5 -57t-27.5 -14q-13 0 -39 12.5t-54.5 27t-78 27t-103.5 12.5q-123 0 -182.5 -73.5t-59.5 -246.5z" />
    <glyph glyph-name="exclamdown" unicode="&#xa1;" horiz-adv-x="481" 
d="M439 423q0 127 -199 127q-198 0 -198 -127q0 -126 198 -126q199 0 199 126zM87 268h308l42 -266v-200h-392v200z" />
    <glyph glyph-name="cent" unicode="&#xa2;" horiz-adv-x="1030" 
d="M515 305q58 0 72 36h374q-33 -199 -271 -243v-127h-349v127q-138 27 -204 96.5t-66 165.5v17q0 96 66 165.5t204 96.5v120h349v-120q128 -24 191 -85.5t79 -156.5h-373q-15 35 -72 35q-77 0 -77 -63q0 -64 77 -64z" />
    <glyph glyph-name="sterling" unicode="&#xa3;" horiz-adv-x="1030" 
d="M644 259h367q-3 -152 -65 -215.5t-206 -63.5q-125 0 -273 68q-89 -67 -248 -67q-108 0 -158.5 37t-50.5 100q0 149 209 149q71 0 144 -20q-16 27 -45 53h-262v104h129q-79 72 -79 150q0 32 11.5 59.5t40.5 53.5t74.5 43.5t117 28.5t164.5 11q124 0 214 -21t144.5 -62.5
t81.5 -95t34 -125.5h-384q-7 37 -67 37q-34 0 -47 -9.5t-13 -29.5q0 -10 12 -40h248v-104h-198q18 -41 18 -81v-17q26 -7 41 -7q25 0 34.5 12.5t11.5 51.5zM217 105q64 0 99 16q-54 23 -99 23q-50 0 -50 -19q0 -20 50 -20z" />
    <glyph glyph-name="currency" unicode="&#xa4;" horiz-adv-x="1030" 
d="M869 369q1 -43 -18 -84l136 -110l-184 -215l-188 155q-44 -10 -100 -10t-99 10l-189 -155l-183 215l134 110q-19 43 -19 84q0 43 20 85l-135 109l183 215l191 -155q43 10 97 10q48 0 98 -10l191 155l183 -215l-138 -111q18 -38 20 -83zM515 321q69 0 69 48t-69 48
t-69 -48t69 -48z" />
    <glyph glyph-name="yen" unicode="&#xa5;" horiz-adv-x="1030" 
d="M613 730h418l-212 -285h92v-145h-203v-39h203v-145h-203v-116h-383v116h-204v145h204v39h-204v145h92l-214 285h419l98 -155z" />
    <glyph glyph-name="brokenbar" unicode="&#xa6;" horiz-adv-x="454" 
d="M411 332h-368v398h368v-398zM411 -200h-368v398h368v-398z" />
    <glyph glyph-name="section" unicode="&#xa7;" horiz-adv-x="972" 
d="M727 254v-2q119 -15 167 -55t48 -103q0 -185 -439 -185q-129 0 -220 16t-140.5 46.5t-72.5 66t-27 82.5h377q6 -31 76 -31q75 0 75 25q0 8 -6.5 12.5t-35.5 9.5t-83 7q-132 3 -221 15.5t-132.5 33t-60 42.5t-16.5 50q0 108 222 124v2q-195 30 -195 156q0 184 434 184
q125 0 214 -16.5t138 -47t72 -66t27 -80.5h-370q-10 31 -78 31q-71 0 -71 -24q0 -8 7 -13t36.5 -9.5t86.5 -7.5q127 -3 213 -15t128.5 -32.5t59 -41.5t16.5 -48q0 -108 -229 -126zM372 332q0 -29 121 -29q107 0 107 27q0 29 -120 29q-108 0 -108 -27z" />
    <glyph glyph-name="dieresis" unicode="&#xa8;" horiz-adv-x="834" 
d="M405 690q0 58 -39 92t-114 34q-74 0 -113 -34t-39 -92q0 -54 39 -86.5t113 -32.5t113.5 32.5t39.5 86.5zM734 690q0 59 -38.5 92.5t-113.5 33.5t-114 -33.5t-39 -92.5q0 -54 39 -86.5t114 -32.5q74 0 113 32.5t39 86.5z" />
    <glyph glyph-name="copyright" unicode="&#xa9;" horiz-adv-x="1020" 
d="M511 -19q-235 0 -364.5 108t-129.5 276t129.5 276t364.5 108t364 -108t129 -276q0 -171 -130.5 -277.5t-362.5 -106.5zM511 125q174 0 261 65.5t87 174.5t-87 174.5t-261 65.5q-175 0 -262 -65.5t-87 -174.5t87 -174.5t262 -65.5zM217 359v13q0 82 73 134t221 52
q263 0 294 -178h-245q-8 22 -52 22q-53 0 -53 -36q0 -37 53 -37q44 0 52 22h245q-27 -178 -294 -178q-148 0 -221 52t-73 134z" />
    <glyph glyph-name="ordfeminine" unicode="&#xaa;" horiz-adv-x="603" 
d="M309 741q150 0 215 -51.5t65 -156.5v-167h-112l-80 92q-23 -47 -81.5 -75.5t-148.5 -28.5q-81 0 -120 27.5t-39 70.5q0 54 57 85.5t204 38.5l83 4q-3 25 -47 25q-43 0 -54 -18h-238q11 67 82.5 111t213.5 43zM276 489q37 0 57.5 13t20.5 27l-45 -5q-66 -6 -66 -23
q0 -12 33 -12z" />
    <glyph glyph-name="guillemotleft" unicode="&#xab;" horiz-adv-x="1074" 
d="M8 266l214 215h394l-222 -215l222 -215h-394zM457 266l214 215h394l-222 -215l222 -215h-394z" />
    <glyph glyph-name="logicalnot" unicode="&#xac;" horiz-adv-x="1031" 
d="M126 500h779v-469h-276v199h-503v270z" />
    <glyph glyph-name="registered" unicode="&#xae;" horiz-adv-x="687" 
d="M344 752q158 0 244 -77.5t86 -208.5q0 -130 -86 -207.5t-244 -77.5t-244.5 77.5t-86.5 207.5q0 131 86 208.5t245 77.5zM459 433l57 -92q48 45 48 125q0 85 -54.5 131.5t-165.5 46.5q-100 0 -155 -38h187q136 0 136 -94q0 -57 -53 -79zM123 466q0 -91 61 -136v273
q-61 -45 -61 -137zM309 511v-26h50q23 0 23 13t-23 13h-50zM309 329h-123q55 -40 158 -40q102 0 157 40h-130l-44 90h-18v-90z" />
    <glyph glyph-name="macron" unicode="&#xaf;" horiz-adv-x="775" 
d="M100 584v180h575v-180h-575z" />
    <glyph glyph-name="degree" unicode="&#xb0;" horiz-adv-x="516" 
d="M258 309q119 0 185 60.5t66 160.5t-66 160t-185 60t-185 -60t-66 -160q0 -101 66 -161t185 -60zM258 571q47 0 47 -41q0 -42 -47 -42t-47 42q0 41 47 41z" />
    <glyph glyph-name="plusminus" unicode="&#xb1;" horiz-adv-x="1031" 
d="M652 738v-100h247v-250h-247v-99h-272v99h-248v250h246v100h274zM899 7h-767v250h767v-250z" />
    <glyph glyph-name="uni00B2" unicode="&#xb2;" 
d="M226 520l286 -1v-154h-497v95q0 73 46 109t169 45q33 4 50.5 9t22 9t4.5 10q0 18 -41 18q-46 0 -50 -28h-200q4 81 67.5 131.5t184.5 50.5q119 0 177.5 -40.5t58.5 -100.5q0 -56 -47.5 -88.5t-168.5 -40.5q-38 -5 -49.5 -10t-12.5 -14z" />
    <glyph glyph-name="uni00B3" unicode="&#xb3;" 
d="M13 546h197q2 -38 57 -38q50 0 50 18q0 15 -44 15h-38v86h38q36 0 36 15q0 18 -43 18q-53 0 -56 -38h-197q3 90 67 141t193 51q116 0 173 -37t57 -87q0 -47 -39.5 -76t-111.5 -29v-2q80 0 121.5 -29t41.5 -77q0 -51 -58.5 -87t-181.5 -36q-132 0 -196 51t-66 141z" />
    <glyph glyph-name="acute" unicode="&#xb4;" horiz-adv-x="646" 
d="M100 584h232l214 220h-349z" />
    <glyph glyph-name="paragraph" unicode="&#xb6;" horiz-adv-x="1207" 
d="M295 730h897v-274h-103v-612h-364v612h-74v-612h-364v352h-6q-132 0 -206.5 72t-74.5 195q0 124 77 195.5t218 71.5z" />
    <glyph glyph-name="periodcentered" unicode="&#xb7;" horiz-adv-x="419" 
d="M397 274q0 151 -188 151q-187 0 -187 -151q0 -155 187 -155q188 0 188 155z" />
    <glyph glyph-name="cedilla" unicode="&#xb8;" horiz-adv-x="690" 
d="M445 -33q73 0 109 -25.5t36 -64.5q0 -45 -54 -70.5t-194 -25.5q-238 0 -242 102h201q5 -12 47 -12q48 0 48 16q0 15 -46 15q-33 0 -53 -11l-166 51l93 77h228l-90 -62q31 10 83 10z" />
    <glyph glyph-name="uni00B9" unicode="&#xb9;" 
d="M375 803v-280h120v-158h-460v158h138v63h-106v148l54 4q51 3 68.5 15t30.5 50h155z" />
    <glyph glyph-name="ordmasculine" unicode="&#xba;" horiz-adv-x="603" 
d="M302 354q-150 0 -222 52t-72 136v11q0 84 72 136t221 52t221.5 -52t72.5 -136v-11q0 -84 -72 -136t-221 -52zM302 510q58 0 58 37t-58 37t-58 -37t58 -37z" />
    <glyph glyph-name="guillemotright" unicode="&#xbb;" horiz-adv-x="1074" 
d="M8 481h395l213 -215l-213 -215h-395l222 215zM457 481h394l214 -215l-214 -215h-394l222 215z" />
    <glyph glyph-name="onequarter" unicode="&#xbc;" horiz-adv-x="1380" 
d="M375 730v-280h120v-158h-460v158h138v63h-106v148l54 4q51 3 68.5 15t30.5 50h155zM998 730h285l-826 -730h-286zM1283 203h65v-145h-65v-58h-200v58h-248v133l220 247h228v-235zM1083 293l-82 -90h82v90z" />
    <glyph glyph-name="onehalf" unicode="&#xbd;" horiz-adv-x="1446" 
d="M375 730v-280h120v-158h-460v158h138v63h-106v148l54 4q51 3 68.5 15t30.5 50h155zM998 730h285l-826 -730h-286zM1129 155l286 -1v-154h-497v95q0 73 46 109t169 45q33 4 50 9t21.5 9t4.5 10q0 18 -41 18q-47 0 -49 -28h-200q4 81 67.5 131.5t184.5 50.5
q119 0 177.5 -40.5t58.5 -100.5q0 -56 -47.5 -88.5t-168.5 -40.5q-38 -5 -49.5 -10t-12.5 -14z" />
    <glyph glyph-name="threequarters" unicode="&#xbe;" horiz-adv-x="1336" 
d="M13 473h197q2 -38 57 -38q50 0 50 19q0 15 -44 15h-38v85h38q36 0 36 15q0 18 -43 18q-53 0 -56 -37h-197q3 90 67 140.5t193 50.5q116 0 173 -36.5t57 -86.5q0 -47 -39.5 -76.5t-111.5 -29.5v-1q80 0 121.5 -29t41.5 -77q0 -51 -58.5 -87.5t-181.5 -36.5q-132 0 -196 51
t-66 141zM974 730h285l-826 -730h-286zM1259 203h65v-145h-65v-58h-200v58h-248v133l220 247h228v-235zM1059 293l-82 -90h82v90z" />
    <glyph glyph-name="questiondown" unicode="&#xbf;" horiz-adv-x="935" 
d="M258 423q0 -126 199 -126q198 0 198 126q0 127 -198 127q-199 0 -199 -127zM667 185q0 -40 -45.5 -61t-100 -23.5t-100 -10.5t-45.5 -25q0 -31 87 -31q91 0 99 42h383q-3 -49 -22 -91.5t-57.5 -80t-94 -65t-137.5 -43t-183 -15.5q-122 0 -212.5 19.5t-141.5 54.5t-75 77
t-24 92t30 83.5t72.5 48t85.5 24t73 19.5t30 26q0 17 -18 43h363q33 -42 33 -83z" />
    <glyph glyph-name="Agrave" unicode="&#xc0;" horiz-adv-x="946" 
d="M151 1004l214 -220h232l-97 220h-349zM697 730l289 -730h-373l-27 77h-226l-27 -77h-373l288 730h449zM525 301l-52 164l-52 -164h104z" />
    <glyph glyph-name="Aacute" unicode="&#xc1;" horiz-adv-x="946" 
d="M347 784h232l214 220h-349zM697 730l289 -730h-373l-27 77h-226l-27 -77h-373l288 730h449zM525 301l-52 164l-52 -164h104z" />
    <glyph glyph-name="Acircumflex" unicode="&#xc2;" horiz-adv-x="946" 
d="M616 1004h-291l-194 -220h270l70 76l68 -76h270zM697 730l289 -730h-373l-27 77h-226l-27 -77h-373l288 730h449zM525 301l-52 164l-52 -164h104z" />
    <glyph glyph-name="Atilde" unicode="&#xc3;" horiz-adv-x="946" 
d="M130 784h219q0 37 7.5 50t25.5 13q15 0 44 -17.5t78 -35.5t112 -18q99 0 147 54t48 174h-219q0 -37 -8 -50.5t-26 -13.5q-13 0 -35 11t-44.5 24.5t-64 24.5t-89.5 11q-99 0 -147 -53.5t-48 -173.5zM697 730l289 -730h-373l-27 77h-226l-27 -77h-373l288 730h449zM525 301
l-52 164l-52 -164h104z" />
    <glyph glyph-name="Adieresis" unicode="&#xc4;" horiz-adv-x="946" 
d="M458 890q0 59 -39 92.5t-115 33.5t-115 -33.5t-39 -92.5q0 -54 39.5 -86.5t114.5 -32.5t114.5 32.5t39.5 86.5zM796 890q0 59 -39 92.5t-115 33.5t-115 -33.5t-39 -92.5q0 -54 39.5 -86.5t114.5 -32.5t114.5 32.5t39.5 86.5zM697 730l289 -730h-373l-27 77h-226l-27 -77
h-373l288 730h449zM525 301l-52 164l-52 -164h104z" />
    <glyph glyph-name="Aring" unicode="&#xc5;" horiz-adv-x="946" 
d="M473 775q108 0 162.5 41.5t54.5 107.5t-54.5 107.5t-162.5 41.5q-109 0 -164 -41.5t-55 -107.5t55 -107.5t164 -41.5zM473 951q33 0 33 -27q0 -28 -33 -28q-35 0 -35 28q0 27 35 27zM697 730l289 -730h-373l-27 77h-226l-27 -77h-373l288 730h449zM525 301l-52 164
l-52 -164h104z" />
    <glyph glyph-name="AE" unicode="&#xc6;" horiz-adv-x="1401" 
d="M922 290l11 -59h439v-231h-737l-15 81h-241l-34 -81h-389l330 730h1080v-229h-485l11 -58h459v-153h-429zM537 495l-73 -177h113l-33 177h-7z" />
    <glyph glyph-name="Ccedilla" unicode="&#xc7;" horiz-adv-x="1055" 
d="M528 270q95 0 112 63h399q-29 -335 -460 -353l-34 -23q30 10 82 10q73 0 109 -25.5t36 -64.5q0 -45 -53.5 -70.5t-194.5 -25.5q-238 0 -242 102h201q5 -12 48 -12q47 0 47 16q0 15 -46 15q-31 0 -53 -11l-166 51l61 50q-177 29 -267 124t-90 230v38q0 164 129 265
t383 101q479 0 510 -353h-399q-17 63 -112 63q-57 0 -86.5 -25t-29.5 -66v-8q0 -41 29.5 -66t86.5 -25z" />
    <glyph glyph-name="Egrave" unicode="&#xc8;" horiz-adv-x="900" 
d="M128 1004l214 -220h232l-97 220h-349zM870 0h-830v730h824v-229h-459v-58h445v-153h-445v-59h465v-231z" />
    <glyph glyph-name="Eacute" unicode="&#xc9;" horiz-adv-x="900" 
d="M325 784h232l214 220h-349zM870 0h-830v730h824v-229h-459v-58h445v-153h-445v-59h465v-231z" />
    <glyph glyph-name="Ecircumflex" unicode="&#xca;" horiz-adv-x="900" 
d="M594 1004h-291l-194 -220h270l70 76l68 -76h270zM870 0h-830v730h824v-229h-459v-58h445v-153h-445v-59h465v-231z" />
    <glyph glyph-name="Edieresis" unicode="&#xcb;" horiz-adv-x="900" 
d="M436 890q0 59 -39 92.5t-115 33.5t-115 -33.5t-39 -92.5q0 -54 39.5 -86.5t114.5 -32.5t114.5 32.5t39.5 86.5zM774 890q0 59 -39 92.5t-115 33.5t-115 -33.5t-39 -92.5q0 -54 39.5 -86.5t114.5 -32.5t114.5 32.5t39.5 86.5zM870 0h-830v730h824v-229h-459v-58h445v-153
h-445v-59h465v-231z" />
    <glyph glyph-name="Igrave" unicode="&#xcc;" horiz-adv-x="471" 
d="M-86 1004l214 -220h232l-97 220h-349zM431 730v-730h-391v730h391z" />
    <glyph glyph-name="Iacute" unicode="&#xcd;" horiz-adv-x="471" 
d="M111 784h232l214 220h-349zM431 730v-730h-391v730h391z" />
    <glyph glyph-name="Icircumflex" unicode="&#xce;" horiz-adv-x="471" 
d="M380 1004h-291l-194 -220h270l70 76l68 -76h270zM431 730v-730h-391v730h391z" />
    <glyph glyph-name="Idieresis" unicode="&#xcf;" horiz-adv-x="471" 
d="M221 890q0 59 -39 92.5t-115 33.5t-115 -33.5t-39 -92.5q0 -54 39.5 -86.5t114.5 -32.5t114.5 32.5t39.5 86.5zM559 890q0 59 -39 92.5t-115 33.5t-115 -33.5t-39 -92.5q0 -54 39.5 -86.5t114.5 -32.5t114.5 32.5t39.5 86.5zM431 730v-730h-391v730h391z" />
    <glyph glyph-name="Eth" unicode="&#xd0;" horiz-adv-x="1051" 
d="M53 730h481q244 0 373.5 -99t129.5 -249v-34q0 -150 -129.5 -249t-373.5 -99h-481v289h-62v152h62v289zM644 343v44q0 104 -126 104h-79v-50h87v-152h-87v-50h79q126 0 126 104z" />
    <glyph glyph-name="Ntilde" unicode="&#xd1;" horiz-adv-x="1034" 
d="M179 784h219q0 37 7.5 50t25.5 13q15 0 44 -17.5t78 -35.5t112 -18q99 0 147 54t48 174h-219q0 -37 -8 -50.5t-26 -13.5q-13 0 -35 11t-44.5 24.5t-64 24.5t-89.5 11q-99 0 -147 -53.5t-48 -173.5zM636 434v296h358v-730h-359l-237 313v-313h-358v730h380z" />
    <glyph glyph-name="Ograve" unicode="&#xd2;" horiz-adv-x="1061" 
d="M209 1004l214 -220h232l-97 220h-349zM530 -20q-254 0 -383.5 101t-129.5 265v38q0 164 129.5 265t383.5 101q255 0 384.5 -101t129.5 -265v-38q0 -164 -129.5 -265t-384.5 -101zM530 270q59 0 89 25t30 66v8q0 41 -30 66t-89 25t-88.5 -24.5t-29.5 -66.5v-8
q0 -42 29.5 -66.5t88.5 -24.5z" />
    <glyph glyph-name="Oacute" unicode="&#xd3;" horiz-adv-x="1061" 
d="M406 784h232l214 220h-349zM530 -20q-254 0 -383.5 101t-129.5 265v38q0 164 129.5 265t383.5 101q255 0 384.5 -101t129.5 -265v-38q0 -164 -129.5 -265t-384.5 -101zM530 270q59 0 89 25t30 66v8q0 41 -30 66t-89 25t-88.5 -24.5t-29.5 -66.5v-8q0 -42 29.5 -66.5
t88.5 -24.5z" />
    <glyph glyph-name="Ocircumflex" unicode="&#xd4;" horiz-adv-x="1061" 
d="M675 1004h-291l-194 -220h270l70 76l68 -76h270zM530 -20q-254 0 -383.5 101t-129.5 265v38q0 164 129.5 265t383.5 101q255 0 384.5 -101t129.5 -265v-38q0 -164 -129.5 -265t-384.5 -101zM530 270q59 0 89 25t30 66v8q0 41 -30 66t-89 25t-88.5 -24.5t-29.5 -66.5v-8
q0 -42 29.5 -66.5t88.5 -24.5z" />
    <glyph glyph-name="Otilde" unicode="&#xd5;" horiz-adv-x="1061" 
d="M189 784h219q0 37 7.5 50t25.5 13q15 0 44 -17.5t78 -35.5t112 -18q99 0 147 54t48 174h-219q0 -37 -8 -50.5t-26 -13.5q-13 0 -35 11t-44.5 24.5t-64 24.5t-89.5 11q-99 0 -147 -53.5t-48 -173.5zM530 -20q-254 0 -383.5 101t-129.5 265v38q0 164 129.5 265t383.5 101
q255 0 384.5 -101t129.5 -265v-38q0 -164 -129.5 -265t-384.5 -101zM530 270q59 0 89 25t30 66v8q0 41 -30 66t-89 25t-88.5 -24.5t-29.5 -66.5v-8q0 -42 29.5 -66.5t88.5 -24.5z" />
    <glyph glyph-name="Odieresis" unicode="&#xd6;" horiz-adv-x="1061" 
d="M517 890q0 59 -39 92.5t-115 33.5t-115 -33.5t-39 -92.5q0 -54 39.5 -86.5t114.5 -32.5t114.5 32.5t39.5 86.5zM855 890q0 59 -39 92.5t-115 33.5t-115 -33.5t-39 -92.5q0 -54 39.5 -86.5t114.5 -32.5t114.5 32.5t39.5 86.5zM530 -20q-254 0 -383.5 101t-129.5 265v38
q0 164 129.5 265t383.5 101q255 0 384.5 -101t129.5 -265v-38q0 -164 -129.5 -265t-384.5 -101zM530 270q59 0 89 25t30 66v8q0 41 -30 66t-89 25t-88.5 -24.5t-29.5 -66.5v-8q0 -42 29.5 -66.5t88.5 -24.5z" />
    <glyph glyph-name="multiply" unicode="&#xd7;" horiz-adv-x="1031" 
d="M716 730l178 -189l-190 -176l190 -176l-177 -188l-202 189l-204 -189l-172 188l187 176l-189 177l174 188l203 -190z" />
    <glyph glyph-name="Oslash" unicode="&#xd8;" horiz-adv-x="1068" 
d="M942 794l-84 -107q97 -48 145 -126t48 -177v-38q0 -164 -130 -265t-387 -101q-120 0 -209 22l-51 -66h-148l84 107q-97 47 -145 125.5t-48 177.5v38q0 164 130 265t387 101q120 0 208 -22l52 66h148zM393 375v-25q0 -26 23 -42l135 175q-7 1 -23 1q-66 0 -100.5 -29.5
t-34.5 -79.5zM675 355v25q0 26 -23 42l-135 -175q7 -1 23 -1q66 0 100.5 29.5t34.5 79.5z" />
    <glyph glyph-name="Ugrave" unicode="&#xd9;" horiz-adv-x="1009" 
d="M182 1004l214 -220h232l-97 220h-349zM35 327v403h388v-376q0 -38 19.5 -56t61.5 -18q83 0 83 74v376h387v-403q0 -161 -117 -254t-353 -93t-352.5 93t-116.5 254z" />
    <glyph glyph-name="Uacute" unicode="&#xda;" horiz-adv-x="1009" 
d="M379 784h232l214 220h-349zM35 327v403h388v-376q0 -38 19.5 -56t61.5 -18q83 0 83 74v376h387v-403q0 -161 -117 -254t-353 -93t-352.5 93t-116.5 254z" />
    <glyph glyph-name="Ucircumflex" unicode="&#xdb;" horiz-adv-x="1009" 
d="M648 1004h-291l-194 -220h270l70 76l68 -76h270zM35 327v403h388v-376q0 -38 19.5 -56t61.5 -18q83 0 83 74v376h387v-403q0 -161 -117 -254t-353 -93t-352.5 93t-116.5 254z" />
    <glyph glyph-name="Udieresis" unicode="&#xdc;" horiz-adv-x="1009" 
d="M490 890q0 59 -39 92.5t-115 33.5t-115 -33.5t-39 -92.5q0 -54 39.5 -86.5t114.5 -32.5t114.5 32.5t39.5 86.5zM828 890q0 59 -39 92.5t-115 33.5t-115 -33.5t-39 -92.5q0 -54 39.5 -86.5t114.5 -32.5t114.5 32.5t39.5 86.5zM35 327v403h388v-376q0 -38 19.5 -56
t61.5 -18q83 0 83 74v376h387v-403q0 -161 -117 -254t-353 -93t-352.5 93t-116.5 254z" />
    <glyph glyph-name="Yacute" unicode="&#xdd;" horiz-adv-x="926" 
d="M340 784h232l214 220h-349zM561 730h416l-319 -549v-181h-388v180l-320 550h416l99 -206z" />
    <glyph glyph-name="Thorn" unicode="&#xde;" horiz-adv-x="975" 
d="M409 651h138q117 0 199.5 -18.5t130.5 -55.5t69.5 -88t21.5 -120q0 -145 -95.5 -216t-325.5 -71h-138v-82h-369v730h369v-79zM409 320h123q58 0 58 40t-58 40h-123v-80z" />
    <glyph glyph-name="germandbls" unicode="&#xdf;" horiz-adv-x="1236" 
d="M906 353q173 -9 246.5 -58.5t73.5 -130.5q0 -184 -343 -184q-188 0 -270.5 62t-87.5 185h255q3 -20 15 -28.5t41 -8.5q50 0 50 24q0 8 -5.5 13.5t-26.5 11t-59 9.5q-145 10 -196.5 38.5t-51.5 77.5q0 39 32 64t111 39q62 11 62 30q0 8 -6.5 12.5t-34 8.5t-76.5 4
q-80 0 -105.5 -15.5t-25.5 -57.5v-449h-341v285h-147v245h152q38 220 479 220q126 0 219.5 -18t144.5 -48.5t74.5 -64.5t23.5 -71q0 -63 -56.5 -101.5t-188.5 -48.5q-35 -4 -51.5 -7t-20.5 -6t-4 -9t5.5 -9t32 -7t80.5 -7z" />
    <glyph glyph-name="agrave" unicode="&#xe0;" horiz-adv-x="930" 
d="M145 804l214 -220h232l-97 220h-349zM467 550q162 0 258 -35t135 -100.5t39 -170.5v-244h-164l-138 140q-30 -73 -113.5 -116.5t-216.5 -43.5q-253 0 -253 145q0 54 30.5 89t120.5 60.5t247 34.5l120 7q-3 21 -18.5 30t-50.5 9q-53 0 -69 -26h-372q8 45 34 82.5t75.5 70
t135 50.5t200.5 18zM423 169q55 0 84 19t29 43l-65 -5q-91 -8 -91 -35q0 -22 43 -22z" />
    <glyph glyph-name="aacute" unicode="&#xe1;" horiz-adv-x="930" 
d="M342 584h232l214 220h-349zM467 550q162 0 258 -35t135 -100.5t39 -170.5v-244h-164l-138 140q-30 -73 -113.5 -116.5t-216.5 -43.5q-253 0 -253 145q0 54 30.5 89t120.5 60.5t247 34.5l120 7q-3 21 -18.5 30t-50.5 9q-53 0 -69 -26h-372q8 45 34 82.5t75.5 70t135 50.5
t200.5 18zM423 169q55 0 84 19t29 43l-65 -5q-91 -8 -91 -35q0 -22 43 -22z" />
    <glyph glyph-name="acircumflex" unicode="&#xe2;" horiz-adv-x="930" 
d="M611 804h-291l-194 -220h270l70 76l68 -76h270zM467 550q162 0 258 -35t135 -100.5t39 -170.5v-244h-164l-138 140q-30 -73 -113.5 -116.5t-216.5 -43.5q-253 0 -253 145q0 54 30.5 89t120.5 60.5t247 34.5l120 7q-3 21 -18.5 30t-50.5 9q-53 0 -69 -26h-372
q8 45 34 82.5t75.5 70t135 50.5t200.5 18zM423 169q55 0 84 19t29 43l-65 -5q-91 -8 -91 -35q0 -22 43 -22z" />
    <glyph glyph-name="atilde" unicode="&#xe3;" horiz-adv-x="930" 
d="M125 584h219q0 37 7.5 50t25.5 13q15 0 44 -17.5t78 -35.5t112 -18q99 0 147 54t48 174h-219q0 -37 -8 -50.5t-26 -13.5q-13 0 -35 11t-44.5 24.5t-64 24.5t-89.5 11q-99 0 -147 -53.5t-48 -173.5zM467 550q162 0 258 -35t135 -100.5t39 -170.5v-244h-164l-138 140
q-30 -73 -113.5 -116.5t-216.5 -43.5q-253 0 -253 145q0 54 30.5 89t120.5 60.5t247 34.5l120 7q-3 21 -18.5 30t-50.5 9q-53 0 -69 -26h-372q8 45 34 82.5t75.5 70t135 50.5t200.5 18zM423 169q55 0 84 19t29 43l-65 -5q-91 -8 -91 -35q0 -22 43 -22z" />
    <glyph glyph-name="adieresis" unicode="&#xe4;" horiz-adv-x="930" 
d="M454 690q0 58 -39 92t-114 34q-74 0 -113 -34t-39 -92q0 -54 39 -86.5t113 -32.5t113.5 32.5t39.5 86.5zM783 690q0 59 -38.5 92.5t-113.5 33.5t-114 -33.5t-39 -92.5q0 -54 39 -86.5t114 -32.5q74 0 113 32.5t39 86.5zM467 550q162 0 258 -35t135 -100.5t39 -170.5v-244
h-164l-138 140q-30 -73 -113.5 -116.5t-216.5 -43.5q-253 0 -253 145q0 54 30.5 89t120.5 60.5t247 34.5l120 7q-3 21 -18.5 30t-50.5 9q-53 0 -69 -26h-372q8 45 34 82.5t75.5 70t135 50.5t200.5 18zM423 169q55 0 84 19t29 43l-65 -5q-91 -8 -91 -35q0 -22 43 -22z" />
    <glyph glyph-name="aring" unicode="&#xe5;" horiz-adv-x="930" 
d="M467 575q108 0 162.5 41.5t54.5 107.5t-54.5 107.5t-162.5 41.5q-109 0 -164 -41.5t-55 -107.5t55 -107.5t164 -41.5zM467 751q33 0 33 -27q0 -28 -33 -28q-35 0 -35 28q0 27 35 27zM467 550q162 0 258 -35t135 -100.5t39 -170.5v-244h-164l-138 140
q-30 -73 -113.5 -116.5t-216.5 -43.5q-253 0 -253 145q0 54 30.5 89t120.5 60.5t247 34.5l120 7q-3 21 -18.5 30t-50.5 9q-53 0 -69 -26h-372q8 45 34 82.5t75.5 70t135 50.5t200.5 18zM423 169q55 0 84 19t29 43l-65 -5q-91 -8 -91 -35q0 -22 43 -22z" />
    <glyph glyph-name="ae" unicode="&#xe6;" horiz-adv-x="1450" 
d="M978 179q51 0 75 22h373q-40 -221 -433 -221q-297 0 -402 130q-84 -130 -321 -130q-256 0 -256 146q0 185 396 185h122q-2 24 -17.5 35t-50.5 11q-54 0 -70 -26h-372q16 95 110 157t280 62q217 0 310 -99q111 99 327 99q190 0 287.5 -73t97.5 -187q0 -30 -4 -57h-534
q12 -54 82 -54zM985 362q-72 0 -87 -46h172q-6 24 -26 35t-59 11zM425 169q52 0 81.5 19t29.5 39h-63q-93 0 -93 -34q0 -24 45 -24z" />
    <glyph glyph-name="ccedilla" unicode="&#xe7;" horiz-adv-x="920" 
d="M460 202q58 0 72 35h374q-9 -56 -33.5 -99.5t-70.5 -78.5t-120 -55t-175 -24l-33 -23q30 10 82 10q73 0 109 -25.5t36 -64.5q0 -45 -53.5 -70.5t-193.5 -25.5q-239 0 -243 102h201q5 -12 48 -12q48 0 48 16q0 15 -47 15q-31 0 -53 -11l-166 51l61 50q-146 24 -216.5 95
t-70.5 170v16q0 124 108.5 200.5t335.5 76.5q114 0 197 -18.5t134 -53.5t78 -80t36 -105h-373q-14 35 -72 35q-77 0 -77 -63t77 -63z" />
    <glyph glyph-name="egrave" unicode="&#xe8;" horiz-adv-x="927" 
d="M140 804l214 -220h232l-97 220h-349zM911 290q0 -30 -4 -57h-534q12 -54 80 -54q53 0 77 22h373q-40 -221 -433 -221q-234 0 -344 76t-110 200v18q0 124 110 200t344 76q227 0 334 -72.5t107 -187.5zM462 363q-71 0 -87 -47h172q-5 25 -25 36t-60 11z" />
    <glyph glyph-name="eacute" unicode="&#xe9;" horiz-adv-x="927" 
d="M337 584h232l214 220h-349zM911 290q0 -30 -4 -57h-534q12 -54 80 -54q53 0 77 22h373q-40 -221 -433 -221q-234 0 -344 76t-110 200v18q0 124 110 200t344 76q227 0 334 -72.5t107 -187.5zM462 363q-71 0 -87 -47h172q-5 25 -25 36t-60 11z" />
    <glyph glyph-name="ecircumflex" unicode="&#xea;" horiz-adv-x="927" 
d="M606 804h-291l-194 -220h270l70 76l68 -76h270zM911 290q0 -30 -4 -57h-534q12 -54 80 -54q53 0 77 22h373q-40 -221 -433 -221q-234 0 -344 76t-110 200v18q0 124 110 200t344 76q227 0 334 -72.5t107 -187.5zM462 363q-71 0 -87 -47h172q-5 25 -25 36t-60 11z" />
    <glyph glyph-name="edieresis" unicode="&#xeb;" horiz-adv-x="927" 
d="M449 690q0 58 -39 92t-114 34q-74 0 -113 -34t-39 -92q0 -54 39 -86.5t113 -32.5t113.5 32.5t39.5 86.5zM778 690q0 59 -38.5 92.5t-113.5 33.5t-114 -33.5t-39 -92.5q0 -54 39 -86.5t114 -32.5q74 0 113 32.5t39 86.5zM911 290q0 -30 -4 -57h-534q12 -54 80 -54
q53 0 77 22h373q-40 -221 -433 -221q-234 0 -344 76t-110 200v18q0 124 110 200t344 76q227 0 334 -72.5t107 -187.5zM462 363q-71 0 -87 -47h172q-5 25 -25 36t-60 11z" />
    <glyph glyph-name="igrave" unicode="&#xec;" horiz-adv-x="444" 
d="M-99 804l214 -220h232l-97 220h-349zM406 0h-368v530h368v-530z" />
    <glyph glyph-name="iacute" unicode="&#xed;" horiz-adv-x="444" 
d="M98 584h232l214 220h-349zM406 0h-368v530h368v-530z" />
    <glyph glyph-name="icircumflex" unicode="&#xee;" horiz-adv-x="444" 
d="M367 804h-291l-194 -220h270l70 76l68 -76h270zM406 0h-368v530h368v-530z" />
    <glyph glyph-name="idieresis" unicode="&#xef;" horiz-adv-x="444" 
d="M210 690q0 58 -39 92t-114 34q-74 0 -113 -34t-39 -92q0 -54 39 -86.5t113 -32.5t113.5 32.5t39.5 86.5zM539 690q0 59 -38.5 92.5t-113.5 33.5t-114 -33.5t-39 -92.5q0 -54 39 -86.5t114 -32.5q74 0 113 32.5t39 86.5zM406 0h-368v530h368v-530z" />
    <glyph glyph-name="eth" unicode="&#xf0;" horiz-adv-x="930" 
d="M909 730l-208 -87q94 -71 152.5 -166.5t58.5 -192.5v-9q0 -295 -452 -295q-235 0 -339.5 67.5t-104.5 180.5v7q0 103 77 166.5t223 63.5q180 0 265 -92q-45 79 -154 155l-91 -38h-266l251 106q-130 74 -295 134h516q26 -9 51 -21l50 21h266zM463 201q82 0 82 50
q0 49 -82 49t-82 -49q0 -50 82 -50z" />
    <glyph glyph-name="ntilde" unicode="&#xf1;" horiz-adv-x="929" 
d="M376 647q-18 0 -25.5 -13t-7.5 -50h-219q0 120 48 173.5t147 53.5q48 0 89.5 -11t64 -24.5t44.5 -24.5t35 -11q18 0 26 13.5t8 50.5h219q0 -120 -48 -174t-147 -54q-63 0 -112 18t-78 35.5t-44 17.5zM606 550q291 0 291 -299v-251h-369v222q0 35 -13 49t-44 14
q-64 0 -64 -56v-229h-369v530h163l126 -168q55 188 279 188z" />
    <glyph glyph-name="ograve" unicode="&#xf2;" horiz-adv-x="927" 
d="M142 804l214 -220h232l-97 220h-349zM463 -20q-229 0 -338 76t-109 201v16q0 125 109 201t338 76q230 0 339 -76t109 -201v-16q0 -125 -109 -201t-339 -76zM463 202q81 0 81 64q0 62 -81 62q-80 0 -80 -62q0 -64 80 -64z" />
    <glyph glyph-name="oacute" unicode="&#xf3;" horiz-adv-x="927" 
d="M338 584h232l214 220h-349zM463 -20q-229 0 -338 76t-109 201v16q0 125 109 201t338 76q230 0 339 -76t109 -201v-16q0 -125 -109 -201t-339 -76zM463 202q81 0 81 64q0 62 -81 62q-80 0 -80 -62q0 -64 80 -64z" />
    <glyph glyph-name="ocircumflex" unicode="&#xf4;" horiz-adv-x="927" 
d="M607 804h-291l-194 -220h270l70 76l68 -76h270zM463 -20q-229 0 -338 76t-109 201v16q0 125 109 201t338 76q230 0 339 -76t109 -201v-16q0 -125 -109 -201t-339 -76zM463 202q81 0 81 64q0 62 -81 62q-80 0 -80 -62q0 -64 80 -64z" />
    <glyph glyph-name="otilde" unicode="&#xf5;" horiz-adv-x="927" 
d="M121 584h219q0 37 7.5 50t25.5 13q15 0 44 -17.5t78 -35.5t112 -18q99 0 147 54t48 174h-219q0 -37 -8 -50.5t-26 -13.5q-13 0 -35 11t-44.5 24.5t-64 24.5t-89.5 11q-99 0 -147 -53.5t-48 -173.5zM463 -20q-229 0 -338 76t-109 201v16q0 125 109 201t338 76
q230 0 339 -76t109 -201v-16q0 -125 -109 -201t-339 -76zM463 202q81 0 81 64q0 62 -81 62q-80 0 -80 -62q0 -64 80 -64z" />
    <glyph glyph-name="odieresis" unicode="&#xf6;" horiz-adv-x="927" 
d="M450 690q0 58 -39 92t-114 34q-74 0 -113 -34t-39 -92q0 -54 39 -86.5t113 -32.5t113.5 32.5t39.5 86.5zM779 690q0 59 -38.5 92.5t-113.5 33.5t-114 -33.5t-39 -92.5q0 -54 39 -86.5t114 -32.5q74 0 113 32.5t39 86.5zM463 -20q-229 0 -338 76t-109 201v16
q0 125 109 201t338 76q230 0 339 -76t109 -201v-16q0 -125 -109 -201t-339 -76zM463 202q81 0 81 64q0 62 -81 62q-80 0 -80 -62q0 -64 80 -64z" />
    <glyph glyph-name="divide" unicode="&#xf7;" horiz-adv-x="1031" 
d="M688 626q0 102 -172 102q-173 0 -173 -102t173 -102q172 0 172 102zM124 238v251h784v-251h-784zM688 101q0 102 -172 102q-173 0 -173 -102q0 -101 173 -101q172 0 172 101z" />
    <glyph glyph-name="oslash" unicode="&#xf8;" horiz-adv-x="934" 
d="M778 594l-59 -79q199 -66 199 -242v-16q0 -125 -109.5 -201t-342.5 -76q-80 0 -140 10l-40 -54h-130l60 79q-200 66 -200 242v16q0 125 109.5 201t340.5 76q82 0 142 -10l40 54h130zM360 266q0 -24 15 -38l93 124h-10q-98 0 -98 -86zM476 178q98 0 98 88q0 21 -15 35
l-92 -123h9z" />
    <glyph glyph-name="ugrave" unicode="&#xf9;" horiz-adv-x="928" 
d="M140 804l214 -220h232l-97 220h-349zM521 302v228h369v-530h-164l-125 168q-55 -188 -279 -188q-290 0 -290 300v250h369v-222q0 -35 13 -49t45 -14q62 0 62 57z" />
    <glyph glyph-name="uacute" unicode="&#xfa;" horiz-adv-x="928" 
d="M337 584h232l214 220h-349zM521 302v228h369v-530h-164l-125 168q-55 -188 -279 -188q-290 0 -290 300v250h369v-222q0 -35 13 -49t45 -14q62 0 62 57z" />
    <glyph glyph-name="ucircumflex" unicode="&#xfb;" horiz-adv-x="928" 
d="M606 804h-291l-194 -220h270l70 76l68 -76h270zM521 302v228h369v-530h-164l-125 168q-55 -188 -279 -188q-290 0 -290 300v250h369v-222q0 -35 13 -49t45 -14q62 0 62 57z" />
    <glyph glyph-name="udieresis" unicode="&#xfc;" horiz-adv-x="928" 
d="M449 690q0 58 -39 92t-114 34q-74 0 -113 -34t-39 -92q0 -54 39 -86.5t113 -32.5t113.5 32.5t39.5 86.5zM778 690q0 59 -38.5 92.5t-113.5 33.5t-114 -33.5t-39 -92.5q0 -54 39 -86.5t114 -32.5q74 0 113 32.5t39 86.5zM521 302v228h369v-530h-164l-125 168
q-55 -188 -279 -188q-290 0 -290 300v250h369v-222q0 -35 13 -49t45 -14q62 0 62 57z" />
    <glyph glyph-name="yacute" unicode="&#xfd;" horiz-adv-x="865" 
d="M317 584h232l214 220h-349zM440 243l77 287h380l-202 -453q-45 -102 -98.5 -164t-141 -97.5t-213.5 -35.5q-115 0 -199 20v220q48 -5 88 -5q33 0 47 7t23 25l-232 483h394z" />
    <glyph glyph-name="thorn" unicode="&#xfe;" horiz-adv-x="955" 
d="M637 550q139 0 218.5 -75.5t79.5 -201.5v-16q0 -126 -79.5 -201.5t-218.5 -75.5q-159 0 -231 97v-277h-368v930h368v-277q72 97 231 97zM487 206q80 0 80 59t-80 59q-81 0 -81 -59t81 -59z" />
    <glyph glyph-name="ydieresis" unicode="&#xff;" horiz-adv-x="865" 
d="M430 690q0 58 -39 92t-114 34q-74 0 -113 -34t-39 -92q0 -54 39 -86.5t113 -32.5t113.5 32.5t39.5 86.5zM759 690q0 59 -38.5 92.5t-113.5 33.5t-114 -33.5t-39 -92.5q0 -54 39 -86.5t114 -32.5q74 0 113 32.5t39 86.5zM440 243l77 287h380l-202 -453
q-45 -102 -98.5 -164t-141 -97.5t-213.5 -35.5q-115 0 -199 20v220q48 -5 88 -5q33 0 47 7t23 25l-232 483h394z" />
    <glyph glyph-name="Amacron" unicode="&#x100;" horiz-adv-x="946" 
d="M184 784v180h575v-180h-575zM697 730l289 -730h-373l-27 77h-226l-27 -77h-373l288 730h449zM525 301l-52 164l-52 -164h104z" />
    <glyph glyph-name="amacron" unicode="&#x101;" horiz-adv-x="930" 
d="M179 584v180h575v-180h-575zM467 550q162 0 258 -35t135 -100.5t39 -170.5v-244h-164l-138 140q-30 -73 -113.5 -116.5t-216.5 -43.5q-253 0 -253 145q0 54 30.5 89t120.5 60.5t247 34.5l120 7q-3 21 -18.5 30t-50.5 9q-53 0 -69 -26h-372q8 45 34 82.5t75.5 70t135 50.5
t200.5 18zM423 169q55 0 84 19t29 43l-65 -5q-91 -8 -91 -35q0 -22 43 -22z" />
    <glyph glyph-name="Abreve" unicode="&#x102;" horiz-adv-x="946" 
d="M137 1009h237q0 -3 0.5 -7t5 -15t13.5 -19.5t29.5 -15.5t48.5 -7t48.5 6.5t29.5 16t13.5 19t5.5 15.5v7h237q0 -5 -0.5 -13t-7 -32t-17.5 -45.5t-36 -48t-59 -45.5t-89.5 -32t-124.5 -13t-124.5 12.5t-89.5 33t-59 44.5t-36 48.5t-17.5 45t-6.5 32.5zM697 730l289 -730
h-373l-27 77h-226l-27 -77h-373l288 730h449zM525 301l-52 164l-52 -164h104z" />
    <glyph glyph-name="abreve" unicode="&#x103;" horiz-adv-x="930" 
d="M137 804h236q0 -3 0.5 -7t5 -15.5t13.5 -20t28.5 -15.5t46.5 -7t46.5 6.5t28 16.5t13.5 19.5t5 16.5v6h237q0 -58 -40 -114q-81 -115 -290 -115q-68 0 -123 12.5t-88.5 33t-58.5 45t-36 48.5t-17 44.5t-6 33.5zM467 550q162 0 258 -35t135 -100.5t39 -170.5v-244h-164
l-138 140q-30 -73 -113.5 -116.5t-216.5 -43.5q-253 0 -253 145q0 54 30.5 89t120.5 60.5t247 34.5l120 7q-3 21 -18.5 30t-50.5 9q-53 0 -69 -26h-372q8 45 34 82.5t75.5 70t135 50.5t200.5 18zM423 169q55 0 84 19t29 43l-65 -5q-91 -8 -91 -35q0 -22 43 -22z" />
    <glyph glyph-name="Aogonek" unicode="&#x104;" horiz-adv-x="946" 
d="M778 -51q0 -19 49 -19q60 0 159 26v-154q-94 -21 -204 -21q-201 0 -201 116q0 60 61 103h-29l-27 77h-226l-27 -77h-373l288 730h449l289 -730q-208 -15 -208 -51zM525 301l-52 164l-52 -164h104z" />
    <glyph glyph-name="aogonek" unicode="&#x105;" horiz-adv-x="930" 
d="M899 244v-244q-209 -15 -209 -51q0 -19 50 -19q57 0 159 26v-154q-94 -21 -204 -21q-201 0 -201 116q0 54 48.5 94t143.5 56l-89 93q-30 -73 -113.5 -116.5t-216.5 -43.5q-253 0 -253 145q0 54 30.5 89t120.5 60.5t247 34.5l120 7q-3 21 -18.5 30t-50.5 9q-53 0 -69 -26
h-372q8 45 34 82.5t75.5 70t135 50.5t200.5 18q162 0 258 -35t135 -100.5t39 -170.5zM423 169q55 0 84 19t29 43l-65 -5q-91 -8 -91 -35q0 -22 43 -22z" />
    <glyph glyph-name="Cacute" unicode="&#x106;" horiz-adv-x="1055" 
d="M405 784h232l214 220h-349zM17 346v38q0 164 129 265t383 101q479 0 510 -353h-399q-17 63 -112 63q-57 0 -86.5 -25t-29.5 -66v-8q0 -41 29.5 -66t86.5 -25q95 0 112 63h399q-31 -353 -510 -353q-254 0 -383 101t-129 265z" />
    <glyph glyph-name="cacute" unicode="&#x107;" horiz-adv-x="920" 
d="M336 584h232l214 220h-349zM16 257v16q0 124 108.5 200.5t335.5 76.5q114 0 197 -18.5t134 -53.5t78 -80t36 -105h-373q-14 35 -72 35q-77 0 -77 -63t77 -63q58 0 72 35h374q-9 -60 -36.5 -105t-78 -80t-134 -53.5t-197.5 -18.5q-227 0 -335.5 76.5t-108.5 200.5z" />
    <glyph glyph-name="Ccircumflex" unicode="&#x108;" horiz-adv-x="1055" 
d="M674 1004h-291l-194 -220h270l70 76l68 -76h270zM17 346v38q0 164 129 265t383 101q479 0 510 -353h-399q-17 63 -112 63q-57 0 -86.5 -25t-29.5 -66v-8q0 -41 29.5 -66t86.5 -25q95 0 112 63h399q-31 -353 -510 -353q-254 0 -383 101t-129 265z" />
    <glyph glyph-name="ccircumflex" unicode="&#x109;" horiz-adv-x="920" 
d="M605 804h-291l-194 -220h270l70 76l68 -76h270zM16 257v16q0 124 108.5 200.5t335.5 76.5q114 0 197 -18.5t134 -53.5t78 -80t36 -105h-373q-14 35 -72 35q-77 0 -77 -63t77 -63q58 0 72 35h374q-9 -60 -36.5 -105t-78 -80t-134 -53.5t-197.5 -18.5q-227 0 -335.5 76.5
t-108.5 200.5z" />
    <glyph glyph-name="Cdotaccent" unicode="&#x10a;" horiz-adv-x="1055" 
d="M726 894q0 123 -197 123t-197 -123t197 -123t197 123zM17 346v38q0 164 129 265t383 101q479 0 510 -353h-399q-17 63 -112 63q-57 0 -86.5 -25t-29.5 -66v-8q0 -41 29.5 -66t86.5 -25q95 0 112 63h399q-31 -353 -510 -353q-254 0 -383 101t-129 265z" />
    <glyph glyph-name="cdotaccent" unicode="&#x10b;" horiz-adv-x="920" 
d="M657 694q0 123 -197 123t-197 -123t197 -123t197 123zM16 257v16q0 124 108.5 200.5t335.5 76.5q114 0 197 -18.5t134 -53.5t78 -80t36 -105h-373q-14 35 -72 35q-77 0 -77 -63t77 -63q58 0 72 35h374q-9 -60 -36.5 -105t-78 -80t-134 -53.5t-197.5 -18.5
q-227 0 -335.5 76.5t-108.5 200.5z" />
    <glyph glyph-name="Ccaron" unicode="&#x10c;" horiz-adv-x="1055" 
d="M383 784h292l194 220h-270l-70 -76l-68 76h-270zM17 346v38q0 164 129 265t383 101q479 0 510 -353h-399q-17 63 -112 63q-57 0 -86.5 -25t-29.5 -66v-8q0 -41 29.5 -66t86.5 -25q95 0 112 63h399q-31 -353 -510 -353q-254 0 -383 101t-129 265z" />
    <glyph glyph-name="ccaron" unicode="&#x10d;" horiz-adv-x="920" 
d="M314 584h292l194 220h-270l-70 -76l-68 76h-270zM16 257v16q0 124 108.5 200.5t335.5 76.5q114 0 197 -18.5t134 -53.5t78 -80t36 -105h-373q-14 35 -72 35q-77 0 -77 -63t77 -63q58 0 72 35h374q-9 -60 -36.5 -105t-78 -80t-134 -53.5t-197.5 -18.5q-227 0 -335.5 76.5
t-108.5 200.5z" />
    <glyph glyph-name="Dcaron" unicode="&#x10e;" horiz-adv-x="1038" 
d="M343 784h292l194 220h-270l-70 -76l-68 76h-270zM40 730h480q245 0 374 -99t129 -249v-34q0 -150 -129 -249t-374 -99h-480v730zM628 361v8q0 36 -31 59t-92 23h-79v-172h79q61 0 92 23t31 59z" />
    <glyph glyph-name="dcaron" unicode="&#x10f;" horiz-adv-x="1202" 
d="M1210 633q0 -105 -84 -181h-149q55 40 82 81q-54 3 -85 32.5t-31 75.5q0 49 35 79t99 30t98.5 -31t34.5 -86zM548 453v277h368v-730h-163l-117 162q-26 -85 -103.5 -133.5t-198.5 -48.5q-150 0 -232.5 75t-82.5 202v16q0 126 79.5 201.5t218.5 75.5q159 0 231 -97z
M468 205q80 0 80 60t-80 60t-80 -60t80 -60z" />
    <glyph glyph-name="Dcroat" unicode="&#x110;" horiz-adv-x="1051" 
d="M53 730h481q244 0 373.5 -99t129.5 -249v-34q0 -150 -129.5 -249t-373.5 -99h-481v289h-62v152h62v289zM644 343v44q0 104 -126 104h-79v-50h87v-152h-87v-50h79q126 0 126 104z" />
    <glyph glyph-name="dcroat" unicode="&#x111;" horiz-adv-x="962" 
d="M916 673h55v-135h-55v-538h-163l-117 162q-26 -85 -103.5 -133.5t-198.5 -48.5q-150 0 -232.5 75t-82.5 202v16q0 126 79.5 201.5t218.5 75.5q159 0 231 -97v85h-73v135h73v57h368v-57zM468 205q80 0 80 60t-80 60t-80 -60t80 -60z" />
    <glyph glyph-name="Emacron" unicode="&#x112;" horiz-adv-x="900" 
d="M162 784v180h575v-180h-575zM870 0h-830v730h824v-229h-459v-58h445v-153h-445v-59h465v-231z" />
    <glyph glyph-name="emacron" unicode="&#x113;" horiz-adv-x="927" 
d="M174 584v180h575v-180h-575zM911 290q0 -30 -4 -57h-534q12 -54 80 -54q53 0 77 22h373q-40 -221 -433 -221q-234 0 -344 76t-110 200v18q0 124 110 200t344 76q227 0 334 -72.5t107 -187.5zM462 363q-71 0 -87 -47h172q-5 25 -25 36t-60 11z" />
    <glyph glyph-name="Edotaccent" unicode="&#x116;" horiz-adv-x="900" 
d="M646 894q0 123 -197 123t-197 -123t197 -123t197 123zM870 0h-830v730h824v-229h-459v-58h445v-153h-445v-59h465v-231z" />
    <glyph glyph-name="edotaccent" unicode="&#x117;" horiz-adv-x="927" 
d="M658 694q0 123 -197 123t-197 -123t197 -123t197 123zM911 290q0 -30 -4 -57h-534q12 -54 80 -54q53 0 77 22h373q-40 -221 -433 -221q-234 0 -344 76t-110 200v18q0 124 110 200t344 76q227 0 334 -72.5t107 -187.5zM462 363q-71 0 -87 -47h172q-5 25 -25 36t-60 11z
" />
    <glyph glyph-name="Eogonek" unicode="&#x118;" horiz-adv-x="902" 
d="M870 231v-231q-205 -16 -205 -51q0 -19 50 -19q59 0 158 26v-154q-94 -21 -204 -21q-105 0 -152.5 31t-47.5 82q0 71 76 106h-505v730h824v-229h-459v-58h445v-153h-445v-59h465z" />
    <glyph glyph-name="eogonek" unicode="&#x119;" horiz-adv-x="927" 
d="M911 290q0 -30 -4 -57h-534q12 -54 80 -54q53 0 77 22h373q-29 -169 -275 -212q-99 -17 -99 -40q0 -19 49 -19q67 0 154 26v-154q-86 -21 -199 -21q-105 0 -153 30.5t-48 78.5q0 60 66 91q-197 13 -289.5 87.5t-92.5 187.5v18q0 124 110 200t344 76q227 0 334 -72.5
t107 -187.5zM462 363q-71 0 -87 -47h172q-5 25 -25 36t-60 11z" />
    <glyph glyph-name="Ecaron" unicode="&#x11a;" horiz-adv-x="900" 
d="M304 784h292l194 220h-270l-70 -76l-68 76h-270zM870 0h-830v730h824v-229h-459v-58h445v-153h-445v-59h465v-231z" />
    <glyph glyph-name="ecaron" unicode="&#x11b;" horiz-adv-x="927" 
d="M316 584h292l194 220h-270l-70 -76l-68 76h-270zM911 290q0 -30 -4 -57h-534q12 -54 80 -54q53 0 77 22h373q-40 -221 -433 -221q-234 0 -344 76t-110 200v18q0 124 110 200t344 76q227 0 334 -72.5t107 -187.5zM462 363q-71 0 -87 -47h172q-5 25 -25 36t-60 11z" />
    <glyph glyph-name="Gcircumflex" unicode="&#x11c;" horiz-adv-x="1083" 
d="M678 1004h-291l-194 -220h270l70 76l68 -76h270zM657 299h-150v124h545v-423h-165l-110 203q-51 -223 -350 -223q-188 0 -299 101.5t-111 258.5v38q0 169 132 270.5t400 101.5q125 0 221.5 -24t154.5 -66t89.5 -93.5t37.5 -112.5h-409q-23 39 -106 39q-127 0 -127 -124
v-8q0 -62 30.5 -92t95.5 -30q56 0 85.5 17.5t35.5 42.5z" />
    <glyph glyph-name="gcircumflex" unicode="&#x11d;" horiz-adv-x="959" 
d="M541 584l-68 76l-71 -76h-269l194 220h291l193 -220h-270zM959 -1q0 -39 -13 -70t-47.5 -59.5t-90 -48t-144 -31t-206.5 -11.5q-112 0 -193 5.5t-126.5 14.5t-72 23t-34 27.5t-7.5 32.5q0 35 35 57.5t128 29.5q-168 19 -168 121q0 46 41.5 78t146.5 45q-104 20 -145 59.5
t-41 96.5v2q0 40 18.5 70t65.5 55.5t137 39t223 13.5q137 0 230 -13.5t141 -39t67 -55.5t19 -70v-2q0 -40 -19 -69.5t-67 -55t-141 -38.5t-230 -13h-120q-46 0 -46 -19q0 -10 9.5 -14t37.5 -4h339q273 0 273 -157zM472 401q-49 0 -66.5 -8t-17.5 -23q0 -30 84 -30
q85 0 85 30q0 15 -17.5 23t-67.5 8zM481 -74q79 0 121.5 4t51.5 9.5t9 13.5t-7.5 12.5t-42 8t-100.5 3.5q-82 0 -125 -4t-52 -9t-9 -13t8 -12.5t43.5 -8.5t102.5 -4z" />
    <glyph glyph-name="Gbreve" unicode="&#x11e;" horiz-adv-x="1083" 
d="M200 1009h237q0 -3 0.5 -7t5 -15t13.5 -19.5t29.5 -15.5t48.5 -7t48.5 6.5t29.5 16t13.5 19t4.5 15.5l1 7h237q0 -5 -0.5 -13t-7 -32t-17.5 -45.5t-36 -48t-59 -45.5t-89.5 -32t-124.5 -13t-124.5 12.5t-89.5 33t-59 44.5t-36 48.5t-17.5 45t-7.5 32.5v13zM657 299h-150
v124h545v-423h-165l-110 203q-51 -223 -350 -223q-188 0 -299 101.5t-111 258.5v38q0 169 132 270.5t400 101.5q125 0 221.5 -24t154.5 -66t89.5 -93.5t37.5 -112.5h-409q-23 39 -106 39q-127 0 -127 -124v-8q0 -62 30.5 -92t95.5 -30q56 0 85.5 17.5t35.5 42.5z" />
    <glyph glyph-name="gbreve" unicode="&#x11f;" horiz-adv-x="959" 
d="M472 575q-68 0 -123 12.5t-88.5 33t-58.5 45t-36 48.5t-17 44.5t-7 33.5v12h236q0 -3 0.5 -7t5 -15.5t13.5 -20t28.5 -15.5t46.5 -7q43 0 66.5 16.5t25.5 32.5l2 16h236q0 -58 -40 -114q-81 -115 -290 -115zM959 -1q0 -39 -13 -70t-47.5 -59.5t-90 -48t-144 -31
t-206.5 -11.5q-112 0 -193 5.5t-126.5 14.5t-72 23t-34 27.5t-7.5 32.5q0 35 35 57.5t128 29.5q-168 19 -168 121q0 46 41.5 78t146.5 45q-104 20 -145 59.5t-41 96.5v2q0 40 18.5 70t65.5 55.5t137 39t223 13.5q137 0 230 -13.5t141 -39t67 -55.5t19 -70v-2
q0 -40 -19 -69.5t-67 -55t-141 -38.5t-230 -13h-120q-46 0 -46 -19q0 -10 9.5 -14t37.5 -4h339q273 0 273 -157zM472 401q-49 0 -66.5 -8t-17.5 -23q0 -30 84 -30q85 0 85 30q0 15 -17.5 23t-67.5 8zM481 -74q79 0 121.5 4t51.5 9.5t9 13.5t-7.5 12.5t-42 8t-100.5 3.5
q-82 0 -125 -4t-52 -9t-9 -13t8 -12.5t43.5 -8.5t102.5 -4z" />
    <glyph glyph-name="Gdotaccent" unicode="&#x120;" horiz-adv-x="1083" 
d="M731 894q0 123 -197 123t-197 -123t197 -123t197 123zM657 299h-150v124h545v-423h-165l-110 203q-51 -223 -350 -223q-188 0 -299 101.5t-111 258.5v38q0 169 132 270.5t400 101.5q125 0 221.5 -24t154.5 -66t89.5 -93.5t37.5 -112.5h-409q-23 39 -106 39
q-127 0 -127 -124v-8q0 -62 30.5 -92t95.5 -30q56 0 85.5 17.5t35.5 42.5z" />
    <glyph glyph-name="gdotaccent" unicode="&#x121;" horiz-adv-x="959" 
d="M646 694q0 123 -198 123q-196 0 -196 -123t196 -123q198 0 198 123zM20 90q0 46 41.5 78t146.5 45q-104 20 -145 59.5t-41 96.5v2q0 40 18.5 70t65.5 55.5t137 39t223 13.5q114 0 193 -9q4 113 53.5 172.5t131.5 59.5q42 0 79 -10v-223q-60 10 -89 10q-48 0 -57 -31
q146 -40 146 -147v-2q0 -40 -19 -69.5t-67 -55t-141 -38.5t-230 -13h-120q-46 0 -46 -19q0 -10 9.5 -14t37.5 -4h339q273 0 273 -157q0 -39 -13 -70t-47.5 -59.5t-90 -48t-144 -31t-206.5 -11.5q-112 0 -193 5.5t-126.5 14.5t-72 23t-34 27.5t-7.5 32.5q0 35 35 57.5
t128 29.5q-168 19 -168 121zM388 370q0 -30 84 -30q85 0 85 30q0 15 -17.5 23t-67.5 8q-49 0 -66.5 -8t-17.5 -23zM379 -62q48 -4 64.5 -3.5t97.5 6.5q109 7 99 17q-4 3 -27 7q-45 5 -66.5 5t-96.5 -6q-107 -6 -99 -18q3 -4 28 -8z" />
    <glyph glyph-name="uni0122" unicode="&#x122;" horiz-adv-x="1083" 
d="M657 299h-150v124h545v-423h-165l-110 203q-51 -223 -350 -223q-188 0 -299 101.5t-111 258.5v38q0 169 132 270.5t400 101.5q125 0 221.5 -24t154.5 -66t89.5 -93.5t37.5 -112.5h-409q-23 39 -106 39q-127 0 -127 -124v-8q0 -62 30.5 -92t95.5 -30q56 0 85.5 17.5
t35.5 42.5zM525 -255q-96 0 -141.5 30t-45.5 77q0 49 47 79t150 30q197 0 197 -116q0 -107 -114 -181h-215q83 41 122 81z" />
    <glyph glyph-name="uni0123" unicode="&#x123;" horiz-adv-x="959" 
d="M458 792q96 -1 141.5 -31t45.5 -77q0 -48 -47.5 -78.5t-149.5 -30.5q-197 0 -197 117q0 107 114 181h215q-84 -43 -122 -81zM20 90q0 46 41.5 78t146.5 45q-104 20 -145 59.5t-41 96.5v2q0 40 18.5 70t65.5 55.5t137 39t223 13.5q114 0 193 -9q4 113 53.5 172.5
t131.5 59.5q42 0 79 -10v-223q-60 10 -89 10q-48 0 -57 -31q146 -40 146 -147v-2q0 -40 -19 -69.5t-67 -55t-141 -38.5t-230 -13h-120q-46 0 -46 -19q0 -10 9.5 -14t37.5 -4h339q273 0 273 -157q0 -39 -13 -70t-47.5 -59.5t-90 -48t-144 -31t-206.5 -11.5q-112 0 -193 5.5
t-126.5 14.5t-72 23t-34 27.5t-7.5 32.5q0 35 35 57.5t128 29.5q-168 19 -168 121zM388 370q0 -30 84 -30q85 0 85 30q0 15 -17.5 23t-67.5 8q-49 0 -66.5 -8t-17.5 -23zM379 -62q48 -4 64.5 -3.5t97.5 6.5q109 7 99 17q-4 3 -27 7q-45 5 -66.5 5t-96.5 -6q-107 -6 -99 -18
q3 -4 28 -8z" />
    <glyph glyph-name="Hcircumflex" unicode="&#x124;" horiz-adv-x="1024" 
d="M657 1004h-291l-194 -220h270l70 76l68 -76h270zM597 504v226h387v-730h-387v226h-170v-226h-387v730h387v-226h170z" />
    <glyph glyph-name="hcircumflex" unicode="&#x125;" horiz-adv-x="928" 
d="M534 784l-68 76l-70 -76h-270l194 220h291l193 -220h-270zM631 550q129 0 197 -74.5t68 -224.5v-251h-369v222q0 35 -13 49t-44 14q-64 0 -64 -56v-229h-368v730h368v-302q70 122 225 122z" />
    <glyph glyph-name="Hbar" unicode="&#x126;" horiz-adv-x="1051" 
d="M998 673h61v-140h-61v-533h-388v226h-169v-226h-388v533h-62v140h62v57h388v-57h169v57h388v-57zM441 478h169v55h-169v-55z" />
    <glyph glyph-name="hbar" unicode="&#x127;" horiz-adv-x="940" 
d="M643 550q129 0 197 -74.5t68 -224.5v-251h-369v222q0 35 -13.5 49t-44.5 14q-63 0 -63 -56v-229h-368v538h-58v135h58v57h368v-57h70v-135h-70v-110q69 122 225 122z" />
    <glyph glyph-name="Itilde" unicode="&#x128;" horiz-adv-x="471" 
d="M-106 784h219q0 37 7.5 50t25.5 13q15 0 44 -17.5t78 -35.5t112 -18q99 0 147 54t48 174h-219q0 -37 -8 -50.5t-26 -13.5q-13 0 -35 11t-44.5 24.5t-64 24.5t-89.5 11q-99 0 -147 -53.5t-48 -173.5zM431 730v-730h-391v730h391z" />
    <glyph glyph-name="itilde" unicode="&#x129;" horiz-adv-x="444" 
d="M-119 584h219q0 37 7.5 50t25.5 13q15 0 44 -17.5t78 -35.5t112 -18q99 0 147 54t48 174h-219q0 -37 -8 -50.5t-26 -13.5q-13 0 -35 11t-44.5 24.5t-64 24.5t-89.5 11q-99 0 -147 -53.5t-48 -173.5zM406 0h-368v530h368v-530z" />
    <glyph glyph-name="Imacron" unicode="&#x12a;" horiz-adv-x="471" 
d="M-52 784v180h575v-180h-575zM431 730v-730h-391v730h391z" />
    <glyph glyph-name="imacron" unicode="&#x12b;" horiz-adv-x="444" 
d="M-65 584v180h575v-180h-575zM406 0h-368v530h368v-530z" />
    <glyph glyph-name="Iogonek" unicode="&#x12e;" horiz-adv-x="471" 
d="M26 -103q0 65 72 103h-58v730h391v-730q-209 -15 -209 -51q0 -19 50 -19q57 0 159 26v-154q-94 -21 -204 -21q-201 0 -201 116z" />
    <glyph glyph-name="iogonek" unicode="&#x12f;" horiz-adv-x="444" 
d="M222 817q-196 0 -196 -123t196 -123q198 0 198 123t-198 123zM2 -103q0 66 74 104h-38v529h368v-530q-208 -15 -208 -51q0 -19 49 -19q60 0 159 26v-154q-94 -21 -204 -21q-200 0 -200 116z" />
    <glyph glyph-name="Idotaccent" unicode="&#x130;" horiz-adv-x="471" 
d="M432 894q0 123 -197 123t-197 -123t197 -123t197 123zM431 730v-730h-391v730h391z" />
    <glyph glyph-name="dotlessi" unicode="&#x131;" horiz-adv-x="444" 
d="M406 0h-368v530h368v-530z" />
    <glyph glyph-name="IJ" unicode="&#x132;" horiz-adv-x="1401" 
d="M431 730v-730h-391v730h391zM472 333h388q2 -31 16 -44.5t45 -13.5q59 0 59 50v120h-465v285h850v-420q0 -330 -443 -330q-232 0 -338 88.5t-112 264.5z" />
    <glyph glyph-name="ij" unicode="&#x133;" horiz-adv-x="894" 
d="M420 694q0 123 -197 123t-197 -123t197 -123t197 123zM869 694q0 123 -198 123q-196 0 -196 -123t196 -123q198 0 198 123zM406 0h-368v530h368v-530zM487 530h369v-465q0 -143 -82 -214t-261 -71q-90 0 -185 13v175q52 -4 81 -4q46 0 62 14.5t16 54.5v497z" />
    <glyph glyph-name="Jcircumflex" unicode="&#x134;" horiz-adv-x="953" 
d="M622 1004h-291l-194 -220h270l70 76l68 -76h270zM1 338h385q1 -33 17.5 -48t54.5 -15q73 0 73 56v114h-486v285h871v-412q0 -161 -111 -249.5t-346 -88.5q-239 0 -346 89t-112 269z" />
    <glyph glyph-name="jcircumflex" unicode="&#x135;" horiz-adv-x="450" 
d="M372 804h-291l-194 -220h270l70 76l68 -76h270zM43 530h369v-465q0 -143 -82 -214t-261 -71q-90 0 -185 13v175q52 -4 81 -4q46 0 62 14.5t16 54.5v497z" />
    <glyph glyph-name="uni0136" unicode="&#x136;" horiz-adv-x="1019" 
d="M1043 0h-432l-140 249l-59 -62v-187h-372v730h372v-241l186 241h438l-239 -311zM494 -255q-96 0 -141.5 30t-45.5 77q0 49 47 79t150 30q197 0 197 -116q0 -107 -114 -181h-215q83 41 122 81z" />
    <glyph glyph-name="uni0137" unicode="&#x137;" horiz-adv-x="925" 
d="M945 0h-411l-96 188l-38 -47v-141h-362v730h362v-387l120 187h421l-168 -232zM452 -255q-96 0 -141.5 30t-45.5 77q0 49 47 79t150 30q197 0 197 -116q0 -107 -114 -181h-215q83 41 122 81z" />
    <glyph glyph-name="Lacute" unicode="&#x139;" horiz-adv-x="789" 
d="M110 784h232l214 220h-349zM772 0h-732v730h392v-430h340v-300z" />
    <glyph glyph-name="lacute" unicode="&#x13a;" horiz-adv-x="452" 
d="M101 784h232l214 220h-349zM414 730v-730h-376v730h376z" />
    <glyph glyph-name="uni013B" unicode="&#x13b;" horiz-adv-x="789" 
d="M772 0h-732v730h392v-430h340v-300zM392 -255q-96 0 -141.5 30t-45.5 77q0 49 47 79t150 30q197 0 197 -116q0 -107 -114 -181h-215q83 41 122 81z" />
    <glyph glyph-name="uni013C" unicode="&#x13c;" horiz-adv-x="452" 
d="M414 730v-730h-376v730h376zM215 -255q-96 0 -141.5 30t-45.5 77q0 49 47 79t150 30q197 0 197 -116q0 -107 -114 -181h-215q83 41 122 81z" />
    <glyph glyph-name="Lcaron" unicode="&#x13d;" horiz-adv-x="789" 
d="M633 750q65 0 100 -31t35 -86q0 -105 -84 -181h-149q56 42 82 81q-56 3 -87.5 32.5t-31.5 75.5q0 49 35.5 79t99.5 30zM772 0h-732v730h392v-430h340v-300z" />
    <glyph glyph-name="lcaron" unicode="&#x13e;" horiz-adv-x="702" 
d="M710 633q0 -105 -84 -181h-149q56 42 82 81q-54 3 -85 32.5t-31 75.5q0 49 35 79t99 30t98.5 -31t34.5 -86zM414 0h-376v730h376v-730z" />
    <glyph glyph-name="Ldot" unicode="&#x13f;" horiz-adv-x="789" 
d="M772 0h-732v730h392v-430h340v-300zM767 502q0 74 -35.5 112.5t-101.5 38.5q-65 0 -100.5 -38.5t-35.5 -112.5q0 -77 35 -115.5t101 -38.5q137 0 137 154z" />
    <glyph glyph-name="ldot" unicode="&#x140;" horiz-adv-x="788" 
d="M414 730v-730h-376v730h376zM787 365q0 72 -42.5 111.5t-124.5 39.5t-124.5 -39.5t-42.5 -111.5q0 -74 42.5 -114t124.5 -40t124.5 40t42.5 114z" />
    <glyph glyph-name="Lslash" unicode="&#x141;" horiz-adv-x="799" 
d="M441 375v-78h340v-297h-732v269l-56 -17v143l56 16v319h392v-213l148 43v-142z" />
    <glyph glyph-name="lslash" unicode="&#x142;" horiz-adv-x="478" 
d="M424 484l61 17v-141l-61 -17v-343h-375v245l-55 -16v141l55 16v344h375v-246z" />
    <glyph glyph-name="Nacute" unicode="&#x143;" horiz-adv-x="1034" 
d="M396 784h232l214 220h-349zM636 434v296h358v-730h-359l-237 313v-313h-358v730h380z" />
    <glyph glyph-name="nacute" unicode="&#x144;" horiz-adv-x="929" 
d="M340 584h232l214 220h-349zM606 550q291 0 291 -299v-251h-369v222q0 35 -13 49t-44 14q-64 0 -64 -56v-229h-369v530h163l126 -168q55 188 279 188z" />
    <glyph glyph-name="uni0145" unicode="&#x145;" horiz-adv-x="1034" 
d="M636 434v296h358v-730h-359l-237 313v-313h-358v730h380zM506 -255q-96 0 -141.5 30t-45.5 77q0 49 47 79t150 30q197 0 197 -116q0 -107 -114 -181h-215q83 41 122 81z" />
    <glyph glyph-name="uni0146" unicode="&#x146;" horiz-adv-x="929" 
d="M606 550q291 0 291 -299v-251h-369v222q0 35 -13 49t-44 14q-64 0 -64 -56v-229h-369v530h163l126 -168q55 188 279 188zM456 -255q-96 0 -141.5 30t-45.5 77q0 49 47 79t150 30q197 0 197 -116q0 -107 -114 -181h-215q83 41 122 81z" />
    <glyph glyph-name="Ncaron" unicode="&#x147;" horiz-adv-x="1034" 
d="M375 784h292l194 220h-270l-70 -76l-68 76h-270zM636 434v296h358v-730h-359l-237 313v-313h-358v730h380z" />
    <glyph glyph-name="ncaron" unicode="&#x148;" horiz-adv-x="929" 
d="M319 584h292l194 220h-270l-70 -76l-68 76h-270zM606 550q291 0 291 -299v-251h-369v222q0 35 -13 49t-44 14q-64 0 -64 -56v-229h-369v530h163l126 -168q55 188 279 188z" />
    <glyph glyph-name="Eng" unicode="&#x14a;" horiz-adv-x="1034" 
d="M398 0h-358v730h380l216 -296v296h358v-646q0 -157 -80.5 -230.5t-259.5 -73.5q-94 0 -187 13v175q62 -4 88 -4q40 0 55 10t15 35v3l-227 302v-314z" />
    <glyph glyph-name="eng" unicode="&#x14b;" horiz-adv-x="929" 
d="M407 0h-369v530h163l126 -168q55 188 279 188q291 0 291 -299v-186q0 -143 -81.5 -214t-260.5 -71q-92 0 -185 13v174q64 -4 87 -4q42 0 56.5 14t14.5 56v189q0 35 -13 49t-44 14q-64 0 -64 -56v-229z" />
    <glyph glyph-name="Omacron" unicode="&#x14c;" horiz-adv-x="1061" 
d="M243 784v180h575v-180h-575zM530 -20q-254 0 -383.5 101t-129.5 265v38q0 164 129.5 265t383.5 101q255 0 384.5 -101t129.5 -265v-38q0 -164 -129.5 -265t-384.5 -101zM530 270q59 0 89 25t30 66v8q0 41 -30 66t-89 25t-88.5 -24.5t-29.5 -66.5v-8q0 -42 29.5 -66.5
t88.5 -24.5z" />
    <glyph glyph-name="omacron" unicode="&#x14d;" horiz-adv-x="927" 
d="M175 584v180h575v-180h-575zM463 -20q-229 0 -338 76t-109 201v16q0 125 109 201t338 76q230 0 339 -76t109 -201v-16q0 -125 -109 -201t-339 -76zM463 202q81 0 81 64q0 62 -81 62q-80 0 -80 -62q0 -64 80 -64z" />
    <glyph glyph-name="Ohungarumlaut" unicode="&#x150;" horiz-adv-x="1061" 
d="M241 784h210l222 220h-315zM572 784h210l222 220h-315zM530 -20q-254 0 -383.5 101t-129.5 265v38q0 164 129.5 265t383.5 101q255 0 384.5 -101t129.5 -265v-38q0 -164 -129.5 -265t-384.5 -101zM530 270q59 0 89 25t30 66v8q0 41 -30 66t-89 25t-88.5 -24.5
t-29.5 -66.5v-8q0 -42 29.5 -66.5t88.5 -24.5z" />
    <glyph glyph-name="ohungarumlaut" unicode="&#x151;" horiz-adv-x="927" 
d="M173 584h210l222 220h-315zM504 584h210l222 220h-315zM463 -20q-229 0 -338 76t-109 201v16q0 125 109 201t338 76q230 0 339 -76t109 -201v-16q0 -125 -109 -201t-339 -76zM463 202q81 0 81 64q0 62 -81 62q-80 0 -80 -62q0 -64 80 -64z" />
    <glyph glyph-name="OE" unicode="&#x152;" horiz-adv-x="1527" 
d="M1035 290v-59h462v-231h-826v85q-94 -105 -271 -105q-169 0 -276 104t-107 262v38q0 158 107 262t276 104q177 0 271 -105v85h820v-229h-456v-58h442v-153h-442zM530 270q59 0 89 25t30 66v8q0 41 -30 66t-89 25t-88.5 -24.5t-29.5 -66.5v-8q0 -42 29.5 -66.5t88.5 -24.5
z" />
    <glyph glyph-name="oe" unicode="&#x153;" horiz-adv-x="1471" 
d="M999 179q51 0 75 22h374q-17 -98 -109 -159.5t-272 -61.5q-231 0 -337 113q-110 -113 -329 -113q-189 0 -287 77t-98 200v16q0 123 98 200t287 77q219 0 329 -113q106 113 338 113q193 0 290.5 -73t97.5 -187q0 -32 -5 -57h-533q12 -54 81 -54zM1006 362q-71 0 -86 -46
h172q-6 24 -26 35t-60 11zM463 202q81 0 81 64q0 62 -81 62q-80 0 -80 -62q0 -64 80 -64z" />
    <glyph glyph-name="Racute" unicode="&#x154;" horiz-adv-x="995" 
d="M353 784h232l214 220h-349zM959 123v-32q0 -62 26 -91h-404q-30 30 -30 91v74q0 27 -9.5 37t-33.5 10h-102v-212h-366v730h553q202 0 293 -60.5t91 -162.5q0 -88 -61 -136t-153 -63v-2q108 -10 152 -51t44 -132zM406 402h134q60 0 60 39t-60 39h-134v-78z" />
    <glyph glyph-name="racute" unicode="&#x155;" horiz-adv-x="686" 
d="M227 584h232l214 220h-349zM536 550q63 0 129 -11v-314q-89 7 -145 7q-65 0 -88.5 -21.5t-23.5 -79.5v-131h-370v530h164l135 -165q36 185 199 185z" />
    <glyph glyph-name="uni0156" unicode="&#x156;" horiz-adv-x="995" 
d="M959 123v-32q0 -62 26 -91h-404q-30 30 -30 91v74q0 27 -9.5 37t-33.5 10h-102v-212h-366v730h553q202 0 293 -60.5t91 -162.5q0 -88 -61 -136t-153 -63v-2q108 -10 152 -51t44 -132zM406 402h134q60 0 60 39t-60 39h-134v-78zM493 -255q-96 0 -141.5 30t-45.5 77
q0 49 47 79t150 30q197 0 197 -116q0 -107 -114 -181h-215q83 41 122 81z" />
    <glyph glyph-name="uni0157" unicode="&#x157;" horiz-adv-x="686" 
d="M536 550q63 0 129 -11v-314q-89 7 -145 7q-65 0 -88.5 -21.5t-23.5 -79.5v-131h-370v530h164l135 -165q36 185 199 185zM212 -255q-96 0 -141.5 30t-45.5 77q0 49 47 79t150 30q197 0 197 -116q0 -107 -114 -181h-215q83 41 122 81z" />
    <glyph glyph-name="Rcaron" unicode="&#x158;" horiz-adv-x="995" 
d="M331 784h292l194 220h-270l-70 -76l-68 76h-270zM959 123v-32q0 -62 26 -91h-404q-30 30 -30 91v74q0 27 -9.5 37t-33.5 10h-102v-212h-366v730h553q202 0 293 -60.5t91 -162.5q0 -88 -61 -136t-153 -63v-2q108 -10 152 -51t44 -132zM406 402h134q60 0 60 39t-60 39h-134
v-78z" />
    <glyph glyph-name="rcaron" unicode="&#x159;" horiz-adv-x="686" 
d="M205 584h292l194 220h-270l-70 -76l-68 76h-270zM536 550q63 0 129 -11v-314q-89 7 -145 7q-65 0 -88.5 -21.5t-23.5 -79.5v-131h-370v530h164l135 -165q36 185 199 185z" />
    <glyph glyph-name="Sacute" unicode="&#x15a;" horiz-adv-x="1036" 
d="M388 784h232l214 220h-349zM10 262h402q9 -47 112 -47t103 31q0 8 -7 14t-37.5 12.5t-86.5 9.5q-145 7 -240.5 24.5t-145.5 48t-69 66.5t-19 88q0 51 24 92.5t77 76t149 53.5t228 19t231 -22.5t156 -62.5t85.5 -88.5t32.5 -107.5h-400q-11 46 -104 46q-96 0 -96 -30
q0 -9 7.5 -15t37.5 -12.5t86 -10.5q122 -6 208.5 -19t140.5 -31.5t85 -46t42 -57.5t11 -72q0 -40 -14.5 -74t-50.5 -65.5t-91.5 -53.5t-143 -35t-198.5 -13q-501 0 -515 282z" />
    <glyph glyph-name="sacute" unicode="&#x15b;" horiz-adv-x="903" 
d="M320 584h232l214 220h-349zM5 188h375q10 -29 79 -29q72 0 72 23q0 7 -6 11t-32 8.5t-75 6.5q-125 4 -208 16.5t-125 35.5t-57.5 48.5t-15.5 62.5q0 29 11.5 53.5t41.5 48t77 40.5t123 27t174 10q423 0 444 -207h-369q-7 28 -73 28q-68 0 -68 -22q0 -8 6 -12t31.5 -8
t75.5 -6q125 -3 208.5 -16t126 -36t59 -49.5t16.5 -63.5q0 -36 -20.5 -65.5t-67 -56t-135 -41.5t-212.5 -15q-103 0 -181.5 11t-128.5 29t-82 45.5t-46 57t-18 65.5z" />
    <glyph glyph-name="Scircumflex" unicode="&#x15c;" horiz-adv-x="1036" 
d="M657 1004h-291l-194 -220h270l70 76l68 -76h270zM10 262h402q9 -47 112 -47t103 31q0 8 -7 14t-37.5 12.5t-86.5 9.5q-145 7 -240.5 24.5t-145.5 48t-69 66.5t-19 88q0 51 24 92.5t77 76t149 53.5t228 19t231 -22.5t156 -62.5t85.5 -88.5t32.5 -107.5h-400
q-11 46 -104 46q-96 0 -96 -30q0 -9 7.5 -15t37.5 -12.5t86 -10.5q122 -6 208.5 -19t140.5 -31.5t85 -46t42 -57.5t11 -72q0 -40 -14.5 -74t-50.5 -65.5t-91.5 -53.5t-143 -35t-198.5 -13q-501 0 -515 282z" />
    <glyph glyph-name="scircumflex" unicode="&#x15d;" horiz-adv-x="903" 
d="M589 804h-291l-194 -220h270l70 76l68 -76h270zM5 188h375q10 -29 79 -29q72 0 72 23q0 7 -6 11t-32 8.5t-75 6.5q-125 4 -208 16.5t-125 35.5t-57.5 48.5t-15.5 62.5q0 29 11.5 53.5t41.5 48t77 40.5t123 27t174 10q423 0 444 -207h-369q-7 28 -73 28q-68 0 -68 -22
q0 -8 6 -12t31.5 -8t75.5 -6q125 -3 208.5 -16t126 -36t59 -49.5t16.5 -63.5q0 -36 -20.5 -65.5t-67 -56t-135 -41.5t-212.5 -15q-103 0 -181.5 11t-128.5 29t-82 45.5t-46 57t-18 65.5z" />
    <glyph glyph-name="Scedilla" unicode="&#x15e;" horiz-adv-x="1036" 
d="M1023 221q0 -48 -23 -88.5t-73 -74.5t-140 -54.5t-213 -23.5l-33 -23q30 10 82 10q73 0 109 -25.5t36 -64.5q0 -45 -53.5 -70.5t-194.5 -25.5q-238 0 -242 102h201q5 -12 48 -12q47 0 47 16q0 15 -46 15q-31 0 -53 -11l-166 51l58 48q-185 21 -268 91.5t-89 180.5h402
q9 -47 112 -47t103 31q0 8 -7 14t-37.5 12.5t-86.5 9.5q-145 7 -240.5 24.5t-145.5 48t-69 66.5t-19 88q0 51 24 92.5t77 76t149 53.5t228 19t231 -22.5t156 -62.5t85.5 -88.5t32.5 -107.5h-400q-11 46 -104 46q-96 0 -96 -30q0 -9 7.5 -15t37.5 -12.5t86 -10.5
q122 -6 208.5 -19t140.5 -31.5t85 -46t42 -57.5t11 -72z" />
    <glyph glyph-name="scedilla" unicode="&#x15f;" horiz-adv-x="903" 
d="M896 158q0 -34 -18.5 -62.5t-60.5 -54.5t-120.5 -42t-188.5 -19l-34 -23q31 10 83 10q73 0 109 -25.5t36 -64.5q0 -45 -54 -70.5t-194 -25.5q-238 0 -242 102h201q5 -12 47 -12q48 0 48 16q0 15 -46 15q-33 0 -53 -11l-166 51l55 46q-106 12 -171.5 43t-91 68.5
t-30.5 88.5h375q10 -29 79 -29q72 0 72 23q0 7 -6 11t-32 8.5t-75 6.5q-125 4 -208 16.5t-125 35.5t-57.5 48.5t-15.5 62.5q0 29 11.5 53.5t41.5 48t77 40.5t123 27t174 10q423 0 444 -207h-369q-7 28 -73 28q-68 0 -68 -22q0 -8 6 -12t31.5 -8t74.5 -6q126 -3 209.5 -16
t126 -36t59 -49.5t16.5 -63.5z" />
    <glyph glyph-name="Scaron" unicode="&#x160;" horiz-adv-x="1036" 
d="M367 784h292l194 220h-270l-70 -76l-68 76h-270zM10 262h402q9 -47 112 -47t103 31q0 8 -7 14t-37.5 12.5t-86.5 9.5q-145 7 -240.5 24.5t-145.5 48t-69 66.5t-19 88q0 51 24 92.5t77 76t149 53.5t228 19t231 -22.5t156 -62.5t85.5 -88.5t32.5 -107.5h-400
q-11 46 -104 46q-96 0 -96 -30q0 -9 7.5 -15t37.5 -12.5t86 -10.5q122 -6 208.5 -19t140.5 -31.5t85 -46t42 -57.5t11 -72q0 -40 -14.5 -74t-50.5 -65.5t-91.5 -53.5t-143 -35t-198.5 -13q-501 0 -515 282z" />
    <glyph glyph-name="scaron" unicode="&#x161;" horiz-adv-x="903" 
d="M299 584h292l194 220h-270l-70 -76l-68 76h-270zM5 188h375q10 -29 79 -29q72 0 72 23q0 7 -6 11t-32 8.5t-75 6.5q-125 4 -208 16.5t-125 35.5t-57.5 48.5t-15.5 62.5q0 29 11.5 53.5t41.5 48t77 40.5t123 27t174 10q423 0 444 -207h-369q-7 28 -73 28q-68 0 -68 -22
q0 -8 6 -12t31.5 -8t75.5 -6q125 -3 208.5 -16t126 -36t59 -49.5t16.5 -63.5q0 -36 -20.5 -65.5t-67 -56t-135 -41.5t-212.5 -15q-103 0 -181.5 11t-128.5 29t-82 45.5t-46 57t-18 65.5z" />
    <glyph glyph-name="uni0162" unicode="&#x162;" horiz-adv-x="966" 
d="M289 434h-269v296h926v-296h-267v-434l-62 -43q30 10 82 10q73 0 109 -25.5t36 -64.5q0 -45 -53.5 -70.5t-193.5 -25.5q-239 0 -243 102h201q5 -12 48 -12q47 0 47 16q0 15 -46 15q-31 0 -53 -11l-166 51l71 58h-167v434z" />
    <glyph glyph-name="uni0163" unicode="&#x163;" horiz-adv-x="790" 
d="M573 -33q73 0 109 -25.5t36 -64.5q0 -45 -54 -70.5t-194 -25.5q-238 0 -242 102h201q5 -12 47 -12q48 0 48 16q0 15 -46 15q-33 0 -53 -11l-166 51l66 55q-97 23 -135 84.5t-38 179.5v45h-142v224h170l110 165h218v-165h253v-224h-253v-29q0 -39 14.5 -51.5t62.5 -12.5
q95 0 176 12v-225q-110 -20 -238 -20l-33 -23q31 10 83 10z" />
    <glyph glyph-name="Tcaron" unicode="&#x164;" horiz-adv-x="966" 
d="M337 784h292l194 220h-270l-70 -76l-68 76h-270zM289 434h-269v296h926v-296h-267v-434h-390v434z" />
    <glyph glyph-name="tcaron" unicode="&#x165;" horiz-adv-x="790" 
d="M804 747q0 -105 -84 -181h-149q54 39 82 81q-56 3 -87.5 32t-31.5 75q0 49 35.5 79t99.5 30q65 0 100 -31t35 -85zM290 695h218v-165h253v-226h-253v-27q0 -40 16.5 -52t72.5 -12q74 0 164 10v-223q-130 -20 -247 -20q-145 0 -223 28t-108.5 87t-30.5 166v43h-142v226
h170z" />
    <glyph glyph-name="Tbar" unicode="&#x166;" horiz-adv-x="976" 
d="M951 730v-296h-267v-69h181v-218h-181v-147h-390v147h-181v218h181v69h-269v296h926z" />
    <glyph glyph-name="tbar" unicode="&#x167;" horiz-adv-x="794" 
d="M763 530v-168h-253v-36h223v-101h-223v-2q0 -20 16.5 -28.5t68.5 -8.5q77 0 169 10v-196q-130 -20 -247 -20q-200 0 -277.5 54t-83.5 190v1h-117v101h116v36h-142v168h169l111 165h217v-165h253z" />
    <glyph glyph-name="Utilde" unicode="&#x168;" horiz-adv-x="1009" 
d="M162 784h219q0 37 7.5 50t25.5 13q15 0 44 -17.5t78 -35.5t112 -18q99 0 147 54t48 174h-219q0 -37 -8 -50.5t-26 -13.5q-13 0 -35 11t-44.5 24.5t-64 24.5t-89.5 11q-99 0 -147 -53.5t-48 -173.5zM35 327v403h388v-376q0 -38 19.5 -56t61.5 -18q83 0 83 74v376h387v-403
q0 -161 -117 -254t-353 -93t-352.5 93t-116.5 254z" />
    <glyph glyph-name="utilde" unicode="&#x169;" horiz-adv-x="928" 
d="M120 584h219q0 37 7.5 50t25.5 13q15 0 44 -17.5t78 -35.5t112 -18q99 0 147 54t48 174h-219q0 -37 -8 -50.5t-26 -13.5q-13 0 -35 11t-44.5 24.5t-64 24.5t-89.5 11q-99 0 -147 -53.5t-48 -173.5zM521 302v228h369v-530h-164l-125 168q-55 -188 -279 -188
q-290 0 -290 300v250h369v-222q0 -35 13 -49t45 -14q62 0 62 57z" />
    <glyph glyph-name="Umacron" unicode="&#x16a;" horiz-adv-x="1009" 
d="M216 784v180h575v-180h-575zM35 327v403h388v-376q0 -38 19.5 -56t61.5 -18q83 0 83 74v376h387v-403q0 -161 -117 -254t-353 -93t-352.5 93t-116.5 254z" />
    <glyph glyph-name="umacron" unicode="&#x16b;" horiz-adv-x="928" 
d="M174 584v180h575v-180h-575zM521 302v228h369v-530h-164l-125 168q-55 -188 -279 -188q-290 0 -290 300v250h369v-222q0 -35 13 -49t45 -14q62 0 62 57z" />
    <glyph glyph-name="Ubreve" unicode="&#x16c;" horiz-adv-x="1009" 
d="M169 1009h237q0 -3 0.5 -7t5 -15t13.5 -19.5t29.5 -15.5t48.5 -7t48.5 6.5t29.5 16t13.5 19t5.5 15.5v7h237q0 -5 -0.5 -13t-7 -32t-17.5 -45.5t-36 -48t-59 -45.5t-89.5 -32t-124.5 -13t-124.5 12.5t-89.5 33t-59 44.5t-36 48.5t-17.5 45t-6.5 32.5zM35 327v403h388
v-376q0 -38 19.5 -56t61.5 -18q83 0 83 74v376h387v-403q0 -161 -117 -254t-353 -93t-352.5 93t-116.5 254z" />
    <glyph glyph-name="ubreve" unicode="&#x16d;" horiz-adv-x="928" 
d="M132 804h236q0 -3 0.5 -7t5 -15.5t13.5 -20t28.5 -15.5t46.5 -7t46.5 6.5t28 16.5t13.5 19.5t5 16.5v6h237q0 -58 -40 -114q-81 -115 -290 -115q-68 0 -123 12.5t-88.5 33t-58.5 45t-36 48.5t-17 44.5t-7 33.5v12zM521 302v228h369v-530h-164l-125 168
q-55 -188 -279 -188q-290 0 -290 300v250h369v-222q0 -35 13 -49t45 -14q62 0 62 57z" />
    <glyph glyph-name="Uring" unicode="&#x16e;" horiz-adv-x="1009" 
d="M504 775q108 0 162.5 41.5t54.5 107.5t-54.5 107.5t-162.5 41.5q-109 0 -164 -41.5t-55 -107.5t55 -107.5t164 -41.5zM504 951q33 0 33 -27q0 -28 -33 -28q-35 0 -35 28q0 27 35 27zM35 327v403h388v-376q0 -38 19.5 -56t61.5 -18q83 0 83 74v376h387v-403
q0 -161 -117 -254t-353 -93t-352.5 93t-116.5 254z" />
    <glyph glyph-name="uring" unicode="&#x16f;" horiz-adv-x="928" 
d="M462 575q108 0 162.5 41.5t54.5 107.5t-54.5 107.5t-162.5 41.5q-109 0 -164 -41.5t-55 -107.5t55 -107.5t164 -41.5zM462 751q33 0 33 -27q0 -28 -33 -28q-35 0 -35 28q0 27 35 27zM521 302v228h369v-530h-164l-125 168q-55 -188 -279 -188q-290 0 -290 300v250h369
v-222q0 -35 13 -49t45 -14q62 0 62 57z" />
    <glyph glyph-name="Uhungarumlaut" unicode="&#x170;" horiz-adv-x="1009" 
d="M214 784h210l222 220h-315zM545 784h210l222 220h-315zM35 327v403h388v-376q0 -38 19.5 -56t61.5 -18q83 0 83 74v376h387v-403q0 -161 -117 -254t-353 -93t-352.5 93t-116.5 254z" />
    <glyph glyph-name="uhungarumlaut" unicode="&#x171;" horiz-adv-x="928" 
d="M172 584h210l222 220h-315zM503 584h210l222 220h-315zM521 302v228h369v-530h-164l-125 168q-55 -188 -279 -188q-290 0 -290 300v250h369v-222q0 -35 13 -49t45 -14q62 0 62 57z" />
    <glyph glyph-name="Uogonek" unicode="&#x172;" horiz-adv-x="1009" 
d="M35 327v403h388v-376q0 -38 19.5 -56t61.5 -18q83 0 83 74v376h387v-403q0 -242 -252 -324q-105 -35 -105 -54t49 -19q60 0 159 26v-154q-94 -21 -204 -21q-105 0 -153 30.5t-48 79.5q0 54 64 90q-3 -1 -5 -1q-223 6 -333.5 99t-110.5 248z" />
    <glyph glyph-name="uogonek" unicode="&#x173;" horiz-adv-x="928" 
d="M890 530v-530q-208 -15 -208 -51q0 -19 49 -19q60 0 159 26v-154q-94 -21 -204 -21q-200 0 -200 116q0 56 51.5 96.5t151.5 55.5l-88 119q-55 -188 -279 -188q-290 0 -290 300v250h369v-222q0 -35 13 -49t45 -14q62 0 62 57v228h369z" />
    <glyph glyph-name="Wcircumflex" unicode="&#x174;" horiz-adv-x="1391" 
d="M840 1004h-291l-194 -220h270l70 76l68 -76h270zM938 387l91 343h387l-217 -730h-404l-99 329l-100 -329h-404l-217 730h387l90 -344l116 344h255z" />
    <glyph glyph-name="wcircumflex" unicode="&#x175;" horiz-adv-x="1249" 
d="M770 804h-291l-194 -220h270l70 76l68 -76h270zM844 259l49 271h375l-174 -530h-389l-80 222l-81 -222h-389l-175 530h376l49 -272l99 272h241z" />
    <glyph glyph-name="Ycircumflex" unicode="&#x176;" horiz-adv-x="926" 
d="M609 1004h-291l-194 -220h270l70 76l68 -76h270zM561 730h416l-319 -549v-181h-388v180l-320 550h416l99 -206z" />
    <glyph glyph-name="ycircumflex" unicode="&#x177;" horiz-adv-x="865" 
d="M586 804h-291l-194 -220h270l70 76l68 -76h270zM440 243l77 287h380l-202 -453q-45 -102 -98.5 -164t-141 -97.5t-213.5 -35.5q-115 0 -199 20v220q48 -5 88 -5q33 0 47 7t23 25l-232 483h394z" />
    <glyph glyph-name="Ydieresis" unicode="&#x178;" horiz-adv-x="926" 
d="M451 890q0 59 -39 92.5t-115 33.5t-115 -33.5t-39 -92.5q0 -54 39.5 -86.5t114.5 -32.5t114.5 32.5t39.5 86.5zM789 890q0 59 -39 92.5t-115 33.5t-115 -33.5t-39 -92.5q0 -54 39.5 -86.5t114.5 -32.5t114.5 32.5t39.5 86.5zM561 730h416l-319 -549v-181h-388v180
l-320 550h416l99 -206z" />
    <glyph glyph-name="Zacute" unicode="&#x179;" horiz-adv-x="929" 
d="M342 784h232l214 220h-349zM899 474l-367 -206h369v-268h-873v256l370 206h-364v268h865v-256z" />
    <glyph glyph-name="zacute" unicode="&#x17a;" horiz-adv-x="805" 
d="M279 584h232l214 220h-349zM772 334l-330 -124h331v-210h-741v197l324 123h-320v210h736v-196z" />
    <glyph glyph-name="Zdotaccent" unicode="&#x17b;" horiz-adv-x="929" 
d="M664 894q0 123 -197 123t-197 -123t197 -123t197 123zM899 474l-367 -206h369v-268h-873v256l370 206h-364v268h865v-256z" />
    <glyph glyph-name="zdotaccent" unicode="&#x17c;" horiz-adv-x="805" 
d="M600 694q0 123 -197 123t-197 -123t197 -123t197 123zM772 334l-330 -124h331v-210h-741v197l324 123h-320v210h736v-196z" />
    <glyph glyph-name="Zcaron" unicode="&#x17d;" horiz-adv-x="929" 
d="M321 784h292l194 220h-270l-70 -76l-68 76h-270zM899 474l-367 -206h369v-268h-873v256l370 206h-364v268h865v-256z" />
    <glyph glyph-name="zcaron" unicode="&#x17e;" horiz-adv-x="805" 
d="M258 584h292l194 220h-270l-70 -76l-68 76h-270zM772 334l-330 -124h331v-210h-741v197l324 123h-320v210h736v-196z" />
    <glyph glyph-name="uni018F" unicode="&#x18f;" horiz-adv-x="1071" 
d="M17 346q0 38 3 77h635q-16 70 -118 70q-85 0 -106 -39h-409q6 61 37 112.5t89 93.5t154.5 66t222.5 24q266 0 398 -101.5t132 -270.5v-38q0 -165 -129.5 -262.5t-396.5 -97.5q-514 0 -512 366zM653 302h-238q12 -66 117 -66q102 0 121 66z" />
    <glyph glyph-name="uni01CD" unicode="&#x1cd;" horiz-adv-x="946" 
d="M326 784h292l194 220h-270l-70 -76l-68 76h-270zM697 730l289 -730h-373l-27 77h-226l-27 -77h-373l288 730h449zM525 301l-52 164l-52 -164h104z" />
    <glyph glyph-name="uni01CE" unicode="&#x1ce;" horiz-adv-x="930" 
d="M320 584h292l194 220h-270l-70 -76l-68 76h-270zM467 550q162 0 258 -35t135 -100.5t39 -170.5v-244h-164l-138 140q-30 -73 -113.5 -116.5t-216.5 -43.5q-253 0 -253 145q0 54 30.5 89t120.5 60.5t247 34.5l120 7q-3 21 -18.5 30t-50.5 9q-53 0 -69 -26h-372
q8 45 34 82.5t75.5 70t135 50.5t200.5 18zM423 169q55 0 84 19t29 43l-65 -5q-91 -8 -91 -35q0 -22 43 -22z" />
    <glyph glyph-name="uni01CF" unicode="&#x1cf;" horiz-adv-x="471" 
d="M89 784h292l194 220h-270l-70 -76l-68 76h-270zM431 730v-730h-391v730h391z" />
    <glyph glyph-name="uni01D0" unicode="&#x1d0;" horiz-adv-x="444" 
d="M77 584h292l194 220h-270l-70 -76l-68 76h-270zM406 0h-368v530h368v-530z" />
    <glyph glyph-name="uni01D1" unicode="&#x1d1;" horiz-adv-x="1061" 
d="M385 784h292l194 220h-270l-70 -76l-68 76h-270zM530 -20q-254 0 -383.5 101t-129.5 265v38q0 164 129.5 265t383.5 101q255 0 384.5 -101t129.5 -265v-38q0 -164 -129.5 -265t-384.5 -101zM530 270q59 0 89 25t30 66v8q0 41 -30 66t-89 25t-88.5 -24.5t-29.5 -66.5v-8
q0 -42 29.5 -66.5t88.5 -24.5z" />
    <glyph glyph-name="uni01D2" unicode="&#x1d2;" horiz-adv-x="927" 
d="M317 584h292l194 220h-270l-70 -76l-68 76h-270zM463 -20q-229 0 -338 76t-109 201v16q0 125 109 201t338 76q230 0 339 -76t109 -201v-16q0 -125 -109 -201t-339 -76zM463 202q81 0 81 64q0 62 -81 62q-80 0 -80 -62q0 -64 80 -64z" />
    <glyph glyph-name="uni01D3" unicode="&#x1d3;" horiz-adv-x="1009" 
d="M357 784h292l194 220h-270l-70 -76l-68 76h-270zM35 327v403h388v-376q0 -38 19.5 -56t61.5 -18q83 0 83 74v376h387v-403q0 -161 -117 -254t-353 -93t-352.5 93t-116.5 254z" />
    <glyph glyph-name="uni01D4" unicode="&#x1d4;" horiz-adv-x="928" 
d="M315 584h292l194 220h-270l-70 -76l-68 76h-270zM521 302v228h369v-530h-164l-125 168q-55 -188 -279 -188q-290 0 -290 300v250h369v-222q0 -35 13 -49t45 -14q62 0 62 57z" />
    <glyph glyph-name="Gcaron" unicode="&#x1e6;" horiz-adv-x="1083" 
d="M388 784h292l194 220h-270l-70 -76l-68 76h-270zM657 299h-150v124h545v-423h-165l-110 203q-51 -223 -350 -223q-188 0 -299 101.5t-111 258.5v38q0 169 132 270.5t400 101.5q125 0 221.5 -24t154.5 -66t89.5 -93.5t37.5 -112.5h-409q-23 39 -106 39q-127 0 -127 -124
v-8q0 -62 30.5 -92t95.5 -30q56 0 85.5 17.5t35.5 42.5z" />
    <glyph glyph-name="gcaron" unicode="&#x1e7;" horiz-adv-x="959" 
d="M811 804l-194 -220h-291l-193 220h270l68 -76l71 76h269zM959 -1q0 -39 -13 -70t-47.5 -59.5t-90 -48t-144 -31t-206.5 -11.5q-112 0 -193 5.5t-126.5 14.5t-72 23t-34 27.5t-7.5 32.5q0 35 35 57.5t128 29.5q-168 19 -168 121q0 46 41.5 78t146.5 45q-104 20 -145 59.5
t-41 96.5v2q0 40 18.5 70t65.5 55.5t137 39t223 13.5q137 0 230 -13.5t141 -39t67 -55.5t19 -70v-2q0 -40 -19 -69.5t-67 -55t-141 -38.5t-230 -13h-120q-46 0 -46 -19q0 -10 9.5 -14t37.5 -4h339q273 0 273 -157zM472 401q-49 0 -66.5 -8t-17.5 -23q0 -30 84 -30
q85 0 85 30q0 15 -17.5 23t-67.5 8zM481 -74q79 0 121.5 4t51.5 9.5t9 13.5t-7.5 12.5t-42 8t-100.5 3.5q-82 0 -125 -4t-52 -9t-9 -13t8 -12.5t43.5 -8.5t102.5 -4z" />
    <glyph glyph-name="Aringacute" unicode="&#x1fa;" horiz-adv-x="951" 
d="M256 893q0 -55 54.5 -92.5t163.5 -37.5t163.5 37.5t54.5 92.5q0 50 -47 84l140 116h-349l-37 -77q-72 -12 -107.5 -46t-35.5 -77zM440 892q0 24 34 24t34 -24t-34 -24t-34 24zM697 730l289 -730h-373l-27 77h-226l-27 -77h-373l288 730h449zM525 301l-52 164l-52 -164
h104z" />
    <glyph glyph-name="aringacute" unicode="&#x1fb;" horiz-adv-x="930" 
d="M248 724q0 -66 55 -107.5t164 -41.5q108 0 163 41.5t55 107.5q0 60 -45 98l141 139h-349l-40 -95q-71 -13 -107.5 -51t-36.5 -91zM432 724q0 27 35 27q33 0 33 -27q0 -28 -33 -28q-35 0 -35 28zM467 550q162 0 258 -35t135 -100.5t39 -170.5v-244h-164l-138 140
q-30 -73 -113.5 -116.5t-216.5 -43.5q-253 0 -253 145q0 54 30.5 89t120.5 60.5t247 34.5l120 7q-3 21 -18.5 30t-50.5 9q-53 0 -69 -26h-372q8 45 34 82.5t75.5 70t135 50.5t200.5 18zM423 169q55 0 84 19t29 43l-65 -5q-91 -8 -91 -35q0 -22 43 -22z" />
    <glyph glyph-name="AEacute" unicode="&#x1fc;" horiz-adv-x="1401" 
d="M626 784h232l214 220h-349zM922 290l11 -59h439v-231h-737l-15 81h-241l-34 -81h-389l330 730h1080v-229h-485l11 -58h459v-153h-429zM537 495l-73 -177h113l-33 177h-7z" />
    <glyph glyph-name="aeacute" unicode="&#x1fd;" horiz-adv-x="1450" 
d="M590 584h232l214 220h-349zM978 179q51 0 75 22h373q-40 -221 -433 -221q-297 0 -402 130q-84 -130 -321 -130q-256 0 -256 146q0 185 396 185h122q-2 24 -17.5 35t-50.5 11q-54 0 -70 -26h-372q16 95 110 157t280 62q217 0 310 -99q111 99 327 99q190 0 287.5 -73
t97.5 -187q0 -30 -4 -57h-534q12 -54 82 -54zM985 362q-72 0 -87 -46h172q-6 24 -26 35t-59 11zM425 169q52 0 81.5 19t29.5 39h-63q-93 0 -93 -34q0 -24 45 -24z" />
    <glyph glyph-name="Oslashacute" unicode="&#x1fe;" horiz-adv-x="1068" 
d="M406 784h232l214 220h-349zM942 794l-84 -107q97 -48 145 -126t48 -177v-38q0 -164 -130 -265t-387 -101q-120 0 -209 22l-51 -66h-148l84 107q-97 47 -145 125.5t-48 177.5v38q0 164 130 265t387 101q120 0 208 -22l52 66h148zM393 375v-25q0 -26 23 -42l135 175
q-7 1 -23 1q-66 0 -100.5 -29.5t-34.5 -79.5zM675 355v25q0 26 -23 42l-135 -175q7 -1 23 -1q66 0 100.5 29.5t34.5 79.5z" />
    <glyph glyph-name="oslashacute" unicode="&#x1ff;" horiz-adv-x="934" 
d="M302 584h232l214 220h-349zM778 594l-59 -79q199 -66 199 -242v-16q0 -125 -109.5 -201t-342.5 -76q-80 0 -140 10l-40 -54h-130l60 79q-200 66 -200 242v16q0 125 109.5 201t340.5 76q82 0 142 -10l40 54h130zM360 266q0 -24 15 -38l93 124h-10q-98 0 -98 -86zM476 178
q98 0 98 88q0 21 -15 35l-92 -123h9z" />
    <glyph glyph-name="uni0218" unicode="&#x218;" horiz-adv-x="1036" 
d="M10 262h402q9 -47 112 -47t103 31q0 8 -7 14t-37.5 12.5t-86.5 9.5q-145 7 -240.5 24.5t-145.5 48t-69 66.5t-19 88q0 51 24 92.5t77 76t149 53.5t228 19t231 -22.5t156 -62.5t85.5 -88.5t32.5 -107.5h-400q-11 46 -104 46q-96 0 -96 -30q0 -9 7.5 -15t37.5 -12.5
t86 -10.5q122 -6 208.5 -19t140.5 -31.5t85 -46t42 -57.5t11 -72q0 -40 -14.5 -74t-50.5 -65.5t-91.5 -53.5t-143 -35t-198.5 -13q-501 0 -515 282zM517 -255q-96 0 -141.5 30t-45.5 77q0 49 47 79t150 30q197 0 197 -116q0 -107 -114 -181h-215q83 41 122 81z" />
    <glyph glyph-name="uni0219" unicode="&#x219;" horiz-adv-x="903" 
d="M5 188h375q10 -29 79 -29q72 0 72 23q0 7 -6 11t-32 8.5t-75 6.5q-125 4 -208 16.5t-125 35.5t-57.5 48.5t-15.5 62.5q0 29 11.5 53.5t41.5 48t77 40.5t123 27t174 10q423 0 444 -207h-369q-7 28 -73 28q-68 0 -68 -22q0 -8 6 -12t31.5 -8t75.5 -6q125 -3 208.5 -16
t126 -36t59 -49.5t16.5 -63.5q0 -36 -20.5 -65.5t-67 -56t-135 -41.5t-212.5 -15q-103 0 -181.5 11t-128.5 29t-82 45.5t-46 57t-18 65.5zM451 -255q-96 0 -141.5 30t-45.5 77q0 49 47 79t150 30q197 0 197 -116q0 -107 -114 -181h-215q83 41 122 81z" />
    <glyph glyph-name="uni021A" unicode="&#x21a;" horiz-adv-x="966" 
d="M289 434h-269v296h926v-296h-267v-434h-390v434zM473 -255q-96 0 -141.5 30t-45.5 77q0 49 47 79t150 30q197 0 197 -116q0 -107 -114 -181h-215q83 41 122 81z" />
    <glyph glyph-name="uni021B" unicode="&#x21b;" horiz-adv-x="794" 
d="M763 530v-226h-252v-27q0 -40 16 -52t73 -12q72 0 164 10v-223q-130 -20 -247 -20q-143 0 -221.5 29t-109.5 89t-31 169v37h-142v226h169l111 165h218v-165h252zM470 -255q-96 0 -141.5 30t-45.5 77q0 49 47 79t150 30q197 0 197 -116q0 -107 -114 -181h-215
q83 41 122 81z" />
    <glyph glyph-name="uni0237" unicode="&#x237;" horiz-adv-x="450" 
d="M43 530h369v-465q0 -143 -82 -214t-261 -71q-90 0 -185 13v175q52 -4 81 -4q46 0 62 14.5t16 54.5v497z" />
    <glyph glyph-name="uni0259" unicode="&#x259;" horiz-adv-x="927" 
d="M16 240q0 30 4 57h534q-12 54 -80 54q-53 0 -77 -22h-373q40 221 433 221q234 0 344 -76t110 -200v-18q0 -124 -110 -200t-344 -76q-227 0 -334 72.5t-107 187.5zM465 167q71 0 87 47h-172q5 -25 25 -36t60 -11z" />
    <glyph glyph-name="uni02BC" unicode="&#x2bc;" horiz-adv-x="409" 
d="M207 750q188 0 188 -157q0 -128 -122 -269h-204q69 62 110 122q-160 12 -160 153q0 151 188 151z" />
    <glyph glyph-name="circumflex" unicode="&#x2c6;" horiz-adv-x="878" 
d="M585 804h-291l-194 -220h270l70 76l68 -76h270z" />
    <glyph glyph-name="caron" unicode="&#x2c7;" horiz-adv-x="878" 
d="M292 584h292l194 220h-270l-70 -76l-68 76h-270z" />
    <glyph glyph-name="breve" unicode="&#x2d8;" horiz-adv-x="860" 
d="M100 804h236q0 -3 0.5 -7t5 -15.5t13.5 -20t28.5 -15.5t46.5 -7t46.5 6.5t28 16.5t13.5 19.5t5 16.5v6h237q0 -58 -40 -114q-81 -115 -290 -115q-68 0 -123 12.5t-88.5 33t-58.5 45t-36 48.5t-17 44.5t-7 33.5v12z" />
    <glyph glyph-name="dotaccent" unicode="&#x2d9;" horiz-adv-x="594" 
d="M494 694q0 123 -197 123t-197 -123t197 -123t197 123z" />
    <glyph glyph-name="ring" unicode="&#x2da;" horiz-adv-x="636" 
d="M319 575q108 0 162.5 41.5t54.5 107.5t-54.5 107.5t-162.5 41.5q-109 0 -164 -41.5t-55 -107.5t55 -107.5t164 -41.5zM319 751q33 0 33 -27q0 -28 -33 -28q-35 0 -35 28q0 27 35 27z" />
    <glyph glyph-name="ogonek" unicode="&#x2db;" horiz-adv-x="605" 
d="M332 52l173 -52q-209 -15 -209 -51q0 -19 50 -19q57 0 159 26v-154q-94 -21 -204 -21q-201 0 -201 116q0 60 59 102t173 53z" />
    <glyph glyph-name="tilde" unicode="&#x2dc;" horiz-adv-x="881" 
d="M100 584h219q0 37 7.5 50t25.5 13q15 0 44 -17.5t78 -35.5t112 -18q99 0 147 54t48 174h-219q0 -37 -8 -50.5t-26 -13.5q-13 0 -35 11t-44.5 24.5t-64 24.5t-89.5 11q-99 0 -147 -53.5t-48 -173.5z" />
    <glyph glyph-name="hungarumlaut" unicode="&#x2dd;" horiz-adv-x="963" 
d="M100 584h210l222 220h-315zM431 584h210l222 220h-315z" />
    <glyph glyph-name="gravecomb" unicode="&#x300;" horiz-adv-x="0" 
d="M-546 804l214 -220h232l-97 220h-349z" />
    <glyph glyph-name="acutecomb" unicode="&#x301;" horiz-adv-x="0" 
d="M-546 584h232l214 220h-349z" />
    <glyph glyph-name="uni0302" unicode="&#x302;" horiz-adv-x="0" 
d="M-293 804h-291l-194 -220h270l70 76l68 -76h270z" />
    <glyph glyph-name="tildecomb" unicode="&#x303;" horiz-adv-x="0" 
d="M-781 584h219q0 37 7.5 50t25.5 13q15 0 44 -17.5t78 -35.5t112 -18q99 0 147 54t48 174h-219q0 -37 -8 -50.5t-26 -13.5q-13 0 -35 11t-44.5 24.5t-64 24.5t-89.5 11q-99 0 -147 -53.5t-48 -173.5z" />
    <glyph glyph-name="uni0304" unicode="&#x304;" horiz-adv-x="0" 
d="M-675 584v180h575v-180h-575z" />
    <glyph glyph-name="uni0306" unicode="&#x306;" horiz-adv-x="0" 
d="M-760 804h236q0 -3 0.5 -7t5 -15.5t13.5 -20t28.5 -15.5t46.5 -7t46.5 6.5t28 16.5t13.5 19.5t5 16.5v6h237q0 -58 -40 -114q-81 -115 -290 -115q-68 0 -123 12.5t-88.5 33t-58.5 45t-36 48.5t-17 44.5t-7 33.5v12z" />
    <glyph glyph-name="uni0307" unicode="&#x307;" horiz-adv-x="0" 
d="M-100 694q0 123 -197 123t-197 -123t197 -123t197 123z" />
    <glyph glyph-name="uni0308" unicode="&#x308;" horiz-adv-x="0" 
d="M-429 690q0 58 -39 92t-114 34q-74 0 -113 -34t-39 -92q0 -54 39 -86.5t113 -32.5t113.5 32.5t39.5 86.5zM-100 690q0 59 -38.5 92.5t-113.5 33.5t-114 -33.5t-39 -92.5q0 -54 39 -86.5t114 -32.5q74 0 113 32.5t39 86.5z" />
    <glyph glyph-name="uni030A" unicode="&#x30a;" horiz-adv-x="0" 
d="M-317 575q108 0 162.5 41.5t54.5 107.5t-54.5 107.5t-162.5 41.5q-109 0 -164 -41.5t-55 -107.5t55 -107.5t164 -41.5zM-317 751q33 0 33 -27q0 -28 -33 -28q-35 0 -35 28q0 27 35 27z" />
    <glyph glyph-name="uni030B" unicode="&#x30b;" horiz-adv-x="0" 
d="M-863 584h210l222 220h-315zM-532 584h210l222 220h-315z" />
    <glyph glyph-name="uni030C" unicode="&#x30c;" horiz-adv-x="0" 
d="M-586 584h292l194 220h-270l-70 -76l-68 76h-270z" />
    <glyph glyph-name="uni0312" unicode="&#x312;" horiz-adv-x="0" 
d="M-287 792q96 -1 141.5 -31t45.5 -77q0 -48 -47.5 -78.5t-149.5 -30.5q-197 0 -197 117q0 107 114 181h215q-84 -43 -122 -81z" />
    <glyph glyph-name="uni0326" unicode="&#x326;" horiz-adv-x="0" 
d="M-307 -255q-96 0 -141.5 30t-45.5 77q0 49 47 79t150 30q197 0 197 -116q0 -107 -114 -181h-215q83 41 122 81z" />
    <glyph glyph-name="uni0327" unicode="&#x327;" horiz-adv-x="0" 
d="M-245 -33q73 0 109 -25.5t36 -64.5q0 -45 -54 -70.5t-194 -25.5q-238 0 -242 102h201q5 -12 47 -12q48 0 48 16q0 15 -46 15q-33 0 -53 -11l-166 51l93 77h228l-90 -62q31 10 83 10z" />
    <glyph glyph-name="uni0328" unicode="&#x328;" horiz-adv-x="0" 
d="M-273 52l173 -52q-209 -15 -209 -51q0 -19 50 -19q57 0 159 26v-154q-94 -21 -204 -21q-201 0 -201 116q0 60 59 102t173 53z" />
    <glyph glyph-name="uni0401" unicode="&#x401;" horiz-adv-x="900" 
d="M435 890q0 59 -38.5 92.5t-114.5 33.5t-115 -33.5t-39 -92.5q0 -54 39.5 -86.5t114.5 -32.5t114 32.5t39 86.5zM774 890q0 59 -39 92.5t-115 33.5t-115 -33.5t-39 -92.5q0 -54 39.5 -86.5t114.5 -32.5t114.5 32.5t39.5 86.5zM870 0h-830v730h824v-229h-459v-58h445v-153
h-445v-59h465v-231z" />
    <glyph glyph-name="uni0402" unicode="&#x402;" horiz-adv-x="1209" 
d="M860 391q176 0 257.5 -56.5t81.5 -151.5q0 -94 -72.5 -148.5t-223.5 -54.5q-114 0 -221 20v185q56 -7 80 -7q59 0 59 30q0 33 -80 33q-61 0 -111 -12v-229h-367v434h-243v296h926v-289h-316v-65q97 15 230 15z" />
    <glyph glyph-name="uni0403" unicode="&#x403;" horiz-adv-x="787" 
d="M284 784h231l214 220h-348zM430 0h-390v730h736v-296h-346v-434z" />
    <glyph glyph-name="uni0404" unicode="&#x404;" horiz-adv-x="1063" 
d="M411 435h186v-139h-187q23 -59 120 -59q106 0 121 69h396q-34 -326 -514 -326q-256 0 -386 101t-130 265v38q0 164 130 265t386 101q480 0 514 -326h-396q-15 69 -121 69q-98 0 -119 -58z" />
    <glyph glyph-name="uni0405" unicode="&#x405;" horiz-adv-x="1036" 
d="M10 262h402q9 -47 112 -47t103 31q0 8 -7 14t-37.5 12.5t-86.5 9.5q-145 7 -240.5 24.5t-145.5 48t-69 66.5t-19 88q0 51 24 92.5t77 76t149 53.5t228 19t231 -22.5t156 -62.5t85.5 -88.5t32.5 -107.5h-400q-11 46 -104 46q-96 0 -96 -30q0 -9 7.5 -15t37.5 -12.5
t86 -10.5q122 -6 208.5 -19t140.5 -31.5t85 -46t42 -57.5t11 -72q0 -40 -14.5 -74t-50.5 -65.5t-91.5 -53.5t-143 -35t-198.5 -13q-501 0 -515 282z" />
    <glyph glyph-name="uni0406" unicode="&#x406;" horiz-adv-x="471" 
d="M431 730v-730h-391v730h391z" />
    <glyph glyph-name="uni0407" unicode="&#x407;" horiz-adv-x="471" 
d="M221 890q0 59 -39 92.5t-115 33.5t-115 -33.5t-39 -92.5q0 -54 39.5 -86.5t114.5 -32.5t114.5 32.5t39.5 86.5zM559 890q0 59 -39 92.5t-115 33.5t-115 -33.5t-39 -92.5q0 -54 39.5 -86.5t114.5 -32.5t114.5 32.5t39.5 86.5zM431 730v-730h-391v730h391z" />
    <glyph glyph-name="uni0408" unicode="&#x408;" horiz-adv-x="953" 
d="M1 338h385q1 -33 17.5 -48t54.5 -15q73 0 73 56v114h-486v285h871v-412q0 -161 -111 -249.5t-346 -88.5q-239 0 -346 89t-112 269z" />
    <glyph glyph-name="uni0409" unicode="&#x409;" horiz-adv-x="1591" 
d="M1024 569h140q229 0 324.5 -71t95.5 -216q0 -141 -95.5 -211.5t-324.5 -70.5h-509v456h-132l-3 -76q-8 -205 -95 -300t-262 -95q-80 0 -152 15v287q28 -5 59 -5q49 0 73 31t26 109l11 308h844v-161zM1024 251h125q57 0 57 40t-57 40h-125v-80z" />
    <glyph glyph-name="uni040A" unicode="&#x40a;" horiz-adv-x="1545" 
d="M977 569h140q229 0 324.5 -71t95.5 -216q0 -141 -95.5 -211.5t-324.5 -70.5h-527v292h-163v-292h-387v730h387v-160h163v160h387v-161zM977 251h125q57 0 57 40t-57 40h-125v-80z" />
    <glyph glyph-name="uni040B" unicode="&#x40b;" horiz-adv-x="1206" 
d="M831 390q358 0 358 -248v-142h-391v117q0 41 -14.5 55.5t-55.5 14.5q-43 0 -80 -8v-179h-385v434h-243v296h926v-289h-298v-64q87 13 183 13z" />
    <glyph glyph-name="uni040C" unicode="&#x40c;" horiz-adv-x="1019" 
d="M373 784h231l214 220h-349zM1043 0h-432l-140 249l-59 -62v-187h-372v730h372v-241l186 241h438l-239 -311z" />
    <glyph glyph-name="uni040E" unicode="&#x40e;" horiz-adv-x="932" 
d="M150 1009h237q0 -3 0.5 -7t5 -15t13.5 -19.5t29.5 -15.5t48.5 -7t48.5 6.5t29.5 16t13.5 19t4.5 15.5l1 7h237q0 -5 -0.5 -13t-7 -32t-17.5 -45.5t-36 -48t-59 -45.5t-89.5 -32t-124.5 -13t-124.5 12.5t-89.5 33t-59 44.5t-36 48.5t-17.5 45t-7.5 32.5v13zM476 466
l97 264h409l-255 -494q-31 -61 -67 -105t-87 -79.5t-121.5 -53.5t-161.5 -18q-128 0 -221 20v269q42 -6 73 -6q30 0 42 5.5t21 18.5l-247 443h419z" />
    <glyph glyph-name="uni040F" unicode="&#x40f;" horiz-adv-x="1019" 
d="M592 730h387v-730h-279v-171h-381v171h-279v730h387v-451h165v451z" />
    <glyph glyph-name="uni0410" unicode="&#x410;" horiz-adv-x="946" 
d="M697 730l289 -730h-373l-27 77h-226l-27 -77h-373l288 730h449zM525 301l-52 164l-52 -164h104z" />
    <glyph glyph-name="uni0411" unicode="&#x411;" horiz-adv-x="987" 
d="M403 450h174q150 0 241.5 -29.5t126 -77t34.5 -117.5q0 -53 -19.5 -92.5t-64.5 -70.5t-125 -47t-193 -16h-537v730h876v-228h-513v-52zM403 230h139q58 0 58 36q0 37 -58 37h-139v-73z" />
    <glyph glyph-name="uni0412" unicode="&#x412;" horiz-adv-x="990" 
d="M750 367v-2q97 -13 164.5 -58t67.5 -118q0 -39 -19.5 -71t-63.5 -59.5t-124 -43t-191 -15.5h-544v730h544q199 0 288 -53t89 -136q0 -74 -59.5 -118t-151.5 -56zM530 502h-139v-66h140q53 0 53 34q0 32 -54 32zM391 228h152q61 0 61 32q0 34 -59 34h-154v-66z" />
    <glyph glyph-name="uni0413" unicode="&#x413;" horiz-adv-x="793" 
d="M430 0h-390v730h736v-296h-346v-434z" />
    <glyph glyph-name="uni0414" unicode="&#x414;" horiz-adv-x="1174" 
d="M1026 730v-459h140v-442h-363v171h-432v-171h-363v442h130q31 68 36 195l11 264h841zM496 260h170v210h-144l-3 -72q-3 -87 -23 -138z" />
    <glyph glyph-name="uni0415" unicode="&#x415;" horiz-adv-x="900" 
d="M870 0h-830v730h824v-229h-459v-58h445v-153h-445v-59h465v-231z" />
    <glyph glyph-name="uni0416" unicode="&#x416;" horiz-adv-x="1554" 
d="M1578 0h-430l-141 252l-46 -49v-203h-369v203l-45 49l-142 -252h-429l246 420l-243 310h439l174 -229v229h369v-229l175 229h438l-243 -310z" />
    <glyph glyph-name="uni0417" unicode="&#x417;" horiz-adv-x="1029" 
d="M12 300h386q4 -34 31 -50.5t94 -16.5q111 0 111 33q0 10 -6 15.5t-27.5 9.5t-62.5 4h-86v141h86q47 0 62.5 7t15.5 21q0 33 -98 33q-62 0 -88 -17t-30 -50h-386q24 320 517 320q104 0 186 -12.5t134 -33t86.5 -49t48.5 -58t14 -61.5q0 -73 -58 -114t-152 -54v-2
q100 -14 166 -57.5t66 -121.5q0 -40 -24 -74.5t-76.5 -65.5t-151.5 -49t-234 -18q-140 0 -241 23t-160.5 67t-88.5 100t-34 130z" />
    <glyph glyph-name="uni0418" unicode="&#x418;" horiz-adv-x="1034" 
d="M406 404l216 326h373v-730h-367v328l-215 -328h-373v730h367z" />
    <glyph glyph-name="uni0419" unicode="&#x419;" horiz-adv-x="1034" 
d="M187 1009h237q0 -3 0.5 -7t5 -15t13.5 -19.5t29.5 -15.5t48.5 -7t48.5 6.5t29.5 16t13.5 19t5.5 15.5v7h237q0 -5 -0.5 -13t-7 -32t-17.5 -45.5t-36 -48t-59 -45.5t-89.5 -32t-124.5 -13t-124.5 12.5t-89.5 33t-59 44.5t-36 48.5t-17.5 45t-6.5 32.5zM406 404l216 326
h373v-730h-367v328l-215 -328h-373v730h367z" />
    <glyph glyph-name="uni041A" unicode="&#x41a;" horiz-adv-x="1019" 
d="M1043 0h-432l-140 249l-59 -62v-187h-372v730h372v-241l186 241h438l-239 -311z" />
    <glyph glyph-name="uni041B" unicode="&#x41b;" horiz-adv-x="1072" 
d="M169 422l11 308h852v-730h-368v456h-141l-3 -76q-8 -205 -95 -300t-262 -95q-80 0 -152 15v286q34 -4 61 -4q48 0 71.5 31.5t25.5 108.5z" />
    <glyph glyph-name="uni041C" unicode="&#x41c;" horiz-adv-x="1250" 
d="M625 449l132 281h453v-730h-350l1 339l-164 -339h-143l-165 340l2 -340h-351v730h453z" />
    <glyph glyph-name="uni041D" unicode="&#x41d;" horiz-adv-x="1024" 
d="M597 504v226h387v-730h-387v226h-170v-226h-387v730h387v-226h170z" />
    <glyph glyph-name="uni041E" unicode="&#x41e;" horiz-adv-x="1061" 
d="M530 -20q-254 0 -383.5 101t-129.5 265v38q0 164 129.5 265t383.5 101q255 0 384.5 -101t129.5 -265v-38q0 -164 -129.5 -265t-384.5 -101zM530 270q59 0 89 25t30 66v8q0 41 -30 66t-89 25t-88.5 -24.5t-29.5 -66.5v-8q0 -42 29.5 -66.5t88.5 -24.5z" />
    <glyph glyph-name="uni041F" unicode="&#x41f;" horiz-adv-x="1019" 
d="M427 0h-387v730h940v-730h-388v451h-165v-451z" />
    <glyph glyph-name="uni0420" unicode="&#x420;" horiz-adv-x="975" 
d="M40 730h507q117 0 199.5 -18.5t130.5 -55.5t69.5 -88t21.5 -120q0 -145 -95.5 -216t-325.5 -71h-138v-161h-369v730zM409 399h123q58 0 58 40t-58 40h-123v-80z" />
    <glyph glyph-name="uni0421" unicode="&#x421;" horiz-adv-x="1055" 
d="M17 346v38q0 164 129 265t383 101q479 0 510 -353h-399q-17 63 -112 63q-57 0 -86.5 -25t-29.5 -66v-8q0 -41 29.5 -66t86.5 -25q95 0 112 63h399q-31 -353 -510 -353q-254 0 -383 101t-129 265z" />
    <glyph glyph-name="uni0422" unicode="&#x422;" horiz-adv-x="966" 
d="M289 434h-269v296h926v-296h-267v-434h-390v434z" />
    <glyph glyph-name="uni0423" unicode="&#x423;" horiz-adv-x="932" 
d="M476 466l97 264h409l-255 -494q-31 -61 -67 -105t-87 -79.5t-121.5 -53.5t-161.5 -18q-128 0 -221 20v269q42 -6 73 -6q30 0 42 5.5t21 18.5l-247 443h419z" />
    <glyph glyph-name="uni0424" unicode="&#x424;" horiz-adv-x="1378" 
d="M871 765v-82q132 -2 231 -27.5t156.5 -68.5t85.5 -95.5t28 -114.5v-20q0 -62 -28 -114.5t-85.5 -95t-156.5 -68t-231 -27.5v-87h-364v87q-132 2 -231 27.5t-156.5 68t-85.5 95t-28 114.5v20q0 62 28 114.5t85.5 95.5t156.5 68.5t231 27.5v82h364zM377 369v-4
q0 -30 28.5 -47.5t101.5 -19.5v138q-73 -2 -101.5 -19.5t-28.5 -47.5zM1001 365v4q0 30 -28.5 47.5t-101.5 19.5v-138q73 2 101.5 19.5t28.5 47.5z" />
    <glyph glyph-name="uni0425" unicode="&#x425;" horiz-adv-x="968" 
d="M771 368l223 -368h-417l-93 198l-93 -198h-417l226 368l-221 362h418l87 -190l86 190h418z" />
    <glyph glyph-name="uni0426" unicode="&#x426;" horiz-adv-x="1130" 
d="M979 730v-459h143v-442h-367v171h-715v730h387v-451h165v451h387z" />
    <glyph glyph-name="uni0427" unicode="&#x427;" horiz-adv-x="989" 
d="M561 491v239h388v-730h-388v217q-78 -13 -184 -13q-191 0 -272.5 78t-81.5 257v191h388v-177q0 -41 14 -55.5t55 -14.5q33 0 81 8z" />
    <glyph glyph-name="uni0428" unicode="&#x428;" horiz-adv-x="1413" 
d="M1012 276v454h362v-730h-1334v730h361v-454h125v454h362v-454h124z" />
    <glyph glyph-name="uni0429" unicode="&#x429;" horiz-adv-x="1524" 
d="M1374 730v-459h142v-442h-366v171h-1110v730h361v-454h125v454h362v-454h124v454h362z" />
    <glyph glyph-name="uni042A" unicode="&#x42a;" horiz-adv-x="1207" 
d="M637 569h143q229 0 324.5 -71t95.5 -216q0 -141 -95.5 -211.5t-324.5 -70.5h-512v434h-248v296h617v-161zM637 251h128q57 0 57 40t-57 40h-128v-80z" />
    <glyph glyph-name="uni042B" unicode="&#x42b;" horiz-adv-x="1440" 
d="M409 569h142q229 0 324.5 -71t95.5 -216q0 -141 -95.5 -211.5t-324.5 -70.5h-511v730h369v-161zM1010 0v730h391v-730h-391zM409 251h128q57 0 57 40t-57 40h-128v-80z" />
    <glyph glyph-name="uni042C" unicode="&#x42c;" horiz-adv-x="979" 
d="M409 569h142q229 0 324.5 -71t95.5 -216q0 -141 -95.5 -211.5t-324.5 -70.5h-511v730h369v-161zM409 251h128q57 0 57 40t-57 40h-128v-80z" />
    <glyph glyph-name="uni042D" unicode="&#x42d;" horiz-adv-x="1063" 
d="M466 296v139h186q-21 58 -119 58q-106 0 -121 -69h-396q34 326 514 326q256 0 386 -101t130 -265v-38q0 -164 -130 -265t-386 -101q-480 0 -514 326h396q15 -69 121 -69q97 0 120 59h-187z" />
    <glyph glyph-name="uni042E" unicode="&#x42e;" horiz-adv-x="1469" 
d="M950 750q247 0 375 -101.5t128 -265.5v-36q0 -164 -128 -265.5t-375 -101.5q-194 0 -315.5 65t-163.5 178h-58v-223h-373v730h373v-223h58q42 113 163.5 178t315.5 65zM946 270q57 0 86 25t29 66v8q0 41 -29 66t-86 25q-56 0 -85.5 -25t-29.5 -66v-8q0 -41 29.5 -66
t85.5 -25z" />
    <glyph glyph-name="uni042F" unicode="&#x42f;" horiz-adv-x="1002" 
d="M535 219l-113 -219h-426l156 269q-123 59 -123 205q0 125 89.5 190.5t295.5 65.5h548v-730h-366v219h-61zM595 403v77h-131q-59 0 -59 -39q0 -38 59 -38h131z" />
    <glyph glyph-name="uni0430" unicode="&#x430;" horiz-adv-x="930" 
d="M467 550q162 0 258 -35t135 -100.5t39 -170.5v-244h-164l-138 140q-30 -73 -113.5 -116.5t-216.5 -43.5q-253 0 -253 145q0 54 30.5 89t120.5 60.5t247 34.5l120 7q-3 21 -18.5 30t-50.5 9q-53 0 -69 -26h-372q8 45 34 82.5t75.5 70t135 50.5t200.5 18zM423 169
q55 0 84 19t29 43l-65 -5q-91 -8 -91 -35q0 -22 43 -22z" />
    <glyph glyph-name="uni0431" unicode="&#x431;" horiz-adv-x="938" 
d="M614 440q152 0 230.5 -60.5t78.5 -154.5v-6q0 -50 -24 -91.5t-75 -75.5t-141.5 -53t-214.5 -19q-242 0 -344 83t-102 261v14q0 205 91.5 291.5t324.5 96.5l181 8q136 7 185.5 14.5t70.5 20.5v-256q-20 -16 -56.5 -23t-130.5 -11l-226 -10q-64 -3 -92 -29.5t-30 -89.5
q84 90 274 90zM472 202q83 0 83 48q0 49 -83 49q-82 0 -82 -48q0 -49 82 -49z" />
    <glyph glyph-name="uni0432" unicode="&#x432;" horiz-adv-x="889" 
d="M688 265v-2q84 -11 138 -42.5t54 -84.5q0 -136 -378 -136h-464v530h464q362 0 362 -138q0 -101 -176 -127zM467 361h-99v-49h99q45 0 45 24q0 25 -45 25zM368 169h104q49 0 49 25t-50 25h-103v-50z" />
    <glyph glyph-name="uni0433" unicode="&#x433;" horiz-adv-x="697" 
d="M413 0h-375v530h646v-246h-271v-284z" />
    <glyph glyph-name="uni0434" unicode="&#x434;" horiz-adv-x="1073" 
d="M931 530v-295h134v-396h-341v161h-375v-161h-341v396h116q27 48 32 157l7 138h768zM454 209h139v106h-120v-17q-3 -57 -19 -89z" />
    <glyph glyph-name="uni0435" unicode="&#x435;" horiz-adv-x="927" 
d="M911 290q0 -30 -4 -57h-534q12 -54 80 -54q53 0 77 22h373q-40 -221 -433 -221q-234 0 -344 76t-110 200v18q0 124 110 200t344 76q227 0 334 -72.5t107 -187.5zM462 363q-71 0 -87 -47h172q-5 25 -25 36t-60 11z" />
    <glyph glyph-name="uni0436" unicode="&#x436;" horiz-adv-x="1395" 
d="M1415 0h-410l-102 189l-26 -37v-152h-359v152l-26 37l-102 -189h-411l179 297l-175 233h422l113 -179v179h359v-179l113 179h422l-175 -233z" />
    <glyph glyph-name="uni0437" unicode="&#x437;" horiz-adv-x="897" 
d="M12 219h359q3 -24 20 -34.5t62 -10.5q77 0 77 23q0 7 -4 11t-19 6.5t-42 2.5h-54v98h54q54 0 54 20q0 23 -69 23q-40 0 -56.5 -11t-20.5 -34h-359q28 239 445 239q116 0 200.5 -14.5t128.5 -39t63.5 -51t19.5 -56.5q0 -55 -46 -83t-128 -41v-2q191 -28 191 -124
q0 -24 -11.5 -45.5t-41.5 -43t-76.5 -37t-122 -25.5t-172.5 -10q-123 0 -211 18t-138 51.5t-74.5 75t-28.5 94.5z" />
    <glyph glyph-name="uni0438" unicode="&#x438;" horiz-adv-x="948" 
d="M374 288l157 242h378v-530h-336l2 244l-159 -244h-378v530h338z" />
    <glyph glyph-name="uni0439" unicode="&#x439;" horiz-adv-x="948" 
d="M145 804h236q0 -3 0.5 -7t5 -15.5t13.5 -20t28.5 -15.5t46.5 -7t46.5 6.5t28 16.5t13.5 19.5t5 16.5v6h237q0 -58 -40 -114q-81 -115 -290 -115q-68 0 -123 12.5t-88.5 33t-58.5 45t-36 48.5t-17 44.5t-6 33.5zM374 288l157 242h378v-530h-336l2 244l-159 -244h-378v530
h338z" />
    <glyph glyph-name="uni043A" unicode="&#x43a;" horiz-adv-x="925" 
d="M945 0h-411l-96 188l-38 -47v-141h-362v530h362v-187l120 187h421l-168 -232z" />
    <glyph glyph-name="uni043B" unicode="&#x43b;" horiz-adv-x="952" 
d="M147 352l7 178h760v-530h-348v299h-98l-1 -19q-10 -151 -86 -222t-237 -71q-68 0 -133 13v255q2 0 22.5 -2.5t32.5 -2.5q40 0 59.5 23t21.5 79z" />
    <glyph glyph-name="uni043C" unicode="&#x43c;" horiz-adv-x="1143" 
d="M571 319l96 211h437v-530h-332l2 265l-125 -265h-156l-125 265l1 -265h-331v530h437z" />
    <glyph glyph-name="uni043D" unicode="&#x43d;" horiz-adv-x="935" 
d="M529 383v147h368v-530h-368v147h-123v-147h-368v530h368v-147h123z" />
    <glyph glyph-name="uni043E" unicode="&#x43e;" horiz-adv-x="927" 
d="M463 -20q-229 0 -338 76t-109 201v16q0 125 109 201t338 76q230 0 339 -76t109 -201v-16q0 -125 -109 -201t-339 -76zM463 202q81 0 81 64q0 62 -81 62q-80 0 -80 -62q0 -64 80 -64z" />
    <glyph glyph-name="uni043F" unicode="&#x43f;" horiz-adv-x="934" 
d="M406 0h-368v530h858v-530h-369v295h-121v-295z" />
    <glyph glyph-name="uni0440" unicode="&#x440;" horiz-adv-x="955" 
d="M621 550q150 0 232 -75t82 -202v-16q0 -126 -79.5 -201.5t-218.5 -75.5q-159 0 -231 97v-277h-368v730h163l118 -162q26 85 103.5 133.5t198.5 48.5zM487 205q80 0 80 60t-80 60q-81 0 -81 -60t81 -60z" />
    <glyph glyph-name="uni0441" unicode="&#x441;" horiz-adv-x="920" 
d="M16 257v16q0 124 108.5 200.5t335.5 76.5q114 0 197 -18.5t134 -53.5t78 -80t36 -105h-373q-14 35 -72 35q-77 0 -77 -63t77 -63q58 0 72 35h374q-9 -60 -36.5 -105t-78 -80t-134 -53.5t-197.5 -18.5q-227 0 -335.5 76.5t-108.5 200.5z" />
    <glyph glyph-name="uni0442" unicode="&#x442;" horiz-adv-x="849" 
d="M238 288h-224v242h820v-242h-224v-288h-372v288z" />
    <glyph glyph-name="uni0443" unicode="&#x443;" horiz-adv-x="865" 
d="M440 243l77 287h380l-202 -453q-45 -102 -98.5 -164t-141 -97.5t-213.5 -35.5q-115 0 -199 20v220q48 -5 88 -5q33 0 47 7t23 25l-232 483h394z" />
    <glyph glyph-name="uni0444" unicode="&#x444;" horiz-adv-x="1429" 
d="M1119 550q134 0 211.5 -75t77.5 -202v-16q0 -127 -77.5 -202t-211.5 -75q-154 0 -227 93v-273h-355v273q-73 -93 -227 -93q-134 0 -212 75t-78 202v16q0 127 78 202t212 75q154 0 227 -93v273h355v-273q73 93 227 93zM461 205q76 0 76 61q0 59 -76 59q-74 0 -74 -59
q0 -61 74 -61zM968 205q74 0 74 61q0 59 -74 59q-76 0 -76 -59q0 -61 76 -61z" />
    <glyph glyph-name="uni0445" unicode="&#x445;" horiz-adv-x="875" 
d="M728 268l166 -268h-390l-65 144l-68 -144h-390l167 266l-165 264h390l65 -144l63 144h391z" />
    <glyph glyph-name="uni0446" unicode="&#x446;" horiz-adv-x="1034" 
d="M892 530v-295h134v-396h-354v161h-634v530h368v-295h118v295h368z" />
    <glyph glyph-name="uni0447" unicode="&#x447;" horiz-adv-x="896" 
d="M499 361v169h359v-530h-359v140q-73 -11 -154 -11q-182 0 -252 60.5t-70 207.5v133h360v-121q0 -31 11 -41.5t44 -10.5q23 0 61 4z" />
    <glyph glyph-name="uni0448" unicode="&#x448;" horiz-adv-x="1327" 
d="M936 220v310h352v-530h-1250v530h353v-310h98v310h349v-310h98z" />
    <glyph glyph-name="uni0449" unicode="&#x449;" horiz-adv-x="1430" 
d="M1288 530v-297h134v-394h-353v161h-1031v530h353v-310h98v310h349v-310h98v310h352z" />
    <glyph glyph-name="uni044A" unicode="&#x44a;" horiz-adv-x="1066" 
d="M568 408h111q111 0 186.5 -13.5t117 -41.5t58.5 -63.5t17 -85.5t-17 -86t-58.5 -63.5t-117 -41t-186.5 -13.5h-449v288h-217v242h555v-122zM568 181h88q26 0 35.5 6.5t9.5 21.5q0 14 -9.5 21t-35.5 7h-88v-56z" />
    <glyph glyph-name="uni044B" unicode="&#x44b;" horiz-adv-x="1310" 
d="M376 408h111q111 0 186.5 -13.5t117 -41.5t58.5 -63.5t17 -85.5t-17 -86t-58.5 -63.5t-117 -41t-186.5 -13.5h-449v530h338v-122zM904 0v530h368v-530h-368zM376 181h88q26 0 35.5 6.5t9.5 21.5q0 14 -9.5 21t-35.5 7h-88v-56z" />
    <glyph glyph-name="uni044C" unicode="&#x44c;" horiz-adv-x="874" 
d="M376 408h111q111 0 186.5 -13.5t117 -41.5t58.5 -63.5t17 -85.5t-17 -86t-58.5 -63.5t-117 -41t-186.5 -13.5h-449v530h338v-122zM376 181h88q26 0 35.5 6.5t9.5 21.5q0 14 -9.5 21t-35.5 7h-88v-56z" />
    <glyph glyph-name="uni044D" unicode="&#x44d;" horiz-adv-x="928" 
d="M14 224h369q7 -24 25 -34.5t58 -10.5q69 0 82 39h-122v94h122q-13 39 -82 39q-39 0 -57 -10.5t-26 -34.5h-369q8 44 25.5 79t52 66.5t84 53t122.5 33.5t166 12q229 0 338.5 -76.5t109.5 -200.5v-16q0 -124 -109.5 -200.5t-338.5 -76.5q-93 0 -166 12t-122.5 33.5t-84 53
t-52 66.5t-25.5 79z" />
    <glyph glyph-name="uni044E" unicode="&#x44e;" horiz-adv-x="1308" 
d="M860 550q221 0 326.5 -76t105.5 -201v-16q0 -125 -105.5 -201t-326.5 -76q-167 0 -268 46.5t-138 127.5h-55v-154h-361v530h361v-153h55q38 81 139 127t267 46zM851 202q78 0 78 63t-78 63q-77 0 -77 -63t77 -63z" />
    <glyph glyph-name="uni044F" unicode="&#x44f;" horiz-adv-x="888" 
d="M387 530h463v-530h-337v147h-44l-92 -147h-381l129 182q-55 22 -77.5 60.5t-22.5 96.5q0 66 28.5 105.5t109.5 62.5t224 23zM426 293h87v57h-87q-26 0 -36 -6.5t-10 -22.5q0 -28 46 -28z" />
    <glyph glyph-name="uni0451" unicode="&#x451;" horiz-adv-x="927" 
d="M449 690q0 58 -39 92t-114 34q-74 0 -113 -34t-39 -92q0 -54 39 -86.5t113 -32.5t113.5 32.5t39.5 86.5zM778 690q0 59 -38.5 92.5t-113.5 33.5t-114 -33.5t-39 -92.5q0 -54 39 -86.5t114 -32.5q74 0 113 32.5t39 86.5zM911 290q0 -30 -4 -57h-534q12 -54 80 -54
q53 0 77 22h373q-40 -221 -433 -221q-234 0 -344 76t-110 200v18q0 124 110 200t344 76q227 0 334 -72.5t107 -187.5zM462 363q-71 0 -87 -47h172q-5 25 -25 36t-60 11z" />
    <glyph glyph-name="uni0452" unicode="&#x452;" horiz-adv-x="940" 
d="M643 550q129 0 197 -74.5t68 -224.5v-196q0 -138 -83 -206.5t-260 -68.5q-90 0 -185 13v174q62 -4 86 -4q43 0 58 14t15 56v189q0 35 -13.5 49t-44.5 14q-63 0 -63 -56v-229h-368v538h-58v135h58v57h368v-57h70v-135h-70v-110q69 122 225 122z" />
    <glyph glyph-name="uni0453" unicode="&#x453;" horiz-adv-x="697" 
d="M237 584h232l214 220h-349zM413 0h-375v530h646v-246h-271v-284z" />
    <glyph glyph-name="uni0454" unicode="&#x454;" horiz-adv-x="927" 
d="M544 224h370q-8 -44 -25.5 -79t-52 -66.5t-84 -53t-123 -33.5t-166.5 -12q-229 0 -338 76.5t-109 200.5v16q0 124 109 200.5t338 76.5q93 0 166 -12t122.5 -33.5t84 -53t52 -66.5t25.5 -79h-369q-7 24 -24.5 34.5t-57.5 10.5q-37 0 -56 -9t-27 -30h123v-94h-123
q8 -21 27 -30t56 -9q40 0 57.5 10.5t24.5 34.5z" />
    <glyph glyph-name="uni0455" unicode="&#x455;" horiz-adv-x="903" 
d="M5 188h375q10 -29 79 -29q72 0 72 23q0 7 -6 11t-32 8.5t-75 6.5q-125 4 -208 16.5t-125 35.5t-57.5 48.5t-15.5 62.5q0 29 11.5 53.5t41.5 48t77 40.5t123 27t174 10q423 0 444 -207h-369q-7 28 -73 28q-68 0 -68 -22q0 -8 6 -12t31.5 -8t75.5 -6q125 -3 208.5 -16
t126 -36t59 -49.5t16.5 -63.5q0 -36 -20.5 -65.5t-67 -56t-135 -41.5t-212.5 -15q-103 0 -181.5 11t-128.5 29t-82 45.5t-46 57t-18 65.5z" />
    <glyph glyph-name="uni0456" unicode="&#x456;" horiz-adv-x="444" 
d="M420 694q0 123 -198 123q-196 0 -196 -123t196 -123q198 0 198 123zM406 0h-368v530h368v-530z" />
    <glyph glyph-name="uni0457" unicode="&#x457;" horiz-adv-x="444" 
d="M210 690q0 58 -39 92t-114 34q-74 0 -113 -34t-39 -92q0 -54 39 -86.5t113 -32.5t113.5 32.5t39.5 86.5zM539 690q0 59 -38.5 92.5t-113.5 33.5t-114 -33.5t-39 -92.5q0 -54 39 -86.5t114 -32.5q74 0 113 32.5t39 86.5zM406 0h-368v530h368v-530z" />
    <glyph glyph-name="uni0458" unicode="&#x458;" horiz-adv-x="450" 
d="M425 694q0 123 -197 123t-197 -123t197 -123t197 123zM43 530h369v-465q0 -143 -82 -214t-261 -71q-90 0 -185 13v175q52 -4 81 -4q46 0 62 14.5t16 54.5v497z" />
    <glyph glyph-name="uni0459" unicode="&#x459;" horiz-adv-x="1399" 
d="M905 408h107q111 0 186.5 -13.5t117 -41.5t59 -63.5t17.5 -85.5t-17.5 -86t-59 -63.5t-117 -41t-186.5 -13.5h-455v299h-89l-1 -19q-10 -151 -86.5 -222t-237.5 -71q-67 0 -132 13v255q2 0 22.5 -2.5t32.5 -2.5q40 0 59.5 23t21.5 79l7 178h751v-122zM905 181h85
q25 0 35 6.5t10 21.5q0 28 -45 28h-85v-56z" />
    <glyph glyph-name="uni045A" unicode="&#x45a;" horiz-adv-x="1384" 
d="M890 408h107q111 0 186.5 -13.5t117 -41.5t58.5 -63.5t17 -85.5t-17 -86t-58.5 -63.5t-117 -41t-186.5 -13.5h-475v173h-116v-173h-368v530h368v-122h116v122h368v-122zM890 181h85q25 0 35 6.5t10 21.5q0 28 -45 28h-85v-56z" />
    <glyph glyph-name="uni045B" unicode="&#x45b;" horiz-adv-x="940" 
d="M643 550q129 0 197 -74.5t68 -224.5v-251h-369v222q0 35 -13.5 49t-44.5 14q-63 0 -63 -56v-229h-368v538h-58v135h58v57h368v-57h70v-135h-70v-110q69 122 225 122z" />
    <glyph glyph-name="uni045C" unicode="&#x45c;" horiz-adv-x="925" 
d="M327 584h232l214 220h-349zM945 0h-411l-96 188l-38 -47v-141h-362v530h362v-187l120 187h421l-168 -232z" />
    <glyph glyph-name="uni045E" unicode="&#x45e;" horiz-adv-x="865" 
d="M112 804h236q0 -3 0.5 -7t5 -15.5t13.5 -20t28.5 -15.5t46.5 -7t46.5 6.5t28 16.5t13.5 19.5t5 16.5v6h237q0 -58 -40 -114q-81 -115 -290 -115q-68 0 -123 12.5t-88.5 33t-58.5 45t-36 48.5t-17 44.5t-7 33.5v12zM440 243l77 287h380l-202 -453q-45 -102 -98.5 -164
t-141 -97.5t-213.5 -35.5q-115 0 -199 20v220q48 -5 88 -5q33 0 47 7t23 25l-232 483h394z" />
    <glyph glyph-name="uni045F" unicode="&#x45f;" horiz-adv-x="930" 
d="M524 530h368v-530h-244v-161h-365v161h-245v530h368v-295h118v295z" />
    <glyph glyph-name="uni0490" unicode="&#x490;" horiz-adv-x="786" 
d="M430 0h-390v730h386v168h344v-464h-340v-434z" />
    <glyph glyph-name="uni0491" unicode="&#x491;" horiz-adv-x="694" 
d="M413 0h-375v530h307v145h336v-391h-268v-284z" />
    <glyph glyph-name="Wgrave" unicode="&#x1e80;" horiz-adv-x="1391" 
d="M375 1004l214 -220h232l-97 220h-349zM938 387l91 343h387l-217 -730h-404l-99 329l-100 -329h-404l-217 730h387l90 -344l116 344h255z" />
    <glyph glyph-name="wgrave" unicode="&#x1e81;" horiz-adv-x="1249" 
d="M304 804l214 -220h232l-97 220h-349zM844 259l49 271h375l-174 -530h-389l-80 222l-81 -222h-389l-175 530h376l49 -272l99 272h241z" />
    <glyph glyph-name="Wacute" unicode="&#x1e82;" horiz-adv-x="1391" 
d="M571 784h232l214 220h-349zM938 387l91 343h387l-217 -730h-404l-99 329l-100 -329h-404l-217 730h387l90 -344l116 344h255z" />
    <glyph glyph-name="wacute" unicode="&#x1e83;" horiz-adv-x="1249" 
d="M500 584h232l214 220h-349zM844 259l49 271h375l-174 -530h-389l-80 222l-81 -222h-389l-175 530h376l49 -272l99 272h241z" />
    <glyph glyph-name="Wdieresis" unicode="&#x1e84;" horiz-adv-x="1391" 
d="M682 890q0 59 -39 92.5t-115 33.5t-115 -33.5t-39 -92.5q0 -54 39.5 -86.5t114.5 -32.5t114.5 32.5t39.5 86.5zM1020 890q0 59 -39 92.5t-115 33.5t-115 -33.5t-39 -92.5q0 -54 39.5 -86.5t114.5 -32.5t114.5 32.5t39.5 86.5zM938 387l91 343h387l-217 -730h-404l-99 329
l-100 -329h-404l-217 730h387l90 -344l116 344h255z" />
    <glyph glyph-name="wdieresis" unicode="&#x1e85;" horiz-adv-x="1249" 
d="M613 690q0 58 -39 92t-114 34q-74 0 -113 -34t-39 -92q0 -54 39 -86.5t113 -32.5t113.5 32.5t39.5 86.5zM942 690q0 59 -38.5 92.5t-113.5 33.5t-114 -33.5t-39 -92.5q0 -54 39 -86.5t114 -32.5q74 0 113 32.5t39 86.5zM844 259l49 271h375l-174 -530h-389l-80 222
l-81 -222h-389l-175 530h376l49 -272l99 272h241z" />
    <glyph glyph-name="uni1E9E" unicode="&#x1e9e;" horiz-adv-x="1133" 
d="M883 435q111 0 175 -59.5t64 -157.5q0 -238 -352 -238q-185 0 -263.5 65t-88.5 214h245q6 -36 54 -36q31 0 43.5 10t12.5 32t-13 32t-45 10q-49 0 -167 -24l-48 134l169 61h-209q-38 0 -53 -14.5t-15 -51.5v-412h-354v412q0 168 86 243t293 75h632v-215l-201 -83
q15 3 35 3z" />
    <glyph glyph-name="Ygrave" unicode="&#x1ef2;" horiz-adv-x="926" 
d="M143 1004l214 -220h232l-97 220h-349zM561 730h416l-319 -549v-181h-388v180l-320 550h416l99 -206z" />
    <glyph glyph-name="ygrave" unicode="&#x1ef3;" horiz-adv-x="865" 
d="M121 804l214 -220h232l-97 220h-349zM440 243l77 287h380l-202 -453q-45 -102 -98.5 -164t-141 -97.5t-213.5 -35.5q-115 0 -199 20v220q48 -5 88 -5q33 0 47 7t23 25l-232 483h394z" />
    <glyph glyph-name="endash" unicode="&#x2013;" horiz-adv-x="756" 
d="M0 126v278h756v-278h-756z" />
    <glyph glyph-name="emdash" unicode="&#x2014;" horiz-adv-x="1203" 
d="M0 126v278h1203v-278h-1203z" />
    <glyph glyph-name="quoteleft" unicode="&#x2018;" horiz-adv-x="412" 
d="M205 303q-188 0 -188 158q1 129 122 269h204q-69 -62 -110 -122q160 -12 160 -154q0 -151 -188 -151z" />
    <glyph glyph-name="quoteright" unicode="&#x2019;" horiz-adv-x="412" 
d="M207 750q188 0 188 -157q0 -128 -122 -269h-204q69 62 110 122q-160 12 -160 153q0 151 188 151z" />
    <glyph glyph-name="quotesinglbase" unicode="&#x201a;" horiz-adv-x="419" 
d="M209 286q188 0 188 -157q0 -128 -122 -269h-204q72 65 110 122q-159 12 -159 154q0 150 187 150z" />
    <glyph glyph-name="quotedblleft" unicode="&#x201c;" horiz-adv-x="812" 
d="M205 303q-188 0 -188 158q1 129 122 269h204q-69 -62 -110 -122q156 -12 156 -154q0 -72 -45.5 -111.5t-138.5 -39.5zM605 303q-188 0 -188 158q1 129 122 269h205q-72 -65 -110 -122q159 -12 159 -154q0 -151 -188 -151z" />
    <glyph glyph-name="quotedblright" unicode="&#x201d;" horiz-adv-x="809" 
d="M207 750q188 0 188 -157q0 -128 -122 -269h-204q69 62 110 122q-160 12 -160 153q0 151 188 151zM607 750q189 0 189 -157q-1 -131 -123 -269h-204q72 65 110 122q-156 12 -156 153q0 151 184 151z" />
    <glyph glyph-name="quotedblbase" unicode="&#x201e;" horiz-adv-x="820" 
d="M209 286q188 0 188 -157q0 -128 -122 -269h-204q72 65 110 122q-159 12 -159 154q0 150 187 150zM610 286q188 0 188 -157q-1 -129 -122 -269h-205q72 65 110 122q-155 12 -155 154q0 72 45.5 111t138.5 39z" />
    <glyph glyph-name="dagger" unicode="&#x2020;" horiz-adv-x="562" 
d="M397 628h133v-196h-133v-191h-232v191h-133v196h133v102h232v-102z" />
    <glyph glyph-name="daggerdbl" unicode="&#x2021;" horiz-adv-x="562" 
d="M530 669v-161h-132v-43h132v-162h-132v-62h-233v62h-133v162h133v43h-133v161h133v61h233v-61h132z" />
    <glyph glyph-name="bullet" unicode="&#x2022;" horiz-adv-x="585" 
d="M539 266q0 111 -63 172t-184 61q-120 0 -183 -61t-63 -172q0 -112 63 -173.5t183 -61.5t183.5 61.5t63.5 173.5z" />
    <glyph glyph-name="ellipsis" unicode="&#x2026;" horiz-adv-x="1247" 
d="M397 136q0 151 -188 151q-187 0 -187 -151q0 -155 187 -155q188 0 188 155zM813 136q0 151 -189 151q-187 0 -187 -151q0 -155 187 -155q189 0 189 155zM1225 136q0 151 -188 151q-187 0 -187 -151q0 -155 187 -155q188 0 188 155z" />
    <glyph glyph-name="perthousand" unicode="&#x2030;" horiz-adv-x="1800" 
d="M258 309q119 0 185 60.5t66 160.5t-66 160t-185 60t-185 -60t-66 -160q0 -101 66 -161t185 -60zM898 730h315l-826 -730h-316zM258 571q47 0 47 -41q0 -42 -47 -42t-47 42q0 41 47 41zM1028 -21q119 0 185 60.5t66 160.5q0 101 -66 161t-185 60t-185 -60t-66 -161
q0 -100 66 -160.5t185 -60.5zM1552 -23q115 0 181.5 60.5t66.5 156.5q0 97 -66 157.5t-182 60.5t-182 -60.5t-66 -157.5t66 -157t182 -60zM1028 242q47 0 47 -42q0 -41 -47 -41t-47 41q0 42 47 42zM1552 235q22 0 34.5 -11.5t12.5 -29.5q0 -17 -12.5 -28t-34.5 -11
q-23 0 -35.5 11t-12.5 28q0 18 12.5 29.5t35.5 11.5z" />
    <glyph glyph-name="guilsinglleft" unicode="&#x2039;" horiz-adv-x="625" 
d="M8 266l214 215h394l-222 -215l222 -215h-394z" />
    <glyph glyph-name="guilsinglright" unicode="&#x203a;" horiz-adv-x="625" 
d="M8 481h395l213 -215l-213 -215h-395l222 215z" />
    <glyph glyph-name="fraction" unicode="&#x2044;" horiz-adv-x="352" 
d="M447 730h285l-826 -730h-286z" />
    <glyph glyph-name="uni2070" unicode="&#x2070;" 
d="M264 354q-122 0 -188.5 60t-66.5 159v21q0 100 66.5 160t188.5 60t188 -60t66 -160v-21q0 -99 -66 -159t-188 -60zM264 524q50 0 50 57v6q0 57 -50 57q-51 0 -51 -57v-6q0 -57 51 -57z" />
    <glyph glyph-name="uni2074" unicode="&#x2074;" 
d="M453 568h65v-145h-65v-58h-200v58h-248v133l220 247h228v-235zM253 658l-82 -90h82v90z" />
    <glyph glyph-name="uni2075" unicode="&#x2075;" 
d="M345 638q83 0 127.5 -37t44.5 -96q0 -65 -61 -108t-185 -43q-252 0 -257 172h209q10 -17 51 -17q44 0 44 28q0 27 -43 27q-35 0 -52 -15h-209l33 254h445v-148h-281l-7 -60q48 43 141 43z" />
    <glyph glyph-name="uni2076" unicode="&#x2076;" 
d="M346 627q83 0 127 -35.5t44 -88.5q0 -64 -61 -106.5t-187 -42.5q-257 0 -257 213v28q0 102 64.5 160.5t189.5 58.5q124 0 185.5 -47t64.5 -126h-207q-7 20 -46 20q-29 0 -41 -15t-12 -54v-3q47 38 136 38zM266 509q51 0 51 22q0 23 -51 23q-53 0 -53 -23q0 -22 53 -22z
" />
    <glyph glyph-name="uni2077" unicode="&#x2077;" 
d="M16 638v165h492v-142q-68 -44 -104 -116.5t-52 -179.5h-240q30 172 153 273h-249z" />
    <glyph glyph-name="uni2078" unicode="&#x2078;" 
d="M10 477q0 44 38.5 75t100.5 32v1q-59 1 -93 30.5t-34 72.5q0 54 57.5 90t184.5 36q125 0 183 -36t58 -90q0 -42 -35 -72t-92 -31v-1q63 -1 100.5 -32t37.5 -75q0 -52 -59.5 -87.5t-192.5 -35.5q-134 0 -194 35.5t-60 87.5zM212 641q0 -18 51 -18q52 0 52 18q0 20 -52 20
q-51 0 -51 -20zM206 527q0 -20 57 -20q58 0 58 20q0 19 -58 19q-57 0 -57 -19z" />
    <glyph glyph-name="uni2079" unicode="&#x2079;" 
d="M258 814q257 0 257 -213v-27q0 -103 -64.5 -161.5t-189.5 -58.5t-186.5 47t-64.5 126h208q6 -20 46 -20q29 0 41 15t12 54v3q-49 -38 -137 -38q-82 0 -126 35.5t-44 88.5q0 64 61.5 106.5t186.5 42.5zM261 615q52 0 52 22q0 23 -52 23t-52 -23q0 -22 52 -22z" />
    <glyph glyph-name="uni2080" unicode="&#x2080;" 
d="M264 -84q-122 0 -188.5 60t-66.5 159v21q0 100 66.5 160t188.5 60t188 -60t66 -160v-21q0 -99 -66 -159t-188 -60zM264 86q50 0 50 57v6q0 57 -50 57q-51 0 -51 -57v-6q0 -57 51 -57z" />
    <glyph glyph-name="uni2081" unicode="&#x2081;" 
d="M375 365v-280h120v-158h-460v158h138v63h-106v148l54 4q51 3 68.5 15t30.5 50h155z" />
    <glyph glyph-name="uni2082" unicode="&#x2082;" 
d="M226 82l286 -1v-154h-497v95q0 73 46 109t169 45q33 4 50.5 9t22 9t4.5 10q0 18 -41 18q-46 0 -50 -28h-200q4 81 67.5 131.5t184.5 50.5q119 0 177.5 -40.5t58.5 -100.5q0 -56 -47.5 -88.5t-168.5 -40.5q-38 -5 -49.5 -10t-12.5 -14z" />
    <glyph glyph-name="uni2083" unicode="&#x2083;" 
d="M13 108h197q2 -38 57 -38q50 0 50 18q0 15 -44 15h-38v86h38q36 0 36 15q0 18 -43 18q-53 0 -56 -38h-197q3 90 67 141t193 51q116 0 173 -37t57 -87q0 -47 -39.5 -76t-111.5 -29v-2q80 0 121.5 -29t41.5 -77q0 -51 -58.5 -87t-181.5 -36q-132 0 -196 51t-66 141z" />
    <glyph glyph-name="uni2084" unicode="&#x2084;" 
d="M453 130h65v-145h-65v-58h-200v58h-248v133l220 247h228v-235zM253 220l-82 -90h82v90z" />
    <glyph glyph-name="uni2085" unicode="&#x2085;" 
d="M345 200q83 0 127.5 -37t44.5 -96q0 -65 -61 -108t-185 -43q-252 0 -257 172h209q10 -17 51 -17q44 0 44 28q0 27 -43 27q-35 0 -52 -15h-209l33 254h445v-148h-281l-7 -60q48 43 141 43z" />
    <glyph glyph-name="uni2086" unicode="&#x2086;" 
d="M346 189q83 0 127 -35.5t44 -88.5q0 -64 -61 -106.5t-187 -42.5q-257 0 -257 213v28q0 102 64.5 160.5t189.5 58.5q124 0 185.5 -47t64.5 -126h-207q-7 20 -46 20q-29 0 -41 -15t-12 -54v-3q47 38 136 38zM266 71q51 0 51 22q0 23 -51 23q-53 0 -53 -23q0 -22 53 -22z
" />
    <glyph glyph-name="uni2087" unicode="&#x2087;" 
d="M16 200v165h492v-142q-68 -44 -104 -116.5t-52 -179.5h-240q30 172 153 273h-249z" />
    <glyph glyph-name="uni2088" unicode="&#x2088;" 
d="M10 39q0 44 38.5 75t100.5 32v1q-59 1 -93 30.5t-34 72.5q0 54 57.5 90t184.5 36q125 0 183 -36t58 -90q0 -42 -35 -72t-92 -31v-1q63 -1 100.5 -32t37.5 -75q0 -52 -59.5 -87.5t-192.5 -35.5q-134 0 -194 35.5t-60 87.5zM212 203q0 -18 51 -18q52 0 52 18q0 20 -52 20
q-51 0 -51 -20zM206 89q0 -20 57 -20q58 0 58 20q0 19 -58 19q-57 0 -57 -19z" />
    <glyph glyph-name="uni2089" unicode="&#x2089;" 
d="M258 376q257 0 257 -213v-28q0 -102 -64.5 -160.5t-189.5 -58.5t-186.5 47t-64.5 126h208q6 -20 46 -20q29 0 41 15t12 54v3q-49 -38 -137 -38q-82 0 -126 35.5t-44 88.5q0 64 61.5 106.5t186.5 42.5zM261 177q52 0 52 22t-52 22t-52 -22t52 -22z" />
    <glyph glyph-name="franc" unicode="&#x20a3;" horiz-adv-x="1030" 
d="M994 730v-259h-513v-59h498v-205h-498v-39h273v-99h-273v-69h-357v69h-104v99h104v562h870z" />
    <glyph glyph-name="lira" unicode="&#x20a4;" horiz-adv-x="1030" 
d="M644 248h367q-3 -145 -65.5 -206.5t-205.5 -61.5q-124 0 -274 67q-92 -66 -249 -66q-107 0 -157 36t-50 98q0 146 207 146q73 0 148 -20q-10 18 -26 36h-283v74h195q-21 16 -36 28h-159v74h86q-36 48 -36 100q0 41 20.5 74t66 62t131 45t204.5 16q99 0 176 -13.5
t128 -36.5t85 -57.5t50.5 -73.5t20.5 -87h-387q-9 23 -62 23q-35 0 -48.5 -9.5t-13.5 -30.5q0 -2 0.5 -6t0.5 -6h259v-74h-234l15 -28h219v-74h-190q10 -32 10 -58v-18q22 -6 41 -6q24 0 34 11t12 42zM217 104q61 0 97 15q-55 20 -97 20q-50 0 -50 -17q0 -18 50 -18z" />
    <glyph glyph-name="Euro" unicode="&#x20ac;" horiz-adv-x="1030" 
d="M532 220q45 0 66.5 18.5t26.5 57.5h381q-14 -149 -131 -232.5t-345 -83.5q-193 0 -309 76.5t-145 205.5h-74v89h65v1v26v1h-65v89h74q29 129 145 205.5t309 76.5q228 0 345 -83.5t131 -232.5h-381q-5 39 -26.5 57.5t-66.5 18.5q-64 0 -83 -42h126l-9 -89h-129v-2v-24v-2
h126l-8 -89h-106q19 -42 83 -42z" />
    <glyph glyph-name="uni20B4" unicode="&#x20b4;" horiz-adv-x="1030" 
d="M851 468h160v-89h-992v89h497q72 0 72 29q0 27 -72 27q-68 0 -77 -26h-379q13 252 461 252q122 0 210 -15t134 -40t66 -53t20 -59q0 -78 -100 -115zM178 262h-159v89h992v-89h-495q-73 0 -73 -29q0 -27 75 -27q69 0 78 26h380q-3 -58 -27 -101.5t-76.5 -78.5
t-145.5 -53.5t-225 -18.5q-120 0 -207 14.5t-131.5 39.5t-64.5 52.5t-20 59.5q0 78 99 116z" />
    <glyph glyph-name="uni20BA" unicode="&#x20ba;" horiz-adv-x="1030" 
d="M632 380h389q-6 -97 -35 -165.5t-89 -118t-157.5 -73t-236.5 -23.5h-394v299l-97 -17v104l97 18v41l-97 -18v105l97 17v181h382v-112l154 27v-104l-154 -28v-41l154 28v-105l-154 -27v-87h11q69 0 98.5 24t31.5 75z" />
    <glyph glyph-name="uni20BD" unicode="&#x20bd;" horiz-adv-x="1030" 
d="M610 207h-131v-39h290v-99h-290v-69h-370v69h-91v99h91v39h-91v99h91v424h501q227 0 323.5 -67.5t96.5 -193.5q0 -127 -96.5 -194.5t-323.5 -67.5zM595 480h-116v-82h116q58 0 58 41t-58 41z" />
    <glyph glyph-name="uni2116" unicode="&#x2116;" horiz-adv-x="1575" 
d="M1284 317q-118 0 -184.5 60t-66.5 157t66.5 156.5t184.5 59.5q119 0 185 -59t66 -157q0 -97 -66 -157t-185 -60zM636 434v296h358v-730h-359l-237 313v-313h-358v730h380zM1284 575q-47 0 -47 -41q0 -42 47 -42q23 0 35.5 11.5t12.5 30.5q0 41 -48 41zM1528 90h-488v199
h488v-199z" />
    <glyph glyph-name="trademark" unicode="&#x2122;" horiz-adv-x="1188" 
d="M158 551h-138v179h495v-179h-139v-186h-218v186zM843 596l48 134h257v-365h-188l2 165l-69 -165h-102l-69 172l1 -172h-188v365h258z" />
    <glyph glyph-name="oneeighth" unicode="&#x215b;" horiz-adv-x="1451" 
d="M375 730v-280h120v-158h-460v158h138v63h-106v148l54 4q51 3 68.5 15t30.5 50h155zM998 730h285l-826 -730h-286zM913 112q0 44 38.5 75t100.5 32v1q-59 1 -93 30.5t-34 72.5q0 54 57.5 90t184.5 36q125 0 183 -36t58 -90q0 -42 -35 -72t-92 -31v-1q63 -1 100.5 -32
t37.5 -75q0 -52 -59.5 -87.5t-192.5 -35.5q-134 0 -194 35.5t-60 87.5zM1115 276q0 -18 51 -18t51 18q0 20 -51 20t-51 -20zM1108 162q0 -20 58 -20t58 20q0 19 -58 19t-58 -19z" />
    <glyph glyph-name="threeeighths" unicode="&#x215c;" horiz-adv-x="1407" 
d="M13 473h197q2 -38 57 -38q50 0 50 19q0 15 -44 15h-38v85h38q36 0 36 15q0 18 -43 18q-53 0 -56 -37h-197q3 90 67 140.5t193 50.5q116 0 173 -36.5t57 -86.5q0 -47 -39.5 -76.5t-111.5 -29.5v-1q80 0 121.5 -29t41.5 -77q0 -51 -58.5 -87.5t-181.5 -36.5q-132 0 -196 51
t-66 141zM974 730h285l-826 -730h-286zM889 112q0 44 38.5 75t100.5 32v1q-59 1 -93 30.5t-34 72.5q0 54 57.5 90t184.5 36q125 0 183 -36t58 -90q0 -42 -35 -72t-92 -31v-1q63 -1 100.5 -32t37.5 -75q0 -52 -59.5 -87.5t-192.5 -35.5q-134 0 -194 35.5t-60 87.5zM1091 276
q0 -18 51 -18t51 18q0 20 -51 20t-51 -20zM1084 162q0 -20 58 -20t58 20q0 19 -58 19t-58 -19z" />
    <glyph glyph-name="fiveeighths" unicode="&#x215d;" horiz-adv-x="1405" 
d="M345 565q83 0 127.5 -37t44.5 -96q0 -65 -61 -108t-185 -43q-252 0 -257 172h209q10 -17 51 -17q44 0 44 28q0 27 -43 27q-35 0 -52 -15h-209l33 254h445v-148h-281l-7 -60q48 43 141 43zM974 730h285l-826 -730h-286zM889 112q0 44 38.5 75t100.5 32v1q-59 1 -93 30.5
t-34 72.5q0 54 57.5 90t184.5 36q125 0 183 -36t58 -90q0 -42 -35 -72t-92 -31v-1q63 -1 100.5 -32t37.5 -75q0 -52 -59.5 -87.5t-192.5 -35.5q-134 0 -194 35.5t-60 87.5zM1091 276q0 -18 51 -18t51 18q0 20 -51 20t-51 -20zM1084 162q0 -20 58 -20t58 20q0 19 -58 19
t-58 -19z" />
    <glyph glyph-name="seveneighths" unicode="&#x215e;" horiz-adv-x="1359" 
d="M16 565v165h492v-142q-68 -44 -104 -116.5t-52 -179.5h-240q30 172 153 273h-249zM919 730h285l-826 -730h-286zM835 112q0 44 38 75t100 32v1q-59 1 -93 30.5t-34 72.5q0 54 58 90t184 36q125 0 183 -36t58 -90q0 -42 -35 -72t-92 -31v-1q63 -1 101 -32t38 -75
q0 -52 -59.5 -87.5t-193.5 -35.5t-193.5 35.5t-59.5 87.5zM1037 276q0 -18 51 -18t51 18q0 20 -51 20t-51 -20zM1030 162q0 -20 58 -20t58 20q0 19 -58 19t-58 -19z" />
    <glyph glyph-name="arrowleft" unicode="&#x2190;" horiz-adv-x="833" 
d="M640 66h-331l-299 299l299 299h331l-155 -151h308v-297h-308z" />
    <glyph glyph-name="arrowup" unicode="&#x2191;" horiz-adv-x="677" 
d="M339 768l299 -299v-331l-151 154v-307h-297v308l-150 -155v331z" />
    <glyph glyph-name="arrowright" unicode="&#x2192;" horiz-adv-x="833" 
d="M823 365l-299 -299h-331l155 150h-308v297h308l-155 151h331z" />
    <glyph glyph-name="arrowdown" unicode="&#x2193;" horiz-adv-x="677" 
d="M638 592v-331l-299 -299l-299 299v331l150 -155v308h297v-307z" />
    <glyph glyph-name="arrowboth" unicode="&#x2194;" horiz-adv-x="1262" 
d="M953 66h-306l154 150h-341l155 -150h-306l-299 299l299 299h306l-155 -151h342l-155 151h306l299 -299z" />
    <glyph glyph-name="arrowupdn" unicode="&#x2195;" horiz-adv-x="677" 
d="M638 687v-306l-151 154v-340l151 154v-306l-299 -299l-299 299v306l150 -155v342l-150 -155v306l299 299z" />
    <glyph glyph-name="uni2196" unicode="&#x2196;" horiz-adv-x="720" 
d="M280 45l-234 234v423h423l234 -234l-216 3l218 -218l-210 -210l-218 217z" />
    <glyph glyph-name="uni2197" unicode="&#x2197;" horiz-adv-x="720" 
d="M674 702v-423l-234 -234l3 215l-218 -217l-210 210l218 218l-216 -3l234 234h423z" />
    <glyph glyph-name="uni2198" unicode="&#x2198;" horiz-adv-x="720" 
d="M675 43h-423l-234 234l215 -3l-217 217l210 211l218 -218l-4 216l235 -234v-423z" />
    <glyph glyph-name="uni2199" unicode="&#x2199;" horiz-adv-x="720" 
d="M702 277l-234 -234h-423v423l235 234l-4 -216l218 218l210 -211l-217 -217z" />
    <glyph glyph-name="minus" unicode="&#x2212;" horiz-adv-x="1031" 
d="M126 230v270h779v-270h-779z" />
    <glyph glyph-name="approxequal" unicode="&#x2248;" horiz-adv-x="1031" 
d="M104 387h271q0 45 7.5 59t27.5 14q14 0 50 -20t94.5 -40.5t128.5 -20.5q124 0 184 73.5t60 245.5h-271q0 -43 -7.5 -56.5t-27.5 -13.5q-13 0 -39 12.5t-54.5 27t-78 27t-103.5 12.5q-123 0 -182.5 -74t-59.5 -246zM104 31h271q0 46 7.5 60t27.5 14q14 0 50 -20.5
t94.5 -41t128.5 -20.5q124 0 184 74t60 246h-271q0 -43 -7.5 -57t-27.5 -14q-13 0 -39 12.5t-54.5 27t-78 27t-103.5 12.5q-123 0 -182.5 -73.5t-59.5 -246.5z" />
    <glyph glyph-name="notequal" unicode="&#x2260;" horiz-adv-x="1031" 
d="M905 655v-259h-282l-39 -62h321v-259h-468l-61 -105h-175l61 105h-136v259h283l39 62h-322v259h469l60 102h175l-60 -102h135z" />
    <glyph glyph-name="lessequal" unicode="&#x2264;" horiz-adv-x="1031" 
d="M132 643l767 119v-235l-503 -50l503 -51v-419h-767v229h710l-710 100v307z" />
    <glyph glyph-name="greaterequal" unicode="&#x2265;" horiz-adv-x="1031" 
d="M132 762l767 -119v-307l-710 -100h710v-229h-767v419l503 51l-503 50v235z" />
    <glyph glyph-name="uni2460" unicode="&#x2460;" horiz-adv-x="902" 
d="M451 -26q-163 0 -277 114t-114 277t114 277t277 114q162 0 276.5 -114t114.5 -277t-114.5 -277t-276.5 -114zM451 22q143 0 243 100t100 243t-100 243t-243 100t-243 -100t-100 -243t100 -243t243 -100zM223 316v-159h460v159h-120v279h-155q-13 -37 -30.5 -49t-68.5 -16
l-55 -3v-148h106v-63h-137z" />
    <glyph glyph-name="uni2461" unicode="&#x2461;" horiz-adv-x="902" 
d="M451 -26q-163 0 -277 114t-114 277t114 277t277 114q162 0 276.5 -114t114.5 -277t-114.5 -277t-276.5 -114zM451 22q143 0 243 100t100 243t-100 243t-243 100t-243 -100t-100 -243t100 -243t243 -100zM203 248v-95h497v154l-286 1q1 9 12.5 14t49.5 10q121 9 168.5 41
t47.5 88q0 60 -58.5 100.5t-177.5 40.5q-121 0 -184.5 -50.5t-67.5 -131.5h199q4 28 50 28q41 0 41 -18q0 -6 -4.5 -10t-21.5 -9t-50 -9q-123 -9 -169 -45t-46 -109z" />
    <glyph glyph-name="uni2462" unicode="&#x2462;" horiz-adv-x="902" 
d="M451 -26q-163 0 -277 114t-114 277t114 277t277 114q162 0 276.5 -114t114.5 -277t-114.5 -277t-276.5 -114zM451 22q143 0 243 100t100 243t-100 243t-243 100t-243 -100t-100 -243t100 -243t243 -100zM397 327h-197q2 -90 66 -141t196 -51q123 0 181.5 36t58.5 87
q0 48 -41.5 77t-120.5 29v2q71 0 111 29t40 76q0 50 -57.5 87t-173.5 37q-129 0 -193 -51t-67 -141h197q3 38 57 38q43 0 43 -18q0 -15 -37 -15h-38v-86h38q44 0 44 -15q0 -18 -50 -18q-55 0 -57 38z" />
    <glyph glyph-name="uni2463" unicode="&#x2463;" horiz-adv-x="902" 
d="M451 -26q-163 0 -277 114t-114 277t114 277t277 114q162 0 276.5 -114.5t114.5 -276.5q0 -163 -114.5 -277t-276.5 -114zM451 22q143 0 243 100t100 243q0 142 -101 242.5t-242 100.5q-143 0 -243 -100t-100 -243t100 -243t243 -100zM191 342v-133h249v-59h199v59h66v145
h-66v234h-228zM440 354h-83l83 90v-90z" />
    <glyph glyph-name="uni2464" unicode="&#x2464;" horiz-adv-x="902" 
d="M451 -26q-163 0 -277 114t-114 277t114 277t277 114q162 0 276.5 -114t114.5 -277t-114.5 -277t-276.5 -114zM451 22q143 0 243 100t100 243t-100 243t-243 100t-243 -100t-100 -243t100 -243t243 -100zM408 313h-208q3 -173 256 -173q125 0 185.5 43t60.5 109
q0 58 -44.5 95t-126.5 37q-94 0 -142 -43l7 60h282v148h-446l-32 -254h208q19 15 52 15q43 0 43 -26q0 -28 -44 -28q-43 0 -51 17z" />
    <glyph glyph-name="uni2465" unicode="&#x2465;" horiz-adv-x="902" 
d="M451 -26q-163 0 -277 114t-114 277t114 277t277 114q161 0 276 -114t115 -277t-114.5 -277t-276.5 -114zM451 22q143 0 243 100t100 243t-100 243t-243 100t-243 -100t-100 -243t100 -243t243 -100zM199 376v-28q0 -213 257 -213q125 0 186.5 42.5t61.5 106.5
q0 53 -44 88.5t-127 35.5q-90 0 -137 -38v3q0 39 12.5 54t41.5 15q39 0 46 -20h207q-3 79 -64.5 126t-185.5 47q-125 0 -189.5 -58.5t-64.5 -160.5zM400 312q0 23 53 23q51 0 51 -23q0 -22 -51 -22q-53 0 -53 22z" />
    <glyph glyph-name="uni2466" unicode="&#x2466;" horiz-adv-x="902" 
d="M451 -26q-163 0 -277 114t-114 277t114 277t277 114q162 0 276.5 -114t114.5 -277t-114.5 -277t-276.5 -114zM451 22q143 0 243 100t100 243t-100 243t-243 100t-243 -100t-100 -243t100 -243t243 -100zM208 567v-165h246q-60 -49 -100 -121.5t-53 -151.5h240
q16 106 52 179t104 117v142h-489z" />
    <glyph glyph-name="uni2467" unicode="&#x2467;" horiz-adv-x="902" 
d="M451 -26q-163 0 -277 114t-114 277t114.5 277t276.5 114t276.5 -114t114.5 -277t-114.5 -277t-276.5 -114zM451 22q143 0 243 100t100 243t-100 243t-243 100t-243 -100t-100 -243t100 -243t243 -100zM198 258q0 -53 60 -88.5t194 -35.5q133 0 193 35.5t60 88.5
q0 44 -38 74.5t-101 31.5v1q57 1 92 31t35 72q0 54 -58 90.5t-183 36.5q-126 0 -184 -36.5t-58 -90.5q0 -42 34 -72t93 -31v-1q-61 -1 -100 -32t-39 -74zM400 421q0 20 51 20q52 0 52 -20q0 -18 -52 -18q-51 0 -51 18zM394 308q0 18 57 18q58 0 58 -18q0 -20 -58 -20
q-57 0 -57 20z" />
    <glyph glyph-name="uni2468" unicode="&#x2468;" horiz-adv-x="902" 
d="M451 -26q-163 0 -277 114t-114 277t114.5 277t276.5 114t276.5 -114t114.5 -277t-114.5 -277t-276.5 -114zM451 22q143 0 243 100t100 243t-100 243t-243 100t-243 -100t-100 -243t100 -243t243 -100zM406 308h-207q3 -79 64.5 -126t186.5 -47t189.5 58.5t64.5 161.5v27
q0 213 -257 213q-126 0 -187 -42.5t-61 -106.5q0 -53 44 -88.5t126 -35.5q90 0 137 38v-4q0 -38 -12.5 -53t-41.5 -15q-40 0 -46 20zM398 418q0 23 51 23q53 0 53 -23q0 -22 -53 -22q-51 0 -51 22z" />
    <glyph glyph-name="uni24EA" unicode="&#x24ea;" horiz-adv-x="902" 
d="M451 -26q-163 0 -277 114t-114 277t114 277t277 114q162 0 276.5 -114t114.5 -277t-114.5 -277t-276.5 -114zM451 22q143 0 243 100t100 243t-100 243t-243 100t-243 -100t-100 -243t100 -243t243 -100zM452 135q122 0 188 60t66 159v21q0 100 -66 160t-188 60
t-188.5 -60t-66.5 -160v-21q0 -99 66.5 -159t188.5 -60zM452 305q-51 0 -51 57v6q0 57 51 57q50 0 50 -57v-6q0 -57 -50 -57z" />
    <glyph glyph-name="uni24FF" unicode="&#x24ff;" horiz-adv-x="902" 
d="M451 -26q-163 0 -277 114t-114 277t114 277t277 114q162 0 276.5 -114t114.5 -277t-114.5 -277t-276.5 -114zM452 135q122 0 188 60t66 159v21q0 100 -66 160t-188 60t-188.5 -60t-66.5 -160v-21q0 -99 66.5 -159t188.5 -60zM452 305q-51 0 -51 57v6q0 57 51 57
q50 0 50 -57v-6q0 -57 -50 -57z" />
    <glyph glyph-name="filledbox" unicode="&#x25a0;" horiz-adv-x="670" 
d="M70 0v530h530v-530h-530z" />
    <glyph glyph-name="uni25A1" unicode="&#x25a1;" horiz-adv-x="670" 
d="M70 0v530h530v-530h-530zM552 482h-434v-434h434v434z" />
    <glyph glyph-name="lozenge" unicode="&#x25ca;" horiz-adv-x="820" 
d="M198 730h423l187 -365l-187 -365h-423l-186 365zM323 365l87 -185l87 185l-87 185z" />
    <glyph glyph-name="circle" unicode="&#x25cb;" horiz-adv-x="691" 
d="M345 -20q-119 0 -202 83t-83 202t83 202t202 83t202.5 -83.5t83.5 -201.5t-83.5 -201.5t-202.5 -83.5zM345 28q98 0 168 69.5t70 167.5t-70 167.5t-168 69.5t-167.5 -69.5t-69.5 -167.5t69.5 -167.5t167.5 -69.5z" />
    <glyph glyph-name="uni25CF" unicode="&#x25cf;" horiz-adv-x="691" 
d="M345 -20q-119 0 -202 83t-83 202t83 202t202 83t202.5 -83.5t83.5 -201.5t-83.5 -201.5t-202.5 -83.5z" />
    <glyph glyph-name="uni2776" unicode="&#x2776;" horiz-adv-x="902" 
d="M451 -26q-163 0 -277 114t-114 277t114 277t277 114q162 0 276.5 -114t114.5 -277t-114.5 -277t-276.5 -114zM223 316v-159h460v159h-120v279h-155q-13 -37 -30.5 -49t-68.5 -16l-55 -3v-148h106v-63h-137z" />
    <glyph glyph-name="uni2777" unicode="&#x2777;" horiz-adv-x="902" 
d="M451 -26q-163 0 -277 114t-114 277t114 277t277 114q162 0 276.5 -114t114.5 -277t-114.5 -277t-276.5 -114zM203 248v-95h497v154l-286 1q1 9 12.5 14t49.5 10q121 9 168.5 41t47.5 88q0 60 -58.5 100.5t-177.5 40.5q-121 0 -184.5 -50.5t-67.5 -131.5h199q4 28 50 28
q41 0 41 -18q0 -6 -4.5 -10t-21.5 -9t-50 -9q-123 -9 -169 -45t-46 -109z" />
    <glyph glyph-name="uni2778" unicode="&#x2778;" horiz-adv-x="902" 
d="M451 -26q-163 0 -277 114t-114 277t114 277t277 114q162 0 276.5 -114t114.5 -277t-114.5 -277t-276.5 -114zM397 327h-197q2 -90 66 -141t196 -51q123 0 181.5 36t58.5 87q0 48 -41.5 77t-120.5 29v2q71 0 111 29t40 76q0 50 -57.5 87t-173.5 37q-129 0 -193 -51
t-67 -141h197q3 38 57 38q43 0 43 -18q0 -15 -37 -15h-38v-86h38q44 0 44 -15q0 -18 -50 -18q-55 0 -57 38z" />
    <glyph glyph-name="uni2779" unicode="&#x2779;" horiz-adv-x="902" 
d="M451 -26q-163 0 -277 114t-114 277t114 277t277 114q162 0 276.5 -114.5t114.5 -276.5q0 -163 -114.5 -277t-276.5 -114zM191 342v-133h249v-59h199v59h66v145h-66v234h-228zM440 354h-83l83 90v-90z" />
    <glyph glyph-name="uni277A" unicode="&#x277a;" horiz-adv-x="902" 
d="M451 -26q-163 0 -277 114t-114 277t114 277t277 114q162 0 276.5 -114t114.5 -277t-114.5 -277t-276.5 -114zM408 313h-208q3 -173 256 -173q125 0 185.5 43t60.5 109q0 58 -44.5 95t-126.5 37q-94 0 -142 -43l7 60h282v148h-446l-32 -254h208q19 15 52 15q43 0 43 -26
q0 -28 -44 -28q-43 0 -51 17z" />
    <glyph glyph-name="uni277B" unicode="&#x277b;" horiz-adv-x="902" 
d="M451 -26q-163 0 -277 114t-114 277t114 277t277 114q161 0 276 -114t115 -277t-114.5 -277t-276.5 -114zM199 376v-28q0 -213 257 -213q125 0 186.5 42.5t61.5 106.5q0 53 -44 88.5t-127 35.5q-90 0 -137 -38v3q0 39 12.5 54t41.5 15q39 0 46 -20h207q-3 79 -64.5 126
t-185.5 47q-125 0 -189.5 -58.5t-64.5 -160.5zM400 312q0 23 53 23q51 0 51 -23q0 -22 -51 -22q-53 0 -53 22z" />
    <glyph glyph-name="uni277C" unicode="&#x277c;" horiz-adv-x="902" 
d="M451 -26q-163 0 -277 114t-114 277t114 277t277 114q162 0 276.5 -114t114.5 -277t-114.5 -277t-276.5 -114zM208 567v-165h246q-60 -49 -100 -121.5t-53 -151.5h240q16 106 52 179t104 117v142h-489z" />
    <glyph glyph-name="uni277D" unicode="&#x277d;" horiz-adv-x="902" 
d="M451 -26q-163 0 -277 114t-114 277t114.5 277t276.5 114t276.5 -114t114.5 -277t-114.5 -277t-276.5 -114zM198 258q0 -53 60 -88.5t194 -35.5q133 0 193 35.5t60 88.5q0 44 -38 74.5t-101 31.5v1q57 1 92 31t35 72q0 54 -58 90.5t-183 36.5q-126 0 -184 -36.5t-58 -90.5
q0 -42 34 -72t93 -31v-1q-61 -1 -100 -32t-39 -74zM400 421q0 20 51 20q52 0 52 -20q0 -18 -52 -18q-51 0 -51 18zM394 308q0 18 57 18q58 0 58 -18q0 -20 -58 -20q-57 0 -57 20z" />
    <glyph glyph-name="uni277E" unicode="&#x277e;" horiz-adv-x="902" 
d="M451 -26q-163 0 -277 114t-114 277t114.5 277t276.5 114t276.5 -114t114.5 -277t-114.5 -277t-276.5 -114zM406 308h-207q3 -79 64.5 -126t186.5 -47t189.5 58.5t64.5 161.5v27q0 213 -257 213q-126 0 -187 -42.5t-61 -106.5q0 -53 44 -88.5t126 -35.5q90 0 137 38v-4
q0 -38 -12.5 -53t-41.5 -15q-40 0 -46 20zM398 418q0 23 51 23q53 0 53 -23q0 -22 -53 -22q-51 0 -51 22z" />
    <glyph glyph-name="G.ss01" horiz-adv-x="1071" 
d="M507 299v124h545q3 -39 3 -77q0 -366 -512 -366q-267 0 -396.5 97.5t-129.5 262.5v38q0 169 132 270.5t398 101.5q125 0 221.5 -24t154.5 -66t89 -93.5t37 -112.5h-408q-23 39 -106 39q-125 0 -125 -124v-8q0 -63 31.5 -93t97.5 -30q104 0 117 61h-149z" />
    <glyph glyph-name="Gbreve.ss01" horiz-adv-x="1071" 
d="M205 1009h237q0 -3 0.5 -7t5 -15t13.5 -19.5t29.5 -15.5t48.5 -7t48.5 6.5t29.5 16t13.5 19t5.5 15.5v7h237q0 -5 -0.5 -13t-7 -32t-17.5 -45.5t-36 -48t-59 -45.5t-89.5 -32t-124.5 -13t-124.5 12.5t-89.5 33t-59 44.5t-36 48.5t-17.5 45t-6.5 32.5zM507 299v124h545
q3 -39 3 -77q0 -366 -512 -366q-267 0 -396.5 97.5t-129.5 262.5v38q0 169 132 270.5t398 101.5q125 0 221.5 -24t154.5 -66t89 -93.5t37 -112.5h-408q-23 39 -106 39q-125 0 -125 -124v-8q0 -63 31.5 -93t97.5 -30q104 0 117 61h-149z" />
    <glyph glyph-name="Gcaron.ss01" horiz-adv-x="1071" 
d="M393 784h292l194 220h-270l-70 -76l-68 76h-270zM507 299v124h545q3 -39 3 -77q0 -366 -512 -366q-267 0 -396.5 97.5t-129.5 262.5v38q0 169 132 270.5t398 101.5q125 0 221.5 -24t154.5 -66t89 -93.5t37 -112.5h-408q-23 39 -106 39q-125 0 -125 -124v-8
q0 -63 31.5 -93t97.5 -30q104 0 117 61h-149z" />
    <glyph glyph-name="Gcircumflex.ss01" horiz-adv-x="1071" 
d="M684 1004h-291l-194 -220h270l70 76l68 -76h270zM507 299v124h545q3 -39 3 -77q0 -366 -512 -366q-267 0 -396.5 97.5t-129.5 262.5v38q0 169 132 270.5t398 101.5q125 0 221.5 -24t154.5 -66t89 -93.5t37 -112.5h-408q-23 39 -106 39q-125 0 -125 -124v-8
q0 -63 31.5 -93t97.5 -30q104 0 117 61h-149z" />
    <glyph glyph-name="uni0122.ss01" horiz-adv-x="1071" 
d="M507 299v124h545q3 -39 3 -77q0 -366 -512 -366q-267 0 -396.5 97.5t-129.5 262.5v38q0 169 132 270.5t398 101.5q125 0 221.5 -24t154.5 -66t89 -93.5t37 -112.5h-408q-23 39 -106 39q-125 0 -125 -124v-8q0 -63 31.5 -93t97.5 -30q104 0 117 61h-149zM522 -255
q-96 0 -141.5 30t-45.5 77q0 49 47 79t150 30q197 0 197 -116q0 -107 -114 -181h-215q83 41 122 81z" />
    <glyph glyph-name="Gdotaccent.ss01" horiz-adv-x="1071" 
d="M736 894q0 123 -197 123t-197 -123t197 -123t197 123zM507 299v124h545q3 -39 3 -77q0 -366 -512 -366q-267 0 -396.5 97.5t-129.5 262.5v38q0 169 132 270.5t398 101.5q125 0 221.5 -24t154.5 -66t89 -93.5t37 -112.5h-408q-23 39 -106 39q-125 0 -125 -124v-8
q0 -63 31.5 -93t97.5 -30q104 0 117 61h-149z" />
    <glyph glyph-name="Q.ss01" horiz-adv-x="1061" 
d="M1044 384v-38q0 -189 -160 -284l121 -179h-453l-44 98q-3 0 -9.5 -0.5t-9.5 -0.5q-234 9 -353 109t-119 257v38q0 164 129.5 265t383.5 101q255 0 384.5 -101t129.5 -265zM530 270q59 0 89 25t30 66v8q0 41 -30 66t-89 25t-88.5 -24.5t-29.5 -66.5v-8q0 -42 29.5 -66.5
t88.5 -24.5z" />
    <glyph glyph-name="R.ss01" horiz-adv-x="1002" 
d="M1006 0h-426l-113 219h-61v-219h-366v730h548q206 0 295.5 -65.5t89.5 -190.5q0 -146 -123 -205zM538 480h-131v-77h131q59 0 59 38q0 39 -59 39z" />
    <glyph glyph-name="Racute.ss01" horiz-adv-x="1002" 
d="M348 784h232l214 220h-349zM1006 0h-426l-113 219h-61v-219h-366v730h548q206 0 295.5 -65.5t89.5 -190.5q0 -146 -123 -205zM538 480h-131v-77h131q59 0 59 38q0 39 -59 39z" />
    <glyph glyph-name="Rcaron.ss01" horiz-adv-x="1002" 
d="M327 784h292l194 220h-270l-70 -76l-68 76h-270zM1006 0h-426l-113 219h-61v-219h-366v730h548q206 0 295.5 -65.5t89.5 -190.5q0 -146 -123 -205zM538 480h-131v-77h131q59 0 59 38q0 39 -59 39z" />
    <glyph glyph-name="uni0156.ss01" horiz-adv-x="1002" 
d="M1006 0h-426l-113 219h-61v-219h-366v730h548q206 0 295.5 -65.5t89.5 -190.5q0 -146 -123 -205zM538 480h-131v-77h131q59 0 59 38q0 39 -59 39zM493 -255q-96 0 -141.5 30t-45.5 77q0 49 47 79t150 30q197 0 197 -116q0 -107 -114 -181h-215q83 41 122 81z" />
    <glyph glyph-name="I.ss04" horiz-adv-x="758" 
d="M731 0h-704v288h175v154h-175v288h704v-288h-175v-154h175v-288z" />
    <glyph glyph-name="IJ.ss04" horiz-adv-x="1689" 
d="M731 0h-704v288h175v154h-175v288h704v-288h-175v-154h175v-288zM759 333h389q1 -31 15.5 -44.5t45.5 -13.5q58 0 58 50v120h-464v285h849v-420q0 -330 -442 -330q-232 0 -338 88.5t-113 264.5z" />
    <glyph glyph-name="Iacute.ss04" horiz-adv-x="758" 
d="M254 784h232l214 220h-349zM731 0h-704v288h175v154h-175v288h704v-288h-175v-154h175v-288z" />
    <glyph glyph-name="uni01CF.ss04" horiz-adv-x="758" 
d="M233 784h292l194 220h-270l-70 -76l-68 76h-270zM731 0h-704v288h175v154h-175v288h704v-288h-175v-154h175v-288z" />
    <glyph glyph-name="Icircumflex.ss04" horiz-adv-x="758" 
d="M523 1004h-291l-194 -220h270l70 76l68 -76h270zM731 0h-704v288h175v154h-175v288h704v-288h-175v-154h175v-288z" />
    <glyph glyph-name="Idieresis.ss04" horiz-adv-x="758" 
d="M365 890q0 59 -39 92.5t-115 33.5t-115 -33.5t-39 -92.5q0 -54 39.5 -86.5t114.5 -32.5t114.5 32.5t39.5 86.5zM703 890q0 59 -39 92.5t-115 33.5t-115 -33.5t-39 -92.5q0 -54 39.5 -86.5t114.5 -32.5t114.5 32.5t39.5 86.5zM731 0h-704v288h175v154h-175v288h704v-288
h-175v-154h175v-288z" />
    <glyph glyph-name="Idotaccent.ss04" horiz-adv-x="758" 
d="M576 894q0 123 -197 123t-197 -123t197 -123t197 123zM731 0h-704v288h175v154h-175v288h704v-288h-175v-154h175v-288z" />
    <glyph glyph-name="Igrave.ss04" horiz-adv-x="758" 
d="M57 1004l214 -220h232l-97 220h-349zM731 0h-704v288h175v154h-175v288h704v-288h-175v-154h175v-288z" />
    <glyph glyph-name="Imacron.ss04" horiz-adv-x="758" 
d="M91 784v180h575v-180h-575zM731 0h-704v288h175v154h-175v288h704v-288h-175v-154h175v-288z" />
    <glyph glyph-name="Iogonek.ss04" horiz-adv-x="758" 
d="M731 730v-288h-175v-154h175v-288q-208 -15 -208 -51q0 -19 49 -19q60 0 159 26v-154q-94 -21 -204 -21q-200 0 -200 116q0 61 60 103h-360v288h175v154h-175v288h704z" />
    <glyph glyph-name="Itilde.ss04" horiz-adv-x="758" 
d="M37 784h219q0 37 7.5 50t25.5 13q15 0 44 -17.5t78 -35.5t112 -18q99 0 147 54t48 174h-219q0 -37 -8 -50.5t-26 -13.5q-13 0 -35 11t-44.5 24.5t-64 24.5t-89.5 11q-99 0 -147 -53.5t-48 -173.5zM731 0h-704v288h175v154h-175v288h704v-288h-175v-154h175v-288z" />
    <glyph glyph-name="K.ss05" horiz-adv-x="1014" 
d="M941 188l28 -87q14 -49 24 -68t29 -33h-400q-36 22 -54 91l-25 83q-11 30 -26 41t-48 11h-50v-226h-379v730h379v-225h50q27 0 40 10t26 40l32 90q24 71 50 85h404q-18 -11 -27 -29t-26 -71l-30 -83q-32 -89 -79 -127.5t-122 -50.5v-2q40 -7 66.5 -16t53.5 -28t47.5 -52
t36.5 -83z" />
    <glyph glyph-name="uni0136.ss05" horiz-adv-x="1014" 
d="M941 188l28 -87q14 -49 24 -68t29 -33h-400q-36 22 -54 91l-25 83q-11 30 -26 41t-48 11h-50v-226h-379v730h379v-225h50q27 0 40 10t26 40l32 90q24 71 50 85h404q-18 -11 -27 -29t-26 -71l-30 -83q-32 -89 -79 -127.5t-122 -50.5v-2q40 -7 66.5 -16t53.5 -28t47.5 -52
t36.5 -83zM495 -255q-96 0 -141.5 30t-45.5 77q0 49 47 79t150 30q197 0 197 -116q0 -107 -114 -181h-215q83 41 122 81z" />
    <glyph glyph-name="i.loclTRK" horiz-adv-x="444" 
d="M420 694q0 123 -197 123t-197 -123t197 -123t197 123zM406 0h-368v530h368v-530z" />
    <glyph glyph-name="a.ss02" horiz-adv-x="955" 
d="M636 368l117 162h163v-530h-163l-117 162q-26 -85 -103.5 -133.5t-198.5 -48.5q-150 0 -232.5 75t-82.5 202v16q0 127 82.5 202t232.5 75q121 0 198.5 -48.5t103.5 -133.5zM468 205q80 0 80 60t-80 60t-80 -60t80 -60z" />
    <glyph glyph-name="aacute.ss02" horiz-adv-x="955" 
d="M348 584h232l214 220h-349zM636 368l117 162h163v-530h-163l-117 162q-26 -85 -103.5 -133.5t-198.5 -48.5q-150 0 -232.5 75t-82.5 202v16q0 127 82.5 202t232.5 75q121 0 198.5 -48.5t103.5 -133.5zM468 205q80 0 80 60t-80 60t-80 -60t80 -60z" />
    <glyph glyph-name="abreve.ss02" horiz-adv-x="955" 
d="M143 804h236q0 -3 0.5 -7t5 -15.5t13.5 -20t28.5 -15.5t46.5 -7t46.5 6.5t28 16.5t13.5 19.5t5 16.5v6h237q0 -58 -40 -114q-81 -115 -290 -115q-68 0 -123 12.5t-88.5 33t-58.5 45t-36 48.5t-17 44.5t-6 33.5zM636 368l117 162h163v-530h-163l-117 162
q-26 -85 -103.5 -133.5t-198.5 -48.5q-150 0 -232.5 75t-82.5 202v16q0 127 82.5 202t232.5 75q121 0 198.5 -48.5t103.5 -133.5zM468 205q80 0 80 60t-80 60t-80 -60t80 -60z" />
    <glyph glyph-name="uni01CE.ss02" horiz-adv-x="955" 
d="M327 584h292l194 220h-270l-70 -76l-68 76h-270zM636 368l117 162h163v-530h-163l-117 162q-26 -85 -103.5 -133.5t-198.5 -48.5q-150 0 -232.5 75t-82.5 202v16q0 127 82.5 202t232.5 75q121 0 198.5 -48.5t103.5 -133.5zM468 205q80 0 80 60t-80 60t-80 -60t80 -60z
" />
    <glyph glyph-name="acircumflex.ss02" horiz-adv-x="955" 
d="M617 804h-291l-194 -220h270l70 76l68 -76h270zM636 368l117 162h163v-530h-163l-117 162q-26 -85 -103.5 -133.5t-198.5 -48.5q-150 0 -232.5 75t-82.5 202v16q0 127 82.5 202t232.5 75q121 0 198.5 -48.5t103.5 -133.5zM468 205q80 0 80 60t-80 60t-80 -60t80 -60z" />
    <glyph glyph-name="adieresis.ss02" horiz-adv-x="955" 
d="M460 690q0 58 -39 92t-114 34q-74 0 -113 -34t-39 -92q0 -54 39 -86.5t113 -32.5t113.5 32.5t39.5 86.5zM789 690q0 59 -38.5 92.5t-113.5 33.5t-114 -33.5t-39 -92.5q0 -54 39 -86.5t114 -32.5q74 0 113 32.5t39 86.5zM636 368l117 162h163v-530h-163l-117 162
q-26 -85 -103.5 -133.5t-198.5 -48.5q-150 0 -232.5 75t-82.5 202v16q0 127 82.5 202t232.5 75q121 0 198.5 -48.5t103.5 -133.5zM468 205q80 0 80 60t-80 60t-80 -60t80 -60z" />
    <glyph glyph-name="agrave.ss02" horiz-adv-x="955" 
d="M152 804l214 -220h232l-97 220h-349zM636 368l117 162h163v-530h-163l-117 162q-26 -85 -103.5 -133.5t-198.5 -48.5q-150 0 -232.5 75t-82.5 202v16q0 127 82.5 202t232.5 75q121 0 198.5 -48.5t103.5 -133.5zM468 205q80 0 80 60t-80 60t-80 -60t80 -60z" />
    <glyph glyph-name="amacron.ss02" horiz-adv-x="955" 
d="M185 584v180h575v-180h-575zM636 368l117 162h163v-530h-163l-117 162q-26 -85 -103.5 -133.5t-198.5 -48.5q-150 0 -232.5 75t-82.5 202v16q0 127 82.5 202t232.5 75q121 0 198.5 -48.5t103.5 -133.5zM468 205q80 0 80 60t-80 60t-80 -60t80 -60z" />
    <glyph glyph-name="aogonek.ss02" horiz-adv-x="955" 
d="M753 530h163v-530q-208 -15 -208 -51q0 -19 50 -19q59 0 158 26v-154q-92 -21 -204 -21q-200 0 -200 116q0 56 52 96.5t152 55.5l-80 113q-26 -85 -103.5 -133.5t-198.5 -48.5q-150 0 -232.5 75t-82.5 202v16q0 127 82.5 202t232.5 75q121 0 198.5 -48.5t103.5 -133.5z
M468 205q80 0 80 60t-80 60t-80 -60t80 -60z" />
    <glyph glyph-name="aring.ss02" horiz-adv-x="955" 
d="M474 575q108 0 162.5 41.5t54.5 107.5t-54.5 107.5t-162.5 41.5q-109 0 -164 -41.5t-55 -107.5t55 -107.5t164 -41.5zM474 751q33 0 33 -27q0 -28 -33 -28q-35 0 -35 28q0 27 35 27zM636 368l117 162h163v-530h-163l-117 162q-26 -85 -103.5 -133.5t-198.5 -48.5
q-150 0 -232.5 75t-82.5 202v16q0 127 82.5 202t232.5 75q121 0 198.5 -48.5t103.5 -133.5zM468 205q80 0 80 60t-80 60t-80 -60t80 -60z" />
    <glyph glyph-name="aringacute.ss02" horiz-adv-x="955" 
d="M255 724q0 -66 55 -107.5t163 -41.5t163 41.5t55 107.5q0 60 -44 98l140 139h-348l-40 -95q-72 -13 -108 -51t-36 -91zM439 724q0 27 34 27t34 -27q0 -28 -34 -28t-34 28zM636 368l117 162h163v-530h-163l-117 162q-26 -85 -103.5 -133.5t-198.5 -48.5q-150 0 -232.5 75
t-82.5 202v16q0 127 82.5 202t232.5 75q121 0 198.5 -48.5t103.5 -133.5zM468 205q80 0 80 60t-80 60t-80 -60t80 -60z" />
    <glyph glyph-name="atilde.ss02" horiz-adv-x="955" 
d="M131 584h219q0 37 7.5 50t25.5 13q15 0 44 -17.5t78 -35.5t112 -18q99 0 147 54t48 174h-219q0 -37 -8 -50.5t-26 -13.5q-13 0 -35 11t-44.5 24.5t-64 24.5t-89.5 11q-99 0 -147 -53.5t-48 -173.5zM636 368l117 162h163v-530h-163l-117 162q-26 -85 -103.5 -133.5
t-198.5 -48.5q-150 0 -232.5 75t-82.5 202v16q0 127 82.5 202t232.5 75q121 0 198.5 -48.5t103.5 -133.5zM468 205q80 0 80 60t-80 60t-80 -60t80 -60z" />
    <glyph glyph-name="g.ss03" horiz-adv-x="957" 
d="M641 368l115 162h163v-465q0 -68 -23 -118.5t-73.5 -88.5t-138 -57.5t-210.5 -19.5q-122 0 -208.5 17t-135 49t-71 70t-26.5 87h372q10 -33 69 -33q44 0 61 21.5t17 81.5v50q-76 -89 -233 -89q-138 0 -219 70t-81 175v7q0 117 83 190t233 73q125 0 204 -49.5t102 -132.5z
M469 227q83 0 83 50q0 49 -83 49q-82 0 -82 -49q0 -50 82 -50z" />
    <glyph glyph-name="gbreve.ss03" horiz-adv-x="957" 
d="M145 804h236q0 -3 0.5 -7t5 -15.5t13.5 -20t28.5 -15.5t46.5 -7t46.5 6.5t28 16.5t13.5 19.5t5 16.5v6h237q0 -58 -40 -114q-81 -115 -290 -115q-68 0 -123 12.5t-88.5 33t-58.5 45t-36 48.5t-17 44.5t-6 33.5zM641 368l115 162h163v-465q0 -68 -23 -118.5t-73.5 -88.5
t-138 -57.5t-210.5 -19.5q-122 0 -208.5 17t-135 49t-71 70t-26.5 87h372q10 -33 69 -33q44 0 61 21.5t17 81.5v50q-76 -89 -233 -89q-138 0 -219 70t-81 175v7q0 117 83 190t233 73q125 0 204 -49.5t102 -132.5zM469 227q83 0 83 50q0 49 -83 49q-82 0 -82 -49
q0 -50 82 -50z" />
    <glyph glyph-name="gcaron.ss03" horiz-adv-x="957" 
d="M328 584h292l194 220h-270l-70 -76l-68 76h-270zM641 368l115 162h163v-465q0 -68 -23 -118.5t-73.5 -88.5t-138 -57.5t-210.5 -19.5q-122 0 -208.5 17t-135 49t-71 70t-26.5 87h372q10 -33 69 -33q44 0 61 21.5t17 81.5v50q-76 -89 -233 -89q-138 0 -219 70t-81 175v7
q0 117 83 190t233 73q125 0 204 -49.5t102 -132.5zM469 227q83 0 83 50q0 49 -83 49q-82 0 -82 -49q0 -50 82 -50z" />
    <glyph glyph-name="gcircumflex.ss03" horiz-adv-x="957" 
d="M619 804h-291l-194 -220h270l70 76l68 -76h270zM641 368l115 162h163v-465q0 -68 -23 -118.5t-73.5 -88.5t-138 -57.5t-210.5 -19.5q-122 0 -208.5 17t-135 49t-71 70t-26.5 87h372q10 -33 69 -33q44 0 61 21.5t17 81.5v50q-76 -89 -233 -89q-138 0 -219 70t-81 175v7
q0 117 83 190t233 73q125 0 204 -49.5t102 -132.5zM469 227q83 0 83 50q0 49 -83 49q-82 0 -82 -49q0 -50 82 -50z" />
    <glyph glyph-name="uni0123.ss03" horiz-adv-x="957" 
d="M484 792q96 -1 141.5 -31t45.5 -77q0 -48 -47.5 -78.5t-149.5 -30.5q-197 0 -197 117q0 107 114 181h215q-84 -43 -122 -81zM641 368l115 162h163v-465q0 -68 -23 -118.5t-73.5 -88.5t-138 -57.5t-210.5 -19.5q-122 0 -208.5 17t-135 49t-71 70t-26.5 87h372
q10 -33 69 -33q44 0 61 21.5t17 81.5v50q-76 -89 -233 -89q-138 0 -219 70t-81 175v7q0 117 83 190t233 73q125 0 204 -49.5t102 -132.5zM469 227q83 0 83 50q0 49 -83 49q-82 0 -82 -49q0 -50 82 -50z" />
    <glyph glyph-name="gdotaccent.ss03" horiz-adv-x="957" 
d="M671 694q0 123 -197 123t-197 -123t197 -123t197 123zM641 368l115 162h163v-465q0 -68 -23 -118.5t-73.5 -88.5t-138 -57.5t-210.5 -19.5q-122 0 -208.5 17t-135 49t-71 70t-26.5 87h372q10 -33 69 -33q44 0 61 21.5t17 81.5v50q-76 -89 -233 -89q-138 0 -219 70
t-81 175v7q0 117 83 190t233 73q125 0 204 -49.5t102 -132.5zM469 227q83 0 83 50q0 49 -83 49q-82 0 -82 -49q0 -50 82 -50z" />
    <glyph glyph-name="k.ss05" horiz-adv-x="923" 
d="M877 120l20 -50q21 -57 42 -70h-384q-26 14 -45 63l-20 48q-9 22 -20 29.5t-39 7.5h-30v-148h-363v730h363v-348h30q26 0 37 7.5t20 29.5l17 46q18 51 44 65h385q-15 -8 -22.5 -21.5t-21.5 -50.5l-20 -50q-28 -73 -64 -102t-103 -38v-2q70 -11 106.5 -38.5t67.5 -107.5z
" />
    <glyph glyph-name="uni0137.ss05" horiz-adv-x="923" 
d="M877 120l20 -50q21 -57 42 -70h-384q-26 14 -45 63l-20 48q-9 22 -20 29.5t-39 7.5h-30v-148h-363v730h363v-348h30q26 0 37 7.5t20 29.5l17 46q18 51 44 65h385q-15 -8 -22.5 -21.5t-21.5 -50.5l-20 -50q-28 -73 -64 -102t-103 -38v-2q70 -11 106.5 -38.5t67.5 -107.5z
M460 -255q-96 0 -141.5 30t-45.5 77q0 49 47 79t150 30q197 0 197 -116q0 -107 -114 -181h-215q83 41 122 81z" />
    <glyph glyph-name="g.ss10" horiz-adv-x="959" 
d="M20 90q0 46 41.5 78t146.5 45q-104 20 -145 59.5t-41 96.5v2q0 40 18.5 70t65.5 55.5t137 39t223 13.5q114 0 193 -9q4 113 53.5 172.5t131.5 59.5q42 0 79 -10v-223q-60 10 -89 10q-48 0 -57 -31q146 -40 146 -147v-2q0 -40 -19 -69.5t-67 -55t-141 -38.5t-230 -13h-120
q-46 0 -46 -19q0 -10 9.5 -14t37.5 -4h339q273 0 273 -157q0 -39 -13 -70t-47.5 -59.5t-90 -48t-144 -31t-206.5 -11.5q-112 0 -193 5.5t-126.5 14.5t-72 23t-34 27.5t-7.5 32.5q0 35 35 57.5t128 29.5q-168 19 -168 121zM388 370q0 -30 84 -30q85 0 85 30q0 15 -17.5 23
t-67.5 8q-49 0 -66.5 -8t-17.5 -23zM379 -62q48 -4 64.5 -3.5t97.5 6.5q109 7 99 17q-4 3 -27 7q-45 5 -66.5 5t-96.5 -6q-107 -6 -99 -18q3 -4 28 -8z" />
    <glyph glyph-name="f_t.dlig" horiz-adv-x="1383" 
d="M1189 213q74 0 164 10v-223q-130 -20 -247 -20q-184 0 -263.5 49.5t-93.5 168.5v19h-220v-217h-368v217h-145v244h145v5q0 48 4 81.5t16.5 68.5t36.5 57.5t62 41t95.5 27t134.5 8.5q86 0 200 -20v-217q-96 6 -112 6q-51 0 -66.5 -10.5t-15.5 -42.5v-5h228l138 234h218
v-165h253v-226h-253v-27q0 -40 16.5 -52t72.5 -12z" />
    <glyph glyph-name="t_t.dlig" horiz-adv-x="1430" 
d="M1399 530v-226h-253v-27q0 -40 16.5 -52t72.5 -12q73 0 165 10v-223q-130 -20 -247 -20q-143 0 -221.5 29t-109.5 89t-31 169v37h-284v-27q0 -40 15.5 -52t67.5 -12q68 0 138 10v-223q-100 -20 -213 -20q-142 0 -220 29t-109 89t-31 169v37h-142v226h169l111 165h214
v-165h311l110 165h218v-165h253z" />
    <glyph glyph-name="uni0406.ss04" horiz-adv-x="758" 
d="M731 0h-704v288h175v154h-175v288h704v-288h-175v-154h175v-288z" />
    <glyph glyph-name="uni0407.ss04" horiz-adv-x="758" 
d="M365 890q0 59 -39 92.5t-115 33.5t-115 -33.5t-39 -92.5q0 -54 39.5 -86.5t114.5 -32.5t114.5 32.5t39.5 86.5zM703 890q0 59 -39 92.5t-115 33.5t-115 -33.5t-39 -92.5q0 -54 39.5 -86.5t114.5 -32.5t114.5 32.5t39.5 86.5zM731 0h-704v288h175v154h-175v288h704v-288
h-175v-154h175v-288z" />
    <glyph glyph-name="uni0416.ss05" horiz-adv-x="1544" 
d="M1472 186l27 -85q12 -47 23 -66.5t31 -34.5h-399q-36 22 -54 91l-26 83q-10 29 -25 40.5t-48 11.5h-42v-226h-374v226h-41q-33 0 -48 -11t-26 -41l-25 -83q-18 -69 -54 -91h-399q20 15 30.5 34.5t22.5 66.5l27 85q15 50 35.5 83.5t47.5 53t54 29t65 15.5v2
q-73 12 -120 51.5t-78 127.5l-30 82q-17 53 -26 71t-26 29h402q27 -15 51 -85l30 -90q13 -31 26.5 -40.5t40.5 -9.5h41v225h374v-225h42q27 0 40 9.5t26 40.5l30 90q23 70 52 85h401q-17 -11 -26 -29t-27 -71l-29 -82q-32 -88 -78.5 -127.5t-118.5 -51.5v-2
q38 -6 64.5 -15.5t53.5 -29t47.5 -53t35.5 -83.5z" />
    <glyph glyph-name="uni041A.ss05" horiz-adv-x="1014" 
d="M941 188l28 -87q14 -49 24 -68t29 -33h-400q-36 22 -54 91l-25 83q-11 30 -26 41t-48 11h-50v-226h-379v730h379v-225h50q27 0 40 10t26 40l32 90q24 71 50 85h404q-18 -11 -27 -29t-26 -71l-30 -83q-31 -88 -81.5 -127t-128.5 -51v-2q84 -14 133.5 -49.5t79.5 -129.5z
" />
    <glyph glyph-name="uni040C.ss05" horiz-adv-x="1014" 
d="M377 784h232l214 220h-349zM941 188l28 -87q14 -49 24 -68t29 -33h-400q-36 22 -54 91l-25 83q-11 30 -26 41t-48 11h-50v-226h-379v730h379v-225h50q27 0 40 10t26 40l32 90q24 71 50 85h404q-18 -11 -27 -29t-26 -71l-30 -83q-31 -88 -81.5 -127t-128.5 -51v-2
q84 -14 133.5 -49.5t79.5 -129.5z" />
    <glyph glyph-name="uni042F.ss05" horiz-adv-x="995" 
d="M36 91v32q0 91 44 132t152 51v2q-92 15 -153 63t-61 136q0 102 91 162.5t293 60.5h553v-730h-366v212h-101q-25 0 -34.5 -10t-9.5 -37v-74q0 -61 -30 -91h-404q15 16 20.5 35t5.5 56zM455 402h134v78h-133q-61 0 -61 -39t60 -39z" />
    <glyph glyph-name="uni0416.ss06" horiz-adv-x="1544" 
d="M1472 186l27 -85q13 -48 23.5 -67.5t30.5 -33.5h-399q-36 22 -54 91l-26 83q-10 29 -25 40.5t-48 11.5h-42v-226h-374v226h-41q-33 0 -48 -11t-26 -41l-25 -83q-18 -69 -54 -91h-399q19 15 29.5 34t23.5 67l27 85q29 95 79.5 131.5t135.5 49.5v2q-79 11 -129.5 50.5
t-81.5 128.5l-30 82q-16 52 -25.5 70.5t-26.5 29.5h402q27 -15 51 -85l30 -90q13 -31 26.5 -40.5t40.5 -9.5h41v225h374v-225h42q27 0 40 9.5t26 40.5l30 90q23 70 52 85h401q-17 -11 -26.5 -29.5t-26.5 -70.5l-29 -82q-31 -89 -81 -128.5t-129 -50.5v-2q85 -13 135 -49.5
t79 -131.5z" />
    <glyph glyph-name="uni041A.ss06" horiz-adv-x="1014" 
d="M941 188l28 -87q14 -49 24 -68t29 -33h-400q-36 22 -54 91l-25 83q-11 30 -26 41t-48 11h-50v-226h-379v730h379v-225h50q27 0 40 10t26 40l32 90q24 71 50 85h404q-18 -11 -27 -29t-26 -71l-30 -83q-31 -88 -81.5 -127t-128.5 -51v-2q84 -14 133.5 -49.5t79.5 -129.5z
" />
    <glyph glyph-name="uni0431.loclSRB" horiz-adv-x="919" 
d="M488 429q100 -2 173.5 -13.5t121 -29.5t76 -45t40 -57.5t11.5 -70.5v-4q0 -37 -14 -69t-48 -62t-85.5 -51.5t-131 -34t-180.5 -12.5q-442 0 -442 181q0 123 222 160q-106 23 -150.5 71.5t-44.5 117.5q0 99 82.5 155t277.5 62l260 9q156 4 204 33v-254
q-22 -17 -61.5 -24.5t-142.5 -10.5l-228 -7q-35 -1 -53 -4t-22.5 -7t-4.5 -10q0 -7 6.5 -10.5t38.5 -7t95 -5.5zM460 202q82 0 82 48q0 49 -82 49t-82 -49q0 -48 82 -48z" />
    <glyph glyph-name="uni0430.ss02" horiz-adv-x="955" 
d="M636 368l117 162h163v-530h-163l-117 162q-26 -85 -103.5 -133.5t-198.5 -48.5q-150 0 -232.5 75t-82.5 202v16q0 127 82.5 202t232.5 75q121 0 198.5 -48.5t103.5 -133.5zM468 205q80 0 80 60t-80 60t-80 -60t80 -60z" />
    <glyph glyph-name="uni0436.ss05" horiz-adv-x="1394" 
d="M1347 123l21 -53q20 -56 42 -70h-384q-25 15 -44 63l-20 48q-9 22 -20 29.5t-39 7.5h-29v-148h-354v148h-29q-28 0 -39 -7.5t-20 -29.5l-20 -48q-17 -47 -44 -63h-384q21 13 42 70l21 53q29 75 68 104t116 39v2q-75 10 -111.5 38t-66.5 103l-20 49q-10 27 -14 36
t-11.5 19.5t-18.5 16.5h384q26 -14 44 -65l17 -46q9 -22 20 -29.5t37 -7.5h29v148h354v-148h29q26 0 37 7.5t20 29.5l17 46q18 51 44 65h384q-15 -8 -22.5 -21.5t-21.5 -50.5l-20 -49q-30 -75 -66.5 -103t-111.5 -38v-2q77 -10 116.5 -39.5t67.5 -103.5z" />
    <glyph glyph-name="uni043A.ss05" horiz-adv-x="923" 
d="M877 120l20 -50q21 -57 42 -70h-384q-26 14 -45 63l-20 48q-9 22 -20 29.5t-39 7.5h-30v-148h-363v530h363v-148h30q26 0 37 7.5t20 29.5l17 46q18 51 44 65h385q-15 -8 -22.5 -21.5t-21.5 -50.5l-20 -50q-28 -73 -64 -102t-103 -38v-2q70 -11 106.5 -38.5t67.5 -107.5z
" />
    <glyph glyph-name="uni045C.ss05" horiz-adv-x="923" 
d="M328 584h231l214 220h-349zM877 120l20 -50q21 -57 42 -70h-384q-26 14 -45 63l-20 48q-9 22 -20 29.5t-39 7.5h-30v-148h-363v530h363v-148h30q26 0 37 7.5t20 29.5l17 46q18 51 44 65h385q-15 -8 -22.5 -21.5t-21.5 -50.5l-20 -50q-29 -74 -70 -103t-125 -37v-2
q87 -9 128.5 -37t73.5 -109z" />
    <glyph glyph-name="uni044F.ss05" horiz-adv-x="889" 
d="M388 530h463v-530h-338v137h-69q-35 0 -35 -34v-10q0 -69 -29 -93h-376q17 16 21.5 32t4.5 51v4q0 67 36.5 96t140.5 38v2q-80 12 -132 47.5t-52 98.5q0 37 16 64.5t55 50.5t112.5 34.5t181.5 11.5zM427 293h86v57h-86q-27 0 -37 -6.5t-10 -22.5q0 -28 47 -28z" />
    <glyph glyph-name="uni0436.ss06" horiz-adv-x="1394" 
d="M1347 123l21 -53q20 -56 42 -70h-384q-25 15 -44 63l-20 48q-9 22 -20 29.5t-39 7.5h-29v-148h-354v148h-29q-28 0 -39 -7.5t-20 -29.5l-20 -48q-17 -47 -44 -63h-384q21 13 42 70l21 53q29 75 68 104t116 39v2q-75 10 -111.5 38t-66.5 103l-20 49q-10 27 -14 36
t-11.5 19.5t-18.5 16.5h384q26 -14 44 -65l17 -46q9 -22 20 -29.5t37 -7.5h29v348h354v-348h29q26 0 37 7.5t20 29.5l17 46q18 51 44 65h384q-15 -8 -22.5 -21.5t-21.5 -50.5l-20 -49q-30 -75 -66.5 -103t-111.5 -38v-2q77 -10 116.5 -39.5t67.5 -103.5z" />
    <glyph glyph-name="uni043A.ss06" horiz-adv-x="923" 
d="M877 120l20 -50q21 -57 42 -70h-384q-26 14 -45 63l-20 48q-9 22 -20 29.5t-39 7.5h-30v-148h-363v730h363v-348h30q26 0 37 7.5t20 29.5l17 46q18 51 44 65h385q-15 -8 -22.5 -21.5t-21.5 -50.5l-20 -50q-28 -73 -64 -102t-103 -38v-2q70 -11 106.5 -38.5t67.5 -107.5z
" />
    <glyph glyph-name="uni0436.ss07" horiz-adv-x="1395" 
d="M1415 0h-410l-102 189l-26 -37v-152h-359v152l-26 37l-102 -189h-411l179 297l-175 233h422l113 -179v379h358l1 -379l113 179h422l-175 -233z" />
    <glyph glyph-name="uni043A.ss07" horiz-adv-x="925" 
d="M945 0h-411l-96 188l-38 -47v-141h-362v730h362v-387l120 187h421l-168 -232z" />
    <glyph glyph-name="zero.tf" horiz-adv-x="1030" 
d="M515 -20q-247 0 -372.5 100.5t-125.5 266.5v36q0 166 125.5 266.5t372.5 100.5t372.5 -100.5t125.5 -266.5v-36q0 -166 -125.5 -266.5t-372.5 -100.5zM515 270q52 0 79 24t27 67v8q0 43 -27 67t-79 24t-79 -24t-27 -67v-8q0 -43 27 -67t79 -24z" />
    <glyph glyph-name="one.tf" horiz-adv-x="1030" 
d="M730 730v-468h255v-262h-915v262h273v102h-213v247l129 7q68 3 101 24.5t61 87.5h309z" />
    <glyph glyph-name="two.tf" horiz-adv-x="1030" 
d="M426 255h574v-255h-966v147q0 133 78 193.5t288 75.5q93 8 141 16.5t58.5 15.5t10.5 18q0 30 -84 30q-85 0 -96 -42h-390q9 131 128.5 213.5t358.5 82.5q243 0 351.5 -66t108.5 -171q0 -47 -18 -80t-67 -62.5t-142.5 -48t-236.5 -28.5q-60 -9 -78 -17t-19 -22z" />
    <glyph glyph-name="three.tf" horiz-adv-x="1030" 
d="M28 300h382q4 -33 30 -50t86 -17q104 0 104 33q0 10 -5.5 15.5t-26 9.5t-58.5 4h-76v141h76q43 0 57.5 7t14.5 21q0 33 -91 33q-101 0 -109 -67h-382q23 320 505 320q124 0 216.5 -18.5t143 -50t74 -68t23.5 -77.5q0 -73 -55 -114t-146 -54v-2q96 -13 159.5 -58
t63.5 -121q0 -39 -23.5 -74t-75.5 -66t-148 -49t-227 -18q-135 0 -233.5 23t-157 66.5t-87.5 100t-34 130.5z" />
    <glyph glyph-name="four.tf" horiz-adv-x="1030" 
d="M878 342h140v-252h-140v-90h-375v90h-482v224l434 416h423v-388zM503 482l-148 -140h148v140z" />
    <glyph glyph-name="five.tf" horiz-adv-x="1030" 
d="M676 453q173 0 257 -61.5t84 -162.5q0 -53 -24.5 -95.5t-78.5 -78.5t-151.5 -55.5t-232.5 -19.5q-138 0 -235 19.5t-153.5 58.5t-83 88.5t-31.5 117.5h400q23 -32 106 -32q98 0 98 50q0 49 -94 49q-46 0 -68 -7t-40 -23h-397l59 429h874v-245h-547l-14 -100q80 68 272 68
z" />
    <glyph glyph-name="six.tf" horiz-adv-x="1030" 
d="M673 441q172 0 257 -61t85 -156q0 -50 -25.5 -92t-80 -77t-154 -55t-234.5 -20q-268 0 -384.5 90.5t-116.5 270.5v41q0 175 122 271.5t381 96.5q101 0 182 -15t135.5 -41t92.5 -62.5t57 -78t24 -89.5h-407q-19 36 -94 36q-58 0 -84.5 -28t-26.5 -91v-9q88 69 271 69z
M517 231q107 0 107 41q0 42 -107 42t-107 -42q0 -41 107 -41z" />
    <glyph glyph-name="seven.tf" horiz-adv-x="1030" 
d="M40 451v279h947v-252q-250 -146 -304 -478h-431q28 140 100 257t181 194h-493z" />
    <glyph glyph-name="eight.tf" horiz-adv-x="1030" 
d="M13 194q0 75 59.5 116.5t151.5 54.5v2q-83 12 -136 54t-53 112q0 33 14.5 62.5t49.5 58t88.5 49.5t137.5 34t190 13t190 -13t137.5 -34t88.5 -49.5t49.5 -58t14.5 -62.5q0 -70 -54 -112t-142 -54v-2q96 -13 157 -54.5t61 -116.5q0 -32 -14.5 -61.5t-50.5 -58t-91.5 -49
t-144 -33t-201.5 -12.5t-201.5 12.5t-144 33t-91.5 49t-50.5 58t-14.5 61.5zM413 464q0 -33 102 -33t102 33q0 35 -102 35t-102 -35zM398 266q0 -35 117 -35t117 35q0 33 -117 33t-117 -33z" />
    <glyph glyph-name="nine.tf" horiz-adv-x="1030" 
d="M509 750q268 0 384.5 -90.5t116.5 -270.5v-41q0 -175 -121.5 -271.5t-380.5 -96.5q-101 0 -182 15t-136 41t-93 62.5t-57 78t-24 89.5h407q9 -17 28.5 -26.5t65.5 -9.5q58 0 84.5 28t26.5 91v9q-88 -69 -271 -69q-172 0 -257 61t-85 156q0 50 25.5 92t80 77t154 55
t234.5 20zM513 416q107 0 107 42q0 41 -107 41q-106 0 -106 -41q0 -42 106 -42z" />
    <glyph glyph-name="zero.dnom" 
d="M264 -11q-122 0 -188.5 60t-66.5 159v21q0 100 66.5 160t188.5 60t188 -60t66 -160v-21q0 -99 -66 -159t-188 -60zM264 159q50 0 50 57v6q0 57 -50 57q-51 0 -51 -57v-6q0 -57 51 -57z" />
    <glyph glyph-name="one.dnom" 
d="M375 438v-280h120v-158h-460v158h138v63h-106v148l54 4q51 3 68.5 15t30.5 50h155z" />
    <glyph glyph-name="two.dnom" 
d="M226 155l286 -1v-154h-497v95q0 73 46 109t169 45q33 4 50.5 9t22 9t4.5 10q0 18 -41 18q-46 0 -50 -28h-200q4 81 67.5 131.5t184.5 50.5q119 0 177.5 -40.5t58.5 -100.5q0 -56 -47.5 -88.5t-168.5 -40.5q-38 -5 -49.5 -10t-12.5 -14z" />
    <glyph glyph-name="three.dnom" 
d="M13 181h197q2 -38 57 -38q50 0 50 18q0 15 -44 15h-38v86h38q36 0 36 15q0 18 -43 18q-53 0 -56 -38h-197q3 90 67 141t193 51q116 0 173 -37t57 -87q0 -47 -39.5 -76t-111.5 -29v-2q80 0 121.5 -29t41.5 -77q0 -51 -58.5 -87t-181.5 -36q-132 0 -196 51t-66 141z" />
    <glyph glyph-name="four.dnom" 
d="M453 203h65v-145h-65v-58h-200v58h-248v133l220 247h228v-235zM253 293l-82 -90h82v90z" />
    <glyph glyph-name="five.dnom" 
d="M345 273q83 0 127.5 -37t44.5 -96q0 -65 -61 -108t-185 -43q-252 0 -257 172h209q10 -17 51 -17q44 0 44 28q0 27 -43 27q-35 0 -52 -15h-209l33 254h445v-148h-281l-7 -60q48 43 141 43z" />
    <glyph glyph-name="six.dnom" 
d="M346 262q83 0 127 -35.5t44 -88.5q0 -64 -61 -106.5t-187 -42.5q-257 0 -257 213v28q0 102 64.5 160.5t189.5 58.5q124 0 185.5 -47t64.5 -126h-207q-7 20 -46 20q-29 0 -41 -15t-12 -54v-3q47 38 136 38zM266 144q51 0 51 22q0 23 -51 23q-53 0 -53 -23q0 -22 53 -22z
" />
    <glyph glyph-name="seven.dnom" 
d="M16 273v165h492v-142q-68 -44 -104 -116.5t-52 -179.5h-240q30 172 153 273h-249z" />
    <glyph glyph-name="eight.dnom" 
d="M10 112q0 44 38.5 75t100.5 32v1q-59 1 -93 30.5t-34 72.5q0 54 57.5 90t184.5 36q125 0 183 -36t58 -90q0 -42 -35 -72t-92 -31v-1q63 -1 100.5 -32t37.5 -75q0 -52 -59.5 -87.5t-192.5 -35.5q-134 0 -194 35.5t-60 87.5zM212 276q0 -18 51 -18q52 0 52 18q0 20 -52 20
q-51 0 -51 -20zM206 162q0 -20 57 -20q58 0 58 20q0 19 -58 19q-57 0 -57 -19z" />
    <glyph glyph-name="nine.dnom" 
d="M258 449q257 0 257 -213v-28q0 -102 -64.5 -160.5t-189.5 -58.5t-186.5 47t-64.5 126h208q6 -20 46 -20q29 0 41 15t12 54v3q-49 -38 -137 -38q-82 0 -126 35.5t-44 88.5q0 64 61.5 106.5t186.5 42.5zM261 250q52 0 52 22t-52 22t-52 -22t52 -22z" />
    <glyph glyph-name="zero.numr" 
d="M264 283q-122 0 -188.5 60t-66.5 159v21q0 100 66.5 160t188.5 60t188 -60t66 -160v-21q0 -99 -66 -159t-188 -60zM264 453q50 0 50 57v6q0 57 -50 57q-51 0 -51 -57v-6q0 -57 51 -57z" />
    <glyph glyph-name="one.numr" 
d="M375 730v-280h120v-158h-460v158h138v63h-106v148l54 4q51 3 68.5 15t30.5 50h155z" />
    <glyph glyph-name="two.numr" 
d="M226 447h286v-155h-497v95q0 73 46 109t169 45q33 4 50.5 9t22 9t4.5 10q0 18 -41 18q-46 0 -50 -28h-200q4 81 67 131.5t185 50.5q120 0 178 -40t58 -101q0 -56 -47.5 -87.5t-168.5 -40.5q-38 -6 -49.5 -11t-12.5 -14z" />
    <glyph glyph-name="three.numr" 
d="M13 473h197q2 -38 57 -38q50 0 50 19q0 15 -44 15h-38v85h38q36 0 36 15q0 18 -43 18q-53 0 -56 -37h-197q3 90 67 140.5t193 50.5q116 0 173 -36.5t57 -86.5q0 -47 -39.5 -76.5t-111.5 -29.5v-1q80 0 121.5 -29t41.5 -77q0 -51 -58.5 -87.5t-181.5 -36.5q-132 0 -196 51
t-66 141z" />
    <glyph glyph-name="four.numr" 
d="M453 495h65v-145h-65v-58h-200v58h-248v133l220 247h228v-235zM253 585l-82 -90h82v90z" />
    <glyph glyph-name="five.numr" 
d="M345 565q83 0 127.5 -37t44.5 -96q0 -65 -61 -108t-185 -43q-252 0 -257 172h209q10 -17 51 -17q44 0 44 28q0 27 -43 27q-35 0 -52 -15h-209l33 254h445v-148h-281l-7 -60q48 43 141 43z" />
    <glyph glyph-name="six.numr" 
d="M346 554q83 0 127 -35.5t44 -88.5q0 -64 -61 -106.5t-187 -42.5q-257 0 -257 213v28q0 102 64.5 160.5t189.5 58.5t186 -46.5t64 -126.5h-207q-6 20 -46 20q-29 0 -41 -14.5t-12 -53.5v-4q47 38 136 38zM266 436q51 0 51 22q0 23 -51 23q-53 0 -53 -23q0 -22 53 -22z" />
    <glyph glyph-name="seven.numr" 
d="M16 565v165h492v-142q-68 -44 -104 -116.5t-52 -179.5h-240q30 172 153 273h-249z" />
    <glyph glyph-name="eight.numr" 
d="M10 404q0 44 39 75t100 32v1q-59 1 -93 31t-34 72q0 54 57.5 90t184.5 36q125 0 183 -36t58 -90q0 -42 -35 -72t-92 -31v-1q63 -1 100.5 -32t37.5 -75q0 -52 -59.5 -87.5t-192.5 -35.5q-134 0 -194 35.5t-60 87.5zM212 568q0 -18 51 -18q52 0 52 18q0 20 -52 20
q-51 0 -51 -20zM206 455q0 -20 57 -20q58 0 58 20q0 18 -58 18q-57 0 -57 -18z" />
    <glyph glyph-name="nine.numr" 
d="M258 741q257 0 257 -213v-27q0 -103 -64.5 -161.5t-189.5 -58.5t-186.5 47t-64.5 126h208q6 -20 46 -20q29 0 41 15t12 54v3q-49 -38 -137 -38q-82 0 -126 35.5t-44 88.5q0 64 61.5 106.5t186.5 42.5zM261 542q52 0 52 22q0 23 -52 23t-52 -23q0 -22 52 -22z" />
    <glyph glyph-name="colon.case" horiz-adv-x="419" 
d="M397 523q0 127 -188 127q-187 0 -187 -127t187 -127q188 0 188 127zM397 208q0 126 -188 126q-187 0 -187 -126q0 -127 187 -127q188 0 188 127z" />
    <glyph glyph-name="semicolon.case" horiz-adv-x="419" 
d="M209 396q-187 0 -187 127t187 127q188 0 188 -127t-188 -127zM209 334q188 0 188 -130q-1 -106 -122 -245h-204q75 69 110 122q-159 10 -159 126q0 127 187 127z" />
    <glyph glyph-name="exclamdown.case" horiz-adv-x="481" 
d="M439 622q0 127 -199 127q-198 0 -198 -127t198 -127q199 0 199 127zM87 466h308l42 -266v-200h-392v200z" />
    <glyph glyph-name="questiondown.case" horiz-adv-x="941" 
d="M265 622q0 -127 199 -127q198 0 198 127t-198 127q-199 0 -199 -127zM674 384q0 -33 -30 -53t-73 -26.5t-85.5 -9.5t-72.5 -10t-30 -21q0 -32 87 -32q91 0 99 42h383q-4 -61 -34 -112.5t-87 -93t-152.5 -65t-220.5 -23.5q-122 0 -212.5 19.5t-141.5 54t-75 76.5t-24 92
t30 83.5t72.5 48.5t85.5 24t73 19t30 26q0 17 -18 43h363q33 -40 33 -82z" />
    <glyph glyph-name="periodcentered.case" horiz-adv-x="419" 
d="M397 374q0 151 -188 151q-187 0 -187 -151q0 -155 187 -155q188 0 188 155z" />
    <glyph glyph-name="bullet.case" horiz-adv-x="585" 
d="M539 365q0 111 -63 172t-184 61q-120 0 -183 -61t-63 -172q0 -112 63 -173.5t183 -61.5t183.5 61.5t63.5 173.5z" />
    <glyph glyph-name="parenleft.case" horiz-adv-x="531" 
d="M35 339v53q0 220 114.5 329t353.5 109v-278q-61 0 -91.5 -31.5t-30.5 -102.5v-105q0 -72 30.5 -103.5t91.5 -31.5v-278q-239 0 -353.5 109t-114.5 330z" />
    <glyph glyph-name="parenright.case" horiz-adv-x="531" 
d="M496 392v-53q0 -221 -115 -330t-354 -109v278q61 0 91.5 31.5t30.5 103.5v105q0 71 -30.5 102.5t-91.5 31.5v278q239 0 354 -109t115 -329z" />
    <glyph glyph-name="braceleft.case" horiz-adv-x="633" 
d="M22 241v248q108 0 132.5 22.5t-9.5 78.5l-7 27q-27 59 -22 106t50 77t120 30h319v-263h-123q-43 0 -23 -41l5 -15q16 -34 14.5 -62t-34 -50.5t-94.5 -32.5v-2q62 -10 94.5 -32.5t34 -50.5t-14.5 -62l-5 -15q-20 -41 23 -41h123v-263h-319q-75 0 -120 30t-50 77t22 106
l7 27q34 56 9.5 78.5t-132.5 22.5z" />
    <glyph glyph-name="braceright.case" horiz-adv-x="633" 
d="M611 489v-248q-108 0 -132.5 -22.5t9.5 -78.5l7 -27q27 -59 22 -106t-50 -77t-121 -30h-319v263h124q43 0 23 41l-5 15q-16 34 -14.5 62t34 50.5t94.5 32.5v2q-62 10 -94.5 32.5t-34 50.5t14.5 62l5 15q20 41 -23 41h-124v263h319q76 0 121 -30t50 -77t-22 -106l-7 -27
q-34 -56 -9.5 -78.5t132.5 -22.5z" />
    <glyph glyph-name="bracketleft.case" horiz-adv-x="621" 
d="M594 -100h-544v930h544v-269h-184v-392h184v-269z" />
    <glyph glyph-name="bracketright.case" horiz-adv-x="622" 
d="M572 830v-930h-545v269h185v392h-185v269h545z" />
    <glyph glyph-name="hyphen.case" horiz-adv-x="614" 
d="M41 226v278h532v-278h-532z" />
    <glyph glyph-name="endash.case" horiz-adv-x="756" 
d="M0 226v278h756v-278h-756z" />
    <glyph glyph-name="emdash.case" horiz-adv-x="1203" 
d="M0 226v278h1203v-278h-1203z" />
    <glyph glyph-name="guillemotleft.case" horiz-adv-x="1074" 
d="M8 365l214 215h394l-222 -215l222 -215h-394zM457 365l214 215h394l-222 -215l222 -215h-394z" />
    <glyph glyph-name="guillemotright.case" horiz-adv-x="1074" 
d="M8 580h395l213 -215l-213 -215h-395l222 215zM457 580h394l214 -215l-214 -215h-394l222 215z" />
    <glyph glyph-name="guilsinglleft.case" horiz-adv-x="625" 
d="M8 365l214 215h394l-222 -215l222 -215h-394z" />
    <glyph glyph-name="guilsinglright.case" horiz-adv-x="625" 
d="M8 580h395l213 -215l-213 -215h-395l222 215z" />
    <glyph glyph-name="at.case" horiz-adv-x="1345" 
d="M810 456l106 172h137v-297q0 -39 14 -54.5t48 -15.5q85 0 85 109q0 166 -129.5 264.5t-397.5 98.5q-267 0 -398 -100.5t-131 -268.5q0 -166 130.5 -266t394.5 -100q99 0 190.5 15t133.5 30l42 15l1 -122q-17 -6 -48 -15t-127 -23.5t-192 -14.5q-159 0 -282.5 36.5
t-201 101.5t-117 152t-39.5 192t40 192t117.5 152.5t202 102t284.5 36.5q318 0 480.5 -132t162.5 -352q0 -144 -71.5 -214.5t-220.5 -71.5q-205 -1 -256 149q-32 -68 -94 -108.5t-138 -40.5q-129 0 -214 80t-85 196v19q0 115 85 195t214 80q103 0 176.5 -53t97.5 -139z
M671 302q80 0 80 59q0 60 -80 60q-81 0 -81 -60q0 -59 81 -59z" />
    <glyph glyph-name="ampersand.ss09" horiz-adv-x="1102" 
d="M910 172l207 -173l-392 -1l-40 37q-134 -55 -290 -55q-200 0 -294 65.5t-94 173.5q0 93 63 149.5t175 56.5q12 0 18 -1l-155 104v201h865v-248h-430l146 -123q25 30 49 81h374q-79 -156 -202 -267zM420 213q35 0 72 10l-34 30q-44 43 -91 43q-45 0 -45 -38q0 -45 98 -45z
" />
    <glyph glyph-name="uni0308.case" horiz-adv-x="0" 
d="M-438 890q0 59 -39 92.5t-115 33.5t-115 -33.5t-39 -92.5q0 -54 39.5 -86.5t114.5 -32.5t114.5 32.5t39.5 86.5zM-100 890q0 59 -39 92.5t-115 33.5t-115 -33.5t-39 -92.5q0 -54 39.5 -86.5t114.5 -32.5t114.5 32.5t39.5 86.5z" />
    <glyph glyph-name="uni0306.case" horiz-adv-x="0" 
d="M-768 1009h237q0 -3 0.5 -7t5 -15t13.5 -19.5t29.5 -15.5t48.5 -7t48.5 6.5t29.5 16t13.5 19t4.5 15.5l1 7h237q0 -5 -0.5 -13t-7 -32t-17.5 -45.5t-36 -48t-59 -45.5t-89.5 -32t-124.5 -13t-124.5 12.5t-89.5 33t-59 44.5t-36 48.5t-17.5 45t-7.5 32.5v13z" />
    <glyph glyph-name="brevecombcy" horiz-adv-x="0" 
d="M-760 804h236q0 -3 0.5 -7t5 -15.5t13.5 -20t28.5 -15.5t46.5 -7t46.5 6.5t28 16.5t13.5 19.5t5 16.5v6h237q0 -58 -40 -114q-81 -115 -290 -115q-68 0 -123 12.5t-88.5 33t-58.5 45t-36 48.5t-17 44.5t-7 33.5v12z" />
    <glyph glyph-name="brevecombcy.case" horiz-adv-x="0" 
d="M-768 1009h237q0 -3 0.5 -7t5 -15t13.5 -19.5t29.5 -15.5t48.5 -7t48.5 6.5t29.5 16t13.5 19t4.5 15.5l1 7h237q0 -5 -0.5 -13t-7 -32t-17.5 -45.5t-36 -48t-59 -45.5t-89.5 -32t-124.5 -13t-124.5 12.5t-89.5 33t-59 44.5t-36 48.5t-17.5 45t-7.5 32.5v13z" />
    <glyph glyph-name="LargewhiteSquare" horiz-adv-x="870" 
d="M70 0v730h730v-730h-730zM752 682h-634v-634h634v634z" />
    <glyph glyph-name="LargewhiteCircle" horiz-adv-x="891" 
d="M445 -20q-161 0 -273 112t-112 273t112 273t273 112t273.5 -112.5t112.5 -272.5t-112.5 -272.5t-273.5 -112.5zM445 28q140 0 239 98.5t99 238.5t-99 238.5t-239 98.5q-139 0 -238 -99t-99 -238t99 -238t238 -99z" />
    <glyph glyph-name="LargeblackSquare" horiz-adv-x="870" 
d="M70 0v730h730v-730h-730z" />
    <glyph glyph-name="LargeblackCircle" horiz-adv-x="891" 
d="M445 -20q-160 0 -272.5 112.5t-112.5 272.5t112.5 272.5t272.5 112.5q161 0 273.5 -112.5t112.5 -272.5t-112.5 -272.5t-273.5 -112.5z" />
    <glyph glyph-name="line" horiz-adv-x="1109" 
d="M-40 216v297h1188v-297h-1188z" />
    <glyph glyph-name="IJacute" horiz-adv-x="1401" 
d="M111 784h231l214 220h-348zM812 784h232l214 220h-349zM431 730v-730h-391v730h391zM472 333h388q2 -31 16 -44.5t45 -13.5q59 0 59 50v120h-465v285h850v-420q0 -330 -443 -330q-232 0 -338 88.5t-112 264.5z" />
    <glyph glyph-name="IJacute.ss04" horiz-adv-x="1689" 
d="M254 784h232l214 220h-349zM1100 784h232l213 220h-348zM731 0h-704v288h175v154h-175v288h704v-288h-175v-154h175v-288zM759 333h389q1 -31 15.5 -44.5t45.5 -13.5q58 0 58 50v120h-464v285h849v-420q0 -330 -442 -330q-232 0 -338 88.5t-113 264.5z" />
    <glyph glyph-name="ijacute" horiz-adv-x="893" 
d="M98 584h232l214 220h-349zM547 584h232l214 220h-349zM406 0h-368v530h368v-530zM487 530h369v-506q0 -143 -78.5 -214.5t-246.5 -71.5q-108 0 -203 13v219q70 -4 97 -4q35 0 48.5 14t13.5 53v497z" />
    </font>
</defs>
</svg>
